<?xml version="1.0" standalone="no"?>
<!DOCTYPE svg PUBLIC "-//W3C//DTD SVG 20010904//EN"
 "http://www.w3.org/TR/2001/REC-SVG-20010904/DTD/svg10.dtd">
<svg version="1.0" xmlns="http://www.w3.org/2000/svg"
 width="640.000000pt" height="640.000000pt" viewBox="0 0 640.000000 640.000000"
 preserveAspectRatio="xMidYMid meet">

<g transform="translate(0.000000,640.000000) scale(0.100000,-0.100000)"
fill="#000000" stroke="none">
<path d="M0 5961 l0 -438 69 5 c109 7 108 -26 -2 -84 -58 -31 -68 -39 -52 -45
19 -6 19 -7 2 -14 -17 -7 -18 -32 -16 -416 0 -225 5 -407 9 -404 5 3 23 -19
40 -47 18 -29 46 -70 63 -91 16 -21 27 -40 24 -43 -5 -5 -74 87 -84 111 -2 8
-11 11 -20 8 -8 -3 -19 0 -24 8 -5 8 -9 -463 -9 -1128 0 -756 3 -1143 10
-1143 6 0 10 -7 10 -15 0 -8 -5 -15 -10 -15 -6 0 -10 -26 -9 -60 1 -54 3 -59
18 -48 13 11 13 9 -2 -14 -14 -23 -17 -52 -17 -172 0 -86 4 -147 10 -151 6 -3
10 -11 10 -16 0 -6 -4 -8 -10 -4 -6 4 -9 -103 -10 -290 l0 -295 40 -40 c22
-22 40 -48 40 -57 0 -10 20 -33 43 -50 64 -49 134 -116 116 -110 -13 4 -16 0
-12 -16 3 -12 -9 2 -26 30 -23 39 -50 65 -109 104 -42 29 -80 57 -84 63 -4 6
-8 -55 -8 -135 0 -144 0 -146 28 -185 79 -109 123 -176 119 -180 -2 -3 -14 10
-26 28 -11 18 -21 26 -21 18 0 -22 79 -110 98 -109 14 0 12 3 -6 16 -21 14
-21 17 -7 33 9 9 19 37 23 61 7 41 10 44 37 42 17 -1 41 -4 55 -7 14 -2 27 -5
30 -5 3 -1 4 -19 2 -42 -3 -29 -10 -43 -26 -50 -11 -6 -29 -22 -40 -36 -18
-25 -18 -25 1 -19 13 4 29 -1 44 -14 14 -11 17 -18 8 -14 -11 3 -18 -2 -22
-17 -4 -13 -9 -20 -13 -16 -4 4 -16 0 -26 -10 -10 -9 -18 -12 -18 -6 0 6 -12
8 -26 5 -16 -3 -36 3 -53 16 -26 19 -29 19 -45 4 -15 -15 -16 -15 -16 3 0 17
-2 18 -11 5 -8 -11 -12 -12 -16 -2 -2 6 -9 10 -14 6 -5 -3 -9 9 -9 25 0 21 -5
31 -15 31 -8 0 -15 5 -15 10 0 6 -5 10 -10 10 -12 0 -8 -92 4 -125 6 -16 6
-17 -3 -5 -8 11 -11 -44 -11 -202 l0 -218 328 0 c311 0 326 1 306 18 -12 9
-46 38 -76 65 -31 26 -61 47 -69 47 -11 0 -11 -2 1 -10 19 -13 8 -13 -24 0
-43 16 -29 25 42 26 181 2 482 18 482 26 0 4 -6 8 -14 8 -7 0 -35 12 -60 28
-26 15 -62 35 -79 45 -29 16 -29 17 -7 13 68 -12 177 -35 193 -41 20 -8 24 14
5 33 -17 17 17 16 68 -1 46 -15 50 -15 161 7 12 3 33 12 47 21 14 9 31 13 37
9 7 -4 9 -3 5 4 -3 6 -2 13 4 17 16 10 12 56 -7 77 -18 20 -5 25 18 5 12 -10
12 -10 1 3 -9 11 -30 14 -81 11 -67 -3 -117 11 -106 28 2 5 -8 11 -23 14 -21
4 -33 16 -45 44 -19 44 -30 133 -16 133 5 0 9 -8 10 -17 0 -15 2 -15 9 2 7 17
9 17 9 3 1 -20 45 -26 56 -8 3 6 -3 10 -13 10 -16 0 -19 5 -15 21 6 20 7 20
18 5 14 -19 37 -22 29 -3 -4 10 11 12 74 5 43 -4 89 -11 103 -16 27 -10 49 -6
49 10 0 5 -10 7 -22 3 -22 -6 -22 -5 -5 8 10 9 28 12 40 9 21 -5 21 -5 -3 21
-14 15 -31 27 -37 27 -7 0 -13 6 -13 14 0 8 -9 17 -19 21 -17 5 -112 64 -176
108 -18 13 -17 14 15 10 34 -4 34 -4 15 13 -18 15 -18 16 -2 10 10 -3 21 -6
23 -6 2 0 4 -6 4 -14 0 -9 7 -12 19 -9 17 4 43 -6 101 -38 8 -5 35 -20 60 -33
25 -14 63 -41 85 -61 22 -19 44 -35 50 -35 5 0 -1 9 -14 19 -23 18 -23 18 -2
24 34 8 24 27 -14 27 -19 0 -35 4 -35 9 0 11 51 12 65 1 6 -4 34 -11 62 -15
57 -7 196 12 187 27 -3 4 3 11 12 15 10 4 19 2 21 -4 2 -6 18 -8 42 -3 31 5
38 4 34 -7 -3 -7 -16 -13 -29 -13 -13 0 -24 -5 -24 -11 0 -6 9 -8 21 -4 14 5
25 2 31 -6 7 -11 8 -9 6 6 -2 14 8 24 37 38 l39 19 23 -26 c13 -15 23 -21 23
-14 0 8 -5 19 -11 25 -17 17 -1 37 17 22 12 -10 14 2 15 77 1 63 4 80 9 59 7
-29 8 -29 10 -5 2 21 4 20 10 -10 l7 -35 3 40 c2 39 2 39 16 -20 7 -33 13 -72
14 -87 0 -16 5 -28 11 -28 5 0 7 -5 3 -12 -8 -13 12 -3 38 19 9 8 22 13 30 12
25 -3 39 1 34 10 -8 13 37 21 139 26 49 2 91 8 95 14 3 6 25 12 49 14 36 2 41
5 37 21 -5 18 -4 18 11 3 14 -14 14 -18 2 -34 -13 -17 -13 -17 4 -4 15 12 20
12 26 2 5 -8 11 3 15 30 4 24 11 49 17 55 7 9 7 24 0 48 -5 20 -7 36 -5 36 3
0 22 -8 44 -19 l38 -18 26 26 c54 53 24 7 -34 -54 l-61 -63 68 -107 c52 -81
67 -114 64 -136 -2 -25 6 -39 49 -82 76 -76 96 -107 79 -119 -11 -8 -11 -9 2
-5 9 3 23 -5 34 -19 19 -26 41 -33 32 -11 -4 10 7 13 43 13 26 -1 43 -4 37 -8
-8 -5 -7 -8 4 -8 9 0 19 3 23 7 3 4 38 8 77 9 53 2 71 -1 76 -11 8 -23 69 -34
174 -34 105 1 119 -4 221 -72 111 -75 308 -230 303 -239 -2 -4 3 -14 13 -21
15 -13 16 -12 3 4 -22 28 3 19 33 -12 24 -24 26 -32 17 -50 l-12 -21 286 0
287 0 -33 27 c-19 16 -41 35 -49 43 -9 9 -47 41 -85 73 -232 189 -675 571
-669 576 2 3 10 -1 16 -7 14 -14 32 -16 24 -4 -3 5 9 8 27 7 18 -2 38 3 46 9
9 7 12 7 9 0 -4 -6 6 -10 28 -11 19 -1 34 2 34 7 0 4 11 5 24 3 14 -3 41 1 62
7 28 10 39 10 42 1 6 -17 42 -13 42 5 0 12 3 14 13 6 13 -11 64 -5 73 9 8 13
52 11 58 -3 5 -10 7 -10 12 -1 4 9 11 9 29 1 19 -8 27 -7 40 6 9 9 26 14 38
12 80 -16 82 -17 67 -6 -11 7 -3 9 30 4 25 -3 50 -7 57 -9 7 -2 15 0 19 6 11
18 48 27 67 17 30 -15 110 -19 119 -5 6 9 8 9 8 0 0 -10 6 -10 27 0 21 9 27 9
31 -1 4 -14 52 -16 52 -2 0 14 36 12 52 -2 7 -8 42 -13 82 -14 43 -1 71 -6 76
-14 6 -10 15 -9 40 4 19 9 55 15 84 15 42 -1 46 -3 21 -8 -26 -6 -27 -8 -10
-13 11 -3 45 -5 75 -4 40 2 62 -3 79 -16 36 -27 44 -23 38 22 -3 22 -2 38 3
35 9 -5 23 -113 23 -177 0 -35 -7 -58 -27 -86 -14 -21 -26 -43 -26 -49 0 -7
-14 -34 -31 -61 -24 -38 -38 -52 -62 -56 -18 -3 -36 -5 -40 -3 -16 4 -28 -32
-17 -52 16 -30 12 -41 -14 -41 -42 0 -40 -20 3 -37 23 -9 41 -23 41 -31 0 -8
-17 -30 -37 -48 -31 -28 -34 -34 -20 -40 9 -3 47 -2 83 3 35 5 67 6 70 2 3 -5
-13 -12 -36 -15 -86 -14 -36 -27 170 -44 47 -4 75 -8 63 -9 -13 0 -23 -6 -23
-12 0 -14 141 -7 180 9 14 6 34 13 45 17 35 11 -5 25 -80 26 l-70 2 65 9 c139
19 125 10 124 81 0 36 5 71 13 85 12 20 10 36 -20 140 -19 64 -45 156 -58 204
-19 68 -28 88 -41 88 -13 0 -18 -8 -18 -25 0 -39 -14 -29 -29 19 -7 25 -18 47
-24 50 -8 3 -8 8 3 15 8 5 18 7 23 4 6 -3 0 7 -11 23 -25 35 -65 151 -57 165
4 5 2 9 -4 9 -5 0 -12 15 -16 32 -11 51 -31 77 -55 71 -12 -3 -20 0 -20 6 0 7
5 9 10 6 6 -3 10 -1 10 4 0 6 8 11 18 11 16 1 16 1 -1 11 -9 5 -22 7 -29 3 -7
-4 -8 -3 -4 4 4 7 15 12 24 13 9 0 4 5 -13 11 -16 6 -35 15 -42 20 -14 12 -6
38 12 38 8 0 17 5 20 10 4 7 -8 8 -36 4 -49 -8 -48 10 1 21 16 4 32 10 35 15
5 9 -56 -3 -74 -14 -6 -4 -18 -3 -27 2 -12 7 0 13 47 26 60 17 63 17 76 0 7
-10 11 -24 9 -31 -3 -6 0 -13 6 -15 15 -5 81 -168 145 -358 14 -41 28 -77 32
-80 3 -3 12 -17 18 -32 8 -18 21 -28 35 -29 13 -1 30 -2 38 -3 8 -1 26 2 39 7
16 5 27 4 32 -4 4 -7 22 -13 40 -14 19 0 47 -7 62 -13 16 -7 32 -12 37 -12 5
0 7 -7 4 -15 -4 -10 0 -16 12 -16 49 -4 61 -4 82 3 29 10 71 -18 72 -47 0 -23
36 -51 42 -33 2 6 10 4 21 -6 24 -25 12 -36 -38 -36 -55 0 -65 -14 -25 -35 17
-9 28 -20 25 -24 -9 -15 -46 -20 -51 -7 -3 8 -16 11 -35 8 -40 -6 -23 -25 36
-42 25 -7 49 -19 53 -27 9 -15 110 -34 141 -26 12 3 21 1 21 -6 0 -6 -6 -11
-12 -11 -7 -1 1 -8 17 -16 17 -8 22 -12 13 -10 -12 4 -15 1 -11 -10 4 -10 17
-14 42 -12 l36 3 3 1017 c2 789 -1 1018 -10 1018 -9 0 -9 3 0 12 9 9 12 476
12 2040 l0 2028 -3200 0 -3200 0 0 -439z m6217 123 c-3 -3 -12 -4 -19 -1 -8 3
-5 6 6 6 11 1 17 -2 13 -5z m-130 -60 c-3 -3 -12 -4 -19 -1 -8 3 -5 6 6 6 11
1 17 -2 13 -5z m-5644 -611 c-13 -2 -33 -2 -45 0 -13 2 -3 4 22 4 25 0 35 -2
23 -4z m145 -10 c-10 -2 -28 -2 -40 0 -13 2 -5 4 17 4 22 1 32 -1 23 -4z
m5612 3 c0 -2 -9 -6 -20 -9 -11 -3 -18 -1 -14 4 5 9 34 13 34 5z m-5467 -13
c-7 -2 -21 -2 -30 0 -10 3 -4 5 12 5 17 0 24 -2 18 -5z m165 -10 c-10 -2 -26
-2 -35 0 -10 3 -2 5 17 5 19 0 27 -2 18 -5z m5307 -3 c-27 -12 -43 -12 -25 0
8 5 22 9 30 9 10 0 8 -3 -5 -9z m-5167 -7 c-15 -2 -42 -2 -60 0 -18 2 -6 4 27
4 33 0 48 -2 33 -4z m1719 1 c-3 -3 -12 -4 -19 -1 -8 3 -5 6 6 6 11 1 17 -2
13 -5z m3368 -4 c3 -5 0 -7 -8 -5 -7 3 -42 -3 -78 -15 -87 -27 -99 -24 -19 5
73 26 96 30 105 15z m-4947 -7 c-21 -2 -55 -2 -75 0 -21 2 -4 4 37 4 41 0 58
-2 38 -4z m2004 -11 c5 -5 -17 -7 -47 -5 -43 2 -55 -1 -55 -12 0 -8 9 -15 19
-15 11 0 23 -4 26 -10 3 -5 12 -10 18 -9 9 0 9 2 0 5 -7 3 -9 13 -6 22 5 13 9
10 19 -13 7 -17 13 -24 14 -17 0 6 5 12 11 12 6 0 8 -10 5 -22 -3 -13 -3 -17
0 -10 6 14 54 17 54 3 0 -5 -10 -7 -21 -4 -16 4 -20 2 -17 -8 3 -8 20 -14 42
-15 20 -1 40 -5 44 -9 4 -4 -49 -5 -118 -1 -69 3 -177 9 -240 12 -115 6 -160
14 -82 14 33 0 42 4 43 18 1 16 2 16 6 0 5 -20 5 -20 27 -12 9 3 16 10 16 16
0 5 -4 7 -9 4 -5 -3 -11 1 -15 9 -3 9 0 15 9 15 8 0 15 4 15 9 0 5 18 7 40 4
66 -9 46 13 -22 25 -55 10 -46 10 77 6 77 -3 143 -8 147 -12z m-1854 1 c-16
-2 -40 -2 -55 0 -16 2 -3 4 27 4 30 0 43 -2 28 -4z m282 -13 l75 -7 -70 0
c-38 0 -104 3 -145 7 l-75 7 70 0 c39 0 104 -3 145 -7z m1018 3 c-10 -2 -26
-2 -35 0 -10 3 -2 5 17 5 19 0 27 -2 18 -5z m635 0 c-7 -2 -21 -2 -30 0 -10 3
-4 5 12 5 17 0 24 -2 18 -5z m100 -10 c-7 -2 -19 -2 -25 0 -7 3 -2 5 12 5 14
0 19 -2 13 -5z m110 0 c-13 -2 -33 -2 -45 0 -13 2 -3 4 22 4 25 0 35 -2 23 -4z
m-1655 -10 c-15 -2 -42 -2 -60 0 -18 2 -6 4 27 4 33 0 48 -2 33 -4z m247 -12
c83 -7 85 -8 25 -8 -36 -1 -103 2 -150 6 -75 7 -78 8 -25 8 33 1 101 -2 150
-6z m3925 0 c0 -5 -11 -11 -25 -13 -14 -3 -25 -2 -25 3 0 4 10 10 23 12 12 2
23 5 25 6 1 0 2 -3 2 -8z m-3328 -12 c2 -5 12 -12 23 -14 11 -2 22 -4 25 -5 3
-1 9 -2 14 -1 15 3 59 -9 54 -15 -3 -2 -77 0 -164 6 -87 5 -222 12 -299 15
-76 3 -141 7 -143 9 -2 2 105 2 238 0 158 -3 239 0 235 6 -3 6 -2 10 4 10 5 0
11 -5 13 -11z m585 5 c-3 -3 -12 -4 -19 -1 -8 3 -5 6 6 6 11 1 17 -2 13 -5z
m267 -29 c17 -14 36 -29 42 -34 7 -5 27 -11 45 -14 31 -3 31 -4 -8 -5 -30 -2
-45 3 -53 16 -8 12 -13 13 -16 4 -8 -18 -24 -4 -25 21 0 12 -3 16 -6 10 -2 -7
-14 -13 -26 -13 -22 1 -22 1 -2 12 19 12 19 12 -5 19 l-25 7 24 1 c13 1 37
-10 55 -24z m67 7 c-19 -3 -21 -6 -10 -13 11 -7 11 -9 -3 -9 -22 0 -34 20 -18
30 7 4 22 5 34 1 20 -5 20 -6 -3 -9z m-234 -48 c-7 -7 -37 7 -37 17 0 6 9 5
21 -1 11 -7 19 -14 16 -16z m137 -3 c4 -5 -3 -7 -14 -4 -23 6 -26 13 -6 13 8
0 17 -4 20 -9z m713 -37 c-3 -3 -12 -4 -19 -1 -8 3 -5 6 6 6 11 1 17 -2 13 -5z
m-3876 -195 c71 -37 -77 -163 -180 -154 -42 4 -52 20 -45 65 10 51 21 69 56
83 39 16 144 20 169 6z m-86 -159 c-3 -5 -16 -10 -28 -10 -18 0 -19 2 -7 10
20 13 43 13 35 0z m93 -112 c45 -14 39 -37 -18 -65 -53 -27 -135 -31 -168 -7
-24 17 -21 31 18 72 20 22 28 23 79 17 31 -3 71 -11 89 -17z m4047 -46 c-52
-46 -125 -89 -125 -72 0 16 59 64 80 65 25 2 39 16 22 22 -9 3 1 14 25 28 56
35 55 9 -2 -43z m-4300 28 c2 -4 -7 -5 -20 -2 -14 2 -27 8 -30 12 -2 4 7 5 20
2 14 -2 27 -8 30 -12z m-13 -67 l42 -66 12 39 12 39 1 -57 c1 -49 -1 -56 -17
-51 -10 2 -25 21 -34 41 -10 20 -29 56 -43 80 -14 23 -24 42 -21 42 3 0 25
-30 48 -67z m4303 -3 c-3 -5 -12 -10 -18 -10 -7 0 -6 4 3 10 19 12 23 12 15 0z
m-4338 -42 c-3 -7 -5 -2 -5 12 0 14 2 19 5 13 2 -7 2 -19 0 -25z m226 25 c-7
-2 -21 -2 -30 0 -10 3 -4 5 12 5 17 0 24 -2 18 -5z m278 -81 c-6 -10 -27 -35
-48 -56 -22 -22 -30 -34 -19 -30 14 5 17 4 12 -5 -5 -7 -15 -10 -23 -7 -8 3
-24 -1 -36 -9 -27 -19 -37 -19 -37 1 0 28 51 84 76 84 14 0 24 6 24 14 0 15
15 24 43 25 14 1 16 -3 8 -17z m182 -128 c37 -4 70 -11 74 -17 4 -7 -8 -8 -33
-4 -21 4 -78 7 -126 7 -49 0 -88 4 -88 9 0 11 54 20 85 15 11 -2 51 -7 88 -10z
m-246 -21 c57 -19 58 -21 40 -43 -28 -36 -78 -62 -105 -55 -69 17 -92 60 -50
96 26 24 47 24 115 2z m-217 -14 c0 -24 55 -88 71 -83 11 3 19 -3 23 -18 12
-47 5 -51 -26 -16 -66 72 -99 118 -93 128 7 12 25 4 25 -11z m331 -139 c-25
-21 -41 -26 -41 -12 0 9 38 30 55 31 6 0 -1 -9 -14 -19z m3736 -16 c19 -5 34
-43 107 -268 47 -143 87 -272 91 -286 l6 -25 -226 -28 c-125 -16 -229 -27
-231 -25 -2 2 -5 20 -6 39 -2 18 -7 37 -11 40 -9 7 -157 452 -152 457 4 4 373
100 390 101 6 0 20 -2 32 -5z m-3794 -11 c9 -9 -52 -45 -64 -38 -16 10 -10 21
19 32 35 14 37 14 45 6z m5407 -13 c8 -5 11 -10 5 -10 -5 0 -4 -4 4 -9 12 -8
12 -14 2 -39 -11 -26 -17 -30 -42 -27 -38 5 -49 12 -59 39 -16 42 47 74 90 46z
m-5621 -33 c8 -10 7 -14 -4 -14 -8 0 -15 6 -15 14 0 7 2 13 4 13 2 0 9 -6 15
-13z m5085 -592 c11 -8 17 -18 13 -21 -4 -4 -13 -1 -22 6 -8 7 -24 10 -34 7
-14 -3 -18 -1 -14 9 7 18 33 17 57 -1z m143 -11 c-3 -3 -12 -4 -19 -1 -8 3 -5
6 6 6 11 1 17 -2 13 -5z m68 -24 c3 -6 -1 -7 -9 -4 -18 7 -21 14 -7 14 6 0 13
-4 16 -10z m-292 -15 c-3 -9 -8 -14 -10 -11 -3 3 -2 9 2 15 9 16 15 13 8 -4z
m217 11 c0 -3 -4 -8 -10 -11 -5 -3 -10 -1 -10 4 0 6 5 11 10 11 6 0 10 -2 10
-4z m153 -53 c26 -28 47 -80 26 -68 -5 4 -7 10 -4 15 3 5 1 11 -5 15 -5 3 -10
1 -10 -5 0 -6 -5 -8 -11 -4 -8 5 -8 9 1 14 9 5 1 19 -26 44 -22 21 -30 33 -19
28 11 -6 32 -23 48 -39z m-333 18 c0 -27 -26 -46 -34 -25 -6 17 9 44 25 44 5
0 9 -8 9 -19z m150 -2 c0 -9 -70 -17 -76 -8 -2 4 8 9 23 11 45 5 53 5 53 -3z
m80 1 c8 -5 11 -10 5 -10 -5 0 -17 5 -25 10 -8 5 -10 10 -5 10 6 0 17 -5 25
-10z m-270 -84 c0 -6 -7 -1 -15 10 -8 10 -15 23 -15 28 0 6 7 1 15 -10 8 -10
15 -23 15 -28z m21 -39 c-8 -8 -14 -8 -23 1 -9 9 -8 12 5 12 9 0 17 6 18 13 0
9 2 8 6 -1 3 -8 0 -19 -6 -25z m-36 -17 c-3 -5 -13 -10 -21 -10 -8 0 -12 5 -9
10 3 6 13 10 21 10 8 0 12 -4 9 -10z m-65 -64 c0 -3 -4 -8 -10 -11 -5 -3 -10
-1 -10 4 0 6 5 11 10 11 6 0 10 -2 10 -4z m-226 -132 c3 -8 2 -12 -4 -9 -6 3
-10 10 -10 16 0 14 7 11 14 -7z m75 -69 c0 -5 -6 1 -14 15 -8 14 -14 34 -14
45 0 13 5 8 14 -15 7 -19 14 -39 14 -45z m-115 15 c14 -22 26 -43 26 -47 0 -4
-6 1 -13 12 -33 48 -49 75 -44 75 2 0 16 -18 31 -40z m66 -5 c0 -5 -5 -3 -10
5 -5 8 -10 20 -10 25 0 6 5 3 10 -5 5 -8 10 -19 10 -25z m560 -3 c0 -4 20 -30
45 -57 25 -28 60 -79 78 -115 28 -58 32 -73 31 -145 -1 -52 -7 -94 -18 -120
-27 -60 -55 -148 -56 -168 0 -10 -7 -28 -15 -41 -22 -33 -36 -86 -24 -86 6 0
8 -12 4 -28 -4 -20 -1 -33 10 -42 9 -8 15 -25 13 -40 -2 -18 9 -40 33 -71 55
-69 69 -95 75 -143 8 -55 -3 -116 -20 -116 -6 0 -27 -32 -45 -71 -25 -55 -35
-68 -46 -59 -10 8 -14 5 -19 -15 -4 -14 -4 -30 -1 -35 4 -6 1 -10 -4 -10 -6 0
-11 7 -11 16 0 8 -5 12 -10 9 -6 -4 -8 -11 -5 -16 3 -5 0 -6 -8 -3 -8 3 -18 1
-22 -5 -3 -6 1 -11 10 -11 9 0 13 -5 10 -10 -3 -6 -18 -8 -33 -4 -26 5 -27 5
-7 -11 19 -17 18 -17 -35 -12 -59 6 -170 39 -152 45 6 2 26 -1 44 -6 18 -5 42
-5 53 -1 11 4 15 8 8 8 -11 1 -12 47 -4 139 1 6 10 12 21 12 14 0 20 -7 20
-23 0 -15 16 -36 45 -60 25 -21 45 -34 45 -28 0 5 -5 13 -10 16 -6 4 -8 10 -5
15 3 4 -3 14 -12 21 -12 10 -14 10 -9 2 11 -20 -9 -15 -28 6 -10 11 -16 29
-14 42 2 16 -3 23 -18 25 -11 2 -31 8 -45 14 -20 8 -17 9 19 4 l42 -6 -1 34
c-2 30 -2 30 -6 6 -2 -16 -7 -28 -10 -28 -12 0 -43 33 -43 46 0 7 -6 15 -12
17 -7 3 1 6 17 7 29 2 29 2 -10 15 l-40 13 35 1 c20 1 30 5 23 9 -8 5 -9 13
-3 22 10 16 11 15 28 -20 12 -24 12 -23 8 12 -3 23 0 39 7 41 7 3 1 9 -13 15
-18 7 2 8 75 5 105 -4 115 9 16 20 -30 4 -59 12 -65 18 -8 8 -5 9 12 4 24 -7
31 9 7 19 -22 8 -18 34 5 41 11 3 20 11 20 16 0 15 42 10 63 -8 14 -13 18 -13
11 -3 -5 8 -9 20 -9 25 -1 6 -7 9 -14 7 -8 -2 -22 5 -32 14 -15 13 -19 14 -19
3 0 -8 -3 -10 -8 -4 -4 6 -23 11 -42 13 -19 1 -39 8 -45 13 -7 8 -3 9 14 4 16
-5 21 -4 17 4 -4 6 -14 11 -23 11 -9 0 -13 6 -10 14 5 12 1 13 -26 1 -48 -19
-101 -29 -93 -17 3 6 24 13 46 17 38 6 66 25 38 25 -7 0 -22 3 -34 6 -13 3
-28 -1 -38 -12 -22 -22 -46 -4 -26 20 7 9 10 23 6 31 -4 12 3 11 34 -5 39 -20
58 -12 23 9 -14 8 -10 10 23 11 40 0 72 -19 60 -38 -3 -4 9 -7 27 -5 27 3 29
2 11 -6 -29 -13 -39 -31 -14 -24 15 4 20 0 20 -16 0 -13 4 -19 10 -16 6 4 8
16 5 28 -5 17 1 15 25 -13 35 -40 40 -32 8 13 -12 18 -15 26 -8 20 17 -15 40
-17 40 -3 0 5 -27 23 -60 40 -49 25 -60 35 -60 55 0 14 -9 30 -20 37 -25 16
-26 26 -2 24 9 0 23 -11 30 -23 7 -13 20 -23 30 -23 13 0 14 -2 3 -9 -11 -7
-11 -13 0 -32 8 -16 14 -19 17 -11 3 10 9 9 25 -5 19 -17 20 -17 14 0 -4 9 -2
17 4 17 6 0 9 6 6 14 -3 8 -3 17 1 20 12 12 15 42 16 141 0 95 -16 189 -36
201 -5 3 -8 2 -7 -3 5 -19 -14 -63 -26 -63 -11 0 -11 5 1 28 17 33 18 47 2 64
-7 7 -21 29 -31 49 -10 19 -29 48 -43 64 -13 15 -24 30 -24 33 0 12 53 -45 66
-70 8 -16 19 -28 24 -28 16 0 -13 54 -45 82 -17 15 -24 27 -16 28 11 0 11 3 1
15 -15 18 -34 20 -24 3 4 -7 3 -9 -1 -5 -15 13 -14 35 1 48 11 9 25 9 59 -1
50 -14 69 -8 35 10 -45 24 -125 13 -152 -21 -10 -12 -18 -17 -18 -11 0 36 89
79 132 63 15 -5 27 -2 40 11 18 18 38 24 38 10z m-237 -61 c6 -27 5 -36 -10
-47 -16 -12 -21 -10 -40 14 -27 32 -29 42 -8 42 9 0 20 -12 26 -27 7 -20 13
-23 21 -15 9 9 6 17 -10 35 -12 13 -19 27 -15 30 13 14 27 1 36 -32z m-421
-21 c21 -14 40 -31 43 -39 3 -8 -16 3 -42 24 -81 65 -81 69 -1 15z m187 -27
c0 -42 -3 -52 -9 -38 -12 28 -12 95 0 95 6 0 10 -25 9 -57z m311 33 c0 -2 -7
-7 -16 -10 -8 -3 -12 -2 -9 4 6 10 25 14 25 6z m-5 -55 c-3 -16 -8 -63 -9
-106 -2 -42 -7 -79 -10 -82 -3 -4 -6 -1 -6 6 0 7 -5 9 -10 6 -6 -4 -9 -1 -8 6
2 6 -10 15 -26 20 -16 4 -33 14 -37 21 -16 26 -19 0 -4 -42 19 -54 19 -53 -5
-47 -11 3 -23 -1 -28 -8 -4 -8 -7 17 -7 55 0 51 5 75 17 90 10 11 15 20 13 20
-3 0 1 14 10 30 18 34 30 40 20 10 -7 -21 8 -26 39 -14 25 10 20 44 -6 45 -22
0 -22 1 -3 9 11 5 30 9 43 9 21 1 23 -2 17 -28z m-122 3 c3 -3 3 -13 0 -21 -5
-12 -7 -12 -14 -1 -15 23 -4 40 14 22z m-33 -48 c0 -5 -7 -1 -15 10 -8 10 -14
24 -14 29 0 6 6 1 14 -9 8 -11 15 -24 15 -30z m6 -28 c-9 -13 -21 -35 -27 -50
-6 -16 -15 -28 -20 -28 -5 0 -12 -18 -15 -41 -6 -37 -8 -39 -23 -25 -11 12
-13 20 -6 30 6 7 29 41 53 75 23 33 45 61 49 61 3 0 -2 -10 -11 -22z m224 -30
c8 -12 6 -16 -7 -14 -10 2 -18 14 -20 32 -4 30 2 26 27 -18z m-372 -8 c11 -32
10 -33 -3 -16 -8 11 -15 29 -15 40 0 25 4 19 18 -24z m-118 -11 c15 -28 5 -23
-15 7 -9 15 -12 23 -6 20 6 -4 16 -16 21 -27z m462 -34 c5 -11 -2 -6 -16 10
-14 17 -25 35 -25 40 0 11 25 -20 41 -50z m-321 -27 c17 -24 18 -29 6 -19 -18
14 -42 51 -33 51 3 0 15 -15 27 -32z m356 -25 c1 -21 -1 -31 -4 -23 -3 8 -10
23 -15 34 -7 13 -7 16 1 12 6 -4 11 -2 11 3 0 6 2 11 3 11 2 0 4 -17 4 -37z
m-140 -9 c-3 -3 -12 -4 -19 -1 -8 3 -5 6 6 6 11 1 17 -2 13 -5z m102 -20 c6
-15 9 -29 6 -32 -2 -3 0 -10 5 -17 7 -8 5 -12 -5 -12 -8 0 -11 5 -8 10 3 5 0
7 -8 5 -8 -3 -13 -13 -13 -22 1 -9 -3 -16 -9 -16 -6 0 -8 -3 -5 -6 3 -3 0 -27
-7 -55 -7 -27 -9 -49 -4 -49 5 0 9 -10 9 -21 0 -16 -3 -19 -12 -11 -7 6 -17
10 -23 9 -30 -5 0 148 31 160 12 4 12 8 2 21 -11 13 -9 14 16 8 26 -6 28 -5
17 8 -8 9 -10 16 -6 16 4 0 2 7 -5 15 -7 8 -8 15 -3 15 5 0 15 -12 22 -26z
m-249 -41 c24 -31 59 -70 78 -87 32 -28 69 -92 59 -102 -8 -8 -56 63 -49 71 4
5 2 5 -5 1 -11 -6 -74 53 -97 93 -38 65 -46 81 -37 81 5 0 28 -26 51 -57z
m187 51 c-3 -3 -12 -4 -19 -1 -8 3 -5 6 6 6 11 1 17 -2 13 -5z m195 -126 c-8
-8 -9 -4 -5 13 4 13 8 18 11 10 2 -7 -1 -18 -6 -23z m-35 -20 c-3 -8 -6 -5 -6
6 -1 11 2 17 5 13 3 -3 4 -12 1 -19z m273 -22 c0 -3 -4 -8 -10 -11 -5 -3 -10
-1 -10 4 0 6 5 11 10 11 6 0 10 -2 10 -4z m-270 -26 c0 -5 -4 -10 -10 -10 -5
0 -10 5 -10 10 0 6 5 10 10 10 6 0 10 -4 10 -10z m-67 -17 c-7 -2 -21 -2 -30
0 -10 3 -4 5 12 5 17 0 24 -2 18 -5z m321 -24 c-3 -5 -10 -7 -15 -3 -5 3 -7
10 -3 15 3 5 10 7 15 3 5 -3 7 -10 3 -15z m-240 -25 c-13 -19 -19 -22 -25 -12
-13 19 -11 28 5 22 8 -3 17 -1 21 5 3 6 8 11 11 11 2 0 -3 -12 -12 -26z m-54
-4 c0 -5 -2 -10 -4 -10 -3 0 -8 5 -11 10 -3 6 -1 10 4 10 6 0 11 -4 11 -10z
m-50 -64 c0 -3 -13 3 -30 12 -16 9 -30 25 -30 35 0 15 5 13 30 -11 17 -17 30
-33 30 -36z m-290 3 c4 7 6 -32 4 -88 -2 -56 -6 -106 -10 -112 -3 -5 0 -17 7
-25 19 -23 6 -25 -36 -4 -21 11 -40 18 -41 17 -2 -2 8 -15 22 -30 23 -25 23
-27 6 -27 -22 0 -31 22 -38 88 -3 33 -1 42 11 42 11 0 15 12 15 45 0 29 5 48
14 51 8 3 11 15 9 32 -4 21 -2 24 6 12 8 -12 11 -8 12 20 l2 35 4 -34 c3 -23
7 -30 13 -22z m62 -89 c9 -17 14 -30 11 -30 -12 0 -43 33 -43 47 0 22 14 15
32 -17z m-145 -22 c-3 -7 -5 -2 -5 12 0 14 2 19 5 13 2 -7 2 -19 0 -25z m353
-19 c15 -27 9 -32 -24 -19 -15 5 -39 10 -54 11 -26 0 -25 1 8 14 49 19 58 18
70 -6z m-140 2 c0 -10 -50 -25 -58 -17 -3 3 6 10 19 15 31 13 39 13 39 2z m80
-48 c0 -5 -12 -14 -28 -20 l-27 -13 24 20 c25 22 31 24 31 13z m-1998 -15 c-7
-7 -12 -19 -12 -27 0 -10 3 -12 8 -6 9 14 50 17 57 4 6 -9 -8 -13 -34 -9 -13
1 -13 -1 -2 -14 8 -9 11 -20 7 -23 -4 -4 -11 -1 -16 7 -6 8 -10 11 -10 6 0 -6
-6 -1 -14 9 -15 21 -3 65 18 65 6 0 5 -5 -2 -12z m2092 0 c-3 -7 -17 -22 -32
-32 -27 -19 -27 -19 2 12 32 35 38 38 30 20z m-5444 -28 c0 -16 -5 -30 -11
-30 -5 0 -8 4 -4 9 3 5 1 12 -4 16 -12 7 -3 35 10 35 5 0 9 -13 9 -30z m3315
10 c-3 -5 0 -18 7 -29 10 -16 9 -23 -4 -38 -8 -10 -13 -24 -11 -31 3 -8 -1
-10 -11 -6 -18 7 -22 24 -6 24 6 0 9 16 6 37 -4 42 2 66 15 57 5 -3 7 -9 4
-14z m151 -28 c-18 -16 -18 -16 -6 6 6 13 14 21 18 18 3 -4 -2 -14 -12 -24z
m1884 -14 c0 -6 -7 -5 -15 2 -8 7 -15 17 -15 22 0 6 7 5 15 -2 8 -7 15 -17 15
-22z m457 0 c-3 -7 -5 -2 -5 12 0 14 2 19 5 13 2 -7 2 -19 0 -25z m-2179 3 c6
0 12 -6 12 -12 0 -6 -9 -9 -19 -6 -14 3 -18 1 -14 -9 6 -17 -1 -17 -43 -2 -68
24 -33 41 64 29z m-3578 -58 c0 -6 -7 -10 -15 -9 -18 3 -32 16 -17 16 8 0 9 8
2 28 l-10 27 20 -25 c11 -14 20 -30 20 -37z m3434 49 c3 -5 -1 -9 -9 -9 -8 0
-12 4 -9 9 3 4 7 8 9 8 2 0 6 -4 9 -8z m-44 -28 c0 -8 -5 -12 -10 -9 -6 4 -8
11 -5 16 9 14 15 11 15 -7z m113 -9 c-3 -9 -8 -14 -10 -11 -3 3 -2 9 2 15 9
16 15 13 8 -4z m-33 -5 c0 -5 -4 -10 -10 -10 -5 0 -10 5 -10 10 0 6 5 10 10
10 6 0 10 -4 10 -10z m99 -9 c17 -11 25 -71 10 -71 -6 0 -8 4 -4 9 3 5 1 12
-4 15 -5 4 -12 2 -15 -3 -4 -5 -2 -12 2 -15 7 -4 8 -28 3 -56 -1 -3 -6 2 -11
10 -7 11 -10 11 -10 2 0 -7 -4 -10 -10 -7 -5 3 -10 1 -10 -4 0 -6 5 -11 11
-11 6 0 3 -7 -5 -16 -9 -8 -16 -20 -16 -25 0 -5 -9 -9 -21 -9 -11 0 -18 -4
-14 -9 10 -18 -17 -23 -33 -7 -15 15 -15 16 2 16 15 0 16 3 6 15 -10 11 -9 18
4 30 18 18 21 45 6 45 -6 0 -2 10 10 22 11 12 20 26 20 31 0 11 41 46 55 47 6
0 16 -4 24 -9z m903 -33 c34 1 56 -3 53 -9 -4 -5 -43 -9 -88 -8 -52 0 -75 3
-62 8 18 8 16 10 -14 18 -19 5 -36 14 -39 21 -2 7 16 3 44 -10 32 -14 67 -21
106 -20z m-1092 22 c0 -5 -5 -10 -11 -10 -5 0 -7 5 -4 10 3 6 8 10 11 10 2 0
4 -4 4 -10z m486 -6 c-3 -9 -6 -18 -6 -20 0 -3 -4 -3 -10 1 -11 7 -2 35 12 35
6 0 7 -7 4 -16z m-676 2 c0 -3 -4 -8 -10 -11 -5 -3 -10 -1 -10 4 0 6 5 11 10
11 6 0 10 -2 10 -4z m717 -18 c-3 -8 -6 -5 -6 6 -1 11 2 17 5 13 3 -3 4 -12 1
-19z m-3887 -23 c-7 -9 -15 -13 -19 -10 -3 3 1 10 9 15 21 14 24 12 10 -5z
m3650 11 c0 -3 -4 -8 -10 -11 -5 -3 -10 -1 -10 4 0 6 5 11 10 11 6 0 10 -2 10
-4z m-410 -22 c7 -7 8 -27 3 -57 l-8 -46 -41 21 c-40 20 -42 22 -32 50 8 23
13 27 20 16 7 -9 9 -8 5 7 -3 16 1 21 19 20 13 0 28 -5 34 -11z m-193 -20 c-3
-3 -12 -4 -19 -1 -8 3 -5 6 6 6 11 1 17 -2 13 -5z m535 -8 c7 4 8 2 4 -5 -9
-13 -26 -5 -25 12 0 9 2 8 6 -1 2 -6 10 -9 15 -6z m-679 -3 c-7 -2 -19 -2 -25
0 -7 3 -2 5 12 5 14 0 19 -2 13 -5z m-56 -9 c-3 -3 -12 -4 -19 -1 -8 3 -5 6 6
6 11 1 17 -2 13 -5z m583 -3 c0 -6 -4 -13 -10 -16 -5 -3 -10 1 -10 9 0 9 5 16
10 16 6 0 10 -4 10 -9z m315 -21 c3 -5 1 -10 -4 -10 -6 0 -11 5 -11 10 0 6 2
10 4 10 3 0 8 -4 11 -10z m-155 -3 c0 -2 -10 -12 -21 -23 -22 -19 -22 -19 -8
4 12 19 29 30 29 19z m-316 -23 c3 -8 2 -12 -4 -9 -6 3 -10 10 -10 16 0 14 7
11 14 -7z m-26 -34 c1 0 2 -4 2 -9 0 -5 -18 -1 -40 10 -21 10 -43 19 -49 19
-5 0 -13 5 -16 10 -4 6 17 1 47 -10 29 -11 54 -20 56 -20z m335 10 c-3 -11 -9
-17 -15 -14 -5 3 -4 12 3 20 16 19 18 18 12 -6z m2040 -25 c-3 -9 -8 -14 -10
-11 -3 3 -2 9 2 15 9 16 15 13 8 -4z m-2023 -40 c7 -8 8 -15 2 -15 -5 0 -15 7
-22 15 -7 8 -8 15 -2 15 5 0 15 -7 22 -15z m677 -32 c-3 -10 -5 -2 -5 17 0 19
2 27 5 18 2 -10 2 -26 0 -35z m1426 40 c-13 -2 -35 -2 -50 0 -16 2 -5 4 22 4
28 0 40 -2 28 -4z m150 0 c-7 -2 -19 -2 -25 0 -7 3 -2 5 12 5 14 0 19 -2 13
-5z m122 -43 c10 -11 16 -20 13 -20 -3 0 -13 9 -23 20 -10 11 -16 20 -13 20 3
0 13 -9 23 -20z m-2735 -10 c0 -5 -5 -10 -11 -10 -5 0 -7 5 -4 10 3 6 8 10 11
10 2 0 4 -4 4 -10z m633 -52 c-10 -20 -19 -5 -14 25 4 31 5 31 11 7 4 -14 5
-28 3 -32z m100 -8 l5 -45 -34 0 c-19 0 -33 4 -30 10 2 5 9 9 15 8 6 -2 10 0
9 5 -2 7 25 73 28 69 1 -1 4 -22 7 -47z m-813 0 c0 -5 -2 -10 -4 -10 -3 0 -8
5 -11 10 -3 6 -1 10 4 10 6 0 11 -4 11 -10z m440 -33 c0 -2 -11 -14 -25 -27
-18 -16 -25 -19 -25 -9 0 12 8 19 48 38 1 0 2 0 2 -2z m210 -27 c0 -5 -2 -10
-4 -10 -3 0 -8 5 -11 10 -3 6 -1 10 4 10 6 0 11 -4 11 -10z m77 -67 c-2 -16
-4 -3 -4 27 0 30 2 43 4 28 2 -16 2 -40 0 -55z m1596 19 c-5 -46 -8 -52 -24
-47 -29 10 -59 -4 -59 -27 0 -29 -60 -217 -71 -224 -5 -3 -7 -14 -4 -25 6 -17
1 -19 -64 -19 -40 0 -71 4 -71 10 0 5 24 8 57 5 l56 -4 -48 49 c-47 47 -57 71
-14 31 21 -20 79 -34 79 -19 0 4 -9 8 -19 8 -22 0 -37 30 -20 40 6 4 -11 11
-37 15 -45 8 -47 9 -19 14 38 8 42 42 5 52 -23 6 -22 7 8 8 22 1 32 5 29 14
-11 30 13 47 68 47 70 0 72 16 3 22 -29 3 -69 12 -88 21 l-35 17 43 -6 c37 -5
42 -3 42 13 0 11 -6 25 -12 32 -11 11 -3 12 42 7 91 -12 98 -14 92 -42 -3 -19
0 -24 17 -24 18 0 20 4 15 25 -4 18 -1 32 11 45 10 11 19 19 21 18 1 -2 -1
-27 -3 -56z m-1456 42 c-3 -3 -12 -4 -19 -1 -8 3 -5 6 6 6 11 1 17 -2 13 -5z
m250 -36 c-3 -7 -5 -2 -5 12 0 14 2 19 5 13 2 -7 2 -19 0 -25z m1708 -8 c-4
-17 -9 -29 -12 -26 -3 2 -2 19 2 36 4 17 9 29 12 26 3 -2 2 -19 -2 -36z
m-2426 -38 c-1 -26 -3 -39 -6 -29 -4 17 -23 24 -23 9 0 -4 -9 -8 -20 -9 -11
-1 -20 3 -20 9 0 15 54 76 63 71 4 -2 6 -25 6 -51z m1998 6 c-2 -13 -4 -5 -4
17 -1 22 1 32 4 23 2 -10 2 -28 0 -40z m-2297 7 c0 -5 -5 -3 -10 5 -5 8 -10
20 -10 25 0 6 5 3 10 -5 5 -8 10 -19 10 -25z m400 -14 c-1 -10 -6 -7 -15 9
-19 33 -18 50 0 26 8 -11 15 -27 15 -35z m-421 -11 c0 -10 -3 -8 -9 5 -12 27
-12 43 0 25 5 -8 9 -22 9 -30z m-238 5 c5 4 6 -1 2 -10 -5 -13 -7 -14 -14 -3
-7 11 -9 10 -9 -1 0 -8 -2 -12 -5 -9 -3 3 -2 13 2 24 4 11 8 13 11 6 2 -7 8
-10 13 -7z m2859 11 c0 -2 -8 -10 -17 -17 -16 -13 -17 -12 -4 4 13 16 21 21
21 13z m-2820 -16 c0 -5 -5 -10 -11 -10 -5 0 -7 5 -4 10 3 6 8 10 11 10 2 0 4
-4 4 -10z m403 1 c9 0 17 -6 17 -11 0 -6 -11 -8 -25 -4 -14 3 -25 2 -25 -3 0
-5 -15 -8 -32 -6 -55 3 -118 15 -118 22 0 5 124 7 183 2z m402 -1 c-3 -5 -10
-10 -16 -10 -5 0 -9 5 -9 10 0 6 7 10 16 10 8 0 12 -4 9 -10z m2156 -45 c6
-20 6 -26 -1 -19 -5 5 -12 25 -15 44 -5 36 -1 29 16 -25z m-2334 13 c-3 -8 -6
-5 -6 6 -1 11 2 17 5 13 3 -3 4 -12 1 -19z m1799 7 c4 -8 3 -37 -1 -63 -8 -45
-8 -46 -15 -17 -4 17 -11 38 -15 48 -4 10 -3 17 5 17 6 0 8 5 5 10 -4 6 -11 8
-16 5 -5 -4 -9 -1 -9 4 0 17 40 13 46 -4z m334 11 c0 -3 -4 -8 -10 -11 -5 -3
-10 -1 -10 4 0 6 5 11 10 11 6 0 10 -2 10 -4z m-2763 -12 c-3 -3 -12 -4 -19
-1 -8 3 -5 6 6 6 11 1 17 -2 13 -5z m80 -12 c0 -10 -6 -19 -13 -19 -6 0 -9 9
-6 19 2 10 8 18 13 18 4 0 7 -8 6 -18z m-42 -10 c-3 -3 -11 0 -18 7 -9 10 -8
11 6 5 10 -3 15 -9 12 -12z m84 2 c4 3 7 -4 7 -15 0 -10 -4 -19 -8 -19 -4 0
-8 4 -8 9 0 5 -2 15 -3 23 -2 7 -2 10 0 5 3 -4 8 -5 12 -3z m106 6 c18 -8 17
-9 -7 -9 -16 -1 -28 4 -28 9 0 12 8 12 35 0z m-57 -32 c-2 -13 -7 -23 -13 -23
-5 0 -11 10 -13 23 -2 15 2 22 13 22 11 0 15 -7 13 -22z m62 8 c0 -2 -7 -6
-15 -10 -8 -3 -15 -1 -15 4 0 6 7 10 15 10 8 0 15 -2 15 -4z m-3250 -51 c0 -5
-5 -3 -10 5 -5 8 -10 20 -10 25 0 6 5 3 10 -5 5 -8 10 -19 10 -25z m486 6 c-3
-5 -16 -11 -28 -14 -22 -6 -22 -5 -4 8 22 17 40 20 32 6z m2334 -34 l-34 -32
30 36 c16 20 31 34 33 32 3 -2 -10 -18 -29 -36z m1016 23 c0 -11 -6 -22 -13
-24 -16 -7 -17 16 -1 32 7 7 12 12 13 12 0 0 1 -9 1 -20z m-3307 -12 c-37 -23
-150 -75 -139 -65 8 9 41 28 73 44 31 16 56 32 54 35 -2 3 1 2 6 -3 6 -5 9
-10 6 -11z m3395 3 c3 -5 0 -14 -7 -19 -10 -8 -13 -6 -14 9 -2 19 11 26 21 10z
m1486 -16 c1 46 37 -64 39 -119 1 -33 7 -68 12 -78 5 -10 8 -22 5 -26 -3 -5 1
-29 9 -54 15 -51 40 -269 32 -290 -2 -7 -8 13 -12 45 -5 42 -11 57 -23 57 -12
0 -13 3 -5 11 14 14 5 41 -11 32 -6 -4 -5 1 3 10 10 12 10 17 2 17 -7 0 -10 8
-7 18 5 13 -1 22 -16 30 -20 9 -20 11 -4 11 12 1 16 6 12 16 -3 10 1 15 12 16
9 0 -1 6 -23 14 l-40 13 33 1 c46 1 37 32 -13 43 -18 5 -18 6 5 16 14 6 20 11
15 11 -14 1 -45 54 -45 75 0 12 6 15 25 10 14 -3 25 -2 25 3 0 18 -22 73 -29
73 -8 0 -41 54 -41 67 0 4 9 -3 20 -17 18 -23 20 -23 20 -5z m-4980 11 c0 -7
-91 -56 -104 -56 -16 0 -52 -41 -60 -67 -8 -24 -26 -32 -26 -11 0 17 71 88 90
89 8 0 31 11 50 24 34 23 50 30 50 21z m3838 -3 c-13 -3 -16 -12 -13 -36 l5
-32 -10 29 c-11 34 -6 46 18 45 16 -1 16 -2 0 -6z m-53 -23 c-3 -5 -11 -10
-16 -10 -6 0 -7 5 -4 10 3 6 11 10 16 10 6 0 7 -4 4 -10z m-535 -110 c-9 -22
-10 -20 -5 15 2 22 6 54 7 70 1 19 3 13 5 -15 2 -25 -1 -57 -7 -70z m740 54
c23 -30 40 -58 37 -60 -4 -4 -61 68 -81 104 -17 30 5 8 44 -44z m-1195 -31
c-3 -24 -9 -43 -11 -40 -3 3 -2 29 2 58 4 30 9 48 12 41 2 -7 1 -34 -3 -59z
m32 10 c-3 -10 -5 -4 -5 12 0 17 2 24 5 18 2 -7 2 -21 0 -30z m600 5 c-3 -7
-5 -2 -5 12 0 14 2 19 5 13 2 -7 2 -19 0 -25z m-3651 -17 l25 -20 -31 1 c-17
1 -34 6 -37 11 -4 6 0 8 10 4 10 -3 17 -3 17 2 0 4 -17 13 -37 19 -37 11 -37
11 -5 7 19 -3 45 -14 58 -24z m3449 -21 c-4 -23 -9 -39 -11 -37 -3 2 -2 23 2
46 4 23 9 40 11 37 3 -3 2 -23 -2 -46z m262 -12 c-2 -13 -4 -3 -4 22 0 25 2
35 4 23 2 -13 2 -33 0 -45z m-3840 46 c-3 -3 -12 -4 -19 -1 -8 3 -5 6 6 6 11
1 17 -2 13 -5z m3505 -6 c-17 -8 -26 -8 -34 0 -9 9 -4 12 23 11 32 0 33 -1 11
-11z m-206 -24 c-4 -9 -9 -15 -11 -12 -3 3 -3 13 1 22 4 9 9 15 11 12 3 -3 3
-13 -1 -22z m649 -4 c-5 -8 -11 -8 -17 -2 -6 6 -7 16 -3 22 5 8 11 8 17 2 6
-6 7 -16 3 -22z m135 15 c-7 -9 -15 -13 -17 -11 -7 7 7 26 19 26 6 0 6 -6 -2
-15z m257 -15 c6 0 13 -9 16 -20 4 -16 -2 -13 -29 12 -35 33 -49 54 -16 25 10
-10 23 -17 29 -17z m-4447 -22 c0 -14 -20 -8 -26 7 -4 8 -12 15 -20 15 -8 0
-14 5 -14 11 0 5 13 2 30 -8 17 -9 30 -21 30 -25z m3830 17 c-7 -9 -15 -13
-17 -11 -7 7 7 26 19 26 6 0 6 -6 -2 -15z m57 -52 c-3 -10 -5 -2 -5 17 0 19 2
27 5 18 2 -10 2 -26 0 -35z m341 22 c-3 -3 -9 2 -12 12 -6 14 -5 15 5 6 7 -7
10 -15 7 -18z m-4068 6 c0 -6 -4 -13 -10 -16 -5 -3 -10 1 -10 9 0 9 5 16 10
16 6 0 10 -4 10 -9z m3457 3 c-3 -3 -12 -4 -19 -1 -8 3 -5 6 6 6 11 1 17 -2
13 -5z m183 -4 c0 -5 -5 -10 -11 -10 -5 0 -7 5 -4 10 3 6 8 10 11 10 2 0 4 -4
4 -10z m340 6 c0 -11 -19 -15 -25 -6 -3 5 1 10 9 10 9 0 16 -2 16 -4z m111
-19 c-10 -9 -11 -8 -5 6 3 10 9 15 12 12 3 -3 0 -11 -7 -18z m-4214 7 c-3 -3
-12 -4 -19 -1 -8 3 -5 6 6 6 11 1 17 -2 13 -5z m4058 -12 c0 -18 -20 -15 -23
4 -3 10 1 15 10 12 7 -3 13 -10 13 -16z m1211 1 c12 -4 15 -3 10 5 -4 7 -3 12
3 12 6 0 15 -8 20 -19 9 -17 4 -19 -59 -28 -39 -5 -67 -6 -63 -2 5 4 24 9 43
11 l35 4 -27 12 c-55 23 -21 28 38 5z m781 -5 c-3 -8 -6 -5 -6 6 -1 11 2 17 5
13 3 -3 4 -12 1 -19z m-6004 5 c-7 -2 -19 -2 -25 0 -7 3 -2 5 12 5 14 0 19 -2
13 -5z m3170 -10 c-7 -2 -19 -2 -25 0 -7 3 -2 5 12 5 14 0 19 -2 13 -5z m527
-8 c-7 -9 -15 -13 -17 -11 -7 7 7 26 19 26 6 0 6 -6 -2 -15z m-63 -1 c-3 -3
-12 -4 -19 -1 -8 3 -5 6 6 6 11 1 17 -2 13 -5z m230 -51 c-3 -10 -5 -2 -5 17
0 19 2 27 5 18 2 -10 2 -26 0 -35z m297 32 c3 -8 1 -15 -4 -15 -6 0 -10 7 -10
15 0 8 2 15 4 15 2 0 6 -7 10 -15z m-3779 -5 c3 -4 -5 -8 -18 -8 -12 0 -38 -4
-57 -10 -31 -10 -33 -10 -17 2 18 14 18 14 0 18 -10 2 6 5 34 5 29 1 55 -2 58
-7z m3206 -17 c-12 -20 -14 -14 -5 12 4 9 9 14 11 11 3 -2 0 -13 -6 -23z m228
-26 c1 -10 -3 -15 -9 -12 -5 3 -10 21 -9 38 0 27 2 29 9 12 5 -11 9 -28 9 -38z
m71 -17 c-45 -54 -58 -63 -39 -27 21 39 73 99 77 88 2 -6 -15 -34 -38 -61z
m250 60 c0 -5 -5 -10 -11 -10 -5 0 -7 5 -4 10 3 6 8 10 11 10 2 0 4 -4 4 -10z
m-1015 -29 c-8 -17 -19 -33 -25 -36 -5 -3 -1 10 11 29 25 43 36 48 14 7z
m-2615 9 c-36 -12 -60 -12 -60 0 0 6 19 10 43 9 36 -1 38 -2 17 -9z m3278 -25
c-3 -3 -9 2 -12 12 -6 14 -5 15 5 6 7 -7 10 -15 7 -18z m-3521 9 c-3 -3 -12
-4 -19 -1 -8 3 -5 6 6 6 11 1 17 -2 13 -5z m5713 3 c0 -2 -12 -14 -27 -28
l-28 -24 24 28 c23 25 31 32 31 24z m-5564 -44 c37 -14 73 -26 81 -26 16 0 17
-13 3 -22 -6 -4 -17 -1 -25 5 -8 7 -15 9 -15 4 0 -5 -4 -4 -8 1 -4 6 -34 23
-67 38 -78 34 -55 35 31 0z m3674 20 c0 -5 15 -23 32 -42 28 -32 35 -34 82
-32 35 1 48 -1 41 -8 -6 -6 -34 -11 -63 -12 -46 -2 -52 -4 -46 -21 4 -15 0
-18 -25 -18 -34 0 -36 2 -20 31 6 12 17 18 25 15 16 -6 19 10 4 19 -6 4 -8 10
-6 14 3 4 -6 15 -20 25 -13 11 -24 23 -24 27 0 11 20 12 20 2z m-305 -13 c3
-5 1 -10 -4 -10 -6 0 -11 5 -11 10 0 6 2 10 4 10 3 0 8 -4 11 -10z m-95 -10
c0 -5 -5 -10 -11 -10 -5 0 -7 5 -4 10 3 6 8 10 11 10 2 0 4 -4 4 -10z m127
-22 c-3 -7 -5 -2 -5 12 0 14 2 19 5 13 2 -7 2 -19 0 -25z m153 28 c0 -3 -4 -8
-10 -11 -5 -3 -10 -1 -10 4 0 6 5 11 10 11 6 0 10 -2 10 -4z m1550 -6 c8 -5
11 -10 5 -10 -5 0 -17 5 -25 10 -8 5 -10 10 -5 10 6 0 17 -5 25 -10z m-4910
-4 c0 -3 -4 -8 -10 -11 -5 -3 -10 -1 -10 4 0 6 5 11 10 11 6 0 10 -2 10 -4z
m-177 -36 c9 -11 24 -20 34 -20 9 0 13 -3 10 -7 -11 -11 36 -38 63 -35 14 1
18 -1 10 -5 -8 -3 -24 -10 -35 -16 -11 -5 -17 -6 -13 -2 4 4 -12 20 -35 36
-30 20 -45 25 -54 17 -8 -7 -13 -7 -13 0 0 5 -20 8 -47 6 -45 -3 -41 0 14 11
15 4 20 10 17 20 -9 23 28 19 49 -5z m3507 5 c0 -8 -2 -15 -4 -15 -2 0 -6 7
-10 15 -3 8 -1 15 4 15 6 0 10 -7 10 -15z m1227 9 c-3 -3 -12 -4 -19 -1 -8 3
-5 6 6 6 11 1 17 -2 13 -5z m-1502 -37 c-4 -15 -14 -32 -23 -39 -8 -7 -13 -8
-10 -3 2 6 11 24 18 42 16 37 24 37 15 0z m2133 26 c-15 -2 -42 -2 -60 0 -18
2 -6 4 27 4 33 0 48 -2 33 -4z m-5231 -28 c27 -14 63 -26 80 -28 17 -1 29 -4
27 -6 -3 -3 6 -11 18 -18 19 -10 20 -12 5 -13 -10 0 -28 5 -40 12 -21 11 -21
10 -7 -8 8 -10 21 -23 28 -27 6 -4 12 -14 12 -22 0 -8 -20 5 -45 29 -42 41
-66 49 -44 16 5 -8 8 -26 7 -40 -1 -23 -1 -24 -5 -2 -2 12 -9 22 -14 22 -6 0
-7 5 -4 11 8 12 -35 55 -65 64 -20 6 -25 16 -13 28 9 9 5 10 60 -18z m4013 15
c0 -5 -2 -10 -4 -10 -3 0 -8 5 -11 10 -3 6 -1 10 4 10 6 0 11 -4 11 -10z
m-103 -10 c10 4 32 3 48 -1 29 -6 29 -7 -8 -8 -22 -1 -36 -5 -32 -11 3 -5 21
-7 39 -4 20 3 37 0 44 -8 8 -10 -2 -12 -54 -10 -35 2 -64 7 -64 12 0 4 -22 10
-50 14 -68 9 -64 24 4 16 30 -3 63 -3 73 0z m-1537 -4 c0 -2 -8 -10 -17 -17
-16 -13 -17 -12 -4 4 13 16 21 21 21 13z m1126 -31 c-8 -23 -82 -20 -88 3 -4
14 2 18 35 18 25 1 34 -2 26 -7 -11 -7 -10 -9 4 -9 9 0 17 8 18 18 0 10 2 12
6 4 3 -7 2 -19 -1 -27z m641 15 c37 0 64 -2 62 -4 -8 -8 -148 -13 -143 -5 2 4
1 9 -3 12 -5 2 -2 2 5 0 8 -1 43 -3 79 -3z m-4462 -20 c15 -6 25 -13 22 -16
-6 -6 -67 23 -67 32 0 3 4 3 9 0 4 -3 21 -10 36 -16z m2302 -5 c-4 -8 -11 -15
-17 -15 -6 0 -6 7 2 20 14 22 24 19 15 -5z m1340 6 c12 -19 9 -20 -75 -20 -69
0 -83 2 -68 11 11 6 37 10 57 10 21 -1 41 3 44 8 10 16 29 12 42 -9z m33 -2
c0 -6 -4 -7 -10 -4 -5 3 -10 11 -10 16 0 6 5 7 10 4 6 -3 10 -11 10 -16z m480
1 c0 -5 -14 -7 -32 -3 -46 8 -48 13 -5 13 21 0 37 -4 37 -10z m35 0 c3 -5 2
-10 -4 -10 -5 0 -13 5 -16 10 -3 6 -2 10 4 10 5 0 13 -4 16 -10z m602 4 c-3
-3 -12 -4 -19 -1 -8 3 -5 6 6 6 11 1 17 -2 13 -5z m-2147 -18 c0 -1 -11 -15
-25 -30 -14 -15 -25 -24 -25 -20 0 4 10 18 22 31 21 22 28 27 28 19z m1357 -2
c-3 -3 -12 -4 -19 -1 -8 3 -5 6 6 6 11 1 17 -2 13 -5z m961 -1 c-10 -2 -26 -2
-35 0 -10 3 -2 5 17 5 19 0 27 -2 18 -5z m-2120 -25 c24 -22 25 -22 19 -3 -7
19 -6 19 7 2 8 -11 12 -26 9 -35 -3 -13 -1 -13 11 2 12 16 13 22 3 28 -8 5 -7
8 6 8 9 0 17 -3 18 -7 2 -13 5 -103 4 -103 -1 0 -27 29 -59 65 -57 64 -66 86
-18 43z m886 -50 c55 -65 67 -95 17 -43 -13 14 -27 25 -33 25 -5 0 -6 5 -2 11
4 7 1 10 -7 7 -8 -3 -33 9 -57 26 -24 17 -38 32 -32 34 6 2 19 -3 29 -12 20
-18 41 -22 23 -4 -14 14 -16 31 -3 26 4 -1 34 -33 65 -70z m-3439 34 c-8 -8
-25 10 -19 20 4 6 9 5 15 -3 4 -7 6 -15 4 -17z m245 18 c0 -5 -4 -10 -10 -10
-5 0 -10 5 -10 10 0 6 5 10 10 10 6 0 10 -4 10 -10z m-345 -26 c64 -8 182 -38
218 -55 24 -11 39 -49 20 -49 -18 1 -35 19 -28 30 6 9 3 9 -13 1 -15 -8 -24
-6 -43 10 -17 15 -24 17 -31 7 -4 -8 -8 -8 -8 -2 0 6 -7 11 -15 11 -20 0 -21
1 25 -59 44 -59 48 -68 24 -68 -9 0 -14 6 -11 13 2 6 -2 18 -9 25 -8 7 -14 10
-14 6 0 -3 -7 -1 -15 6 -12 10 -13 15 -4 20 7 5 -1 14 -22 24 -18 9 -34 14
-37 12 -2 -3 -1 -31 3 -63 8 -69 9 -67 -2 -70 -4 -2 -9 18 -10 43 -2 36 -8 50
-25 63 -13 9 -27 15 -31 13 -11 -3 -70 28 -64 35 3 2 16 -3 30 -11 22 -15 25
-15 37 -1 18 22 5 30 -48 30 -36 0 -47 4 -50 17 -3 15 1 16 30 7 44 -12 45
-12 22 7 -19 15 -19 15 1 10 11 -3 43 -8 70 -12z m385 -104 c0 -5 -5 -10 -11
-10 -5 0 -7 5 -4 10 3 6 8 10 11 10 2 0 4 -4 4 -10z m-678 -28 c11 -13 10 -14
-10 -8 -19 6 -22 4 -22 -17 0 -14 5 -27 12 -29 8 -3 4 -13 -11 -29 -16 -17
-21 -33 -19 -57 3 -26 1 -31 -11 -26 -9 3 -22 7 -30 7 -10 0 -10 3 3 12 22 16
20 42 -3 55 -26 14 -20 54 13 89 29 30 55 31 78 3z m5330 -42 c2 -22 0 -40 -4
-40 -5 0 -8 18 -8 40 0 22 2 40 4 40 2 0 6 -18 8 -40z m-4635 -2 c-3 -8 -6 -5
-6 6 -1 11 2 17 5 13 3 -3 4 -12 1 -19z m23 -123 c4 -5 3 -15 -4 -21 -9 -8
-12 3 -12 50 -1 39 1 46 3 21 3 -22 8 -44 13 -50z m5147 79 c-3 -3 -12 -4 -19
-1 -8 3 -5 6 6 6 11 1 17 -2 13 -5z m-5187 -14 c0 -5 -2 -10 -4 -10 -3 0 -8 5
-11 10 -3 6 -1 10 4 10 6 0 11 -4 11 -10z m323 -27 c-7 -2 -21 -2 -30 0 -10 3
-4 5 12 5 17 0 24 -2 18 -5z m-1016 -9 c-3 -3 -12 -4 -19 -1 -8 3 -5 6 6 6 11
1 17 -2 13 -5z m5421 -11 c-10 -2 -26 -2 -35 0 -10 3 -2 5 17 5 19 0 27 -2 18
-5z m-5253 -24 c9 -14 7 -15 -47 -22 -38 -5 -48 -4 -48 7 0 23 83 36 95 15z
m863 -6 c-10 -2 -28 -2 -40 0 -13 2 -5 4 17 4 22 1 32 -1 23 -4z m12 -23 c0
-5 -7 -10 -16 -10 -8 0 -12 5 -9 10 3 6 10 10 16 10 5 0 9 -4 9 -10z m1476 -2
c5 -7 3 -8 -6 -3 -10 6 -12 4 -6 -10 5 -15 4 -16 -9 -5 -8 7 -12 16 -9 21 7
12 21 11 30 -3z m-2406 -8 c-8 -5 -19 -10 -25 -10 -5 0 -3 5 5 10 8 5 20 10
25 10 6 0 3 -5 -5 -10z m40 -25 c-14 -8 -29 -14 -35 -14 -5 0 1 6 15 14 14 8
30 14 35 14 6 0 -1 -6 -15 -14z m540 11 c0 -3 -4 -8 -10 -11 -5 -3 -10 -1 -10
4 0 6 5 11 10 11 6 0 10 -2 10 -4z m-645 -16 c3 -5 1 -10 -4 -10 -6 0 -11 5
-11 10 0 6 2 10 4 10 3 0 8 -4 11 -10z m2486 -17 c13 -16 12 -17 -3 -4 -17 13
-22 21 -14 21 2 0 10 -8 17 -17z m-1886 -43 c3 -5 1 -10 -4 -10 -6 0 -11 5
-11 10 0 6 2 10 4 10 3 0 8 -4 11 -10z m4625 -6 c0 -2 -7 -4 -15 -4 -8 0 -15
4 -15 10 0 5 7 7 15 4 8 -4 15 -8 15 -10z m-2657 -14 c-3 -11 -7 -20 -9 -20
-2 0 -4 9 -4 20 0 11 4 20 9 20 5 0 7 -9 4 -20z m-1893 6 c0 -3 -4 -8 -10 -11
-5 -3 -10 -1 -10 4 0 6 5 11 10 11 6 0 10 -2 10 -4z m4557 -31 c0 -8 -4 -12
-9 -9 -4 3 -8 1 -8 -5 0 -5 5 -11 10 -13 6 -2 12 -29 14 -61 5 -65 -8 -69 -18
-5 -4 24 -9 58 -12 76 -5 24 -3 32 8 32 8 0 15 -7 15 -15z m-4597 -55 c0 -5
-5 -10 -11 -10 -5 0 -7 5 -4 10 3 6 8 10 11 10 2 0 4 -4 4 -10z m2485 -8 c-3
-3 -11 0 -18 7 -9 10 -8 11 6 5 10 -3 15 -9 12 -12z m46 8 c8 12 9 11 4 -6 -5
-18 -2 -21 19 -17 13 3 27 0 30 -6 5 -7 1 -9 -11 -4 -13 4 -15 3 -7 -6 6 -6
28 -13 48 -15 23 -2 47 -12 59 -26 l22 -22 -25 7 c-19 5 -21 4 -10 -4 8 -6 24
-8 34 -5 14 5 18 2 13 -9 -3 -8 0 -20 6 -27 19 -20 -3 -8 -111 59 -60 38 -102
71 -102 80 0 14 2 14 10 1 9 -13 11 -13 21 0z m-3391 -10 c-13 -8 -12 -11 5
-24 11 -9 18 -16 15 -16 -34 -8 -38 -7 -33 8 4 10 2 13 -5 8 -7 -4 -12 -3 -12
1 0 12 22 33 35 33 5 0 3 -5 -5 -10z m985 -39 c-3 -6 3 -15 12 -21 15 -9 14
-10 -7 -4 -14 3 -29 11 -35 17 -7 7 -6 8 3 3 6 -4 12 -2 12 3 0 6 5 11 11 11
5 0 8 -4 4 -9z m-932 -29 c9 -10 32 -24 52 -32 19 -8 35 -17 35 -22 0 -4 17
-16 38 -27 21 -11 45 -27 52 -36 12 -14 7 -13 -31 3 -24 11 -66 27 -94 35 -27
8 -49 20 -47 26 1 6 -7 11 -18 11 -12 0 -17 5 -14 14 3 7 -3 16 -13 20 -15 6
-15 8 -3 16 21 13 25 13 43 -8z m767 -2 c0 -5 -5 -10 -11 -10 -5 0 -7 5 -4 10
3 6 8 10 11 10 2 0 4 -4 4 -10z m-355 -30 c3 -5 1 -10 -4 -10 -6 0 -11 5 -11
10 0 6 2 10 4 10 3 0 8 -4 11 -10z m715 1 c0 -5 -7 -12 -16 -15 -14 -5 -15 -4
-4 9 14 17 20 19 20 6z m-390 -11 c0 -5 -4 -10 -10 -10 -5 0 -10 5 -10 10 0 6
5 10 10 10 6 0 10 -4 10 -10z m2890 -92 l95 -90 -95 70 c-52 38 -95 73 -95 78
0 5 -4 15 -8 22 -20 31 16 4 103 -80z m-3371 32 c1 -13 0 -13 -9 0 -5 8 -9 24
-9 35 l0 20 9 -20 c5 -11 9 -27 9 -35z m169 19 c-3 -8 -7 -3 -11 10 -4 17 -3
21 5 13 5 -5 8 -16 6 -23z m5772 17 c0 -3 -4 -8 -10 -11 -5 -3 -10 -1 -10 4 0
6 5 11 10 11 6 0 10 -2 10 -4z m-5821 -102 c39 -9 71 -20 71 -25 0 -5 33 -10
73 -10 l72 -2 -75 -8 c-96 -10 -285 -8 -268 3 7 4 51 8 98 9 90 0 89 5 -10 32
-74 21 -50 21 39 1z m4769 -50 c-10 -10 -28 6 -28 24 0 15 1 15 17 -1 9 -9 14
-19 11 -23z m72 16 c0 -5 -6 -10 -14 -10 -8 0 -21 -3 -30 -6 -9 -3 -16 -1 -16
4 0 9 9 13 53 21 4 0 7 -3 7 -9z m188 -12 c-29 -44 -69 -59 -129 -49 -53 8
-53 9 -13 10 28 1 55 11 85 31 55 37 78 40 57 8z m-4695 5 c-13 -2 -35 -2 -50
0 -16 2 -5 4 22 4 28 0 40 -2 28 -4z m4417 -23 c12 -8 11 -10 -7 -10 -13 0
-23 5 -23 10 0 13 11 13 30 0z m277 -106 c-3 -3 -12 -4 -19 -1 -8 3 -5 6 6 6
11 1 17 -2 13 -5z"/>
<path d="M2955 5310 c3 -5 8 -10 11 -10 2 0 4 5 4 10 0 6 -5 10 -11 10 -5 0
-7 -4 -4 -10z"/>
<path d="M3005 5310 c-3 -5 1 -10 9 -10 9 0 16 5 16 10 0 6 -4 10 -9 10 -6 0
-13 -4 -16 -10z"/>
<path d="M2950 5280 c0 -5 16 -10 35 -10 19 0 35 5 35 10 0 6 -16 10 -35 10
-19 0 -35 -4 -35 -10z"/>
<path d="M3080 5270 c0 -5 14 -10 31 -10 17 0 28 4 24 10 -3 6 -17 10 -31 10
-13 0 -24 -4 -24 -10z"/>
<path d="M4218 4153 c-20 -5 -23 -18 -8 -28 6 -3 10 0 10 7 0 9 3 9 10 -2 8
-12 10 -11 10 8 0 12 -1 21 -2 21 -2 -1 -11 -3 -20 -6z"/>
<path d="M4254 4134 c5 -17 3 -23 -4 -19 -5 3 -10 0 -10 -7 0 -9 -3 -9 -10 2
-8 13 -10 13 -10 0 0 -10 -5 -7 -16 8 -8 12 -24 22 -36 22 -17 0 -19 -4 -14
-27 6 -25 5 -26 -5 -8 -17 28 -16 28 -30 19 -7 -4 -26 -8 -43 -9 -17 -1 -40
-6 -51 -12 -11 -6 -26 -8 -32 -6 -7 3 -13 0 -13 -5 0 -5 9 -12 20 -15 11 -3
20 -11 20 -19 0 -10 -2 -10 -10 2 -5 8 -11 12 -14 9 -3 -2 -2 -10 2 -16 5 -9
20 -9 55 -1 46 9 48 12 43 36 -5 20 -4 23 4 12 6 -10 10 -11 10 -2 0 6 5 12
10 12 6 0 5 -8 -2 -20 -11 -16 -10 -23 6 -37 10 -10 16 -13 12 -7 -3 7 1 15
10 18 24 9 28 7 14 -9 -11 -13 -7 -15 23 -15 28 0 35 -3 31 -15 -4 -8 -1 -22
6 -30 11 -13 10 -26 0 -70 -7 -30 -11 -57 -9 -58 12 -10 106 -34 116 -30 8 3
5 21 -9 61 -11 31 -23 61 -26 67 -3 5 -5 26 -3 47 2 33 0 38 -18 38 -12 0 -21
5 -21 10 0 6 6 10 13 10 9 0 8 3 -2 9 -18 12 -5 32 17 24 16 -6 16 -5 1 13 -9
10 -14 25 -12 32 3 6 -1 12 -7 12 -8 0 -10 -9 -6 -26z m-70 -20 c3 -8 2 -12
-4 -9 -6 3 -10 10 -10 16 0 14 7 11 14 -7z m43 -40 c-3 -3 -12 -4 -19 -1 -8 3
-5 6 6 6 11 1 17 -2 13 -5z"/>
<path d="M4200 3821 c0 -28 29 -91 41 -91 6 0 9 6 6 14 -3 8 -11 32 -18 55
-13 42 -29 55 -29 22z"/>
<path d="M4104 3753 c8 -76 15 -90 42 -90 13 0 21 3 18 8 -3 5 -1 9 5 9 6 0 8
7 5 15 -4 8 -1 15 5 15 6 0 11 -4 11 -10 0 -5 5 -10 11 -10 8 0 8 4 1 13 -5 6
-8 28 -7 48 3 29 0 38 -15 42 -21 5 -35 -29 -23 -59 4 -11 3 -15 -4 -11 -6 4
-14 1 -17 -5 -4 -7 -4 3 -2 23 3 27 0 38 -16 48 -19 12 -20 10 -14 -36z"/>
<path d="M4357 3743 c-12 -3 -16 -11 -13 -21 5 -14 4 -14 -8 1 -8 11 -17 14
-20 8 -4 -5 -2 -12 3 -16 6 -3 8 -13 5 -23 -4 -10 -2 -13 3 -7 4 6 24 11 43
10 25 0 36 5 38 18 4 20 -23 24 -32 5 -3 -7 -3 -3 0 10 3 12 4 21 2 21 -2 -1
-11 -3 -21 -6z"/>
<path d="M4260 3718 c0 -6 -11 -8 -27 -4 -16 4 -23 3 -18 -1 15 -11 12 -39 -3
-35 -7 1 -12 -3 -12 -9 0 -6 7 -8 16 -5 9 3 23 6 32 6 14 0 15 2 2 10 -8 5
-11 12 -7 16 4 4 16 -1 27 -11 11 -10 23 -15 27 -11 4 4 1 11 -7 16 -13 8 -12
10 3 10 10 0 16 4 13 9 -8 13 -46 21 -46 9z"/>
<path d="M5550 3072 c0 -5 12 -14 26 -20 14 -7 23 -8 19 -2 -9 15 -45 32 -45
22z"/>
<path d="M5472 3017 c10 -7 34 -22 55 -35 22 -14 56 -51 81 -89 23 -37 42 -62
42 -56 0 17 -22 55 -58 100 -18 23 -31 47 -30 53 3 13 -54 38 -87 39 -18 0
-19 -1 -3 -12z"/>
<path d="M5616 2997 c3 -10 9 -15 12 -12 3 3 0 11 -7 18 -10 9 -11 8 -5 -6z"/>
<path d="M5669 2930 c-3 -44 4 -116 12 -124 4 -5 5 -14 0 -20 -8 -11 -22 -96
-16 -96 2 0 13 15 24 34 27 43 28 119 1 177 -11 24 -20 37 -21 29z m18 -102
c-2 -13 -4 -5 -4 17 -1 22 1 32 4 23 2 -10 2 -28 0 -40z"/>
<path d="M5657 2593 c-12 -11 -8 -23 8 -23 8 0 15 7 15 15 0 16 -12 20 -23 8z"/>
<path d="M5720 2100 c0 -5 5 -10 11 -10 5 0 7 5 4 10 -3 6 -8 10 -11 10 -2 0
-4 -4 -4 -10z"/>
<path d="M5530 2090 c0 -6 28 -10 68 -9 62 1 64 2 27 10 -56 11 -95 11 -95 -1z"/>
<path d="M5660 1829 c0 -5 5 -7 10 -4 6 3 10 8 10 11 0 2 -4 4 -10 4 -5 0 -10
-5 -10 -11z"/>
<path d="M5292 2868 c-7 -7 -12 -21 -12 -32 0 -17 3 -16 15 8 17 32 15 42 -3
24z"/>
<path d="M5146 2348 c-15 -59 4 -89 33 -54 10 11 9 21 -4 45 -19 37 -21 38
-29 9z"/>
<path d="M5120 2251 c0 -12 37 -34 51 -29 5 2 -4 11 -21 21 -16 10 -30 14 -30
8z"/>
<path d="M4295 1081 c-3 -5 -1 -12 5 -16 5 -3 10 1 10 9 0 18 -6 21 -15 7z"/>
<path d="M254 835 c-10 -8 -14 -15 -8 -15 6 0 17 7 24 15 16 19 9 19 -16 0z"/>
<path d="M5436 1155 c-11 -8 -15 -15 -9 -15 6 0 16 7 23 15 16 19 11 19 -14 0z"/>
<path d="M2051 744 c0 -11 3 -14 6 -6 3 7 2 16 -1 19 -3 4 -6 -2 -5 -13z"/>
<path d="M5623 727 c0 -14 6 -28 13 -31 17 -7 17 2 0 33 l-13 24 0 -26z"/>
<path d="M6 717 c2 -11 6 -22 10 -26 4 -3 5 1 1 10 -3 9 -1 21 4 26 6 6 4 10
-5 10 -9 0 -13 -8 -10 -20z"/>
<path d="M1850 730 c0 -5 12 -10 28 -10 21 0 24 2 12 10 -20 13 -40 13 -40 0z"/>
<path d="M30 716 c0 -2 7 -9 15 -16 13 -11 14 -10 9 4 -5 14 -24 23 -24 12z"/>
<path d="M3825 700 c-3 -5 -1 -10 4 -10 6 0 11 5 11 10 0 6 -2 10 -4 10 -3 0
-8 -4 -11 -10z"/>
<path d="M3775 690 c3 -5 8 -10 11 -10 2 0 4 5 4 10 0 6 -5 10 -11 10 -5 0 -7
-4 -4 -10z"/>
<path d="M55 670 c-3 -5 -2 -10 4 -10 5 0 13 5 16 10 3 6 2 10 -4 10 -5 0 -13
-4 -16 -10z"/>
<path d="M1565 670 c3 -5 8 -10 11 -10 2 0 4 5 4 10 0 6 -5 10 -11 10 -5 0 -7
-4 -4 -10z"/>
<path d="M76 652 c-3 -5 1 -9 9 -9 8 0 12 4 9 9 -3 4 -7 8 -9 8 -2 0 -6 -4 -9
-8z"/>
<path d="M1385 589 c-4 -6 -5 -12 -3 -15 8 -7 68 8 68 17 0 13 -58 11 -65 -2z"/>
<path d="M1 574 c0 -11 3 -14 6 -6 3 7 2 16 -1 19 -3 4 -6 -2 -5 -13z"/>
<path d="M1105 580 c-3 -5 -1 -10 4 -10 6 0 11 5 11 10 0 6 -2 10 -4 10 -3 0
-8 -4 -11 -10z"/>
<path d="M1279 577 c5 -5 26 -7 47 -5 l39 3 -47 5 c-26 3 -43 1 -39 -3z"/>
<path d="M1131 573 c4 -26 -2 -35 -15 -24 -11 9 -13 6 -11 -13 3 -26 22 -66
32 -66 3 0 3 3 0 6 -3 4 -1 16 5 27 10 20 11 20 23 -3 l13 -23 7 23 c5 16 3
26 -9 32 -11 6 -15 16 -11 29 5 15 2 19 -14 19 -12 0 -20 -3 -20 -7z"/>
<path d="M1260 520 c0 -22 2 -40 4 -40 2 0 13 -3 23 -6 15 -5 15 -4 3 5 -12 8
-4 11 34 11 42 0 47 -2 36 -15 -11 -13 -10 -14 6 -9 10 4 25 12 32 17 9 7 11
6 6 -7 -4 -11 -1 -16 14 -16 16 0 26 -16 50 -82 36 -98 61 -157 62 -143 0 22
-89 281 -108 310 -11 18 -13 18 -22 4 -13 -22 -120 -26 -120 -4 0 8 -4 15 -10
15 -5 0 -10 -18 -10 -40z"/>
<path d="M81 524 c0 -11 3 -14 6 -6 3 7 2 16 -1 19 -3 4 -6 -2 -5 -13z"/>
<path d="M100 506 c0 -2 7 -7 16 -10 8 -3 12 -2 9 4 -6 10 -25 14 -25 6z"/>
<path d="M2850 501 c0 -6 4 -13 10 -16 6 -3 7 1 4 9 -7 18 -14 21 -14 7z"/>
<path d="M245 490 c3 -5 8 -10 11 -10 2 0 4 5 4 10 0 6 -5 10 -11 10 -5 0 -7
-4 -4 -10z"/>
<path d="M1318 473 c7 -3 16 -2 19 1 4 3 -2 6 -13 5 -11 0 -14 -3 -6 -6z"/>
<path d="M1330 453 c0 -10 40 -36 46 -30 3 2 -7 12 -21 21 -14 9 -25 13 -25 9z"/>
<path d="M1298 433 c7 -3 16 -2 19 1 4 3 -2 6 -13 5 -11 0 -14 -3 -6 -6z"/>
<path d="M2258 405 c22 -41 61 -95 62 -84 0 13 -51 97 -67 110 -12 11 -11 4 5
-26z"/>
<path d="M2350 261 c5 -11 15 -23 21 -27 6 -3 3 5 -6 20 -20 30 -30 35 -15 7z"/>
<path d="M1031 212 c-17 -6 85 -42 119 -42 19 1 21 3 10 9 -27 16 -115 38
-129 33z"/>
<path d="M2391 200 c14 -31 19 -36 19 -24 0 6 -7 19 -16 30 -14 18 -14 18 -3
-6z"/>
<path d="M1018 183 c6 -2 18 -2 25 0 6 3 1 5 -13 5 -14 0 -19 -2 -12 -5z"/>
<path d="M5078 153 c7 -3 16 -2 19 1 4 3 -2 6 -13 5 -11 0 -14 -3 -6 -6z"/>
<path d="M5062 42 c-35 -9 -64 -21 -65 -27 -3 -12 169 -18 190 -7 20 12 -56
25 -95 17 -23 -5 -22 -4 7 10 24 11 38 12 45 5 5 -5 21 -10 36 -10 20 0 22 2
10 11 -13 9 -13 10 0 6 8 -2 16 -9 16 -15 1 -7 2 -17 3 -22 1 -7 7 -7 20 -1
10 6 21 7 25 4 11 -12 56 -14 56 -4 0 5 -12 12 -27 14 l-28 4 28 2 c15 0 30
-5 33 -13 3 -9 27 -13 77 -14 45 -1 67 2 58 7 -11 7 -10 10 5 15 10 3 0 4 -23
2 -24 -2 -46 0 -49 6 -3 5 -12 1 -20 -9 -11 -14 -13 -15 -8 -2 4 13 -5 18 -48
23 -128 15 -184 15 -246 -2z"/>
<path d="M4950 10 c-13 -8 -13 -10 2 -10 9 0 20 5 23 10 8 13 -5 13 -25 0z"/>
</g>
</svg>
