<?xml version="1.0" standalone="no"?>
<!DOCTYPE svg PUBLIC "-//W3C//DTD SVG 20010904//EN"
 "http://www.w3.org/TR/2001/REC-SVG-20010904/DTD/svg10.dtd">
<svg version="1.0" xmlns="http://www.w3.org/2000/svg"
 width="640.000000pt" height="640.000000pt" viewBox="0 0 640.000000 640.000000"
 preserveAspectRatio="xMidYMid meet">

<g transform="translate(0.000000,640.000000) scale(0.100000,-0.100000)"
fill="#000000" stroke="none">
<path d="M2 4618 l3 -1783 39 -5 39 -5 3 -113 c1 -62 5 -131 9 -154 5 -29 3
-43 -6 -49 -8 -5 -9 -9 -4 -9 6 0 11 -95 14 -259 4 -286 5 -277 -61 -272 -29
2 -38 -1 -38 -13 0 -14 18 -16 123 -17 67 -1 133 -2 147 -2 14 0 40 2 58 6 28
5 32 3 32 -17 l0 -23 -180 1 -180 1 0 -37 c0 -20 4 -38 9 -40 4 -2 10 -26 13
-55 4 -38 1 -53 -9 -57 -8 -4 -13 -22 -13 -52 l0 -46 195 3 195 4 0 -31 c0
-28 -4 -32 -32 -37 -18 -3 -106 -3 -195 -1 l-163 5 1 -263 c0 -216 3 -278 18
-347 10 -46 19 -122 20 -170 1 -47 3 -93 3 -101 4 -51 -3 -78 -21 -83 -17 -4
-19 -15 -19 -104 0 -98 1 -100 29 -118 15 -11 26 -21 24 -24 -3 -2 -15 3 -27
11 l-23 15 -3 -169 c-1 -94 0 -178 3 -188 5 -17 21 -18 170 -19 147 -2 165 0
174 16 10 17 10 17 11 1 0 -16 23 -17 289 -18 267 0 290 1 294 18 4 16 5 16 6
0 1 -17 142 -18 2726 -18 l2725 0 0 905 0 905 -26 -10 c-35 -14 -42 -12 -20 5
17 13 18 15 3 15 -11 0 -17 8 -17 23 0 16 -3 18 -9 8 -6 -9 -13 0 -23 30 -15
45 -14 69 4 69 5 0 6 -9 3 -20 -5 -14 -2 -20 10 -20 9 0 13 5 10 10 -4 6 6 10
22 10 22 0 25 -2 13 -10 -10 -6 -11 -10 -2 -10 6 0 12 -7 12 -16 0 -8 4 -13
10 -9 15 9 13 472 -2 478 -10 4 -10 6 0 6 9 1 12 86 12 391 l0 390 -42 0 -43
0 3 -167 c2 -93 7 -190 12 -216 6 -26 10 -121 10 -210 0 -151 -1 -163 -20
-175 -12 -7 -20 -8 -20 -2 0 5 5 10 11 10 5 0 7 5 3 12 -4 7 -3 8 4 4 8 -5 12
1 12 16 0 18 -2 20 -10 8 -8 -13 -10 -12 -10 3 0 11 -8 21 -18 24 -17 4 -19
20 -21 186 -1 99 -4 183 -6 186 -1 3 -6 86 -10 185 -6 145 -5 180 6 187 8 5
42 9 77 9 l62 0 0 71 c0 57 -4 74 -17 85 -11 7 -22 9 -28 4 -6 -5 -42 -10 -80
-12 l-70 -3 -2 -70 c-4 -139 -3 -270 3 -287 6 -20 -14 -25 -21 -5 -2 6 -7 84
-10 172 -3 88 -9 210 -13 270 l-7 110 -175 -2 c-96 -1 -262 -2 -368 -2 l-193
-1 6 -97 c13 -189 13 -475 0 -500 -10 -18 -13 33 -19 275 -4 163 -11 340 -16
392 -5 52 -10 143 -10 203 l0 107 -210 0 c-163 0 -210 3 -209 13 1 6 -1 19 -4
27 -24 59 -45 134 -40 143 3 6 1 7 -5 3 -6 -4 -19 5 -28 19 -37 57 -117 71
-175 32 -45 -30 -96 -99 -109 -146 -5 -21 -16 -44 -24 -50 -15 -13 -231 -41
-318 -41 l-57 0 6 -72 c3 -40 12 -80 19 -89 8 -8 14 -23 14 -31 0 -36 -13 -48
-58 -54 l-47 -6 2 -126 c3 -187 6 -545 4 -558 -1 -8 -30 -12 -83 -13 -62 -1
-85 3 -99 15 -10 9 -29 16 -41 16 -29 0 -78 -19 -78 -29 0 -5 -18 -8 -40 -7
-23 0 -43 -3 -46 -8 -3 -4 -13 -8 -22 -7 -14 0 -13 2 3 9 16 7 17 9 3 9 -9 1
-20 -4 -23 -9 -3 -5 -17 -10 -31 -10 -14 0 -23 4 -20 9 3 5 -1 11 -9 15 -8 3
-15 10 -15 16 0 5 -12 24 -27 40 -22 25 -34 30 -72 30 -53 0 -87 -22 -96 -62
-7 -26 -5 -28 24 -28 22 0 29 -4 25 -14 -6 -15 -39 -11 -61 7 -9 6 -13 6 -13
-2 0 -6 -5 -11 -11 -11 -6 0 -9 10 -6 23 2 12 2 46 -2 75 -6 52 -8 55 -44 67
-43 15 -87 51 -87 72 0 8 -8 16 -17 20 -25 8 -83 64 -83 80 0 7 -12 19 -28 27
-15 8 -35 23 -46 34 -17 20 -29 21 -250 22 l-231 0 -16 -29 c-11 -19 -28 -31
-50 -35 -23 -5 -40 -17 -54 -39 -15 -24 -32 -35 -65 -43 -24 -6 -46 -17 -48
-25 -9 -30 -46 -59 -74 -59 l-29 0 3 -79 c3 -73 1 -81 -17 -86 -18 -6 -17 -7
7 -16 25 -10 26 -12 12 -26 -8 -8 -18 -12 -22 -9 -3 4 0 11 8 16 13 8 12 10
-3 10 -10 0 -26 7 -35 17 -13 13 -13 15 -2 11 12 -4 17 13 25 85 7 63 15 92
25 97 61 28 76 39 87 60 7 14 22 26 35 27 46 3 80 23 91 53 8 20 18 30 32 30
12 0 34 13 50 30 l29 30 246 0 c230 0 248 -1 264 -19 10 -11 31 -25 47 -31 16
-7 29 -20 29 -29 1 -15 22 -51 31 -51 3 0 6 88 7 195 2 187 2 195 -17 195 -38
0 -51 11 -51 45 0 21 6 35 16 39 9 3 111 6 227 6 l212 0 -3 212 c-2 165 0 213
10 219 13 9 241 3 290 -7 32 -6 36 -18 43 -105 3 -35 10 -91 15 -124 6 -33 10
-89 10 -124 0 -53 2 -62 16 -57 9 3 52 6 96 6 l81 0 -7 153 c-3 83 -9 204 -12
267 l-6 115 -227 -1 c-124 0 -314 -4 -421 -8 -270 -12 -522 -13 -602 -2 -79
10 -93 -4 -24 -25 35 -10 46 -19 55 -46 l12 -33 148 0 c156 0 198 -9 206 -45
2 -11 6 -56 9 -100 3 -44 10 -113 16 -153 15 -96 8 -124 -28 -120 -30 3 -31 7
-47 251 l-7 97 -128 0 c-71 0 -136 3 -146 7 -15 5 -16 0 -10 -48 8 -71 24
-317 32 -495 5 -120 3 -142 -10 -153 -12 -10 -62 -13 -202 -12 -185 1 -186 1
-216 -24 -16 -14 -38 -25 -49 -25 -13 0 -19 -7 -19 -24 0 -15 -12 -35 -32 -51
-26 -22 -39 -26 -71 -22 -34 5 -38 3 -34 -13 9 -34 -20 -60 -66 -60 l-43 0 1
-59 c0 -33 -3 -63 -7 -67 -9 -8 -82 -7 -110 1 -23 8 -32 89 -24 233 3 64 9
227 12 362 l5 245 -176 3 c-182 3 -211 0 -212 -21 -8 -130 -24 -541 -26 -662
l-2 -160 -40 0 -40 0 -6 120 c-4 66 -7 126 -8 133 0 7 -17 12 -43 12 -24 0
-49 4 -55 8 -10 6 -12 108 -8 468 3 252 7 468 9 479 2 14 16 24 48 33 24 6 54
21 65 31 34 32 88 104 102 136 17 37 41 137 36 146 -3 3 6 11 19 17 30 13 809
27 851 14 29 -8 30 -12 41 -93 18 -126 31 -169 70 -222 20 -27 38 -47 40 -44
3 2 4 83 2 178 -4 290 0 463 11 490 7 19 19 28 43 32 41 6 59 -9 61 -54 l2
-35 270 4 c149 2 379 7 513 10 133 4 247 6 252 4 6 -2 10 -15 10 -28 l0 -24
-297 0 c-370 1 -724 -7 -781 -16 l-44 -7 7 -251 c3 -138 9 -253 12 -256 6 -6
701 -4 1048 3 l250 6 -3 45 c-3 41 -1 46 17 46 20 0 21 -6 22 -87 1 -49 3
-133 5 -188 2 -55 4 -106 4 -113 0 -10 28 -12 120 -11 l120 1 -3 199 c-2 169
0 199 13 203 11 3 11 4 -2 5 -16 1 -18 13 -18 108 0 94 2 105 14 88 10 -14 11
-25 4 -38 -5 -10 -7 -21 -4 -25 9 -8 15 2 18 29 2 19 10 25 38 29 19 3 40 4
47 2 6 -2 14 -35 18 -77 6 -66 10 -74 30 -79 24 -6 82 -57 100 -88 14 -24 92
-14 100 13 4 11 11 17 16 14 5 -3 6 1 3 9 -7 18 30 81 52 90 14 5 16 20 12 89
-3 45 -3 70 -1 55 3 -20 8 -25 21 -21 14 5 15 3 5 -8 -7 -7 -13 -23 -13 -34 0
-19 6 -22 51 -23 44 -1 50 1 44 16 -4 9 -7 25 -7 35 1 11 -4 15 -11 10 -7 -4
-7 -1 1 10 8 9 11 21 7 27 -3 5 -1 10 4 10 6 0 11 -6 11 -14 0 -8 5 -18 10
-21 12 -7 9 23 -4 44 -6 9 -5 12 5 9 20 -7 34 -245 16 -267 -9 -12 -9 -13 1
-7 7 4 12 2 13 -6 0 -7 6 -67 12 -132 l12 -119 83 0 c46 0 86 4 90 8 4 4 -3 5
-15 2 -13 -3 -23 -1 -23 4 0 5 6 9 14 9 8 0 16 5 18 10 2 6 30 14 62 17 l59 6
-9 246 c-4 135 -8 268 -9 295 -1 33 -6 51 -17 57 -9 5 -26 25 -38 44 -13 21
-26 32 -36 28 -7 -3 -14 0 -14 7 0 6 -12 -2 -26 -19 -19 -23 -34 -31 -57 -30
-18 0 -26 3 -19 6 21 8 2 23 -31 24 -18 0 -26 3 -20 6 18 7 16 23 -3 23 -10 0
-14 6 -11 14 3 7 -1 26 -9 42 -10 19 -12 30 -5 32 23 8 9 21 -26 25 -35 3 -34
4 10 5 26 1 47 -2 47 -8 0 -5 7 -10 15 -10 8 0 15 5 15 11 0 5 -5 7 -12 3 -6
-4 -8 -3 -4 4 7 12 73 9 85 -4 18 -19 21 -62 6 -68 -16 -6 -21 -46 -5 -46 6 0
6 -9 0 -26 -7 -16 -7 -23 0 -19 6 3 10 12 10 20 0 7 5 15 11 17 14 5 19 158 5
158 -5 0 -3 7 4 15 8 9 30 15 56 15 40 0 44 2 44 24 0 22 -4 23 -52 24 -40 0
-59 -5 -76 -22 -17 -15 -39 -22 -75 -23 -29 -1 -70 -5 -92 -7 -37 -5 -37 -4
15 14 30 10 47 19 37 19 -10 1 -15 6 -12 12 4 6 13 8 21 5 8 -3 24 -1 36 4 15
5 -7 7 -62 3 -47 -3 -81 -1 -77 3 5 5 34 10 65 11 31 1 71 5 89 8 28 5 32 3
35 -20 3 -24 4 -25 24 -11 15 11 20 23 17 41 -3 13 -9 22 -14 19 -5 -3 -6 -10
-3 -16 5 -7 2 -8 -5 -4 -9 6 -8 13 5 27 12 14 31 19 67 19 l49 0 -6 143 c-4
78 -11 212 -16 297 -23 391 -24 445 -7 462 12 12 46 18 121 23 91 6 106 10
111 26 4 11 32 47 62 80 53 57 99 89 168 116 23 9 -625 12 -2843 12 l-2872 1
2 -1782z m581 755 c-13 -2 -33 -2 -45 0 -13 2 -3 4 22 4 25 0 35 -2 23 -4z
m4345 -185 l3 -48 -45 0 c-30 0 -46 4 -46 13 0 8 -2 9 -8 1 -8 -12 -129 -23
-254 -24 -63 0 -78 -3 -78 -15 0 -13 29 -15 211 -15 116 1 213 0 215 -2 6 -6
13 -102 16 -218 3 -97 1 -115 -12 -115 -45 -2 -91 50 -110 127 l-11 43 -77 -3
-77 -3 -18 -57 c-10 -31 -28 -69 -40 -84 -21 -25 -26 -26 -107 -25 l-85 2 -3
210 c-1 116 0 220 3 232 5 22 10 23 143 26 75 1 191 3 257 2 l120 0 3 -47z
m-4241 -30 c-3 -7 -5 -2 -5 12 0 14 2 19 5 13 2 -7 2 -19 0 -25z m3452 -84
c12 -26 16 -64 26 -226 5 -83 4 -88 -15 -88 -23 0 -28 18 -32 104 l-3 60 -62
-3 c-81 -3 -103 4 -103 34 0 25 17 35 61 35 24 0 29 4 29 24 0 13 3 38 6 55 6
28 10 31 44 31 30 0 39 -5 49 -26z m1041 -25 c0 -6 -4 -7 -10 -4 -5 3 -10 11
-10 16 0 6 5 7 10 4 6 -3 10 -11 10 -16z m10 -103 c0 -3 -4 -8 -10 -11 -5 -3
-10 -1 -10 4 0 6 5 11 10 11 6 0 10 -2 10 -4z m-110 -66 c0 -5 -4 -10 -9 -10
-5 0 -11 -17 -15 -39 -3 -21 -14 -48 -23 -59 -18 -20 -18 -20 -38 -1 -17 17
-17 19 -2 14 11 -5 17 -2 17 6 0 11 2 11 10 -1 7 -12 11 -10 18 10 7 17 6 30
-1 38 -8 10 -7 16 2 22 8 4 10 13 7 19 -5 7 1 11 13 11 12 0 21 -4 21 -10z
m-1219 -116 c57 -10 64 -29 66 -196 2 -146 2 -148 -20 -149 -12 -1 -89 -1
-172 0 l-150 1 -6 53 c-9 83 1 281 14 289 14 9 217 10 268 2z m1138 -28 c-3
-3 -11 5 -18 17 -13 21 -12 21 5 5 10 -10 16 -20 13 -22z m-1744 -18 c7 -21
21 -279 15 -288 -6 -10 -264 -29 -307 -23 -28 4 -32 9 -37 46 -12 97 -18 199
-12 231 8 42 6 42 194 45 109 1 143 -1 147 -11z m1248 -45 c-7 -2 -19 -2 -25
0 -7 3 -2 5 12 5 14 0 19 -2 13 -5z m-343 -45 c0 -18 3 -63 7 -100 5 -57 3
-68 -9 -68 -19 0 -28 41 -28 131 0 55 3 69 15 69 10 0 15 -10 15 -32z m940
-760 c36 0 68 -6 72 -12 4 -6 8 -26 8 -43 0 -52 -27 -59 -245 -69 -104 -5
-278 -9 -385 -9 l-195 0 -3 51 c-4 65 -10 63 218 70 96 4 209 10 250 14 41 5
107 6 145 4 39 -2 99 -5 135 -6z m-3051 -61 c33 -16 36 -32 12 -56 -14 -14
-34 -21 -58 -21 l-36 0 7 -253 c6 -242 5 -255 -13 -271 -11 -10 -31 -16 -48
-14 l-28 3 -7 115 c-4 63 -8 183 -10 265 l-3 150 -30 3 c-16 2 -33 9 -37 15
-14 21 -8 56 10 66 25 15 212 13 241 -2z m3107 -197 c52 -26 81 -86 100 -210
15 -97 17 -257 3 -265 -5 -4 -6 2 -2 11 6 15 4 15 -19 0 -22 -14 -44 -16 -162
-10 l-137 7 -15 30 c-13 24 -15 58 -12 171 3 120 7 147 25 181 51 96 131 127
219 85z m-638 -74 c93 -51 161 -261 162 -494 l0 -92 -24 15 c-13 9 -30 14 -37
13 -10 -2 -15 10 -16 42 -17 308 -78 484 -158 454 -9 -4 -28 -27 -43 -53 -26
-45 -27 -49 -30 -246 l-4 -201 -34 0 -34 0 -2 76 c-4 106 1 213 12 299 11 78
49 155 93 186 26 18 84 19 115 1z m1576 -92 c8 -21 -3 -64 -18 -65 -6 0 -39
-3 -73 -5 -47 -4 -63 -1 -63 8 0 10 -2 10 -8 1 -9 -14 -91 -22 -265 -26 -105
-2 -129 1 -137 13 -12 18 -13 57 -2 64 4 2 120 7 256 10 137 3 252 8 254 11
12 11 50 4 56 -11z m-714 -53 c0 -34 -34 -48 -74 -30 -23 11 -27 23 -17 57 1
1 21 2 46 2 43 0 45 -1 45 -29z m-1112 -18 l3 -33 -55 0 c-55 0 -56 0 -56 29
0 33 14 40 70 38 32 -2 35 -5 38 -34z m566 11 c14 -36 6 -53 -27 -59 -18 -4
-50 -5 -72 -3 -32 2 -40 8 -48 32 -13 38 1 46 79 46 47 0 63 -4 68 -16z
m-3277 -70 c38 -7 41 -17 44 -149 l2 -100 -39 -20 -39 -20 -2 -75 c0 -41 -4
-322 -7 -625 -6 -512 -8 -550 -24 -550 -14 0 -17 8 -15 40 3 65 5 639 2 650
-1 6 1 102 5 215 5 113 9 238 11 279 l2 74 39 16 39 16 -3 109 c-1 60 -3 110
-5 112 -16 15 -1045 0 -1060 -15 -10 -10 -11 -240 -1 -265 4 -11 -2 -19 -21
-26 -15 -6 -30 -8 -33 -6 -2 3 -7 77 -9 165 -5 158 -5 159 17 166 60 19 1000
27 1097 9z m4246 -46 c4 -18 9 -90 13 -160 7 -125 2 -147 -24 -115 -12 15 -27
245 -18 281 9 36 23 32 29 -6z m216 -13 c33 -29 55 -91 66 -191 11 -100 -2
-107 -182 -96 l-33 2 0 111 c0 62 5 120 11 132 36 70 86 85 138 42z m-323 -10
c33 -33 57 -102 59 -173 2 -69 1 -73 -19 -70 -12 2 -22 13 -26 28 -5 22 -13
26 -65 34 -54 8 -60 7 -73 -13 -8 -12 -25 -21 -39 -21 -24 0 -24 1 -17 57 4
32 13 71 20 88 13 31 58 79 84 88 19 6 62 -3 76 -18z m-2608 3 c6 -7 13 -30
17 -50 7 -37 8 -38 52 -38 l44 0 -3 -40 c-2 -47 -12 -52 -92 -49 l-54 2 -4 68
c-2 37 -6 71 -10 74 -8 8 -477 7 -490 -1 -6 -4 -7 -34 -3 -75 7 -68 7 -69 -21
-79 -25 -10 -56 -8 -106 6 -14 4 -18 16 -18 49 l0 44 50 7 c43 6 50 10 50 28
0 28 19 53 45 59 11 3 135 5 276 6 194 1 259 -2 267 -11z m-1578 -27 c0 -22
-5 -31 -17 -32 -10 -1 -56 -2 -103 -4 -442 -13 -650 -19 -730 -19 l-95 -1 -3
26 c-2 16 3 29 12 32 8 3 88 9 178 13 90 3 164 7 165 8 1 0 135 2 297 4 l296
3 0 -30z m-20 -106 c0 -29 -1 -29 -220 -26 -69 0 -222 -5 -340 -11 -118 -7
-246 -11 -285 -8 -65 5 -70 7 -70 28 l0 24 164 4 c90 2 166 6 168 8 2 2 134 4
294 5 l289 2 0 -26z m-833 -71 c-3 -3 -12 -4 -19 -1 -8 3 -5 6 6 6 11 1 17 -2
13 -5z m-341 -72 c-3 -5 -22 -9 -42 -10 -53 -2 -76 -11 -70 -28 3 -8 1 -14 -4
-14 -14 0 -12 26 3 38 23 19 124 31 113 14z m1887 -6 c4 -10 -4 -15 -23 -18
-32 -5 -56 5 -47 19 9 15 64 14 70 -1z m114 0 c0 -8 -6 -12 -14 -9 -7 3 -10 9
-7 14 8 14 21 11 21 -5z m-321 -38 c-9 -5 -14 -13 -11 -18 3 -5 -4 -15 -16
-24 -12 -8 -18 -19 -14 -25 3 -6 1 -11 -4 -11 -19 0 -12 27 12 44 l22 17 -25
-6 c-14 -3 -29 -7 -35 -8 -22 -6 -55 -28 -55 -38 0 -7 12 -8 30 -4 20 5 30 3
30 -6 0 -8 -13 -10 -43 -6 -31 4 -50 2 -65 -9 -12 -8 -22 -10 -22 -5 0 11 73
61 89 61 5 0 14 6 21 14 6 8 18 12 26 9 9 -3 14 0 12 8 -2 9 6 14 22 14 14 0
25 6 26 13 3 24 6 27 11 8 3 -11 -2 -23 -11 -28z m524 34 c-5 -2 -8 -8 -4 -13
8 -13 -8 -11 -47 5 l-32 14 47 -2 c26 0 42 -2 36 -4z m140 2 c-34 -7 -108 -8
-103 -1 2 4 30 6 61 6 31 -1 50 -3 42 -5z m57 0 c-3 -3 -12 -4 -19 -1 -8 3 -5
6 6 6 11 1 17 -2 13 -5z m168 -1 c-11 -3 -24 -9 -29 -14 -16 -15 -28 -10 -14
6 7 8 24 14 38 13 20 0 21 -1 5 -5z m382 1 c-3 -3 -12 -4 -19 -1 -8 3 -5 6 6
6 11 1 17 -2 13 -5z m383 -1 c0 -5 -32 -8 -70 -8 -39 -1 -70 2 -70 6 0 3 32 7
70 8 39 1 70 -2 70 -6z m227 1 c-3 -3 -12 -4 -19 -1 -8 3 -5 6 6 6 11 1 17 -2
13 -5z m-1787 -29 c10 -12 10 -15 -2 -15 -8 0 -15 7 -15 15 0 8 1 15 2 15 2 0
8 -7 15 -15z m344 -14 c-2 -3 -12 3 -22 13 -16 17 -16 18 5 5 12 -7 20 -15 17
-18z m231 19 c-3 -5 -13 -10 -21 -10 -8 0 -12 5 -9 10 3 6 13 10 21 10 8 0 12
-4 9 -10z m43 -10 c-7 -10 -14 -17 -17 -15 -4 4 18 35 25 35 2 0 -1 -9 -8 -20z
m42 -1 c-7 -11 -14 -19 -16 -16 -7 7 7 37 17 37 6 0 5 -9 -1 -21z m-416 3 c3
-5 -1 -9 -9 -9 -8 0 -12 4 -9 9 3 4 7 8 9 8 2 0 6 -4 9 -8z m-274 -16 c0 -9
-7 -12 -20 -9 -11 3 -17 9 -14 14 8 14 34 10 34 -5z m77 8 c-3 -3 -12 -4 -19
-1 -8 3 -5 6 6 6 11 1 17 -2 13 -5z m33 -4 c0 -5 -2 -10 -4 -10 -3 0 -8 5 -11
10 -3 6 -1 10 4 10 6 0 11 -4 11 -10z m60 1 c0 -12 -39 -21 -45 -11 -3 5 5 11
17 13 13 2 24 5 26 6 1 0 2 -3 2 -8z m286 -9 c-10 -2 -22 0 -28 6 -6 6 0 7 19
4 21 -5 23 -7 9 -10z m273 -51 c1 -48 -5 -35 -12 24 -4 32 -3 43 3 30 5 -11 9
-35 9 -54z m54 58 c23 -13 37 -28 37 -43 0 -5 -6 -3 -14 3 -11 9 -15 9 -18 -1
-7 -19 -38 9 -38 33 0 22 4 23 33 8z m627 1 c0 -5 -4 -10 -10 -10 -5 0 -10 5
-10 10 0 6 5 10 10 10 6 0 10 -4 10 -10z m63 3 c-7 -2 -21 -2 -30 0 -10 3 -4
5 12 5 17 0 24 -2 18 -5z m-450 -12 c4 -1 7 -5 7 -11 0 -5 -6 -7 -14 -4 -8 3
-23 1 -33 -5 -12 -6 -25 -6 -34 0 -10 6 -11 9 -1 9 7 0 10 4 7 10 -4 6 6 8 27
6 18 -3 36 -5 41 -5z m-1798 -33 c48 -41 72 -92 86 -175 13 -76 12 -184 -1
-218 -8 -22 -14 -23 -115 -24 -91 0 -108 2 -125 19 -11 11 -32 21 -47 23 -33
4 -45 43 -33 109 5 24 6 46 4 49 -2 4 1 33 7 65 15 83 51 141 102 165 58 26
81 24 122 -13z m745 17 c0 -1 -9 -5 -19 -8 -13 -3 -18 -1 -14 9 4 10 33 10 33
-1z m648 -15 c-7 -10 -14 -17 -17 -15 -4 4 18 35 25 35 2 0 -1 -9 -8 -20z
m469 -20 c0 -36 -13 -30 -19 9 -3 19 0 27 7 25 7 -3 12 -18 12 -34z m-517 18
c0 -5 -5 -6 -11 -3 -6 4 -13 -2 -16 -14 -3 -12 -12 -21 -19 -21 -8 0 -14 -5
-14 -12 0 -6 -2 -9 -5 -6 -9 8 6 38 16 32 5 -3 9 2 9 10 0 9 -8 14 -20 13 -11
-1 -20 -6 -20 -11 0 -5 -3 -7 -6 -3 -3 3 -4 10 -1 14 8 12 87 13 87 1z m581
-11 c-10 -9 -11 -8 -5 6 3 10 9 15 12 12 3 -3 0 -11 -7 -18z m264 13 c3 -6 -1
-7 -9 -4 -18 7 -21 14 -7 14 6 0 13 -4 16 -10z m-361 -44 c2 -22 -1 -36 -8
-36 -7 0 -10 15 -8 41 5 47 12 45 16 -5z m61 35 c3 -5 1 -12 -5 -16 -5 -3 -10
1 -10 9 0 18 6 21 15 7z m235 -44 c0 -21 -6 -30 -20 -34 -11 -3 -20 -9 -20
-14 0 -7 368 -4 445 3 34 4 125 -14 125 -24 0 -5 -3 -7 -7 -5 -5 3 -14 -1 -21
-9 -11 -12 -9 -14 13 -14 18 0 25 5 25 20 0 13 9 22 25 26 14 3 22 10 19 15
-3 5 -10 7 -15 4 -5 -3 -6 1 -2 10 4 12 8 13 13 4 5 -7 19 -10 34 -7 21 4 30
0 43 -23 10 -16 21 -29 26 -29 4 0 5 5 2 10 -4 6 8 10 29 10 19 0 38 4 41 10
3 5 0 7 -8 4 -8 -3 -18 -1 -22 5 -8 13 24 14 44 2 7 -5 10 -14 7 -20 -10 -15
6 -14 29 3 13 10 28 11 49 5 47 -13 133 -11 139 4 4 9 2 -48 -3 -73 0 -3 -5 3
-11 12 -8 15 -13 16 -29 6 -10 -7 -16 -16 -13 -21 3 -5 10 -3 15 4 7 11 11 11
15 2 2 -7 11 -13 18 -13 7 0 16 6 18 13 4 8 8 9 14 1 4 -6 15 -14 23 -17 8 -3
-15 -6 -52 -6 -48 -1 -68 3 -69 12 0 10 -2 10 -6 0 -3 -10 -50 -13 -183 -13
-134 0 -179 3 -183 13 -3 9 -7 9 -18 1 -8 -7 -44 -14 -81 -16 -53 -4 -68 -2
-68 8 0 8 -4 14 -10 14 -5 0 -10 -6 -10 -14 0 -11 -18 -14 -80 -14 -46 0 -78
3 -75 9 4 5 -4 9 -17 9 -18 0 -20 -2 -8 -10 12 -8 11 -10 -7 -10 -13 0 -23 5
-23 10 0 6 -9 10 -21 10 -11 0 -17 -4 -14 -10 3 -5 -1 -10 -9 -10 -24 0 -19
26 9 48 14 11 25 23 25 27 0 12 -158 1 -172 -13 -9 -9 -6 -12 16 -12 15 0 25
4 21 10 -3 6 1 10 10 10 9 0 13 -4 10 -10 -3 -5 -1 -10 5 -10 6 0 8 -5 4 -11
-4 -8 0 -9 15 -4 16 5 20 3 15 -8 -5 -14 -54 -27 -106 -27 -20 0 -28 5 -29 18
-1 14 -2 14 -6 1 -3 -11 -16 -16 -43 -16 -39 0 -53 11 -27 20 9 3 9 7 0 17
-10 10 -15 7 -25 -15 l-13 -28 -730 6 c-401 4 -749 7 -772 7 -37 0 -43 3 -43
21 0 11 4 18 9 14 5 -3 12 -1 16 5 3 5 -1 10 -9 10 -9 0 -16 9 -16 20 0 11 5
20 11 20 5 0 27 11 47 25 39 27 52 31 52 16 0 -5 -13 -14 -30 -20 -16 -5 -30
-12 -30 -14 0 -4 174 -8 553 -11 152 -1 277 1 277 6 0 4 10 4 23 0 12 -5 69
-7 127 -5 177 6 204 6 227 -1 28 -9 61 22 70 64 4 23 11 30 30 30 14 0 21 -4
18 -10 -4 -6 -10 -8 -15 -5 -11 7 -30 -57 -21 -68 9 -10 220 -13 249 -3 13 4
22 3 22 -3 0 -17 60 0 85 23 17 16 22 29 18 51 -3 23 -2 27 6 15 6 -8 11 -28
11 -43z m-1310 39 c0 -2 -7 -9 -15 -16 -13 -11 -14 -10 -9 4 5 14 24 23 24 12z
m300 -8 c0 -4 -7 -8 -15 -8 -8 0 -15 4 -15 8 0 5 7 9 15 9 8 0 15 -4 15 -9z
m1590 2 c0 -5 -2 -10 -4 -10 -3 0 -8 5 -11 10 -3 6 -1 10 4 10 6 0 11 -4 11
-10z m-1550 -10 c0 -5 -5 -10 -11 -10 -5 0 -7 5 -4 10 3 6 8 10 11 10 2 0 4
-4 4 -10z m403 3 c-7 -2 -19 -2 -25 0 -7 3 -2 5 12 5 14 0 19 -2 13 -5z m44
-52 c-5 -2 -13 3 -18 10 -5 8 -4 15 1 17 6 2 11 11 11 20 1 10 4 4 8 -13 4
-16 3 -32 -2 -34z m383 4 c0 -2 -8 -1 -18 2 -14 3 -18 11 -14 29 l4 25 14 -27
c8 -14 14 -28 14 -29z m787 33 c-3 -8 -6 -5 -6 6 -1 11 2 17 5 13 3 -3 4 -12
1 -19z m-1327 0 c0 6 4 12 9 12 5 0 7 -9 4 -20 -3 -11 -14 -20 -24 -20 -21 0
-22 1 -13 25 5 13 8 14 15 3 7 -10 9 -10 9 0z m349 -20 c0 -13 -3 -17 -6 -10
-2 6 -12 12 -21 12 -15 0 -15 2 -2 10 23 15 30 12 29 -12z m236 12 c3 -5 -1
-10 -10 -10 -9 0 -13 5 -10 10 3 6 8 10 10 10 2 0 7 -4 10 -10z m-1229 -25
c-9 -9 -16 -13 -16 -8 0 12 22 34 28 28 2 -2 -3 -11 -12 -20z m304 21 c0 -3
-4 -8 -10 -11 -5 -3 -10 -1 -10 4 0 6 5 11 10 11 6 0 10 -2 10 -4z m590 -10
c0 -8 -7 -16 -15 -20 -12 -4 -13 -2 -2 14 14 24 17 25 17 6z m1900 4 c0 -5 -8
-10 -17 -10 -15 0 -16 2 -3 10 19 12 20 12 20 0z m220 0 c18 -12 2 -12 -25 0
-13 6 -15 9 -5 9 8 0 22 -4 30 -9z m-3240 -15 c0 -1 -12 -2 -26 -2 -17 0 -22
2 -13 7 10 7 39 3 39 -5z m983 -2 c-7 -2 -19 -2 -25 0 -7 3 -2 5 12 5 14 0 19
-2 13 -5z m322 -3 c-3 -5 -10 -10 -16 -10 -5 0 -9 5 -9 10 0 6 7 10 16 10 8 0
12 -4 9 -10z m3050 -35 c10 -62 13 -325 4 -325 -4 0 -5 -16 -2 -37 4 -26 3
-34 -5 -29 -7 4 -12 1 -12 -9 0 -9 5 -13 10 -10 6 3 10 1 10 -5 0 -7 -6 -10
-14 -7 -7 3 -19 0 -25 -6 -8 -8 -11 -7 -11 6 0 9 -7 17 -15 17 -11 0 -13 -8
-10 -32 4 -29 4 -30 -4 -8 -8 22 -9 20 -10 -17 -1 -23 -6 -45 -11 -48 -7 -4
-9 2 -6 17 3 12 8 40 11 61 5 31 10 37 30 37 14 0 25 -6 26 -12 1 -26 22 38
24 72 0 19 -2 91 -7 160 -7 107 -2 228 8 217 2 -1 6 -21 9 -42z m-820 18 c3
-10 -9 -12 -53 -10 -31 2 -65 0 -74 -5 -13 -6 -18 -5 -18 5 0 24 13 28 77 25
40 -1 64 -7 68 -15z m-1288 1 c-3 -3 -12 -4 -19 -1 -8 3 -5 6 6 6 11 1 17 -2
13 -5z m656 -11 c-7 -3 -13 -11 -13 -19 0 -8 -4 -14 -10 -14 -5 0 -10 2 -10 4
0 2 -3 11 -6 19 -4 11 2 14 23 14 15 0 22 -2 16 -4z m143 -20 c-4 -16 -7 -34
-8 -40 -1 -9 -22 -13 -67 -14 -36 0 -112 -3 -168 -5 -67 -3 -103 -1 -103 6 0
5 15 10 33 11 27 0 29 2 12 9 -18 8 -17 9 7 9 15 1 38 -4 52 -10 20 -10 29 -9
43 2 11 9 14 10 9 2 -4 -7 -2 -13 3 -13 6 0 11 4 11 8 0 4 9 8 20 9 11 1 18
-2 15 -8 -4 -5 11 -9 32 -9 28 0 34 3 23 10 -8 5 -10 10 -5 10 6 0 3 5 -5 10
-13 8 -13 10 -1 10 8 0 25 -10 38 -22 13 -12 26 -18 30 -14 4 4 1 11 -6 15
-10 7 -9 10 8 16 11 3 21 11 21 17 0 5 -7 8 -15 4 -8 -3 -15 -1 -15 4 0 6 10
10 21 10 18 0 20 -4 15 -27z m65 -23 c5 0 9 5 9 11 0 5 5 7 10 4 16 -10 12
-23 -7 -27 -10 -2 40 -5 110 -6 107 -1 126 0 115 12 -7 7 -20 15 -28 18 -10 3
-10 7 -3 11 6 4 19 0 28 -10 14 -13 18 -14 25 -2 10 16 17 11 22 -16 3 -19 -3
-20 -171 -23 -143 -2 -172 0 -163 11 6 7 9 24 6 38 -5 21 -4 22 6 6 6 -10 9
-25 6 -33 -3 -9 -1 -12 4 -9 6 3 11 21 11 38 2 30 2 31 6 5 2 -16 9 -28 14
-28z m191 20 c5 -31 -6 -41 -16 -15 -5 13 1 45 9 45 1 0 5 -13 7 -30z m-602 5
c10 -12 10 -15 -2 -15 -8 0 -15 7 -15 15 0 8 1 15 2 15 2 0 8 -7 15 -15z m295
5 c8 -13 -5 -13 -25 0 -13 8 -13 10 2 10 9 0 20 -4 23 -10z m170 0 c3 -5 1
-10 -4 -10 -6 0 -11 5 -11 10 0 6 2 10 4 10 3 0 8 -4 11 -10z m-1545 -20 c12
-8 11 -10 -7 -10 -13 0 -23 5 -23 10 0 13 11 13 30 0z m955 0 c-3 -5 -11 -10
-16 -10 -6 0 -7 5 -4 10 3 6 11 10 16 10 6 0 7 -4 4 -10z m89 -5 c11 -8 16
-15 10 -15 -5 0 -18 7 -28 15 -11 8 -16 15 -10 15 5 0 18 -7 28 -15z m176 -1
c0 -8 -5 -12 -10 -9 -6 4 -8 11 -5 16 9 14 15 11 15 -7z m87 10 c-3 -3 -12 -4
-19 -1 -8 3 -5 6 6 6 11 1 17 -2 13 -5z m260 -9 c0 -8 -4 -15 -9 -15 -10 0
-11 14 -1 23 9 10 10 9 10 -8z m-572 -5 c-3 -5 -11 -10 -16 -10 -6 0 -7 5 -4
10 3 6 11 10 16 10 6 0 7 -4 4 -10z m19 -14 c-4 -11 4 -16 28 -19 l33 -4 -37
-1 c-36 -2 -50 13 -31 31 10 11 13 8 7 -7z m603 8 c-3 -3 -12 -4 -19 -1 -8 3
-5 6 6 6 11 1 17 -2 13 -5z m-4230 -81 c-3 -3 -11 -2 -17 2 -8 5 -7 11 2 22
12 15 13 14 16 -1 2 -10 1 -20 -1 -23z m4511 8 c39 -4 72 -3 72 1 0 4 7 8 15
8 8 0 15 -7 15 -15 0 -12 -20 -14 -115 -12 -84 1 -115 5 -115 15 0 13 21 14
128 3z m-4723 -78 c-14 -35 -24 -161 -27 -326 l-3 -167 53 0 c50 0 52 -1 52
-28 l0 -29 -62 9 c-34 4 -66 12 -71 17 -8 8 -11 302 -3 376 14 142 22 164 55
165 9 0 11 -6 6 -17z m4610 -123 c3 -83 1 -120 -5 -110 -9 15 -15 248 -5 239
2 -3 7 -61 10 -129z m198 109 c-6 -6 -33 -10 -61 -8 -33 3 -47 1 -42 -6 5 -6
6 -27 3 -48 l-5 -37 47 0 c33 0 45 -4 42 -12 -2 -7 -12 -12 -22 -10 -10 2 -28
1 -40 -2 -17 -4 -21 -11 -17 -35 2 -16 -1 -32 -8 -36 -8 -5 -8 -10 1 -21 14
-17 -2 -19 -19 -2 -8 8 -12 49 -12 120 l0 108 72 0 c52 0 69 -3 61 -11z m-364
-42 c-1 -31 -1 -31 -9 -7 -11 36 -11 52 0 45 6 -3 10 -21 9 -38z m526 -39 c-6
-5 -5 -8 3 -8 9 0 12 -18 11 -64 -2 -60 -3 -63 -25 -63 -13 0 -24 3 -24 8 0 5
7 9 16 9 14 0 16 8 10 54 -3 30 -3 76 1 102 l8 49 5 -40 c3 -22 1 -43 -5 -47z
m-668 50 c-3 -8 -6 -5 -6 6 -1 11 2 17 5 13 3 -3 4 -12 1 -19z m-4460 -125 l0
-88 -22 80 c-12 44 -20 83 -18 88 3 4 12 7 22 7 16 0 18 -10 18 -87z m4580 55
c-3 -7 -5 -2 -5 12 0 14 2 19 5 13 2 -7 2 -19 0 -25z m20 -70 c-2 -13 -4 -5
-4 17 -1 22 1 32 4 23 2 -10 2 -28 0 -40z m-2803 -70 c7 -5 3 -8 -9 -9 -14 -1
-10 -4 10 -9 30 -8 30 -8 3 -9 -14 0 -32 -3 -40 -4 -7 -2 -10 -2 -6 0 4 2 4
11 1 19 -3 8 1 14 8 14 10 0 10 3 1 12 -7 7 -12 26 -11 43 0 30 0 30 16 -10 9
-22 21 -43 27 -47z m2723 60 c-3 -8 -6 -5 -6 6 -1 11 2 17 5 13 3 -3 4 -12 1
-19z m700 -70 c-2 -18 -4 -4 -4 32 0 36 2 50 4 33 2 -18 2 -48 0 -65z m223 55
c0 -10 -4 -14 -8 -8 -4 6 -11 13 -16 18 -5 4 -2 7 7 7 10 0 17 -8 17 -17z
m317 1 c-3 -3 -12 -4 -19 -1 -8 3 -5 6 6 6 11 1 17 -2 13 -5z m-830 -17 c-1
-5 -13 -14 -25 -18 -18 -7 -22 -5 -22 10 0 13 7 19 25 19 14 0 24 -5 22 -11z
m-482 -7 c3 -5 1 -10 -4 -10 -6 0 -11 5 -11 10 0 6 2 10 4 10 3 0 8 -4 11 -10z
m985 -15 c0 -8 -4 -15 -10 -15 -5 0 -7 7 -4 15 4 8 8 15 10 15 2 0 4 -7 4 -15z
m253 -40 c-7 -21 -13 -19 -13 6 0 11 4 18 10 14 5 -3 7 -12 3 -20z m154 -17
c-3 -7 -5 -2 -5 12 0 14 2 19 5 13 2 -7 2 -19 0 -25z m-688 6 c11 -11 13 -124
2 -124 -6 0 -11 -5 -11 -11 0 -5 4 -8 8 -5 4 2 8 -14 8 -37 0 -23 -1 -36 -4
-29 -2 7 -8 9 -13 6 -6 -4 -9 32 -8 93 l2 98 -26 -3 c-26 -3 -35 7 -20 22 7 7
53 -1 62 -10z m-254 -45 c3 -25 2 -30 -5 -19 -10 16 -14 67 -4 58 3 -3 7 -21
9 -39z m-3415 2 c0 -28 -14 -34 -85 -32 l-62 1 -6 -91 c-4 -51 -7 -143 -7
-206 0 -93 -3 -113 -15 -113 -13 0 -15 31 -13 223 0 122 3 225 5 230 2 4 44 7
94 7 81 0 89 -2 89 -19z m3290 9 c0 -5 -5 -10 -11 -10 -5 0 -7 5 -4 10 3 6 8
10 11 10 2 0 4 -4 4 -10z m650 0 c0 -5 -5 -10 -11 -10 -5 0 -7 5 -4 10 3 6 8
10 11 10 2 0 4 -4 4 -10z m230 0 c0 -5 -5 -10 -11 -10 -5 0 -7 5 -4 10 3 6 8
10 11 10 2 0 4 -4 4 -10z m40 6 c0 -2 -7 -7 -16 -10 -8 -3 -12 -2 -9 4 6 10
25 14 25 6z m55 -5 c3 -5 2 -12 -3 -15 -5 -3 -9 1 -9 9 0 17 3 19 12 6z m135
5 c0 -2 -7 -7 -16 -10 -8 -3 -12 -2 -9 4 6 10 25 14 25 6z m-1283 -38 c-3 -7
-5 -2 -5 12 0 14 2 19 5 13 2 -7 2 -19 0 -25z m1020 12 c-3 -11 0 -20 6 -20 8
0 7 -3 -1 -9 -15 -9 -7 -58 11 -64 7 -2 2 -2 -10 0 -29 4 -29 -11 -1 -31 l22
-16 -28 0 -28 0 7 58 c8 68 15 102 22 102 3 0 3 -9 0 -20z m181 13 c-10 -2
-18 -11 -18 -19 0 -8 -4 -14 -10 -14 -5 0 -10 4 -10 8 0 14 23 32 40 31 11 -1
11 -2 -2 -6z m-143 -22 c3 -5 1 -12 -5 -16 -5 -3 -10 1 -10 9 0 18 6 21 15 7z
m192 -13 c-3 -8 -6 -5 -6 6 -1 11 2 17 5 13 3 -3 4 -12 1 -19z m-620 -30 c-3
-7 -5 -2 -5 12 0 14 2 19 5 13 2 -7 2 -19 0 -25z m176 -8 c-3 -11 -7 -20 -9
-20 -2 0 -4 9 -4 20 0 11 4 20 9 20 5 0 7 -9 4 -20z m267 -14 c0 -2 -9 -2 -20
1 -11 3 -20 9 -20 15 0 5 9 4 20 -2 11 -6 20 -12 20 -14z m205 4 c-3 -5 -12
-10 -18 -10 -7 0 -6 4 3 10 19 12 23 12 15 0z m-115 -18 c0 -4 -9 -8 -20 -8
-11 0 -20 4 -20 8 0 4 9 8 20 8 11 0 20 -4 20 -8z m-533 -44 c-3 -7 -5 -2 -5
12 0 14 2 19 5 13 2 -7 2 -19 0 -25z m169 5 c-10 -10 -19 5 -10 18 6 11 8 11
12 0 2 -7 1 -15 -2 -18z m489 7 c3 -5 1 -10 -4 -10 -6 0 -11 5 -11 10 0 6 2
10 4 10 3 0 8 -4 11 -10z m-1288 -87 c-2 -16 -4 -5 -4 22 0 28 2 40 4 28 2
-13 2 -35 0 -50z m198 32 c-1 -44 -12 -55 -13 -13 -1 28 4 48 12 48 1 0 2 -16
1 -35z m595 0 c0 -27 -3 -33 -16 -28 -11 4 -12 9 -5 16 6 6 11 19 11 29 0 10
2 18 5 18 3 0 5 -16 5 -35z m-305 -17 c6 -4 2 -8 -7 -8 -10 0 -18 7 -18 17 0
9 3 12 8 7 4 -5 12 -12 17 -16z m73 -20 c0 -22 -4 -35 -10 -32 -6 4 -8 21 -5
38 3 17 3 25 0 19 -6 -17 -23 -16 -47 2 -17 13 -15 14 22 12 40 -1 41 -2 40
-39z m219 -64 l-3 -49 -2 53 c-1 37 -5 51 -14 46 -7 -5 -8 -3 -3 5 14 24 26
-6 22 -55z m380 14 c-2 -13 -4 -5 -4 17 -1 22 1 32 4 23 2 -10 2 -28 0 -40z
m-5557 -32 c0 -9 -12 -16 -32 -18 -18 -2 -32 -6 -31 -11 7 -35 14 -219 8 -236
-14 -44 -23 -18 -25 72 -1 50 -5 110 -8 132 -6 34 -11 40 -35 43 -15 2 -27 9
-27 18 0 11 17 14 75 14 59 0 75 -3 75 -14z m5590 -17 c0 -5 -4 -9 -8 -9 -5 0
-9 7 -9 15 0 8 4 12 9 9 4 -3 8 -9 8 -15z m-33 -26 c-3 -10 -5 -4 -5 12 0 17
2 24 5 18 2 -7 2 -21 0 -30z m-6092 -86 c6 -42 4 -53 -10 -63 -13 -9 -23 -10
-36 -3 -27 14 -28 106 -1 111 36 8 41 4 47 -45z m214 -42 l1 -31 -62 1 c-58 1
-63 3 -62 23 0 11 -3 19 -8 16 -13 -8 -9 20 5 39 7 10 30 17 62 19 55 3 62 -4
64 -67z m205 59 c18 -7 22 -69 5 -79 -14 -9 -16 -7 -24 43 -7 44 -6 46 19 36z
m2014 -71 c5 -10 7 -24 4 -32 -3 -9 0 -11 9 -6 11 6 12 5 2 -5 -9 -9 -53 -15
-145 -18 -154 -5 -209 8 -207 50 0 15 3 18 6 8 6 -15 33 -39 43 -40 3 0 6 9 6
20 0 13 -7 21 -21 22 -49 3 80 15 182 16 98 2 113 0 121 -15z m3464 -48 c-2
-14 -6 -25 -8 -25 -2 0 -4 11 -4 25 0 14 4 25 9 25 4 0 6 -11 3 -25z m-3380
-73 c-15 -2 -22 -9 -18 -17 4 -12 -18 -14 -117 -15 -67 -1 -140 -1 -162 0 -38
1 -65 14 -65 31 0 5 66 10 148 11 146 3 259 -2 214 -10z m-2072 4 c0 -2 -7 -9
-15 -16 -12 -10 -15 -10 -15 4 0 9 7 16 15 16 8 0 15 -2 15 -4z m1700 -6 c0
-5 -5 -10 -11 -10 -5 0 -7 -5 -3 -12 5 -8 2 -9 -10 -5 -10 4 -20 7 -22 7 -2 0
-4 7 -4 15 0 9 9 15 25 15 14 0 25 -4 25 -10z m484 -5 c3 -8 1 -15 -4 -15 -6
0 -10 7 -10 15 0 8 2 15 4 15 2 0 6 -7 10 -15z m93 -117 c-3 -7 -5 -2 -5 12 0
14 2 19 5 13 2 -7 2 -19 0 -25z m-187 1 c-12 -9 -10 -10 10 -5 21 4 23 3 9 -7
-14 -10 -14 -14 -3 -25 8 -7 14 -10 14 -6 0 4 8 -3 19 -14 10 -12 22 -18 26
-14 5 4 5 1 1 -6 -10 -17 3 -74 15 -66 5 3 9 -13 9 -35 0 -26 5 -41 13 -41 8
0 7 -4 -3 -10 -10 -6 -11 -10 -2 -10 6 0 12 -6 12 -14 0 -8 8 -17 18 -21 15
-6 14 -8 -7 -16 -18 -7 -22 -14 -16 -32 12 -38 13 -77 3 -77 -6 0 -8 6 -5 14
3 8 -2 20 -11 28 -9 7 -13 8 -9 1 4 -6 3 -22 -2 -35 -7 -16 -10 -18 -10 -6 -1
11 -6 15 -16 12 -17 -7 -20 7 -4 23 8 8 5 17 -11 33 -12 12 -24 19 -28 16 -3
-4 -16 4 -29 16 -13 12 -23 17 -23 12 0 -5 -20 -10 -45 -10 -25 -1 -45 3 -45
7 0 5 -7 9 -15 9 -8 0 -15 -5 -15 -11 0 -16 -29 16 -39 45 -7 17 -7 26 2 30 9
5 9 7 0 12 -15 7 -17 50 -3 59 6 3 10 14 9 23 0 14 -2 13 -9 -3 -7 -16 -9 -12
-9 18 -1 45 -19 70 -37 52 -7 -6 -36 -11 -66 -10 l-54 2 -3 -99 -2 -98 73 -2
c40 0 79 -1 86 -1 14 1 15 -7 2 -27 -6 -9 -10 -10 -10 -3 0 6 -8 11 -17 11
-10 -1 -39 2 -64 6 -36 5 -49 3 -59 -9 -10 -12 -15 -13 -20 -4 -5 7 -10 8 -14
1 -3 -6 3 -13 14 -17 16 -5 20 -14 19 -49 -2 -32 -6 -42 -19 -42 -9 0 -17 6
-17 13 0 7 5 13 11 13 19 0 12 50 -8 56 -14 5 -17 12 -12 37 4 17 11 34 16 37
12 8 -9 71 -30 86 -11 10 -12 15 -2 27 10 11 10 17 1 22 -8 6 -8 9 1 15 7 4
13 19 13 34 0 17 5 26 16 26 14 1 13 3 -3 15 -17 13 -14 14 30 17 27 2 121 4
209 6 119 2 156 0 145 -9z m-416 -67 c-7 -4 -14 -16 -17 -27 -4 -15 -5 -14 -6
8 -1 20 4 27 17 27 11 0 13 -3 6 -8z m3799 -212 c18 -21 9 -28 -11 -8 -9 9
-12 -3 -11 -56 1 -37 -2 -70 -5 -73 -3 -4 -6 30 -6 75 0 45 3 82 8 82 4 0 15
-9 25 -20z m-3806 -22 c-3 -8 -6 -5 -6 6 -1 11 2 17 5 13 3 -3 4 -12 1 -19z
m-348 -47 c1 -27 -3 -52 -9 -56 -6 -4 -10 15 -10 55 0 72 15 73 19 1z m598 45
c-3 -8 -1 -16 4 -18 11 -4 15 -95 5 -105 -3 -4 -6 17 -6 45 0 29 -4 52 -10 52
-5 0 -10 9 -10 20 0 11 5 20 11 20 6 0 9 -6 6 -14z m-887 -25 c0 -24 -4 -28
-19 -24 -21 5 -23 -10 -6 -36 7 -12 10 -11 17 5 7 17 8 17 5 1 -2 -17 -14 -19
-114 -22 -100 -4 -111 -2 -106 12 5 12 3 14 -8 8 -12 -7 -12 -6 -1 7 11 14 10
18 -5 27 -14 8 -1 10 55 11 65 0 72 2 72 20 0 18 7 20 55 20 54 0 55 -1 55
-29z m1210 8 c-7 -11 -14 -18 -17 -15 -8 8 5 36 17 36 7 0 7 -6 0 -21z m3247
-61 c-2 -13 -4 -3 -4 22 0 25 2 35 4 23 2 -13 2 -33 0 -45z m-5686 36 c8 -5
14 -74 6 -74 -2 0 -18 7 -36 16 -54 27 -123 -3 -158 -69 -21 -42 -40 -220 -36
-338 4 -94 3 -97 -19 -103 -13 -3 -26 -6 -30 -6 -13 0 0 343 15 405 33 140 84
188 190 180 32 -3 63 -7 68 -11z m733 5 c91 -1 109 -11 99 -50 -5 -16 -20 -18
-164 -21 l-159 -3 0 37 0 37 63 3 c34 2 65 2 68 1 3 -1 45 -3 93 -4z m1373
-36 c-3 -10 -5 -4 -5 12 0 17 2 24 5 18 2 -7 2 -21 0 -30z m206 7 c-3 -12 -8
-19 -11 -16 -5 6 5 36 12 36 2 0 2 -9 -1 -20z m-1959 -34 c-3 -9 -10 -16 -15
-16 -6 0 -5 9 1 21 13 24 24 20 14 -5z m1516 -31 c0 -5 -5 -3 -10 5 -5 8 -10
20 -10 25 0 6 5 3 10 -5 5 -8 10 -19 10 -25z m68 -1 c2 -13 -4 -24 -13 -28 -9
-3 -13 -2 -10 4 3 6 0 10 -7 11 -10 0 -10 2 0 6 6 2 12 9 12 14 0 6 -4 7 -10
4 -5 -3 -10 -1 -10 5 0 20 35 5 38 -16z m377 6 c3 -5 1 -10 -4 -10 -6 0 -11 5
-11 10 0 6 2 10 4 10 3 0 8 -4 11 -10z m35 0 c0 -5 -4 -10 -10 -10 -5 0 -10 5
-10 10 0 6 5 10 10 10 6 0 10 -4 10 -10z m30 -4 c0 -3 -7 -12 -16 -20 -22 -23
-37 -20 -16 3 16 18 32 26 32 17z m-390 -46 c0 -5 -19 -10 -42 -11 -33 0 -38
-2 -23 -9 13 -6 15 -9 5 -9 -10 -1 -11 -4 -4 -9 6 -4 14 -29 17 -57 5 -34 4
-43 -2 -30 -5 11 -10 30 -10 42 -1 12 -5 23 -10 25 -5 2 -11 14 -13 28 -3 26
-5 25 75 39 4 0 7 -3 7 -9z m64 3 c-5 -5 -12 -12 -16 -18 -4 -6 -8 -2 -8 8 0
9 7 17 17 17 9 0 12 -3 7 -7z m104 -2 c24 -1 41 -5 38 -10 -4 -5 -1 -11 5 -13
7 -2 -4 -4 -24 -4 -22 0 -32 3 -24 8 8 5 7 8 -5 8 -21 0 -29 -12 -18 -30 9
-15 3 -40 -11 -40 -4 0 -6 6 -4 13 3 6 1 26 -4 42 -5 17 -10 25 -10 18 -1 -7
-8 -10 -18 -6 -10 4 -14 2 -10 -4 3 -5 0 -10 -7 -10 -11 0 -11 5 -4 17 6 9 20
15 32 14 11 -1 40 -3 64 -3z m120 2 c-10 -2 -18 -8 -18 -12 0 -4 -9 -7 -20 -7
-11 0 -20 3 -20 7 0 9 27 17 55 17 16 0 17 -1 3 -5z m-2299 -60 l33 -26 -6
-175 c-4 -103 -11 -179 -17 -183 -6 -3 -39 -4 -74 -3 -54 3 -64 1 -68 -14 -4
-15 -9 82 -9 168 1 129 3 151 12 145 6 -3 7 1 4 10 -9 22 2 57 27 89 24 31 44
29 98 -11z m5681 -17 c0 -3 -4 -8 -10 -11 -5 -3 -10 -1 -10 4 0 6 5 11 10 11
6 0 10 -2 10 -4z m-5316 -43 c-2 -21 -6 -78 -10 -126 -3 -49 -7 -87 -9 -85 -7
7 -16 229 -10 238 4 6 12 10 20 10 9 0 12 -11 9 -37z m369 4 c-10 -52 -21 -84
-22 -64 -1 9 -4 16 -8 16 -20 -3 -43 2 -43 10 0 4 11 6 25 3 15 -2 25 0 25 7
0 7 -5 9 -10 6 -6 -4 -20 4 -31 17 -11 13 -17 17 -14 10 6 -11 3 -12 -14 -2
-32 17 -19 25 43 28 l55 2 -6 -33z m467 23 c0 -5 -2 -10 -4 -10 -3 0 -8 5 -11
10 -3 6 -1 10 4 10 6 0 11 -4 11 -10z m49 -18 c-1 -20 -3 -22 -6 -8 -4 13 -7
15 -13 7 -5 -9 -9 -7 -12 6 -4 13 0 19 13 20 15 1 19 -5 18 -25z m301 -67 c0
-46 -4 -86 -9 -89 -5 -3 -8 10 -6 29 1 19 -2 35 -6 35 -6 0 -5 63 1 118 0 2 5
0 10 -3 6 -3 10 -44 10 -90z m-1243 55 c0 -14 3 -90 5 -170 3 -144 3 -145 -19
-146 -15 -1 -23 5 -23 15 0 9 -3 87 -6 174 l-6 159 24 -4 c16 -2 23 -10 25
-28z m2160 8 c-3 -8 -6 -5 -6 6 -1 11 2 17 5 13 3 -3 4 -12 1 -19z m3213 -49
c0 -6 -4 -7 -10 -4 -5 3 -10 11 -10 16 0 6 5 7 10 4 6 -3 10 -11 10 -16z
m-4433 -26 c-3 -10 -5 -4 -5 12 0 17 2 24 5 18 2 -7 2 -21 0 -30z m1240 31
c-3 -3 -12 -4 -19 -1 -8 3 -5 6 6 6 11 1 17 -2 13 -5z m-1768 -109 c-2 -77
-11 -80 -11 -3 0 63 0 68 7 68 3 0 5 -29 4 -65z m1810 0 c0 -5 -4 -3 -9 5 -5
8 -9 22 -9 30 0 16 17 -16 18 -35z m-1837 -90 c-2 -15 0 -25 7 -25 6 0 11 7
11 16 0 8 4 13 8 10 5 -3 10 -30 11 -61 2 -56 -9 -71 -28 -37 -6 9 -11 13 -11
9 0 -5 -7 -2 -15 7 -17 17 -20 42 -5 51 6 3 10 17 10 31 0 13 4 24 9 24 4 0 6
-11 3 -25z m-872 -116 c0 -6 -4 -7 -10 -4 -5 3 -10 11 -10 16 0 6 5 7 10 4 6
-3 10 -11 10 -16z m-30 1 c0 -5 -5 -10 -11 -10 -5 0 -7 5 -4 10 3 6 8 10 11
10 2 0 4 -4 4 -10z m540 -8 c0 -11 -46 -32 -54 -25 -15 15 -4 29 24 31 17 1
30 -2 30 -6z m173 2 c-7 -3 -9 -13 -6 -22 4 -14 3 -14 -5 -2 -12 16 -7 30 11
29 9 0 9 -2 0 -5z m5262 -14 c-3 -5 -10 -10 -16 -10 -5 0 -9 5 -9 10 0 6 7 10
16 10 8 0 12 -4 9 -10z m-4951 -16 c3 -8 2 -12 -4 -9 -6 3 -10 10 -10 16 0 14
7 11 14 -7z m4983 0 c-3 -3 -12 -4 -19 -1 -8 3 -5 6 6 6 11 1 17 -2 13 -5z
m-5977 -20 c0 -2 -9 -4 -20 -4 -11 0 -20 4 -20 9 0 5 9 7 20 4 11 -3 20 -7 20
-9z m968 -29 c-3 -3 -9 2 -12 12 -6 14 -5 15 5 6 7 -7 10 -15 7 -18z m42 15
c0 -5 -2 -10 -4 -10 -3 0 -8 5 -11 10 -3 6 -1 10 4 10 6 0 11 -4 11 -10z
m-1057 -7 c-8 -3 -11 -14 -7 -29 5 -19 3 -23 -9 -19 -26 11 -11 56 18 54 6 0
4 -3 -2 -6z m163 -14 c3 -6 -1 -18 -10 -27 -9 -9 -16 -11 -16 -5 0 6 6 14 13
16 9 4 8 8 -3 16 -9 7 -10 11 -3 11 6 0 15 -5 19 -11z m47 -11 c4 -10 8 -9 17
2 9 13 11 12 8 -4 -4 -27 -21 -30 -36 -6 -7 11 -8 20 -3 20 5 0 12 -6 14 -12z
m751 -12 c-3 -9 -10 -16 -15 -16 -5 0 -4 9 3 20 14 22 21 20 12 -4z m-1094
-27 c0 -5 -4 -9 -10 -9 -5 0 -10 7 -10 16 0 8 5 12 10 9 6 -3 10 -10 10 -16z
m1063 8 c3 -8 -1 -14 -8 -14 -7 0 -11 6 -8 14 3 7 6 13 8 13 2 0 5 -6 8 -13z
m-795 -6 c11 -7 11 -9 -1 -14 -9 -3 -18 1 -21 9 -6 16 2 18 22 5z m-175 -25
c-10 -13 -20 -22 -22 -20 -4 4 29 44 36 44 2 0 -4 -11 -14 -24z m237 -6 c0 -5
-2 -10 -4 -10 -3 0 -8 5 -11 10 -3 6 -1 10 4 10 6 0 11 -4 11 -10z m-80 -15
c0 -8 -2 -15 -4 -15 -2 0 -6 7 -10 15 -3 8 -1 15 4 15 6 0 10 -7 10 -15z m110
-26 c0 -22 -4 -38 -8 -35 -8 5 -4 76 4 76 2 0 4 -18 4 -41z m-330 -21 c0 -4
-5 -10 -12 -14 -7 -5 -8 -3 -4 5 5 8 0 14 -13 18 -11 3 -18 9 -15 14 5 9 44
-11 44 -23z m310 22 c0 -5 -4 -10 -10 -10 -5 0 -10 5 -10 10 0 6 5 10 10 10 6
0 10 -4 10 -10z m-50 -10 c0 -5 -4 -10 -10 -10 -5 0 -10 5 -10 10 0 6 5 10 10
10 6 0 10 -4 10 -10z m372 -20 c-2 -16 -5 -30 -7 -30 -2 0 -5 14 -7 30 -3 19
0 30 7 30 7 0 10 -11 7 -30z m-670 -36 c-9 -16 -10 -14 -9 8 1 15 6 23 11 18
4 -4 4 -16 -2 -26z m363 -3 c3 -5 1 -12 -5 -16 -5 -3 -10 1 -10 9 0 18 6 21
15 7z m295 -26 c0 -5 -5 -3 -10 5 -5 8 -10 20 -10 25 0 6 5 3 10 -5 5 -8 10
-19 10 -25z m420 26 c0 -11 -25 -32 -31 -26 -3 2 -6 -5 -6 -16 -2 -20 -1 -20
16 -5 17 15 31 13 31 -6 0 -5 -4 -6 -10 -3 -5 3 -7 0 -4 -8 3 -8 -6 -21 -22
-32 -15 -9 -23 -11 -19 -4 6 9 3 11 -8 6 -11 -4 -17 -1 -17 8 0 9 6 12 18 8
13 -4 14 -3 6 6 -15 17 -5 64 12 57 8 -3 14 1 14 9 0 8 5 15 10 15 6 0 10 -4
10 -9z m26 -19 c-18 -16 -18 -16 -6 6 6 13 14 21 18 18 3 -4 -2 -14 -12 -24z
m-964 -24 c-8 -8 -9 -4 -5 13 4 13 8 18 11 10 2 -7 -1 -18 -6 -23z m506 -13
c-3 -3 -9 2 -12 12 -6 14 -5 15 5 6 7 -7 10 -15 7 -18z m-638 5 c0 -5 -5 -10
-11 -10 -5 0 -7 5 -4 10 3 6 8 10 11 10 2 0 4 -4 4 -10z m310 0 c0 -5 -2 -10
-4 -10 -3 0 -8 5 -11 10 -3 6 -1 10 4 10 6 0 11 -4 11 -10z m37 -32 c-3 -7 -5
-2 -5 12 0 14 2 19 5 13 2 -7 2 -19 0 -25z m-30 -20 c-3 -7 -5 -2 -5 12 0 14
2 19 5 13 2 -7 2 -19 0 -25z m-58 -31 c-1 -20 -2 -20 -8 3 -6 21 -8 22 -14 8
-3 -10 -12 -18 -18 -18 -7 0 -5 8 6 20 21 23 35 18 34 -13z m-92 17 c-3 -3
-12 -4 -19 -1 -8 3 -5 6 6 6 11 1 17 -2 13 -5z m183 2 c0 -3 -4 -8 -10 -11 -5
-3 -10 -1 -10 4 0 6 5 11 10 11 6 0 10 -2 10 -4z m690 -13 c-6 -10 -22 -36
-36 -58 -14 -22 -22 -30 -19 -17 4 12 8 34 9 49 2 19 11 30 27 34 13 4 25 7
27 8 1 1 -2 -7 -8 -16z m-60 -29 c0 -13 -4 -24 -9 -24 -4 0 -8 13 -7 29 1 35
16 30 16 -5z m-30 11 c0 -8 -2 -15 -4 -15 -2 0 -6 7 -10 15 -3 8 -1 15 4 15 6
0 10 -7 10 -15z m-656 -17 c-4 -6 1 -17 11 -25 11 -7 14 -13 8 -13 -16 0 -36
28 -28 40 3 5 8 10 11 10 3 0 2 -5 -2 -12z m46 8 c0 -2 -7 -6 -15 -10 -8 -3
-15 -1 -15 4 0 6 7 10 15 10 8 0 15 -2 15 -4z m576 -63 c-3 -4 -6 -1 -6 5 0 6
-7 9 -15 6 -8 -4 -15 -1 -15 6 0 6 5 8 10 5 6 -3 10 0 10 7 0 8 5 6 11 -5 6
-10 8 -21 5 -24z m43 -2 c-2 -6 -10 2 -17 17 -11 25 -11 25 4 10 9 -9 15 -21
13 -27z m6 -31 c-3 -5 -11 -10 -16 -10 -6 0 -7 5 -4 10 3 6 11 10 16 10 6 0 7
-4 4 -10z"/>
<path d="M3688 4652 c-49 -3 -58 -6 -58 -22 0 -10 -5 -22 -10 -25 -23 -14 4
-25 61 -25 64 0 73 8 67 52 -3 21 -7 23 -60 20z"/>
<path d="M3778 4652 c-2 -4 -3 -20 -3 -36 0 -28 1 -28 58 -30 32 -1 60 1 63 5
2 4 1 20 -2 37 -6 29 -8 30 -60 31 -29 0 -55 -3 -56 -7z"/>
<path d="M3627 4542 c-3 -4 -7 -27 -8 -52 l-4 -45 149 -3 c133 -2 148 -1 142
14 -3 8 -6 33 -6 55 l0 39 -64 0 c-71 0 -76 -5 -68 -58 4 -27 2 -31 -12 -26
-11 4 -16 18 -16 45 l0 39 -54 0 c-30 0 -57 -3 -59 -8z"/>
<path d="M3127 4643 c-26 -4 -28 -7 -25 -46 l3 -42 65 -3 65 -3 -3 51 -4 50
-36 -1 c-21 -1 -50 -4 -65 -6z"/>
<path d="M2960 4634 c-11 -3 -14 -16 -12 -47 l4 -42 59 3 59 4 0 44 0 44 -47
-1 c-27 -1 -55 -3 -63 -5z"/>
<path d="M2953 4485 c1 -40 5 -43 75 -37 42 3 52 7 52 22 0 43 -10 50 -70 50
l-58 0 1 -35z"/>
<path d="M3112 4483 c3 -36 5 -38 43 -41 43 -4 117 8 98 15 -7 3 -13 18 -13
34 l0 29 -66 0 -65 0 3 -37z"/>
<path d="M4142 4625 c0 -16 2 -22 5 -12 2 9 2 23 0 30 -3 6 -5 -1 -5 -18z"/>
<path d="M5033 3545 c-42 -29 -54 -72 -53 -180 1 -55 1 -114 1 -132 l-1 -32
120 -3 119 -3 -4 35 c-2 19 -7 71 -10 115 -8 110 -22 154 -57 187 -34 32 -81
37 -115 13z"/>
<path d="M4932 3255 c0 -16 2 -22 5 -12 2 9 2 23 0 30 -3 6 -5 -1 -5 -18z"/>
<path d="M6070 3431 c0 -8 -7 -11 -17 -6 -15 5 -16 4 -5 -6 9 -10 15 -10 24
-1 6 6 9 15 5 19 -4 3 -7 1 -7 -6z"/>
<path d="M5910 3420 c-9 -6 -10 -10 -3 -10 6 0 15 5 18 10 8 12 4 12 -15 0z"/>
<path d="M5940 3421 c0 -6 4 -13 10 -16 6 -3 7 1 4 9 -7 18 -14 21 -14 7z"/>
<path d="M5960 3239 c0 -5 5 -7 10 -4 6 3 10 8 10 11 0 2 -4 4 -10 4 -5 0 -10
-5 -10 -11z"/>
<path d="M6020 3231 c0 -6 4 -13 10 -16 6 -3 7 1 4 9 -7 18 -14 21 -14 7z"/>
<path d="M6032 3180 c0 -14 2 -19 5 -12 2 6 2 18 0 25 -3 6 -5 1 -5 -13z"/>
<path d="M6021 3134 c0 -11 3 -14 6 -6 3 7 2 16 -1 19 -3 4 -6 -2 -5 -13z"/>
<path d="M1239 2870 c0 -3 -2 -80 -4 -172 l-4 -168 55 0 54 0 0 38 c-1 63 -19
185 -30 196 -5 5 -10 18 -10 28 0 16 -58 90 -61 78z"/>
<path d="M1163 2838 c-27 -30 -42 -82 -53 -188 -4 -47 -10 -92 -12 -100 -2
-12 8 -15 47 -15 l50 1 3 39 c1 22 -1 96 -5 163 l-8 124 -22 -24z"/>
<path d="M1147 2479 c7 -7 15 -10 18 -7 3 3 -2 9 -12 12 -14 6 -15 5 -6 -5z"/>
<path d="M1782 2753 c-19 -7 -4 -23 23 -23 32 0 56 10 49 21 -5 9 -50 11 -72
2z"/>
<path d="M3220 2741 c0 -12 5 -21 10 -21 6 0 10 6 10 14 0 8 -4 18 -10 21 -5
3 -10 -3 -10 -14z"/>
<path d="M3255 2749 c-6 -9 8 -13 34 -10 7 2 11 -2 8 -6 -3 -5 -2 -15 4 -23 7
-13 9 -12 9 3 0 12 8 17 28 17 20 1 23 3 12 9 -24 13 -89 20 -95 10z"/>
<path d="M3680 2750 c0 -6 7 -10 15 -10 8 0 15 2 15 4 0 2 -7 6 -15 10 -8 3
-15 1 -15 -4z"/>
<path d="M3863 2753 c9 -2 23 -2 30 0 6 3 -1 5 -18 5 -16 0 -22 -2 -12 -5z"/>
<path d="M3992 2746 c7 -8 17 -12 22 -9 4 3 2 9 -5 14 -22 13 -31 11 -17 -5z"/>
<path d="M4030 2750 c0 -5 5 -10 10 -10 6 0 10 5 10 10 0 6 -4 10 -10 10 -5 0
-10 -4 -10 -10z"/>
<path d="M2938 2743 c7 -3 16 -2 19 1 4 3 -2 6 -13 5 -11 0 -14 -3 -6 -6z"/>
<path d="M2710 2730 c0 -6 7 -10 15 -10 8 0 15 2 15 4 0 2 -7 6 -15 10 -8 3
-15 1 -15 -4z"/>
<path d="M2880 2730 c0 -5 -11 -12 -25 -16 -32 -8 -23 -23 10 -16 16 3 25 11
25 23 0 11 -2 19 -5 19 -3 0 -5 -4 -5 -10z"/>
<path d="M4088 2733 c7 -3 16 -2 19 1 4 3 -2 6 -13 5 -11 0 -14 -3 -6 -6z"/>
<path d="M4175 2730 c-3 -5 1 -10 9 -10 9 0 16 5 16 10 0 6 -4 10 -9 10 -6 0
-13 -4 -16 -10z"/>
<path d="M1730 2719 c0 -5 5 -7 10 -4 6 3 10 8 10 11 0 2 -4 4 -10 4 -5 0 -10
-5 -10 -11z"/>
<path d="M2076 2714 c-6 -16 2 -18 22 -5 11 7 11 9 -1 14 -9 3 -18 -1 -21 -9z"/>
<path d="M2126 2722 c-3 -4 4 -9 15 -9 23 -2 25 3 4 10 -8 4 -16 3 -19 -1z"/>
<path d="M2942 2718 c-14 -14 -16 -28 -3 -28 5 0 11 9 14 20 6 23 5 24 -11 8z"/>
<path d="M3112 2719 c2 -7 10 -15 17 -17 8 -3 12 1 9 9 -2 7 -10 15 -17 17 -8
3 -12 -1 -9 -9z"/>
<path d="M3868 2723 c7 -3 16 -2 19 1 4 3 -2 6 -13 5 -11 0 -14 -3 -6 -6z"/>
<path d="M1875 2710 c-3 -5 -1 -10 4 -10 6 0 11 5 11 10 0 6 -2 10 -4 10 -3 0
-8 -4 -11 -10z"/>
<path d="M2200 2709 c0 -5 5 -7 10 -4 6 3 10 8 10 11 0 2 -4 4 -10 4 -5 0 -10
-5 -10 -11z"/>
<path d="M2365 2710 c-3 -5 -1 -10 4 -10 6 0 11 5 11 10 0 6 -2 10 -4 10 -3 0
-8 -4 -11 -10z"/>
<path d="M3372 2711 c-11 -7 -11 -9 1 -14 16 -6 27 0 27 15 0 10 -11 10 -28
-1z"/>
<path d="M3646 2713 c-12 -12 -5 -23 14 -23 11 0 20 4 20 9 0 11 -26 22 -34
14z"/>
<path d="M2588 2703 c6 -2 18 -2 25 0 6 3 1 5 -13 5 -14 0 -19 -2 -12 -5z"/>
<path d="M2780 2700 c0 -5 5 -10 10 -10 6 0 10 5 10 10 0 6 -4 10 -10 10 -5 0
-10 -4 -10 -10z"/>
<path d="M4103 2703 c9 -2 25 -2 35 0 9 3 1 5 -18 5 -19 0 -27 -2 -17 -5z"/>
<path d="M5342 2450 c0 -14 2 -19 5 -12 2 6 2 18 0 25 -3 6 -5 1 -5 -13z"/>
<path d="M1950 2230 c0 -5 5 -10 11 -10 5 0 7 5 4 10 -3 6 -8 10 -11 10 -2 0
-4 -4 -4 -10z"/>
<path d="M1915 2220 c3 -5 8 -10 11 -10 2 0 4 5 4 10 0 6 -5 10 -11 10 -5 0
-7 -4 -4 -10z"/>
<path d="M2368 1733 c7 -3 16 -2 19 1 4 3 -2 6 -13 5 -11 0 -14 -3 -6 -6z"/>
<path d="M2538 1493 c7 -3 16 -2 19 1 4 3 -2 6 -13 5 -11 0 -14 -3 -6 -6z"/>
<path d="M2605 1490 c-3 -5 -1 -10 4 -10 6 0 11 5 11 10 0 6 -2 10 -4 10 -3 0
-8 -4 -11 -10z"/>
<path d="M2360 1460 c0 -5 10 -10 23 -10 18 0 19 2 7 10 -19 13 -30 13 -30 0z"/>
<path d="M2544 1447 c-27 -29 -41 -52 -26 -43 8 5 12 -20 14 -81 l3 -88 83 -3
83 -3 -6 93 c-8 127 -11 135 -39 140 -14 3 -24 1 -23 -5 1 -5 -4 -12 -12 -15
-8 -3 -11 0 -7 7 4 6 3 11 -3 11 -5 0 -13 -4 -16 -10 -10 -16 -38 -12 -31 5 7
20 5 19 -20 -8z"/>
<path d="M2314 1399 c-3 -6 -2 -15 3 -20 5 -5 9 -1 9 11 0 23 -2 24 -12 9z"/>
<path d="M2702 1390 c0 -14 2 -19 5 -12 2 6 2 18 0 25 -3 6 -5 1 -5 -13z"/>
<path d="M2720 1349 c0 -5 -3 -8 -7 -6 -5 3 -7 -29 -7 -71 1 -43 4 -76 8 -75
26 7 28 10 19 28 -5 11 -9 46 -8 78 1 31 0 57 -2 57 -2 0 -3 -5 -3 -11z"/>
<path d="M2750 1221 c0 -6 5 -13 10 -16 6 -3 10 1 10 9 0 9 -4 16 -10 16 -5 0
-10 -4 -10 -9z"/>
<path d="M176 997 c3 -10 9 -15 12 -12 3 3 0 11 -7 18 -10 9 -11 8 -5 -6z"/>
<path d="M1066 625 c-9 -26 -7 -32 5 -12 6 10 9 21 6 23 -2 3 -7 -2 -11 -11z"/>
<path d="M1090 619 c0 -5 5 -7 10 -4 6 3 10 8 10 11 0 2 -4 4 -10 4 -5 0 -10
-5 -10 -11z"/>
<path d="M5920 6391 c81 -26 196 -99 194 -124 -1 -9 2 -14 7 -11 9 5 56 -65
51 -78 -1 -5 31 -8 71 -9 39 0 91 -2 115 -5 l42 -4 0 120 0 120 -252 -1 c-139
0 -242 -4 -228 -8z"/>
<path d="M5774 6366 c-75 -23 -163 -77 -201 -125 -91 -112 -104 -118 -254
-120 l-56 -1 7 -42 c5 -24 11 -117 15 -208 10 -257 24 -532 28 -560 2 -14 5
-35 5 -47 2 -19 9 -22 50 -25 l47 -3 7 -95 c4 -52 12 -151 18 -219 9 -94 8
-126 -1 -131 -8 -6 -8 -9 0 -11 7 -3 15 -71 21 -199 6 -107 13 -250 17 -317
l6 -123 -131 0 c-130 0 -138 2 -133 33 1 4 -8 3 -19 -3 -11 -6 -20 -13 -20
-16 0 -3 5 -2 10 1 6 3 10 2 10 -4 0 -5 -5 -11 -12 -13 -18 -6 -1 -37 26 -48
13 -5 27 -14 31 -20 3 -5 11 -8 16 -5 5 4 9 2 9 -4 0 -14 38 -33 73 -38 23 -2
28 1 23 12 -4 13 -1 12 18 -2 17 -13 25 -32 30 -68 9 -75 7 -115 -5 -115 -5 0
-7 -5 -4 -10 4 -6 7 -72 8 -147 l2 -137 60 4 c33 2 71 4 85 6 14 1 58 3 98 3
l73 1 -5 63 c-11 136 -10 401 2 405 7 2 12 -1 12 -8 0 -6 -5 -8 -12 -4 -8 5
-9 0 -5 -17 4 -13 7 -31 8 -39 0 -10 3 -8 8 5 5 12 11 -33 15 -115 4 -74 9
-136 10 -137 1 -1 29 4 61 12 33 7 64 11 69 8 5 -4 6 -1 2 5 -4 7 -2 12 4 12
6 0 30 18 53 40 l43 39 116 2 c64 1 122 -2 128 -6 9 -6 9 -2 1 14 -12 21 -29
190 -18 181 3 -3 7 -31 10 -63 5 -59 11 -76 24 -63 4 4 2 10 -5 15 -9 5 -8 13
5 30 13 19 22 22 54 18 26 -3 39 -1 43 9 3 8 12 11 23 7 16 -6 16 -5 5 9 -9
11 -12 36 -9 75 3 32 0 64 -5 71 -6 6 -7 12 -2 12 13 0 13 74 0 83 -6 5 -1 5
12 2 13 -4 22 -2 22 4 0 6 -9 11 -19 11 -11 0 -23 5 -27 12 -5 8 -1 9 12 5 15
-6 14 -3 -5 13 -13 11 -19 20 -14 20 5 0 19 -9 31 -20 l22 -21 0 216 0 215
-67 2 c-46 1 -55 3 -28 5 22 3 44 9 50 14 5 5 17 9 26 9 14 0 17 9 17 45 0 25
-3 47 -8 50 -16 10 -105 10 -104 0 0 -5 4 -29 8 -52 7 -35 13 -43 35 -46 16
-2 8 -5 -21 -7 -95 -5 -108 -5 -108 3 0 5 12 7 28 6 51 -4 64 0 58 19 -14 44
-17 92 -5 92 8 0 8 4 1 13 -6 6 -9 27 -8 45 1 18 -1 35 -6 38 -4 3 -8 14 -8
25 0 12 -7 19 -17 18 -11 0 -13 -3 -5 -6 6 -2 12 -9 12 -15 0 -6 -6 -6 -15 2
-19 16 -10 30 20 30 13 0 28 8 34 17 5 10 13 14 18 10 4 -5 -3 -17 -15 -28
-13 -10 -22 -24 -20 -30 3 -8 9 -6 20 5 9 9 19 16 23 16 12 0 35 29 35 44 0 9
-6 16 -12 16 -10 0 -9 3 1 9 7 5 10 14 7 20 -4 6 -12 9 -17 6 -5 -3 -6 2 -2
11 4 12 3 15 -6 10 -7 -5 -21 2 -36 18 -13 14 -35 28 -49 32 -14 3 -24 10 -21
14 3 5 0 12 -6 16 -6 3 -15 0 -20 -7 -6 -10 -9 -11 -9 -1 0 6 -7 12 -16 12 -8
0 -12 -4 -9 -10 3 -5 1 -10 -4 -10 -6 0 -11 9 -11 21 0 20 4 20 130 17 l131
-3 -2 235 c-1 129 -6 278 -10 330 -22 284 -30 385 -32 387 -1 1 -34 3 -72 4
-111 2 -123 6 -144 47 -60 117 -256 211 -367 178z m108 -77 c29 -6 65 -18 80
-25 61 -32 149 -152 135 -187 -4 -11 -49 -15 -214 -21 -114 -3 -236 -9 -270
-13 l-61 -6 5 44 c7 55 56 145 77 143 9 -1 14 2 11 6 -7 12 18 29 72 50 56 22
92 24 165 9z m438 -198 c0 -29 -1 -30 -66 -36 -93 -10 -136 11 -98 49 11 12
36 16 90 16 l74 0 0 -29z m-836 -22 c3 -17 3 -35 0 -40 -3 -5 -45 -9 -93 -9
-86 0 -89 1 -93 24 -9 44 7 51 128 54 50 2 52 1 58 -29z m277 -126 c6 -6 8
-20 4 -32 -6 -19 -13 -20 -191 -20 l-184 0 0 24 c0 25 3 26 95 39 59 8 265 0
276 -11z m30 -100 c6 -6 8 -20 4 -32 -6 -20 -14 -21 -128 -22 -67 0 -145 -4
-173 -8 -27 -4 -64 -3 -81 1 -26 7 -30 12 -25 33 5 29 19 34 117 38 137 6 275
1 286 -10z m422 -75 c31 -37 63 -131 76 -228 8 -60 4 -84 -17 -86 -17 -1 -202
-16 -253 -20 -68 -5 -69 -4 -63 127 4 109 17 157 56 203 52 64 149 66 201 4z
m-555 -65 c61 -40 91 -123 136 -379 l13 -71 -186 -5 c-102 -3 -188 -4 -191 -1
-3 3 -5 66 -5 141 1 191 18 244 103 315 42 34 77 34 130 0z m635 -363 c3 -11
3 -29 0 -39 -5 -18 -16 -20 -117 -23 -162 -4 -166 -4 -166 37 0 41 1 41 156
43 113 1 122 0 127 -18z m-100 -265 c-3 -9 -8 -14 -10 -11 -3 3 -2 9 2 15 9
16 15 13 8 -4z m102 -35 c-3 -5 -12 -10 -18 -10 -7 0 -6 4 3 10 19 12 23 12
15 0z m-25 -30 c0 -5 -4 -10 -10 -10 -5 0 -10 5 -10 10 0 6 5 10 10 10 6 0 10
-4 10 -10z m-108 -101 c-3 -19 -1 -29 5 -26 5 4 7 -7 4 -26 -5 -32 -5 -32 -14
11 -4 24 -6 50 -3 58 9 24 13 16 8 -17z m-320 -63 c6 -10 8 -33 6 -52 l-4 -34
158 6 c143 6 158 5 158 -9 0 -10 -1 -17 -2 -17 -2 0 -86 -3 -188 -6 -102 -3
-191 -7 -199 -10 -12 -4 -13 -23 -6 -112 5 -59 9 -187 10 -284 2 -146 0 -178
-11 -178 -11 0 -14 28 -14 148 0 81 -5 239 -10 351 -7 133 -7 207 0 211 21 13
93 3 102 -14z m368 -12 c0 -2 -7 -4 -15 -4 -8 0 -15 4 -15 10 0 5 7 7 15 4 8
-4 15 -8 15 -10z m37 0 c-3 -3 -12 -4 -19 -1 -8 3 -5 6 6 6 11 1 17 -2 13 -5z
m-87 -184 l0 -70 -37 -1 c-102 -3 -164 -2 -168 3 -3 2 11 23 31 47 38 44 114
90 152 91 21 0 22 -4 22 -70z m47 -26 c-3 -3 -12 -4 -19 -1 -8 3 -5 6 6 6 11
1 17 -2 13 -5z m123 -103 c0 -5 -10 -11 -22 -15 -37 -10 -45 -6 -16 7 21 9 25
15 18 27 -8 12 -12 13 -19 2 -7 -11 -9 -10 -14 3 -5 11 -3 14 5 9 8 -5 9 -1 5
12 -5 13 0 11 18 -9 14 -15 25 -32 25 -36z m-169 -6 c5 -4 2 -42 -5 -46 -12
-8 -242 -7 -257 1 -24 13 -21 43 6 52 21 7 243 1 256 -7z m122 -52 c-7 -2 -19
-2 -25 0 -7 3 -2 5 12 5 14 0 19 -2 13 -5z m55 -30 c3 -17 -3 -20 -47 -22 -27
-1 -52 2 -55 7 -2 4 11 6 29 4 34 -4 77 21 55 31 -6 3 -5 4 2 3 7 -1 14 -12
16 -23z m-45 0 c-7 -2 -21 -2 -30 0 -10 3 -4 5 12 5 17 0 24 -2 18 -5z m-184
-29 c46 -10 60 -43 60 -152 l0 -92 -104 0 c-58 0 -108 0 -112 0 -15 0 -14 120
1 173 21 71 61 90 155 71z m214 -101 c-7 -2 -21 -2 -30 0 -10 3 -4 5 12 5 17
0 24 -2 18 -5z m-13 -103 c0 -5 -2 -10 -4 -10 -3 0 -8 5 -11 10 -3 6 -1 10 4
10 6 0 11 -4 11 -10z m-580 -100 c0 -5 -4 -10 -10 -10 -5 0 -10 5 -10 10 0 6
5 10 10 10 6 0 10 -4 10 -10z m-13 -42 c-3 -8 -6 -5 -6 6 -1 11 2 17 5 13 3
-3 4 -12 1 -19z m513 12 c0 -5 -2 -10 -4 -10 -3 0 -8 5 -11 10 -3 6 -1 10 4
10 6 0 11 -4 11 -10z"/>
<path d="M6026 6178 c10 -14 21 -24 23 -22 3 3 -6 15 -18 27 l-24 22 19 -27z"/>
<path d="M6105 5708 c4 -40 10 -76 14 -79 3 -4 32 -9 64 -11 67 -5 71 3 36 77
-25 53 -61 85 -96 85 -25 0 -25 0 -18 -72z"/>
<path d="M6038 5737 c-14 -13 -29 -39 -33 -58 -3 -19 -8 -41 -11 -49 -3 -12 6
-14 47 -11 l51 3 -6 42 c-3 22 -5 53 -5 69 -1 33 -11 34 -43 4z"/>
<path d="M5990 5535 l0 -65 55 0 55 0 0 65 0 65 -55 0 -55 0 0 -65z"/>
<path d="M6123 5578 c4 -12 7 -41 7 -63 l0 -40 60 3 c64 4 64 4 60 67 -2 41
-6 43 -74 50 -58 7 -59 6 -53 -17z"/>
<path d="M6198 5463 c7 -3 16 -2 19 1 4 3 -2 6 -13 5 -11 0 -14 -3 -6 -6z"/>
<path d="M5690 5606 c0 -2 7 -7 16 -10 8 -3 12 -2 9 4 -6 10 -25 14 -25 6z"/>
<path d="M5710 5399 c0 -5 5 -7 10 -4 6 3 10 8 10 11 0 2 -4 4 -10 4 -5 0 -10
-5 -10 -11z"/>
<path d="M5665 5341 c-3 -5 -1 -12 5 -16 5 -3 10 1 10 9 0 18 -6 21 -15 7z"/>
<path d="M5740 5340 c0 -5 5 -10 10 -10 6 0 10 5 10 10 0 6 -4 10 -10 10 -5 0
-10 -4 -10 -10z"/>
<path d="M5771 5324 c0 -11 3 -14 6 -6 3 7 2 16 -1 19 -3 4 -6 -2 -5 -13z"/>
<path d="M5580 5320 c-12 -8 -10 -10 8 -10 13 0 20 4 17 10 -7 12 -6 12 -25 0z"/>
<path d="M5630 5300 c0 -5 4 -10 9 -10 6 0 13 5 16 10 3 6 -1 10 -9 10 -9 0
-16 -4 -16 -10z"/>
<path d="M5510 5290 c-18 -12 -2 -12 25 0 13 6 15 9 5 9 -8 0 -22 -4 -30 -9z"/>
<path d="M5661 5280 c-26 -22 -15 -26 23 -9 14 7 23 16 20 20 -8 13 -16 11
-43 -11z"/>
<path d="M5605 5280 c3 -5 -2 -10 -11 -10 -10 0 -15 -3 -11 -6 9 -9 48 6 42
17 -4 5 -11 9 -16 9 -6 0 -7 -4 -4 -10z"/>
<path d="M5533 5263 c9 -2 23 -2 30 0 6 3 -1 5 -18 5 -16 0 -22 -2 -12 -5z"/>
<path d="M5718 5263 c7 -3 16 -2 19 1 4 3 -2 6 -13 5 -11 0 -14 -3 -6 -6z"/>
<path d="M6040 5323 c0 -15 -2 -16 -10 -3 -8 13 -10 12 -10 -2 0 -10 7 -18 15
-18 8 0 15 9 15 20 0 11 -2 20 -5 20 -3 0 -5 -8 -5 -17z"/>
<path d="M5757 4833 c-8 -7 -9 -67 -2 -75 3 -2 18 -3 35 0 27 4 30 8 30 43 0
36 -2 39 -28 39 -16 0 -32 -3 -35 -7z"/>
<path d="M6135 4360 c3 -5 8 -10 11 -10 2 0 4 5 4 10 0 6 -5 10 -11 10 -5 0
-7 -4 -4 -10z"/>
<path d="M5961 4314 c0 -11 3 -14 6 -6 3 7 2 16 -1 19 -3 4 -6 -2 -5 -13z"/>
<path d="M5985 4319 c-4 -6 -5 -12 -2 -15 2 -3 7 2 10 11 7 17 1 20 -8 4z"/>
<path d="M6025 4270 c3 -5 8 -10 11 -10 2 0 4 5 4 10 0 6 -5 10 -11 10 -5 0
-7 -4 -4 -10z"/>
<path d="M6010 4190 c0 -11 2 -20 4 -20 2 0 6 9 9 20 3 11 1 20 -4 20 -5 0 -9
-9 -9 -20z"/>
<path d="M6381 6014 c0 -11 3 -14 6 -6 3 7 2 16 -1 19 -3 4 -6 -2 -5 -13z"/>
<path d="M6380 5935 c0 -5 5 -17 10 -25 5 -8 10 -10 10 -5 0 6 -5 17 -10 25
-5 8 -10 11 -10 5z"/>
<path d="M5050 4980 c0 -5 7 -10 15 -10 8 0 15 5 15 10 0 6 -7 10 -15 10 -8 0
-15 -4 -15 -10z"/>
<path d="M6341 4964 c0 -11 3 -14 6 -6 3 7 2 16 -1 19 -3 4 -6 -2 -5 -13z"/>
<path d="M6391 4964 c0 -11 3 -14 6 -6 3 7 2 16 -1 19 -3 4 -6 -2 -5 -13z"/>
<path d="M5068 4943 c6 -2 18 -2 25 0 6 3 1 5 -13 5 -14 0 -19 -2 -12 -5z"/>
<path d="M6290 4896 c0 -51 11 -61 60 -57 47 4 52 11 44 59 l-7 42 -48 0 -49
0 0 -44z"/>
<path d="M4985 4639 c-4 -6 -5 -12 -2 -15 2 -3 7 2 10 11 7 17 1 20 -8 4z"/>
<path d="M4493 4620 c-3 -11 -9 -17 -14 -14 -5 3 -9 0 -9 -5 0 -21 25 -11 37
14 7 16 7 25 1 25 -5 0 -12 -9 -15 -20z"/>
<path d="M4527 4627 c-11 -29 -9 -43 4 -30 6 6 9 19 7 29 -3 18 -4 18 -11 1z"/>
<path d="M2191 4569 c-247 -8 -291 -13 -291 -33 0 -34 -43 -148 -65 -174 -14
-17 -25 -32 -25 -35 0 -3 39 -4 88 -2 48 2 220 7 382 11 162 3 297 8 299 10 3
3 -9 31 -27 63 -17 32 -34 81 -38 109 -7 53 -19 63 -74 60 -14 0 -126 -5 -249
-9z m228 -73 c7 -8 14 -30 18 -49 4 -30 2 -35 -18 -40 -13 -4 -124 -7 -247 -7
-245 0 -241 -1 -225 61 l9 34 85 6 c46 3 148 6 225 7 111 2 144 -1 153 -12z"/>
<path d="M2380 4460 c0 -5 5 -10 10 -10 6 0 10 5 10 10 0 6 -4 10 -10 10 -5 0
-10 -4 -10 -10z"/>
<path d="M4935 4460 c-3 -5 1 -10 9 -10 9 0 16 5 16 10 0 6 -4 10 -9 10 -6 0
-13 -4 -16 -10z"/>
<path d="M4620 4450 c0 -5 5 -10 11 -10 5 0 7 5 4 10 -3 6 -8 10 -11 10 -2 0
-4 -4 -4 -10z"/>
<path d="M4905 4450 c-3 -5 -1 -10 4 -10 6 0 11 5 11 10 0 6 -2 10 -4 10 -3 0
-8 -4 -11 -10z"/>
<path d="M4970 4449 c0 -5 5 -7 10 -4 6 3 10 8 10 11 0 2 -4 4 -10 4 -5 0 -10
-5 -10 -11z"/>
<path d="M4716 4260 c-27 -11 -60 -29 -73 -42 -40 -37 -83 -110 -83 -138 0
-48 2 -47 -225 -58 l-140 -7 3 -30 c2 -16 5 -30 5 -31 1 -1 78 2 171 7 93 4
174 5 180 3 7 -3 16 18 24 48 38 160 184 245 289 169 52 -37 79 -83 99 -162
l16 -64 199 -2 c187 -1 199 0 199 17 0 10 3 26 7 35 5 14 2 16 -14 11 -11 -4
-91 -7 -178 -8 -183 -1 -176 -5 -217 112 -37 104 -106 161 -192 160 -11 -1
-43 -10 -70 -20z"/>
<path d="M2629 4236 c-3 -3 -78 -6 -167 -7 l-162 0 0 -51 0 -51 193 7 c105 5
213 7 238 7 l46 -1 -2 47 -1 46 -70 4 c-38 3 -72 2 -75 -1z"/>
<path d="M2038 4204 c-2 -2 -97 -4 -211 -5 l-207 -2 0 -44 0 -44 223 1 c122 1
241 4 264 7 l42 5 -1 44 -1 44 -53 -1 c-29 -1 -55 -3 -56 -5z"/>
<path d="M3643 4035 l4 -80 68 0 69 0 -2 50 c-5 103 -5 103 -78 107 l-65 3 4
-80z"/>
<path d="M3810 4028 l0 -78 55 0 c30 0 58 1 63 3 5 1 4 138 -2 143 0 1 -27 4
-58 6 l-58 5 0 -79z"/>
<path d="M6296 3937 c3 -10 9 -15 12 -12 3 3 0 11 -7 18 -10 9 -11 8 -5 -6z"/>
<path d="M6270 3931 c0 -6 4 -13 10 -16 6 -3 7 1 4 9 -7 18 -14 21 -14 7z"/>
<path d="M2373 3923 c-19 -4 -22 -13 -28 -86 -7 -88 -9 -180 -7 -265 l2 -53
183 3 182 3 -1 55 c0 30 -4 119 -9 197 -6 118 -11 143 -24 147 -21 5 -270 5
-298 -1z m243 -68 c19 -6 23 -44 7 -60 -8 -8 -30 -15 -49 -15 -38 0 -38 1 -34
-107 3 -94 -31 -132 -75 -83 -15 17 -18 35 -16 106 2 82 1 85 -19 79 -12 -4
-27 -1 -35 5 -21 17 -19 67 3 79 15 9 186 6 218 -4z"/>
<path d="M3650 3844 c0 -40 -3 -79 -6 -88 -5 -14 6 -16 81 -16 85 0 87 0 82
23 -3 12 -9 50 -13 84 -6 61 -8 63 -38 67 -17 3 -48 4 -68 3 l-38 -1 0 -72z"/>
<path d="M3833 3824 l2 -85 50 5 c27 3 55 5 60 6 11 0 10 27 -1 118 l-5 42
-54 0 -54 0 2 -86z"/>
<path d="M6245 3870 c-3 -5 1 -10 9 -10 9 0 16 5 16 10 0 6 -4 10 -9 10 -6 0
-13 -4 -16 -10z"/>
<path d="M6120 3822 l-115 -3 -32 -34 c-45 -47 -69 -61 -140 -76 -34 -7 -65
-19 -68 -27 -2 -7 0 -10 5 -7 6 4 10 -16 10 -50 l0 -56 75 3 75 3 0 36 c0 28
9 46 45 85 l46 51 57 -9 c31 -5 117 -5 190 -2 l133 6 -3 37 -3 36 -70 0 c-38
0 -74 3 -80 5 -5 3 -62 4 -125 2z"/>
<path d="M6323 3723 c9 -2 23 -2 30 0 6 3 -1 5 -18 5 -16 0 -22 -2 -12 -5z"/>
<path d="M6073 3713 c9 -2 25 -2 35 0 9 3 1 5 -18 5 -19 0 -27 -2 -17 -5z"/>
<path d="M6213 3713 c15 -3 25 -9 21 -15 -4 -6 1 -6 14 1 11 6 28 8 38 4 11
-4 15 -3 11 4 -4 6 -31 11 -59 10 -29 0 -41 -2 -25 -4z"/>
<path d="M3392 3672 l-33 -3 3 -51 3 -50 124 1 c69 1 128 4 131 6 4 3 87 5
184 5 96 1 178 5 181 10 3 5 3 26 -1 47 l-6 38 -276 0 c-153 0 -292 -1 -310
-3z"/>
<path d="M5980 3661 c0 -6 4 -13 10 -16 6 -3 7 1 4 9 -7 18 -14 21 -14 7z"/>
<path d="M5950 3635 c-6 -15 -8 -30 -6 -33 3 -3 10 8 16 23 6 15 8 30 6 33 -3
3 -10 -8 -16 -23z"/>
<path d="M5993 3575 c0 -8 4 -12 9 -9 5 3 6 10 3 15 -9 13 -12 11 -12 -6z"/>
<path d="M5940 3569 c0 -5 5 -7 10 -4 6 3 10 8 10 11 0 2 -4 4 -10 4 -5 0 -10
-5 -10 -11z"/>
<path d="M3598 3493 l-88 -4 4 -32 3 -32 192 0 191 0 0 38 0 37 -107 -2 c-60
-1 -147 -4 -195 -5z"/>
<path d="M6275 3420 c3 -5 8 -10 11 -10 2 0 4 5 4 10 0 6 -5 10 -11 10 -5 0
-7 -4 -4 -10z"/>
<path d="M6185 3381 c-3 -5 -1 -12 5 -16 5 -3 10 1 10 9 0 18 -6 21 -15 7z"/>
<path d="M6237 3379 c7 -7 15 -10 18 -7 3 3 -2 9 -12 12 -14 6 -15 5 -6 -5z"/>
<path d="M6305 3380 c-3 -5 1 -10 9 -10 9 0 16 5 16 10 0 6 -4 10 -9 10 -6 0
-13 -4 -16 -10z"/>
<path d="M6328 3173 c7 -3 16 -2 19 1 4 3 -2 6 -13 5 -11 0 -14 -3 -6 -6z"/>
<path d="M6291 2974 c0 -11 3 -14 6 -6 3 7 2 16 -1 19 -3 4 -6 -2 -5 -13z"/>
<path d="M0 2791 c0 -23 46 -35 54 -14 11 27 6 33 -24 33 -23 0 -30 -5 -30
-19z"/>
<path d="M6281 2704 c0 -11 3 -14 6 -6 3 7 2 16 -1 19 -3 4 -6 -2 -5 -13z"/>
<path d="M6296 2644 c-8 -22 -7 -44 2 -44 4 0 9 14 10 30 3 33 -2 39 -12 14z"/>
<path d="M6298 2523 c5 -25 6 -25 13 -8 11 29 10 35 -5 35 -9 0 -12 -8 -8 -27z"/>
</g>
</svg>
