<?xml version="1.0" standalone="no"?>
<!DOCTYPE svg PUBLIC "-//W3C//DTD SVG 20010904//EN"
 "http://www.w3.org/TR/2001/REC-SVG-20010904/DTD/svg10.dtd">
<svg version="1.0" xmlns="http://www.w3.org/2000/svg"
 width="640.000000pt" height="640.000000pt" viewBox="0 0 640.000000 640.000000"
 preserveAspectRatio="xMidYMid meet">

<g transform="translate(0.000000,640.000000) scale(0.100000,-0.100000)"
fill="#000000" stroke="none">
<path d="M0 6138 l0 -263 25 38 c14 20 30 37 35 37 10 0 -13 -60 -41 -107 -13
-20 -19 -45 -17 -71 3 -39 4 -40 22 -24 21 18 21 20 0 -57 -5 -17 -4 -22 4
-17 7 4 12 16 12 26 0 10 4 21 9 25 17 10 83 156 77 170 -7 20 5 27 22 12 13
-9 14 -9 8 1 -4 7 -2 12 4 12 6 0 8 5 5 11 -4 6 2 13 14 16 11 3 26 18 33 34
7 16 16 29 20 29 5 0 8 4 8 10 0 5 14 32 30 60 16 28 30 59 30 70 0 10 12 31
26 47 19 21 24 35 20 55 -4 21 -2 28 9 28 11 0 15 11 15 38 0 20 3 47 6 60 6
22 5 22 -90 22 -53 0 -96 -3 -96 -7 1 -5 7 -19 15 -33 8 -14 14 -29 15 -34 0
-16 -28 15 -40 44 -12 29 -15 30 -76 30 l-63 0 10 -32 c12 -44 5 -46 -15 -3
-9 19 -21 35 -26 35 -6 0 -10 -103 -10 -262z"/>
<path d="M475 6348 c-4 -29 -13 -66 -19 -83 -7 -16 -17 -43 -23 -60 -6 -16
-14 -38 -18 -47 -12 -30 9 -19 35 18 14 19 35 48 48 64 12 15 25 42 28 59 4
17 8 31 11 31 16 0 53 -36 53 -51 0 -12 7 -19 19 -19 22 0 32 -20 24 -49 -7
-28 6 -26 42 4 38 33 80 31 80 -4 0 -19 -9 -27 -45 -40 -38 -14 -46 -21 -48
-46 -4 -34 -20 -57 -33 -49 -5 3 -9 -12 -9 -33 l-1 -38 -20 27 c-20 27 -21 27
-44 10 -14 -9 -25 -24 -25 -33 0 -8 -17 -23 -37 -32 -43 -19 -133 -101 -133
-121 0 -17 -29 -42 -58 -51 -17 -5 -21 -11 -16 -27 6 -21 -29 -68 -52 -68 -10
0 -12 -10 -9 -32 4 -23 3 -27 -3 -14 -7 15 -12 10 -35 -33 -16 -31 -22 -51
-14 -50 26 3 34 -2 46 -27 10 -22 8 -31 -10 -60 -15 -25 -24 -32 -33 -25 -8 7
-17 3 -30 -14 -11 -14 -25 -25 -32 -25 -8 0 -11 -6 -7 -16 5 -13 2 -15 -14
-10 -27 9 -82 -21 -89 -48 -3 -13 -4 -40 -2 -62 l3 -39 34 48 c19 26 38 47 43
47 14 0 8 -27 -12 -53 -11 -14 -20 -30 -20 -36 0 -6 -11 -29 -25 -50 -23 -33
-26 -47 -23 -107 l3 -69 29 49 c25 41 31 46 36 30 4 -10 1 -36 -6 -58 -8 -21
-14 -45 -14 -52 0 -26 35 -14 52 17 10 17 22 28 27 24 14 -8 67 51 113 128 22
37 44 67 49 67 5 0 9 -15 9 -33 0 -27 -9 -42 -45 -76 -25 -23 -45 -51 -45 -62
0 -21 -41 -99 -68 -131 -24 -28 5 -22 40 7 29 24 32 25 49 9 18 -16 20 -15 39
7 l21 24 -6 -36 c-4 -30 0 -42 24 -73 l30 -37 49 73 c26 40 72 113 101 161 50
83 55 89 81 83 20 -3 33 1 45 14 25 28 34 17 28 -33 -7 -53 -23 -84 -85 -170
-27 -38 -48 -71 -45 -73 4 -5 38 8 67 25 45 25 80 41 92 41 8 0 58 -100 128
-260 107 -241 115 -257 121 -222 5 39 44 106 76 133 24 20 78 39 109 39 28 0
33 28 7 37 -35 11 -120 114 -143 171 -12 31 -35 77 -51 102 -70 112 -78 153
-99 500 -5 74 -12 155 -17 180 -10 49 1 115 17 105 6 -4 10 -21 11 -38 0 -25
6 -15 28 48 15 44 37 102 49 129 18 37 20 51 11 62 -9 11 -8 14 4 14 8 0 17
13 21 31 9 48 8 59 -9 53 -18 -7 -20 27 -4 59 6 12 -5 3 -26 -21 -20 -23 -40
-40 -44 -37 -11 6 -31 -40 -31 -70 0 -30 -10 -55 -21 -55 -9 0 -3 51 11 85 4
11 16 43 28 70 11 28 25 76 30 108 11 58 11 58 -25 105 -20 26 -43 62 -51 80
l-16 32 -152 0 -152 0 -7 -52z m425 -389 c0 -10 -6 -19 -13 -19 -22 0 -27 11
-16 32 12 22 29 15 29 -13z m1 -66 c-10 -17 -10 -16 -11 3 0 23 13 41 18 25 2
-6 -1 -18 -7 -28z m-196 17 c3 -5 2 -10 -4 -10 -5 0 -13 5 -16 10 -3 6 -2 10
4 10 5 0 13 -4 16 -10z m135 -40 c0 -5 -4 -10 -10 -10 -5 0 -10 5 -10 10 0 6
5 10 10 10 6 0 10 -4 10 -10z m-48 -127 c-3 -16 -7 -22 -10 -15 -4 13 4 42 11
42 2 0 2 -12 -1 -27z m-180 -135 c-10 -24 -48 -78 -83 -122 -59 -72 -64 -76
-67 -52 -5 41 34 111 102 184 66 70 83 67 48 -10z m-457 -294 c-17 -34 -20
-18 -4 23 6 15 13 23 15 17 3 -6 -2 -24 -11 -40z m-43 -116 c-7 -7 -12 -8 -12
-2 0 14 12 26 19 19 2 -3 -1 -11 -7 -17z m-22 -38 c-6 -11 -13 -20 -16 -20 -2
0 0 9 6 20 6 11 13 20 16 20 2 0 0 -9 -6 -20z m306 -57 c-11 -11 -17 4 -9 23
7 18 8 18 11 1 2 -10 1 -21 -2 -24z"/>
<path d="M923 6385 c-8 -23 5 -31 20 -12 9 12 22 15 56 10 l43 -6 -5 -44 c-3
-26 -14 -54 -26 -67 -21 -22 -20 -39 2 -30 24 9 11 -55 -16 -80 -15 -14 -23
-27 -18 -30 5 -3 14 1 21 9 19 22 30 8 30 -37 0 -40 0 -40 -31 -34 -30 6 -31
5 -27 -24 3 -17 1 -30 -4 -30 -5 0 -8 -24 -7 -52 1 -29 -1 -70 -5 -90 -7 -32
-5 -38 8 -38 9 0 16 -7 16 -16 0 -10 6 -14 15 -10 17 6 35 -22 35 -56 0 -14
-9 -60 -21 -104 -21 -81 -28 -262 -10 -273 4 -4 11 -28 15 -55 4 -27 18 -66
31 -86 13 -21 60 -111 105 -200 77 -153 156 -271 187 -278 7 -2 30 9 51 25 20
16 57 39 82 53 60 32 122 76 263 188 152 121 167 135 167 160 0 24 1 25 90 89
36 25 71 55 78 65 7 10 23 18 36 18 13 0 31 9 41 20 10 11 25 20 33 20 26 0
86 -24 99 -40 7 -8 13 -11 13 -6 0 5 6 3 13 -3 9 -7 13 -31 12 -71 -1 -52 -5
-63 -26 -77 -13 -10 -45 -38 -70 -63 -72 -71 -149 -130 -171 -130 -26 0 -54
-16 -109 -61 -25 -21 -92 -69 -150 -107 -57 -38 -133 -96 -169 -128 -36 -33
-87 -76 -113 -98 l-47 -38 21 -27 c11 -14 41 -54 66 -89 33 -43 64 -72 102
-93 31 -17 65 -39 76 -49 18 -16 37 -22 105 -36 16 -4 99 22 240 76 214 80
398 151 455 175 17 6 59 21 95 33 56 18 266 91 310 108 11 5 12 8 3 11 -7 3
-13 9 -13 14 0 4 6 6 14 3 34 -13 42 69 10 95 -16 13 -18 24 -13 53 3 22 1 42
-5 48 -8 8 -6 15 8 25 11 9 20 30 22 52 2 24 0 33 -5 24 -6 -9 -8 6 -6 38 2
34 -2 57 -11 66 -8 8 -14 18 -13 22 5 27 -4 43 -26 49 -14 3 -24 11 -23 18 1
6 -7 31 -19 56 -12 25 -28 71 -37 102 -9 31 -23 64 -32 73 -10 10 -14 24 -10
40 4 17 2 25 -6 25 -8 0 -14 15 -15 40 -1 36 1 40 18 35 15 -5 19 -1 19 19 0
16 -6 26 -15 26 -8 0 -15 5 -15 11 0 6 7 9 15 5 25 -9 18 45 -15 110 -16 32
-30 70 -30 83 0 16 -4 21 -15 17 -8 -3 -15 -1 -15 3 0 5 6 11 13 14 9 3 7 9
-5 24 -10 11 -18 25 -18 31 0 7 -4 12 -10 12 -5 0 -10 16 -10 35 0 19 -5 35
-11 35 -5 0 -8 4 -4 9 3 5 -4 12 -15 16 -11 3 -20 11 -20 16 0 6 5 7 11 3 7
-4 9 1 7 12 -2 11 -11 18 -21 16 -12 -2 -17 4 -17 23 0 15 4 24 10 20 6 -4 7
-12 4 -18 -5 -8 -3 -8 6 0 11 11 11 17 -1 39 -7 15 -20 29 -28 32 -15 6 -55
42 -46 42 3 0 18 -8 32 -17 26 -18 27 -18 20 7 -4 14 -7 28 -7 32 0 4 -6 5
-12 3 -7 -3 -18 6 -25 20 -6 14 -7 23 -2 19 5 -3 9 -1 9 5 0 5 2 16 5 23 3 8
-6 27 -20 42 -14 15 -25 38 -25 52 l0 24 -454 0 c-354 0 -455 -3 -459 -12 -4
-10 -6 -10 -6 0 -1 9 -34 12 -130 12 l-130 0 3 -46 c1 -25 -1 -47 -6 -50 -13
-8 -9 -53 7 -82 63 -116 70 -177 20 -182 -42 -5 -45 -1 -46 53 0 50 -6 90 -28
187 -5 25 -12 62 -16 83 l-6 37 -170 0 c-144 0 -171 -2 -176 -15z m617 -205
c18 -18 18 -23 6 -70 -15 -59 -20 -65 -41 -56 -34 13 -43 97 -14 133 15 18 25
17 49 -7z m10 -257 c0 -18 -29 -16 -36 2 -4 8 -3 23 1 33 6 16 7 16 21 -2 8
-11 14 -26 14 -33z m-530 -60 c-1 -24 -2 -26 -11 -10 -5 9 -7 22 -4 27 10 17
15 11 15 -17z m448 -61 c2 -7 -8 -16 -22 -21 -32 -13 -177 -158 -193 -194 -13
-29 -20 -32 -42 -18 -23 15 -4 60 44 104 25 22 45 45 45 52 0 22 58 68 79 62
12 -3 29 3 42 14 24 20 40 21 47 1z m714 -66 c15 -22 7 -36 -20 -36 -24 0 -28
4 -26 28 1 15 2 28 3 29 3 5 37 -11 43 -21z m-617 1 c10 -8 15 -19 11 -25 -9
-15 -69 -15 -83 -1 -32 32 33 54 72 26z m1205 -82 c14 -19 14 -19 -2 -6 -10 7
-18 18 -18 24 0 6 1 8 3 6 1 -2 9 -13 17 -24z m-514 -119 c16 -12 16 -15 4
-20 -40 -13 -90 -15 -116 -5 l-29 11 25 13 c33 19 91 19 116 1z m271 -828 c18
-13 33 -28 33 -34 0 -16 36 -24 49 -11 13 13 14 3 2 -21 -5 -9 -15 -33 -24
-52 -12 -30 -23 -38 -70 -53 -60 -19 -102 -12 -114 20 -4 9 -18 27 -32 39 -20
17 -25 31 -25 70 l-1 49 42 0 c23 1 45 4 49 8 14 14 58 7 91 -15z m-747 -393
c14 -8 19 -14 10 -14 -8 0 -26 6 -40 14 -14 8 -19 14 -10 14 8 0 26 -6 40 -14z"/>
<path d="M2680 6390 c0 -5 5 -10 12 -10 6 0 8 -3 5 -6 -4 -4 -13 -1 -22 6 -9
7 -18 10 -22 6 -3 -3 -1 -6 6 -6 8 0 11 -7 7 -15 -3 -8 -1 -15 4 -15 6 0 10
-8 10 -18 0 -10 8 -28 17 -42 9 -13 18 -33 20 -45 2 -11 5 -31 7 -45 2 -14 10
-41 19 -60 8 -19 18 -56 22 -83 4 -26 11 -50 16 -53 5 -3 9 -16 9 -29 0 -13 5
-27 11 -30 6 -4 8 -13 5 -21 -4 -10 7 -20 29 -31 26 -12 35 -23 35 -41 0 -44
33 -162 43 -155 6 4 8 -3 4 -17 -3 -12 -2 -30 3 -39 13 -22 50 -229 48 -266
-1 -42 11 -75 28 -75 8 0 14 -6 14 -13 0 -7 18 -50 40 -95 l40 -82 -4 -175
c-4 -183 0 -198 37 -155 9 11 17 28 17 37 0 15 42 72 97 131 27 30 30 44 6 35
-16 -6 -16 -5 -4 10 7 9 17 15 21 12 4 -2 20 10 36 27 16 17 23 28 17 24 -7
-4 -13 -3 -13 2 0 5 11 15 25 22 13 7 27 26 30 41 4 16 10 29 14 29 4 0 22 23
41 51 18 28 43 63 56 77 40 46 44 51 66 89 13 21 28 44 35 51 7 7 13 20 13 27
0 8 14 30 31 50 17 19 39 50 48 68 10 17 27 48 38 68 12 20 27 47 35 60 7 13
21 31 31 40 9 9 21 39 26 66 10 52 32 96 88 174 18 26 33 55 33 66 0 11 11 30
25 43 14 13 25 29 25 35 0 15 95 231 115 261 l15 24 -705 0 c-463 0 -705 -3
-705 -10z m226 -565 c-14 -31 -20 -24 -11 16 5 20 10 27 15 19 4 -6 2 -22 -4
-35z"/>
<path d="M4194 6389 c-3 -6 -2 -14 4 -18 13 -8 -16 -81 -33 -81 -16 0 -105
-147 -105 -172 0 -10 -5 -18 -11 -18 -6 0 -9 -6 -7 -12 4 -12 -47 -119 -78
-163 -21 -30 -17 -52 14 -63 15 -6 21 -11 14 -11 -7 -1 -22 4 -33 10 -16 8
-24 6 -40 -13 -29 -34 -50 -75 -54 -107 -4 -31 -29 -87 -51 -112 -7 -8 -15
-24 -17 -35 -1 -11 -12 -30 -23 -42 -11 -12 -34 -49 -53 -82 -18 -34 -41 -70
-52 -81 -10 -10 -19 -28 -19 -39 0 -10 -6 -23 -14 -27 -7 -4 -26 -28 -41 -53
-15 -25 -41 -62 -57 -82 -16 -21 -47 -73 -68 -117 -21 -43 -43 -82 -49 -85
-13 -9 -71 -94 -71 -106 0 -5 -9 -14 -20 -20 -11 -6 -20 -16 -20 -22 0 -6 -8
-17 -17 -24 -30 -22 0 -16 124 27 286 99 737 249 747 249 7 0 19 -24 28 -53
38 -121 91 -267 98 -267 4 0 30 20 56 45 27 26 60 52 74 59 62 34 131 89 206
163 64 64 93 85 140 102 32 12 77 33 99 45 22 13 65 31 95 41 30 9 85 37 121
61 36 24 75 44 88 44 12 0 31 9 43 19 16 15 26 18 45 10 13 -5 47 -9 74 -9 28
0 60 -5 71 -11 11 -6 48 -12 82 -13 86 -2 82 -23 -9 -54 -38 -13 -74 -28 -79
-33 -6 -5 -25 -9 -42 -9 -18 0 -35 -4 -38 -9 -3 -4 -19 -11 -35 -14 -24 -5
-29 -11 -27 -31 4 -34 -46 -73 -64 -51 -15 19 -39 19 -59 2 -37 -32 -182 -127
-194 -127 -22 -1 -47 -27 -47 -49 0 -16 6 -21 29 -21 15 0 43 -10 62 -23 38
-25 108 -56 186 -82 29 -9 55 -21 58 -26 4 -5 19 -9 35 -9 16 0 32 -4 35 -10
3 -5 14 -10 24 -10 22 0 31 -36 31 -122 0 -50 2 -58 13 -49 8 6 17 7 22 3 4
-4 5 7 1 23 -4 17 -10 56 -13 88 -5 55 -5 57 19 57 42 0 131 -52 147 -85 7
-16 28 -52 46 -80 17 -27 37 -65 44 -83 16 -38 5 -57 -46 -79 -38 -16 -97 -5
-181 33 -29 13 -62 24 -75 24 -25 1 -46 15 -67 48 -13 20 -61 45 -165 85 -16
7 -32 15 -35 18 -3 4 -27 14 -55 23 -27 9 -69 26 -92 36 -24 11 -48 20 -55 20
-7 0 -36 11 -65 24 -28 14 -61 22 -71 19 -11 -2 -30 0 -42 7 -21 11 -22 21 -5
63 13 31 -66 -17 -113 -68 -23 -25 -48 -45 -56 -45 -8 0 -21 -6 -28 -13 -37
-35 -119 -86 -132 -81 -13 5 -13 -1 -1 -43 25 -85 271 -812 345 -1018 40 -110
89 -247 110 -305 20 -58 43 -118 49 -133 6 -16 11 -34 11 -41 0 -6 4 -16 9
-21 5 -6 14 -28 21 -50 7 -22 33 -92 57 -155 87 -222 123 -322 118 -330 -3 -5
-1 -10 3 -12 9 -3 86 -200 146 -373 19 -55 37 -107 41 -116 5 -13 -10 -23 -77
-47 -46 -17 -166 -63 -268 -102 -102 -39 -207 -80 -235 -90 -27 -10 -115 -44
-195 -76 -80 -31 -157 -57 -172 -58 -14 -1 -24 -4 -22 -7 2 -4 -15 -13 -39
-21 -35 -13 -189 -71 -547 -208 -25 -9 -84 -32 -132 -50 -49 -18 -88 -39 -88
-46 0 -7 -6 -19 -13 -26 -8 -7 -17 -25 -20 -39 -4 -15 -15 -37 -25 -49 -16
-19 -24 -22 -55 -16 -23 4 -37 13 -37 21 0 8 -5 15 -11 15 -5 0 -7 5 -4 10 18
28 -14 27 -103 -6 -124 -46 -144 -50 -140 -33 2 9 -4 13 -14 11 -20 -3 -24 14
-5 21 6 3 -13 6 -43 6 -69 1 -200 31 -200 46 0 6 -19 11 -42 12 -23 1 -44 6
-47 10 -8 11 -122 10 -139 0 -7 -5 -30 -10 -53 -12 -22 -3 -46 -11 -54 -19
-13 -13 -9 -17 37 -30 60 -18 143 -66 116 -66 -26 0 -22 -13 12 -38 16 -13 30
-29 30 -38 0 -8 5 -12 10 -9 14 9 12 21 -6 39 -8 9 -11 16 -5 16 18 0 29 -33
29 -87 0 -50 -9 -66 -23 -43 -10 15 -23 12 -28 -7 -2 -10 -3 -7 -2 6 4 32 -4
51 -20 51 -20 0 -38 -28 -41 -65 -2 -19 -14 -51 -29 -72 -14 -21 -25 -43 -25
-50 0 -7 -4 -13 -10 -13 -5 0 -10 -10 -10 -23 0 -13 -11 -38 -25 -57 -14 -19
-25 -46 -25 -61 0 -15 -4 -31 -10 -34 -13 -8 -285 22 -332 37 -21 6 -38 16
-38 21 0 5 -7 3 -16 -4 -12 -10 -15 -24 -10 -61 5 -39 4 -50 -9 -54 -12 -5
-13 -9 -4 -20 9 -11 8 -14 -5 -14 -9 0 -16 -8 -16 -20 0 -11 -5 -20 -12 -20
-6 0 -8 -3 -5 -7 4 -3 -2 -12 -12 -19 -16 -11 -17 -20 -10 -56 12 -63 12 -63
-25 -78 -28 -10 -35 -19 -34 -39 0 -14 -3 -36 -7 -49 -6 -18 -3 -24 13 -29 33
-8 35 -31 4 -47 -38 -20 -76 -95 -69 -138 2 -18 0 -41 -5 -51 -5 -10 -6 -27
-3 -37 6 -19 25 -20 996 -20 l989 0 -6 39 c-8 52 17 101 52 101 37 0 82 -49
90 -99 l7 -41 413 0 414 0 0 24 c0 13 -15 64 -34 113 -42 112 -53 204 -28 253
32 65 85 44 88 -36 1 -27 9 -66 18 -87 10 -22 17 -69 18 -113 1 -41 5 -77 10
-80 4 -3 8 -21 8 -40 l0 -34 755 0 755 0 0 2164 0 2164 -25 49 c-13 27 -52 78
-85 114 -34 35 -59 58 -55 52 10 -21 -27 -3 -59 29 -16 15 -39 31 -52 34 -17
4 -24 13 -24 31 0 21 3 23 23 17 22 -7 97 -61 97 -71 0 -3 -6 -3 -13 0 -8 3
-14 -1 -14 -8 0 -10 5 -11 19 -4 24 13 23 16 -17 76 -31 46 -33 53 -18 64 13
11 19 9 39 -16 12 -16 21 -32 18 -37 -3 -4 0 -8 6 -8 6 0 9 -4 6 -9 -3 -5 5
-16 19 -25 14 -9 22 -22 19 -30 -3 -8 11 -30 33 -51 22 -22 33 -40 26 -42 -7
-3 0 -22 20 -55 17 -27 33 -45 35 -39 2 7 -8 30 -22 51 -15 22 -22 40 -16 40
6 0 13 -7 16 -15 13 -32 24 -13 24 39 0 41 -5 58 -18 68 -9 7 -30 29 -46 48
-16 19 -33 34 -38 32 -4 -1 -7 2 -6 6 2 4 -12 25 -30 47 -29 34 -33 36 -27 15
6 -24 5 -24 -9 -6 -11 14 -12 21 -3 31 10 11 19 5 47 -27 19 -22 56 -63 82
-91 l48 -52 0 108 c0 65 -4 107 -10 107 -5 0 -10 7 -10 16 0 9 5 12 13 8 8 -5
8 -2 -2 9 -9 11 -10 17 -2 17 8 0 11 69 11 240 0 215 -2 239 -16 233 -12 -4
-15 -1 -12 13 2 10 10 18 16 16 18 -3 14 45 -5 68 -12 13 -30 20 -55 20 -20 0
-40 5 -43 10 -10 16 21 23 44 11 11 -7 32 -9 46 -5 l25 6 0 184 c0 116 -4 184
-10 184 -5 0 -10 -3 -10 -7 0 -17 -83 -94 -96 -89 -8 3 -21 -12 -35 -40 -11
-25 -24 -43 -27 -40 -3 3 -11 1 -19 -6 -7 -6 -17 -8 -20 -4 -4 4 -1 11 7 16 8
5 15 24 15 41 0 18 6 34 13 37 9 3 12 -4 9 -20 -2 -12 -2 -17 0 -10 3 7 9 10
14 7 5 -4 9 1 9 9 0 9 3 16 8 16 4 0 16 17 27 37 15 27 17 37 7 41 -19 6 -14
36 13 76 37 54 31 54 -17 1 -36 -40 -46 -46 -75 -43 -19 1 -37 -3 -42 -10 -4
-7 -22 -16 -39 -21 -28 -9 -33 -7 -38 12 -8 28 -74 85 -74 64 0 -8 7 -17 15
-21 24 -9 17 -23 -10 -21 -14 2 -25 -1 -25 -6 0 -6 -5 -7 -11 -3 -6 3 -15 0
-20 -7 -4 -7 -11 -11 -14 -7 -13 12 -22 76 -14 89 15 25 11 119 -6 125 -9 4
-15 19 -15 35 0 40 -16 36 -24 -6 -9 -45 -32 -46 -74 -2 -30 31 -31 35 -21 71
19 69 79 164 132 211 l52 45 -892 0 c-644 0 -894 -3 -899 -11z m1336 -341 c4
-31 2 -49 -5 -52 -7 -2 -12 1 -13 7 -1 7 -5 31 -10 55 -8 37 -7 43 7 40 11 -2
18 -18 21 -50z m25 -216 c-3 -3 -11 0 -18 7 -9 10 -8 11 6 5 10 -3 15 -9 12
-12z m271 -56 c40 -79 65 -146 54 -146 -11 0 -60 93 -89 170 -25 66 -2 50 35
-24z m98 2 c4 -22 2 -39 -4 -43 -6 -4 -10 -3 -9 2 2 4 -3 20 -11 35 -13 28 -6
69 9 52 5 -5 12 -26 15 -46z m219 -43 c-4 -17 -2 -16 11 5 8 14 15 20 16 14 0
-7 -8 -22 -18 -33 l-17 -22 -11 30 c-10 26 -10 29 6 28 12 -1 16 -7 13 -22z
m-753 -126 c0 -4 -7 -6 -15 -3 -8 4 -15 10 -15 15 0 4 7 6 15 3 8 -4 15 -10
15 -15z m200 -149 c14 -11 19 -20 12 -20 -16 0 -82 27 -82 34 0 14 47 4 70
-14z m263 -27 c3 -15 1 -32 -4 -37 -18 -19 -8 -47 23 -66 47 -28 47 -66 -1
-41 -21 12 -37 3 -44 -24 -4 -17 -5 -17 -6 4 0 13 -13 39 -27 58 -18 24 -23
37 -15 46 5 7 9 27 9 44 -2 65 53 78 65 16z m-352 5 c38 -11 48 -21 31 -32
-12 -7 -82 13 -107 30 -19 13 -18 14 9 14 16 0 46 -5 67 -12z m-631 -13 l35
-13 -32 -1 c-39 -1 -65 8 -57 20 7 11 11 11 54 -6z m470 -30 c11 -13 7 -15
-24 -15 -35 0 -49 13 -23 23 22 9 34 7 47 -8z m97 -51 c-3 -3 -12 -4 -19 -1
-8 3 -5 6 6 6 11 1 17 -2 13 -5z m923 -4 c0 -5 -4 -10 -10 -10 -5 0 -10 5 -10
10 0 6 5 10 10 10 6 0 10 -4 10 -10z m-273 -138 c43 -26 90 -53 106 -59 45
-21 34 -36 -20 -28 -63 9 -83 21 -78 45 2 11 1 19 -3 18 -4 -1 -18 3 -32 10
-22 11 -21 10 5 -12 36 -31 29 -33 -19 -6 -36 22 -54 49 -33 51 9 0 9 2 0 6
-12 4 -19 23 -9 23 3 0 40 -21 83 -48z m-773 -128 c8 -21 -1 -34 -25 -34 -21
0 -25 20 -7 38 16 16 25 15 32 -4z m166 -78 c0 -13 3 -33 6 -43 5 -12 4 -15
-3 -8 -16 15 -27 75 -14 75 6 0 11 -11 11 -24z m-72 -69 c39 -63 42 -92 10
-81 -33 10 -48 24 -48 45 0 10 -9 23 -20 29 -19 10 -27 40 -13 53 17 18 41 2
71 -46z m298 -62 c3 -8 4 -21 2 -29 -2 -12 -12 -8 -42 18 -46 39 -43 65 5 40
17 -8 32 -21 35 -29z m465 -7 c55 -73 54 -72 36 -65 -10 4 -17 1 -17 -6 -1 -7
-14 4 -30 22 -22 26 -26 37 -17 43 8 5 7 8 -5 8 -11 0 -15 5 -12 15 9 22 17
19 45 -17z m153 16 c5 -14 4 -15 -9 -4 -17 14 -19 20 -6 20 5 0 12 -7 15 -16z
m31 -4 c3 -5 1 -10 -4 -10 -6 0 -11 5 -11 10 0 6 2 10 4 10 3 0 8 -4 11 -10z
m-255 -8 c0 -5 13 -29 29 -53 21 -31 26 -46 18 -51 -21 -13 -26 -9 -52 42 -29
57 -31 70 -10 70 8 0 15 -4 15 -8z m-511 -157 c0 -11 -3 -14 -6 -7 -4 10 -8 8
-18 -5 -12 -17 -14 -16 -20 10 -4 15 -4 39 0 55 6 26 6 26 -9 7 -16 -19 -16
-19 -7 6 5 15 6 31 0 40 -5 8 -9 19 -9 24 0 6 16 -17 35 -50 19 -33 34 -69 34
-80z m209 117 c3 -9 -2 -13 -14 -10 -9 1 -19 9 -22 16 -3 9 2 13 14 10 9 -1
19 -9 22 -16z m221 -4 c5 -13 6 -27 4 -31 -3 -5 9 -26 26 -47 33 -42 37 -50
20 -50 -5 0 -7 5 -3 12 4 7 3 8 -5 4 -9 -6 -6 -17 9 -44 l22 -37 -32 33 c-25
25 -30 35 -21 45 11 14 6 27 -10 27 -5 0 -6 -7 -3 -15 4 -8 2 -15 -2 -15 -8 0
-44 106 -44 130 0 19 31 10 39 -12z m-74 -88 c7 -24 7 -24 -9 -5 -12 16 -15
17 -16 4 0 -8 9 -25 21 -37 19 -21 74 -160 67 -168 -8 -7 -137 102 -133 113 2
7 0 15 -5 18 -6 4 -10 0 -10 -7 -1 -12 -30 47 -30 60 0 3 9 -3 20 -13 25 -22
26 -9 3 19 -12 14 -9 13 11 -4 15 -14 32 -34 37 -45 8 -17 9 -16 4 5 -4 14 -7
30 -7 37 -1 7 -5 10 -10 7 -9 -6 -28 38 -28 68 0 16 5 19 25 16 18 -4 25 -1
26 11 0 15 17 -24 34 -79z m-190 -6 c42 -42 74 -78 71 -81 -6 -6 -86 38 -86
48 0 3 -18 26 -40 50 -22 24 -40 47 -40 51 0 20 24 2 95 -68z m89 49 c11 -28
-8 -33 -27 -7 -17 23 -17 24 1 24 11 0 23 -8 26 -17z m-146 -72 c32 -29 42
-51 21 -51 -15 0 -76 48 -83 66 -9 24 27 16 62 -15z m467 19 c-3 -5 -11 -10
-16 -10 -6 0 -7 5 -4 10 3 6 11 10 16 10 6 0 7 -4 4 -10z m-515 -132 c0 -30
-19 -20 -40 22 -21 41 -25 71 -12 84 8 9 52 -80 52 -106z m-79 79 c-10 -9 -11
-8 -5 6 3 10 9 15 12 12 3 -3 0 -11 -7 -18z m-1021 -77 c4 0 18 -18 29 -41
l22 -41 -23 -41 c-19 -34 -29 -42 -52 -42 -18 0 -33 7 -40 20 -6 11 -14 22
-17 25 -7 5 -12 35 -10 61 2 23 52 71 69 64 7 -3 17 -5 22 -5z m1541 -27 c13
-16 12 -17 -3 -4 -10 7 -18 15 -18 17 0 8 8 3 21 -13z m25 -70 c15 -27 40 -63
56 -81 15 -18 28 -38 28 -45 0 -7 28 -59 61 -117 101 -172 129 -222 129 -229
0 -4 -6 -15 -13 -25 -12 -16 -16 -13 -46 41 -97 176 -182 317 -193 321 -4 2
-8 10 -8 18 0 8 -5 14 -12 14 -6 0 -9 3 -5 6 3 3 -5 18 -19 33 -21 23 -22 27
-9 37 12 9 13 17 5 38 -20 54 -9 49 26 -11z m-411 -30 c22 -27 25 -38 18 -59
l-9 -26 -28 41 c-16 23 -26 47 -22 56 3 9 2 13 -4 10 -6 -3 -10 1 -10 10 0 21
20 10 55 -32z m60 -74 c11 -35 -11 -44 -23 -10 -9 25 -8 31 3 31 7 0 17 -9 20
-21z m550 -99 c3 -5 1 -10 -4 -10 -6 0 -11 5 -11 10 0 6 2 10 4 10 3 0 8 -4
11 -10z m-955 -30 c0 -5 -7 -10 -15 -10 -8 0 -15 5 -15 10 0 6 7 10 15 10 8 0
15 -4 15 -10z m669 -9 c7 -13 6 -23 -3 -36 -17 -24 -36 -11 -36 26 0 33 23 40
39 10z m251 -271 c11 -11 20 -30 20 -42 0 -13 7 -32 15 -42 8 -11 15 -35 15
-53 0 -67 -76 -98 -114 -47 -20 28 -21 40 -10 124 10 82 33 101 74 60z m-1197
-1 c30 -8 37 -15 37 -35 0 -32 -17 -64 -34 -64 -7 0 -21 9 -30 19 -10 11 -27
21 -39 23 -11 2 -25 11 -31 21 -9 15 -7 21 8 33 23 17 39 17 89 3z m564 -645
c3 -8 0 -27 -6 -40 -23 -51 -77 -11 -57 42 7 19 55 18 63 -2z m673 -144 c4
-28 0 -36 -20 -37 -22 -2 -26 17 -9 49 11 21 26 15 29 -12z m-495 10 c10 -16
-23 -60 -44 -60 -26 0 -33 23 -15 49 16 22 48 28 59 11z m-665 -239 c0 -49
-13 -59 -34 -26 -13 20 -14 28 -4 45 21 33 38 24 38 -19z m1098 -640 c6 -1 12
-7 12 -15 0 -21 -54 -15 -58 6 -2 11 3 15 15 13 10 -2 24 -4 31 -4z m-248
-191 c0 -5 -2 -10 -4 -10 -3 0 -8 5 -11 10 -3 6 -1 10 4 10 6 0 11 -4 11 -10z
m18 -39 c33 -29 28 -49 -15 -57 -31 -6 -39 -3 -55 16 -23 28 -23 47 0 53 33 9
47 6 70 -12z m55 -396 c0 -33 -3 -40 -19 -40 -13 0 -20 8 -22 28 -5 39 5 59
25 55 12 -2 16 -14 16 -43z m-197 -190 c9 -14 14 -28 11 -32 -7 -6 -46 36 -47
50 0 16 20 6 36 -18z m45 -72 c13 -10 33 -23 44 -29 25 -14 33 -64 10 -64 -46
0 -95 46 -95 89 0 26 10 26 41 4z m-1052 -68 c5 -28 -29 -85 -56 -91 -36 -9
-53 2 -53 35 0 57 99 109 109 56z m-1849 -185 c-8 -5 -19 -10 -25 -10 -5 0 -3
5 5 10 8 5 20 10 25 10 6 0 3 -5 -5 -10z m-131 -110 c10 -47 6 -106 -8 -114
-4 -3 -7 13 -7 35 -1 21 -7 52 -14 69 -13 30 -8 60 9 60 5 0 14 -22 20 -50z
m1922 23 c12 -33 -6 -55 -39 -47 -37 10 -24 74 15 74 8 0 18 -12 24 -27z
m1566 -250 c-3 -10 -5 -2 -5 17 0 19 2 27 5 18 2 -10 2 -26 0 -35z m-3627 -13
c0 -13 -1 -13 -10 0 -5 8 -10 22 -10 30 0 13 1 13 10 0 5 -8 10 -22 10 -30z
m430 -4 c0 -16 -18 -31 -27 -22 -8 8 5 36 17 36 5 0 10 -6 10 -14z m884 -2
c12 -4 16 -20 16 -55 0 -27 -2 -49 -4 -49 -2 0 -11 -3 -20 -6 -22 -9 -54 63
-47 109 1 9 33 9 55 1z m-1309 -68 c-4 -20 -11 -36 -16 -36 -12 0 -11 23 1 56
14 36 23 24 15 -20z m1049 -78 c8 -18 20 -64 26 -103 7 -38 16 -74 20 -80 12
-16 -7 -53 -30 -60 -30 -9 -70 29 -70 67 0 16 -7 42 -15 57 -8 16 -17 47 -21
69 -5 32 -2 44 15 61 31 31 59 27 75 -11z m-355 -32 c26 -32 29 -115 5 -145
-1 -1 -19 9 -38 24 -39 30 -55 79 -37 114 13 24 53 28 70 7z m690 -28 c21 -37
5 -80 -34 -93 -50 -17 -55 -23 -45 -51 14 -36 12 -117 -2 -136 -18 -23 -53 -7
-78 34 -16 25 -20 47 -18 93 3 51 6 61 27 71 13 7 31 30 41 52 30 66 81 81
109 30z m-506 -55 c-2 -18 2 -35 7 -38 6 -3 10 -15 10 -26 0 -11 7 -31 16 -45
31 -46 12 -164 -27 -172 -9 -2 -21 9 -29 25 -13 28 -31 256 -22 281 2 7 14 12
26 10 17 -2 21 -9 19 -35z m1720 -107 c36 -62 69 -125 72 -139 12 -48 -13 -37
-46 20 -18 32 -39 67 -45 78 -30 50 -74 137 -74 146 0 5 6 9 14 9 7 0 43 -51
79 -114z m-453 -76 c0 -19 -5 -30 -14 -30 -20 0 -28 28 -13 45 19 22 27 18 27
-15z m-1551 -12 c4 -13 11 -67 14 -121 6 -97 6 -98 -18 -109 -20 -9 -28 -8
-45 7 -25 23 -34 53 -21 69 8 10 7 23 -4 49 -20 49 -19 69 6 101 25 32 57 34
68 4z m-342 -53 c24 -17 36 -52 20 -62 -11 -7 -57 44 -57 65 0 16 11 15 37 -3z
m1980 -11 c2 -5 -3 -19 -12 -29 -14 -19 -14 -18 -15 13 0 31 18 42 27 16z
m221 -2 c-3 -10 1 -27 8 -37 19 -26 18 -82 -2 -93 -44 -25 -84 18 -84 89 0 47
9 59 47 59 29 0 35 -3 31 -18z m-188 -16 c0 -15 -24 -66 -31 -66 -8 0 -3 43 8
63 4 7 23 10 23 3z m-2303 -98 c-3 -8 -6 -5 -6 6 -1 11 2 17 5 13 3 -3 4 -12
1 -19z m1413 -69 c0 -21 -36 -31 -51 -13 -6 8 -8 26 -4 44 l7 32 24 -23 c13
-12 24 -30 24 -40z"/>
<path d="M6170 4821 c0 -5 5 -13 10 -16 6 -3 10 -2 10 4 0 5 -4 13 -10 16 -5
3 -10 2 -10 -4z"/>
<path d="M1330 6190 c0 -5 5 -10 10 -10 6 0 10 5 10 10 0 6 -4 10 -10 10 -5 0
-10 -4 -10 -10z"/>
<path d="M6010 6023 c0 -44 1 -45 28 -38 15 3 35 16 44 28 19 25 13 31 -43 47
l-29 9 0 -46z"/>
<path d="M924 5775 c-11 -22 -27 -40 -35 -40 -22 0 -22 -27 1 -84 15 -40 18
-57 10 -72 -6 -11 -8 -24 -4 -30 6 -10 32 51 48 114 5 20 3 27 -9 27 -9 0 -15
9 -15 22 0 21 1 21 13 3 20 -26 38 -11 24 19 -8 16 -14 21 -19 13 -5 -8 -8 -7
-8 5 0 9 5 18 11 20 6 2 9 13 7 24 -2 16 -7 12 -24 -21z"/>
<path d="M955 5642 c-4 -24 -5 -46 -2 -49 8 -7 20 63 14 79 -2 7 -7 -6 -12
-30z"/>
<path d="M10 5646 c0 -8 -3 -23 -6 -33 -5 -12 -4 -15 3 -8 16 15 26 55 14 55
-6 0 -11 -6 -11 -14z"/>
<path d="M871 5464 c0 -11 3 -14 6 -6 3 7 2 16 -1 19 -3 4 -6 -2 -5 -13z"/>
<path d="M972 5460 c0 -14 2 -19 5 -12 2 6 2 18 0 25 -3 6 -5 1 -5 -13z"/>
<path d="M971 5294 c0 -11 3 -14 6 -6 3 7 2 16 -1 19 -3 4 -6 -2 -5 -13z"/>
<path d="M1010 5222 c0 -5 7 -15 15 -22 10 -9 15 -31 15 -72 0 -79 36 -149 53
-103 4 8 1 17 -4 21 -6 3 -8 18 -5 33 4 17 3 21 -2 13 -7 -11 -10 -9 -15 7 -3
12 -1 19 4 15 14 -8 11 3 -16 56 -24 47 -45 71 -45 52z"/>
<path d="M12 4960 c-6 -11 -12 -30 -12 -42 1 -21 3 -20 29 12 16 19 27 38 25
42 -9 14 -29 8 -42 -12z"/>
<path d="M4718 4899 c-21 -12 -24 -39 -5 -39 6 0 17 11 24 25 12 27 8 30 -19
14z"/>
<path d="M1116 4880 c8 -29 23 -50 36 -50 10 0 -2 24 -27 55 -16 20 -16 19 -9
-5z"/>
<path d="M3465 4830 c27 -12 43 -12 25 0 -8 5 -22 9 -30 9 -10 0 -8 -3 5 -9z"/>
<path d="M1111 4814 c0 -11 3 -14 6 -6 3 7 2 16 -1 19 -3 4 -6 -2 -5 -13z"/>
<path d="M3355 4760 c3 -5 8 -10 11 -10 2 0 4 5 4 10 0 6 -5 10 -11 10 -5 0
-7 -4 -4 -10z"/>
<path d="M3430 4760 c0 -5 5 -10 10 -10 6 0 10 5 10 10 0 6 -4 10 -10 10 -5 0
-10 -4 -10 -10z"/>
<path d="M3405 4700 c3 -5 8 -10 11 -10 2 0 4 5 4 10 0 6 -5 10 -11 10 -5 0
-7 -4 -4 -10z"/>
<path d="M3520 4680 c0 -5 5 -10 10 -10 6 0 10 5 10 10 0 6 -4 10 -10 10 -5 0
-10 -4 -10 -10z"/>
<path d="M3381 4641 c-9 -6 -10 -11 -2 -15 6 -4 11 -3 11 3 0 5 8 12 18 14 12
3 13 5 2 6 -8 0 -21 -3 -29 -8z"/>
<path d="M6155 4610 c10 -11 20 -20 23 -20 3 0 -3 9 -13 20 -10 11 -20 20 -23
20 -3 0 3 -9 13 -20z"/>
<path d="M3340 4580 c0 -5 5 -10 10 -10 6 0 10 5 10 10 0 6 -4 10 -10 10 -5 0
-10 -4 -10 -10z"/>
<path d="M3420 4570 c0 -5 5 -10 11 -10 5 0 7 5 4 10 -3 6 -8 10 -11 10 -2 0
-4 -4 -4 -10z"/>
<path d="M3300 4500 c-13 -8 -13 -10 2 -10 9 0 20 5 23 10 8 13 -5 13 -25 0z"/>
<path d="M3385 4501 c-7 -12 12 -24 25 -16 11 7 4 25 -10 25 -5 0 -11 -4 -15
-9z"/>
<path d="M3259 4469 c-6 -11 -8 -23 -6 -26 3 -2 8 5 12 17 6 20 7 21 21 3 12
-16 13 -16 14 -2 0 26 -28 31 -41 8z"/>
<path d="M3220 4466 c0 -8 5 -18 10 -21 6 -3 10 3 10 14 0 12 -4 21 -10 21 -5
0 -10 -6 -10 -14z"/>
<path d="M2876 4433 c-4 -5 -26 -12 -48 -18 -64 -16 -67 -30 -29 -142 19 -54
39 -104 47 -112 11 -12 27 -10 109 18 53 17 105 36 116 41 20 11 26 54 9 65
-5 3 -10 1 -10 -4 0 -6 -5 -11 -11 -11 -7 0 -17 -7 -24 -16 -9 -13 -21 -15
-64 -9 -46 6 -54 11 -63 36 -5 16 -16 29 -23 29 -15 0 -12 59 3 69 5 3 12 14
15 25 6 14 4 17 -9 12 -14 -5 -15 -4 -4 9 12 15 0 22 -14 8z m134 -219 c0 -2
-7 -4 -15 -4 -8 0 -15 4 -15 10 0 5 7 7 15 4 8 -4 15 -8 15 -10z"/>
<path d="M3317 4433 c-4 -3 -7 -11 -7 -17 0 -6 5 -5 12 2 6 6 9 14 7 17 -3 3
-9 2 -12 -2z"/>
<path d="M3165 4417 c-17 -20 -6 -56 16 -54 19 1 28 17 9 17 -5 0 -10 5 -10
11 0 6 7 9 15 5 12 -4 13 -2 2 14 -14 23 -18 24 -32 7z"/>
<path d="M3100 4352 c0 -29 1 -30 25 -19 30 14 29 41 -3 45 -18 3 -22 -1 -22
-26z"/>
<path d="M3197 4343 c-4 -3 -7 -11 -7 -17 0 -6 5 -5 12 2 6 6 9 14 7 17 -3 3
-9 2 -12 -2z"/>
<path d="M1517 4313 c-12 -12 -7 -22 8 -17 8 4 15 10 15 15 0 11 -14 12 -23 2z"/>
<path d="M993 4275 c3 -11 32 -78 66 -150 48 -104 64 -129 78 -126 18 3 145
50 331 123 64 25 102 45 102 54 0 25 -30 27 -74 5 -54 -26 -115 -27 -166 -1
-22 11 -56 20 -78 20 -46 0 -220 55 -246 78 -18 16 -19 16 -13 -3z"/>
<path d="M1580 4190 c0 -13 30 -13 50 0 11 7 7 10 -17 10 -18 0 -33 -4 -33
-10z"/>
<path d="M3764 3634 c-3 -19 -4 -50 -1 -68 4 -28 2 -34 -24 -45 -25 -11 -29
-18 -29 -55 0 -23 5 -47 12 -54 9 -9 9 -15 -1 -24 -14 -15 -24 -2 -53 67 -14
35 -20 40 -45 37 -36 -4 -59 -26 -67 -63 -7 -36 -23 -38 -36 -4 -11 29 -50 35
-51 8 0 -11 -3 -13 -6 -5 -2 6 -11 12 -19 12 -11 0 -13 -15 -8 -77 5 -72 4
-77 -10 -59 -9 11 -16 27 -16 35 0 26 -24 81 -35 81 -8 0 -10 -24 -7 -80 7
-114 -19 -104 -43 18 -4 18 -13 32 -21 32 -11 0 -14 -18 -14 -82 -1 -75 -2
-81 -15 -64 -8 11 -24 45 -36 75 l-20 56 27 22 c32 25 28 38 -7 25 -21 -8 -26
-5 -36 19 -17 42 -37 37 -30 -6 5 -28 2 -38 -16 -50 -21 -15 -18 -19 14 -16
16 2 39 -73 39 -130 0 -43 -13 -29 -35 35 -16 46 -23 56 -42 56 -18 0 -23 -6
-23 -24 0 -14 -4 -28 -10 -31 -5 -3 -10 3 -10 14 0 14 -6 21 -18 21 -16 0 -18
-7 -14 -59 4 -62 -9 -101 -33 -101 -18 0 -18 1 0 36 28 54 14 94 -32 94 -24 0
-49 -42 -37 -61 3 -5 1 -9 -3 -9 -5 0 -14 9 -21 20 -13 21 -47 27 -57 10 -4
-6 -16 -8 -27 -4 -19 6 -20 3 -16 -65 4 -70 -4 -94 -16 -48 -3 13 -13 41 -22
62 -13 33 -18 37 -28 25 -6 -8 -24 -16 -40 -17 -34 -1 -46 -17 -46 -61 0 -42
24 -89 50 -97 21 -7 60 10 60 25 0 6 13 10 30 10 23 0 31 5 36 24 6 24 6 24
26 4 11 -11 26 -17 35 -14 8 3 18 6 23 6 5 0 11 13 15 30 6 25 9 28 25 20 30
-16 68 -12 91 11 15 15 24 18 33 10 20 -17 26 -2 26 63 l1 61 22 -45 c17 -35
28 -46 50 -48 16 -2 29 2 32 11 4 8 16 12 34 9 21 -3 32 1 40 15 7 15 18 19
40 15 22 -3 33 1 42 16 7 12 19 17 30 15 10 -3 27 -2 36 2 10 5 23 7 29 6 8
-1 10 19 6 65 l-5 67 22 -22 c11 -11 28 -21 36 -21 8 0 25 -11 38 -24 30 -30
64 -25 73 11 5 17 10 21 17 14 16 -16 57 -14 57 3 0 11 9 13 35 9 26 -4 36 -2
41 10 3 10 17 15 36 15 18 -1 36 6 43 15 9 12 21 15 47 10 34 -5 38 -3 61 34
24 38 30 63 28 111 -1 28 -17 29 -24 0 -6 -21 -7 -21 -25 -5 -10 9 -33 17 -50
17 -37 0 -57 -28 -47 -67 7 -27 -11 -93 -26 -93 -11 0 -16 27 -23 115 -8 101
-15 125 -37 125 -13 0 -20 -10 -25 -36z m186 -85 c7 -11 9 -27 6 -35 -3 -8 0
-14 7 -14 7 0 6 -4 -3 -10 -20 -12 -38 6 -46 48 -5 25 -3 32 9 32 9 0 21 -9
27 -21z m-146 -91 c8 -6 8 -8 0 -8 -7 0 -15 -11 -18 -25 -8 -33 -24 -32 -38 3
-15 37 -12 64 9 80 16 11 19 9 27 -15 5 -15 14 -31 20 -35z m146 2 c0 -5 -4
-10 -10 -10 -5 0 -10 5 -10 10 0 6 5 10 10 10 6 0 10 -4 10 -10z m-330 -57 c0
-37 -3 -54 -10 -47 -17 17 -17 104 0 104 6 0 10 -26 10 -57z m-610 -155 c0 -7
-3 -24 -7 -36 -8 -31 -22 -9 -15 24 4 25 22 34 22 12z m-80 -61 c0 -5 -4 -5
-10 -2 -5 3 -10 14 -10 23 0 15 2 15 10 2 5 -8 10 -19 10 -23z m-24 -17 c26
-15 31 -55 6 -55 -13 0 -43 67 -41 90 1 6 3 3 6 -6 2 -9 15 -22 29 -29z m-142
-6 c9 -24 7 -102 -3 -108 -24 -15 -56 82 -37 113 10 16 33 14 40 -5z"/>
<path d="M3904 3306 c-3 -9 -15 -16 -25 -16 -11 0 -19 -7 -20 -17 0 -11 -3
-13 -6 -5 -2 6 -11 12 -19 12 -12 0 -14 -11 -8 -59 4 -36 2 -66 -5 -77 -10
-18 -10 -18 -11 1 0 11 -6 30 -14 41 -8 11 -16 31 -18 44 -2 17 -9 25 -23 25
-11 0 -19 -6 -17 -12 1 -7 -6 -13 -17 -13 -22 0 -44 -24 -48 -53 -5 -34 -11
-47 -23 -47 -6 0 -8 5 -5 10 19 31 -33 82 -61 59 -13 -10 -17 -10 -24 0 -15
25 -31 1 -24 -37 7 -36 6 -37 -13 -19 -22 19 -46 22 -74 7 -15 -8 -19 -22 -20
-63 0 -50 -17 -115 -18 -75 -1 10 -9 36 -18 58 -16 35 -29 45 -55 41 -5 0 -8
10 -8 24 0 30 -36 66 -59 57 -35 -12 -36 -36 -4 -135 14 -44 14 -52 -2 -93 -9
-24 -23 -44 -31 -44 -20 0 -42 38 -50 86 -8 51 8 65 41 34 14 -13 25 -17 29
-11 9 14 -34 51 -60 51 -27 0 -54 -25 -54 -48 0 -29 47 -119 65 -125 9 -4 24
-7 34 -7 17 0 51 33 51 50 0 13 13 13 27 -1 19 -19 33 0 33 47 0 50 14 59 23
15 6 -31 33 -46 61 -35 9 3 16 12 16 20 0 16 18 18 39 5 20 -13 48 3 57 31 12
42 26 51 38 26 6 -13 19 -24 29 -26 14 -3 16 3 11 41 l-6 44 33 -5 c18 -3 39
-11 47 -18 19 -19 39 -17 59 5 13 16 19 17 35 8 15 -10 25 -8 49 6 17 9 37 17
46 17 12 0 14 9 9 43 -3 23 -3 34 0 25 6 -20 39 -24 49 -7 5 6 13 2 22 -11 34
-49 92 6 75 71 -4 18 -13 34 -20 37 -7 2 -10 -2 -7 -10 3 -8 2 -24 -3 -37 -7
-21 -10 -19 -32 26 -26 50 -64 70 -76 39z m-169 -139 c0 -52 -19 -51 -23 2 -2
32 0 42 10 39 8 -3 13 -20 13 -41z m-435 -49 c0 -16 -4 -28 -10 -28 -5 0 -10
19 -10 43 0 31 3 38 10 27 5 -8 10 -27 10 -42z m209 -12 c9 -20 10 -31 2 -39
-14 -14 -37 6 -43 38 -9 45 19 46 41 1z m1 -71 c0 -8 -4 -15 -9 -15 -13 0 -22
16 -14 24 11 11 23 6 23 -9z"/>
<path d="M2008 3169 c-19 -11 -25 -64 -8 -74 5 -3 16 11 25 31 23 55 19 65
-17 43z"/>
<path d="M2044 3134 c-7 -27 7 -50 25 -40 6 4 11 20 11 37 0 37 -27 40 -36 3z"/>
<path d="M2493 3110 c-4 -16 -11 -20 -26 -16 -13 3 -26 -2 -33 -12 -9 -11 -13
-12 -14 -4 0 6 -4 12 -10 12 -6 0 -10 -28 -10 -64 0 -48 -5 -70 -19 -87 l-19
-24 -20 25 -20 25 25 29 c26 32 27 53 1 69 -23 15 -46 -6 -54 -49 -7 -39 -5
-38 -39 -22 -22 10 -24 16 -19 45 4 20 2 39 -6 48 -19 23 -57 18 -71 -7 -8
-14 -14 -18 -17 -10 -2 6 -19 12 -37 12 -25 0 -34 -5 -39 -22 -9 -35 -7 -108
3 -108 12 0 21 26 21 60 0 43 17 45 25 3 10 -54 61 -162 80 -169 30 -12 98 72
87 106 -2 8 9 1 24 -17 41 -46 76 -52 103 -17 12 15 20 33 17 41 -3 7 -1 15 4
18 6 4 10 0 10 -8 0 -8 7 -21 17 -28 15 -13 16 -9 10 41 -6 45 -5 51 5 35 26
-44 48 -45 49 -2 l1 32 14 -33 c29 -67 94 -64 94 4 0 36 -18 84 -32 84 -8 0
-13 -48 -8 -80 3 -24 -12 -3 -40 53 -28 57 -48 70 -57 37z m-283 -45 c0 -20
-22 -65 -32 -65 -12 0 -10 38 4 60 15 23 28 26 28 5z m30 -93 c0 -11 -41 -34
-48 -27 -4 4 2 13 12 21 22 15 36 18 36 6z m3 -52 c-7 -25 -33 -49 -33 -30 0
11 28 50 36 50 1 0 0 -9 -3 -20z"/>
<path d="M2957 2973 c-3 -10 -6 -42 -6 -72 -1 -30 -4 -57 -7 -60 -8 -8 -22 19
-36 64 -26 91 -51 81 -41 -17 5 -58 4 -70 -8 -66 -7 2 -21 28 -30 57 -8 29
-19 51 -25 49 -5 -2 -9 -25 -9 -53 0 -38 -4 -50 -17 -53 -13 -2 -18 7 -23 43
-8 51 -22 66 -40 42 -7 -10 -19 -17 -28 -17 -9 0 -23 -7 -32 -16 -22 -22 -13
-93 16 -116 23 -20 54 -23 64 -8 11 18 20 11 44 -35 19 -35 29 -45 45 -43 14
2 20 10 19 24 -2 15 3 20 20 20 13 -1 23 6 25 17 4 21 -27 35 -38 16 -11 -17
-16 -12 -26 25 -7 28 -6 29 24 23 20 -4 34 -1 42 7 6 8 27 14 47 13 21 -1 38
4 41 11 2 7 21 12 42 12 47 0 73 33 68 88 -4 49 -21 44 -30 -9 -9 -52 -33 -83
-44 -55 -4 10 0 24 10 35 18 20 20 44 6 72 -14 25 -67 26 -73 2z m47 -47 c-10
-25 -20 -19 -18 12 2 38 3 39 14 20 6 -9 7 -23 4 -32z m-283 -68 c0 -7 2 -25
4 -40 2 -14 -3 -35 -10 -45 -13 -17 -15 -15 -30 20 -9 21 -13 47 -10 58 7 21
45 27 46 7z"/>
<path d="M3540 2975 c-7 -8 -21 -15 -31 -15 -22 0 -34 -16 -16 -23 17 -6 77 4
77 13 0 5 3 15 6 24 8 21 -19 21 -36 1z"/>
<path d="M3666 2961 c-12 -13 -17 -39 -19 -84 -1 -36 -5 -69 -10 -73 -4 -4 -8
-1 -9 7 -2 24 -5 33 -16 62 -7 16 -12 35 -12 43 0 16 -36 19 -45 4 -4 -6 -10
-8 -15 -5 -20 12 -40 -11 -55 -62 l-16 -55 -21 41 c-19 40 -22 41 -62 39 -39
-3 -41 -5 -39 -33 9 -158 5 -179 -35 -154 -18 12 -19 15 -7 29 26 29 28 67 6
89 -39 39 -81 18 -81 -41 -1 -32 -27 -65 -41 -51 -8 8 -8 13 0 17 14 9 14 53
1 61 -5 3 -22 0 -37 -7 -36 -17 -39 -55 -7 -88 17 -18 20 -29 14 -40 -5 -8
-10 -25 -10 -38 0 -26 36 -44 61 -31 14 7 17 0 22 -49 3 -31 8 -65 12 -75 7
-16 6 -16 -22 -1 -19 11 -38 15 -56 10 -22 -5 -28 -14 -33 -46 -4 -25 -15 -45
-30 -54 -22 -15 -23 -15 -17 18 4 27 1 36 -15 45 -15 8 -23 6 -38 -10 -15 -17
-16 -25 -7 -52 10 -28 10 -94 -1 -104 -2 -2 -14 23 -27 56 -23 59 -43 76 -75
64 -7 -2 -16 -13 -19 -24 -6 -17 -8 -17 -21 -4 -22 22 -30 12 -27 -34 1 -23 0
-41 -2 -41 -2 0 -15 11 -29 25 -16 15 -36 25 -55 25 -29 0 -30 -2 -36 -57 -14
-114 -20 -138 -37 -141 -20 -4 -58 56 -58 91 0 34 10 58 21 51 5 -3 7 -10 4
-15 -4 -5 -1 -9 4 -9 6 0 11 -7 11 -15 0 -8 6 -15 14 -15 24 0 3 53 -27 70
-42 23 -62 4 -62 -57 1 -38 7 -57 29 -86 24 -31 34 -37 67 -37 30 0 42 5 55
25 12 18 25 25 49 25 28 0 37 6 58 42 23 39 25 40 32 19 4 -13 13 -21 23 -19
18 4 19 7 21 86 1 56 15 63 26 13 9 -41 51 -85 73 -76 9 4 30 7 46 6 15 -1 35
4 42 10 17 14 18 51 3 66 -6 6 -8 17 -4 23 6 9 10 8 17 -3 12 -23 74 -32 104
-17 17 10 24 22 24 42 0 28 1 29 22 14 28 -20 63 -20 80 -2 8 9 26 12 49 9 30
-4 39 -1 53 18 12 18 24 23 51 20 20 -1 35 2 35 8 0 6 16 11 35 11 28 0 36 4
40 23 5 19 11 23 36 19 24 -4 31 0 36 17 4 16 9 19 23 11 41 -22 90 -6 90 29
0 9 10 27 21 41 17 20 19 21 13 5 -4 -11 -8 -33 -8 -50 -1 -35 20 -43 64 -25
38 16 47 45 24 72 -18 19 -18 21 5 60 30 52 19 60 -26 17 -25 -24 -34 -28 -28
-14 5 11 9 34 9 50 1 25 -3 30 -26 33 -35 4 -52 -27 -44 -78 8 -49 -3 -57 -23
-17 -14 28 -21 32 -56 32 -44 0 -49 -8 -61 -99 -9 -78 -28 -41 -25 51 3 96
-11 135 -48 131 -26 -3 -26 -4 -23 -75 3 -66 1 -73 -16 -73 -35 0 -45 -25 -39
-90 4 -34 3 -62 -3 -65 -5 -3 -22 23 -38 58 -33 72 -51 90 -59 59 -3 -13 -16
-22 -38 -26 -31 -6 -32 -8 -39 -67 -3 -33 -10 -68 -15 -76 -7 -14 -11 -12 -25
9 -15 23 -15 29 -2 69 20 55 20 81 2 124 -11 26 -21 35 -38 35 -17 0 -28 9
-38 33 -7 17 -15 35 -18 40 -7 13 27 7 35 -7 17 -29 51 -37 88 -22 19 8 35 21
35 28 0 8 5 6 11 -5 8 -14 14 -16 25 -6 8 6 12 19 10 28 -2 9 -7 31 -11 49 -7
32 -6 32 21 22 15 -6 34 -8 42 -5 8 3 21 -3 29 -15 16 -23 55 -27 72 -6 6 7
22 11 35 9 13 -3 34 1 47 8 13 7 38 12 54 10 34 -2 58 18 70 59 4 13 17 37 28
52 17 23 18 30 7 43 -13 16 -15 15 -27 -1 -12 -16 -14 -16 -37 9 -29 32 -66
35 -90 8z m64 -30 c14 -28 13 -74 -2 -69 -20 7 -42 53 -35 71 9 23 24 21 37
-2z m-170 -96 c0 -62 -13 -71 -30 -20 -8 25 -8 40 0 55 19 35 30 22 30 -35z
m180 -10 c-12 -15 -30 -12 -30 6 0 5 10 9 21 9 18 0 19 -2 9 -15z m-450 -63
c0 -40 -17 -34 -20 8 -3 36 -1 42 10 35 6 -3 10 -23 10 -43z m577 -74 c-3 -8
-6 -5 -6 6 -1 11 2 17 5 13 3 -3 4 -12 1 -19z m-654 -58 c3 -12 0 -20 -8 -20
-15 0 -28 27 -19 41 8 13 21 3 27 -21z m557 -20 c7 -22 10 -43 6 -48 -12 -11
-46 37 -46 64 0 38 26 28 40 -16z m-486 -43 c3 -16 2 -36 -2 -45 -5 -13 -8
-10 -12 13 -6 28 -2 70 6 63 1 -2 5 -16 8 -31z m326 -44 c0 -44 -16 -65 -31
-42 -13 20 -11 83 3 97 17 17 28 -3 28 -55z m289 6 c-17 -10 -24 4 -14 29 6
16 7 16 17 -2 8 -14 7 -21 -3 -27z m-119 1 c0 -5 -4 -10 -9 -10 -6 0 -13 5
-16 10 -3 6 1 10 9 10 9 0 16 -4 16 -10z m-331 -55 c0 -16 -6 -41 -13 -54
l-13 -24 -12 33 c-16 47 -14 77 6 89 22 12 33 -3 32 -44z m-232 -46 c10 -20
10 -27 -2 -39 -22 -22 -50 9 -41 45 8 31 26 29 43 -6z m13 -70 c0 -13 -29 -31
-40 -24 -19 12 -10 30 15 30 14 0 25 -3 25 -6z m-421 -88 c14 -43 5 -53 -20
-22 -19 24 -25 52 -12 65 9 9 18 -3 32 -43z m288 7 c-3 -8 -6 -5 -6 6 -1 11 2
17 5 13 3 -3 4 -12 1 -19z m-287 -80 c0 -22 -15 -16 -30 12 -8 15 -7 17 10 13
11 -3 20 -14 20 -25z"/>
<path d="M2447 2828 c-3 -11 0 -33 8 -48 19 -37 9 -43 -20 -14 -38 37 -80 28
-83 -18 -5 -67 -3 -73 23 -95 41 -36 66 -27 95 34 14 29 28 52 31 53 3 0 5
-19 5 -42 -1 -41 0 -43 29 -43 24 0 31 5 33 23 2 13 -2 29 -8 37 -9 11 -7 21
9 44 38 53 22 70 -23 24 -30 -30 -33 -29 -37 12 -2 17 -7 36 -12 43 -15 19
-44 14 -50 -10z m-27 -84 c6 -14 10 -35 10 -46 0 -20 -1 -20 -19 -4 -19 17
-33 61 -23 71 11 11 23 4 32 -21z m10 -84 c0 -5 -6 -10 -14 -10 -8 0 -18 5
-21 10 -3 6 3 10 14 10 12 0 21 -4 21 -10z"/>
<path d="M3996 2768 c6 -20 5 -21 -10 -9 -22 19 -29 10 -16 -23 5 -15 8 -31 5
-36 -3 -4 4 -6 15 -3 11 3 20 10 20 17 0 6 7 2 16 -9 13 -17 16 -18 24 -5 24
37 2 90 -36 90 -22 0 -24 -3 -18 -22z"/>
<path d="M2929 2724 c-11 -13 -10 -24 4 -63 16 -45 14 -96 -3 -86 -5 3 -16 30
-25 61 -18 62 -40 68 -40 11 0 -38 -9 -48 -19 -22 -8 21 -46 34 -80 28 -20 -4
-28 -13 -33 -34 -4 -24 -8 -27 -17 -15 -29 35 -86 19 -86 -24 0 -10 -4 -22
-10 -25 -5 -3 -10 3 -10 14 0 12 -7 21 -15 21 -18 0 -19 7 4 -87 27 -112 71
-179 109 -166 16 6 15 52 -3 87 -20 37 -19 43 5 51 11 3 20 13 20 22 0 8 3 13
8 11 4 -2 19 -10 34 -17 34 -18 75 -7 84 22 13 44 25 50 51 25 19 -18 27 -20
42 -11 13 8 22 8 29 1 8 -8 19 -7 41 1 28 12 51 41 32 41 -18 0 -21 50 -6 80
24 47 17 58 -15 23 -36 -40 -44 -41 -36 -8 10 41 -3 75 -29 75 -12 0 -29 -7
-36 -16z m-127 -101 c18 -21 31 -67 21 -77 -13 -12 -53 37 -53 66 0 32 10 36
32 11z m-109 -63 c12 -45 2 -80 -23 -80 -22 0 -26 28 -14 89 8 40 25 35 37 -9z
m322 0 c3 -5 1 -10 -4 -10 -6 0 -11 5 -11 10 0 6 2 10 4 10 3 0 8 -4 11 -10z
m-195 -50 c0 -13 -11 -13 -30 0 -12 8 -11 10 8 10 12 0 22 -4 22 -10z"/>
<path d="M5050 2501 c0 -5 5 -13 10 -16 6 -3 10 -2 10 4 0 5 -4 13 -10 16 -5
3 -10 2 -10 -4z"/>
<path d="M5075 2450 c3 -5 8 -10 11 -10 2 0 4 5 4 10 0 6 -5 10 -11 10 -5 0
-7 -4 -4 -10z"/>
<path d="M5090 2421 c0 -6 4 -13 10 -16 6 -3 7 1 4 9 -7 18 -14 21 -14 7z"/>
<path d="M1053 2114 c-3 -9 5 -26 21 -43 14 -15 26 -31 26 -35 0 -14 25 -33
38 -28 27 9 10 63 -23 74 -5 1 -10 8 -10 13 -1 33 -41 48 -52 19z"/>
<path d="M1625 1897 c-184 -87 -325 -148 -545 -235 -13 -5 -13 -3 -1 11 9 12
10 17 2 17 -8 0 -9 5 -2 18 7 13 6 23 -1 30 -19 19 -51 14 -88 -13 -18 -13
-37 -22 -42 -18 -6 3 -21 -1 -35 -8 -33 -18 -43 -1 -43 79 0 61 0 62 -28 62
-35 0 -52 -16 -52 -52 0 -16 -7 -31 -19 -37 -21 -12 -18 -59 5 -68 16 -6 19
-43 4 -43 -5 0 -10 9 -10 21 0 11 -5 17 -10 14 -6 -3 -10 -17 -10 -31 0 -14
-6 -24 -15 -24 -8 0 -23 -10 -34 -21 -18 -20 -27 -21 -92 -16 -40 3 -77 11
-83 17 -5 5 -22 10 -36 10 -31 0 -42 19 -60 106 -15 72 -18 78 -35 64 -8 -7
-18 -9 -23 -6 -6 3 -15 -1 -22 -9 -9 -11 -9 -27 1 -72 7 -32 18 -67 24 -78 14
-23 40 -114 34 -118 -2 -1 -18 -12 -35 -24 -18 -12 -34 -19 -38 -16 -3 4 -6
35 -6 70 0 60 -1 63 -19 53 -17 -9 -20 -5 -25 33 -12 77 -30 157 -37 157 -3 0
-10 -10 -16 -22 -9 -20 21 -193 42 -242 6 -14 5 -18 -5 -14 -15 5 -17 11 -46
151 -10 48 -21 87 -25 87 -3 0 -12 -12 -19 -27 l-13 -28 -13 30 c-7 17 -13 38
-14 47 0 20 -32 78 -43 78 -27 0 -4 -100 57 -242 13 -31 14 -38 3 -38 -8 0
-22 -9 -32 -20 -22 -25 -31 -19 -39 25 -7 38 -20 45 -34 19 -7 -12 -11 -13
-17 -5 -14 24 -35 -26 -34 -82 1 -45 5 -56 20 -60 24 -6 25 -44 2 -50 -10 -2
-8 -3 4 -2 17 2 27 -6 38 -28 14 -27 14 -32 -1 -49 -10 -10 -29 -19 -43 -19
-17 -1 -20 -3 -8 -6 20 -5 23 -41 4 -49 -10 -3 -13 -45 -14 -171 -1 -91 2
-160 7 -153 8 13 50 5 50 -10 0 -12 -37 -23 -50 -15 -5 3 -10 0 -10 -8 0 -9 9
-12 30 -9 40 6 40 -20 0 -50 l-30 -22 0 -367 0 -367 38 -13 c20 -6 41 -18 45
-25 6 -11 37 -14 125 -14 l117 0 170 151 c94 83 213 185 265 227 52 43 111 92
130 110 33 31 192 142 203 142 3 0 52 27 109 60 57 33 108 58 114 56 9 -3 9 5
1 30 -8 27 -8 37 2 43 23 15 -37 113 -97 161 -29 23 -56 49 -60 58 -3 9 -26
43 -50 74 -24 33 -46 73 -49 94 -6 35 -5 36 18 29 39 -13 89 -66 89 -96 0 -40
10 -59 31 -59 24 0 30 27 33 132 3 99 0 108 -28 108 -31 0 -50 15 -43 35 4 9
12 13 18 9 6 -3 24 3 40 15 15 11 45 23 65 26 21 2 47 13 58 24 12 11 44 28
71 39 28 11 80 34 118 51 37 17 72 31 77 31 4 0 17 10 27 23 10 12 52 35 93
52 90 35 140 63 139 78 -1 24 -95 250 -104 253 -6 1 -69 -26 -140 -59z m-981
-370 c15 -11 17 -17 7 -35 -21 -40 -81 -25 -81 19 0 25 4 29 28 29 16 0 36 -6
46 -13z m-211 -116 c-2 -6 2 -11 7 -11 6 0 10 -7 10 -15 0 -8 -7 -15 -15 -15
-8 0 -15 6 -15 14 0 8 -5 16 -12 18 -6 2 -8 10 -4 17 9 14 32 8 29 -8z m-186
-103 c-3 -8 -6 -5 -6 6 -1 11 2 17 5 13 3 -3 4 -12 1 -19z m-147 -48 c0 -5 -4
-10 -10 -10 -5 0 -10 5 -10 10 0 6 5 10 10 10 6 0 10 -4 10 -10z m340 -51 c0
-19 -35 -49 -57 -49 -17 0 -34 35 -27 54 11 30 84 26 84 -5z m588 19 c16 -16
15 -25 -4 -32 -20 -8 -54 11 -54 29 0 18 41 20 58 3z m-938 -14 c0 -8 -5 -12
-10 -9 -6 4 -8 11 -5 16 9 14 15 11 15 -7z m-30 -94 c0 -11 -4 -20 -10 -20 -5
0 -10 9 -10 20 0 11 5 20 10 20 6 0 10 -9 10 -20z m339 -147 c-34 -32 -71 -64
-82 -72 -18 -13 -18 -12 -8 8 7 11 15 21 19 21 4 0 33 23 65 50 79 68 82 63 6
-7z m639 -10 c2 -9 -7 -13 -28 -13 -28 0 -31 2 -20 15 15 18 41 16 48 -2z
m-758 -68 c-7 -8 -16 -15 -21 -15 -13 0 -11 19 4 35 17 19 34 0 17 -20z m-116
-77 c-8 -29 -10 -31 -23 -24 -7 5 -7 13 2 26 16 27 30 25 21 -2z m106 -3 c-7
-9 -15 -13 -18 -10 -3 2 1 11 8 20 7 9 15 13 18 10 3 -2 -1 -11 -8 -20z m-135
-45 c-3 -5 -10 -10 -16 -10 -5 0 -9 5 -9 10 0 6 7 10 16 10 8 0 12 -4 9 -10z
m-118 -42 c-3 -8 -6 -5 -6 6 -1 11 2 17 5 13 3 -3 4 -12 1 -19z"/>
<path d="M4850 1919 c0 -5 5 -7 10 -4 6 3 10 8 10 11 0 2 -4 4 -10 4 -5 0 -10
-5 -10 -11z"/>
<path d="M875 1910 c-3 -5 -1 -10 4 -10 6 0 11 5 11 10 0 6 -2 10 -4 10 -3 0
-8 -4 -11 -10z"/>
<path d="M3847 1883 c-12 -12 -7 -22 8 -17 8 4 15 10 15 15 0 11 -14 12 -23 2z"/>
<path d="M715 1870 c-10 -16 24 -62 42 -58 9 2 16 6 15 11 -1 4 -2 18 -2 32 0
20 -5 25 -24 25 -14 0 -28 -5 -31 -10z"/>
<path d="M920 1841 c-24 -46 -2 -82 34 -55 17 12 17 17 6 44 -14 35 -25 38
-40 11z"/>
<path d="M4618 1823 c7 -3 16 -2 19 1 4 3 -2 6 -13 5 -11 0 -14 -3 -6 -6z"/>
<path d="M640 1738 c0 -4 14 -8 30 -8 17 0 30 2 30 4 0 2 -13 6 -30 8 -16 3
-30 1 -30 -4z"/>
<path d="M4275 1690 c-3 -5 -1 -10 4 -10 6 0 11 5 11 10 0 6 -2 10 -4 10 -3 0
-8 -4 -11 -10z"/>
<path d="M4220 1665 c-14 -16 -3 -20 19 -6 8 5 9 11 3 15 -5 3 -15 -1 -22 -9z"/>
<path d="M4083 1619 c-2 -27 -1 -27 17 -11 24 20 24 19 3 31 -15 7 -18 4 -20
-20z"/>
<path d="M4150 1630 c0 -5 5 -10 10 -10 6 0 10 5 10 10 0 6 -4 10 -10 10 -5 0
-10 -4 -10 -10z"/>
<path d="M1890 1488 c-27 -12 -141 -65 -308 -144 -56 -26 -108 -54 -114 -61
-6 -7 -25 -13 -42 -13 -32 0 -57 -13 -103 -56 -22 -20 -25 -30 -20 -60 4 -20
15 -47 27 -59 11 -12 17 -25 13 -29 -13 -12 -11 -35 3 -47 10 -8 14 -8 14 0 0
24 39 9 66 -24 15 -19 33 -35 40 -35 7 0 24 -14 38 -31 24 -29 28 -30 60 -19
19 6 45 19 58 28 26 19 40 28 148 88 41 24 86 51 100 61 14 10 61 34 105 54
70 31 80 38 78 60 0 14 -25 86 -53 162 -55 144 -58 147 -110 125z"/>
<path d="M1582 812 c3 -10 2 -60 -2 -112 -7 -79 -12 -96 -32 -117 -21 -20 -28
-22 -52 -13 -32 12 -68 -2 -60 -24 4 -10 -5 -16 -25 -21 -17 -4 -31 -11 -31
-16 0 -5 -12 -9 -27 -9 -16 -1 -39 -7 -51 -14 -22 -12 -23 -14 -7 -29 9 -10
12 -17 6 -17 -5 0 -14 6 -18 13 -8 13 -58 47 -68 47 -4 0 -3 -9 0 -20 4 -11 2
-20 -4 -20 -6 0 -11 -7 -11 -15 0 -8 -7 -15 -16 -15 -11 0 -15 -6 -11 -20 3
-11 1 -23 -4 -26 -15 -9 0 -24 18 -17 11 4 14 2 11 -8 -3 -8 -1 -22 4 -31 13
-26 -10 -23 -31 4 -12 14 -22 18 -31 13 -11 -7 -9 -10 6 -16 17 -7 17 -8 -4
-8 -13 -1 -20 -5 -17 -11 3 -5 1 -10 -5 -10 -7 0 -9 -8 -4 -22 5 -18 -1 -15
-30 15 -20 21 -41 35 -47 31 -7 -4 -7 -10 -1 -16 6 -6 8 -17 5 -25 -3 -8 -9
-11 -12 -6 -3 4 -30 20 -60 35 -62 31 -64 30 -83 -39 -7 -24 -16 -43 -21 -43
-5 0 -6 -7 -3 -16 4 -11 -1 -22 -14 -31 -12 -8 -25 -26 -30 -39 -5 -13 -13
-23 -18 -22 -5 2 -21 -11 -35 -28 -21 -25 -26 -38 -21 -63 l7 -31 416 0 416 0
18 48 c10 26 40 108 67 182 64 181 63 179 114 268 48 83 90 181 81 190 -3 3
-16 0 -30 -6 -21 -10 -27 -9 -32 4 -5 13 -7 13 -15 2 -6 -10 -17 -3 -43 27
-19 22 -35 34 -35 28 0 -7 5 -13 10 -13 6 0 10 -5 10 -12 0 -16 -38 21 -46 45
-5 15 -8 17 -15 6 -7 -11 -12 -10 -24 8 -36 51 -72 71 -63 35z"/>
</g>
</svg>
