<?xml version="1.0" standalone="no"?>
<!DOCTYPE svg PUBLIC "-//W3C//DTD SVG 20010904//EN"
 "http://www.w3.org/TR/2001/REC-SVG-20010904/DTD/svg10.dtd">
<svg version="1.0" xmlns="http://www.w3.org/2000/svg"
 width="640.000000pt" height="640.000000pt" viewBox="0 0 640.000000 640.000000"
 preserveAspectRatio="xMidYMid meet">

<g transform="translate(0.000000,640.000000) scale(0.100000,-0.100000)"
fill="#000000" stroke="none">
<path d="M0 3200 l0 -3200 1725 0 c1663 0 1725 1 1725 18 0 10 3 22 6 25 10
10 44 -12 44 -28 0 -13 183 -15 1450 -15 l1450 0 0 3200 0 3200 -3200 0 -3200
0 0 -3200z m4590 2591 c14 -27 13 -53 -6 -89 -17 -36 -32 -41 -40 -14 -3 9
-10 25 -15 34 -13 25 -11 62 3 76 18 18 46 14 58 -7z m1045 -33 c28 -24 33
-59 10 -78 -8 -7 -15 -21 -15 -31 0 -11 -3 -20 -7 -20 -51 -8 -67 -7 -53 2 13
8 12 12 -8 29 -17 14 -22 25 -17 40 6 19 52 80 61 80 2 0 15 -10 29 -22z
m-912 -117 c-9 -13 -21 18 -16 39 7 25 7 25 13 -5 4 -16 5 -32 3 -34z m532
-41 c-6 -9 -9 -9 -16 1 -10 17 0 34 13 21 6 -6 7 -16 3 -22z m-65 -60 c0 -5
-4 -10 -10 -10 -5 0 -10 5 -10 10 0 6 5 10 10 10 6 0 10 -4 10 -10z m-464 -35
c-9 -10 -24 -14 -33 -11 -19 8 -8 22 22 28 28 6 30 2 11 -17z m584 7 c0 -13
-12 -22 -22 -16 -10 6 -1 24 13 24 5 0 9 -4 9 -8z m-20 -42 c0 -3 -5 -32 -11
-64 -7 -42 -7 -61 1 -71 20 -24 2 -37 -26 -19 -18 13 -23 22 -18 38 6 18 5 19
-8 8 -12 -10 -17 -7 -26 14 -7 14 -12 33 -12 44 0 10 -5 20 -12 22 -7 3 -6 7
5 11 14 5 17 0 18 -31 2 -30 3 -32 6 -10 3 19 12 30 29 34 13 3 24 12 24 18 0
7 7 13 15 13 8 0 15 -3 15 -7z m85 0 c3 -5 -1 -10 -9 -10 -8 0 -18 5 -21 10
-3 6 1 10 9 10 8 0 18 -4 21 -10z m-1249 -25 c15 -23 15 -27 -7 -61 -21 -34
-21 -38 -5 -49 20 -15 5 -24 -30 -17 -15 3 -20 9 -17 21 2 10 -2 33 -10 52
-27 66 31 112 69 54z m814 -17 c0 -7 -5 -20 -10 -28 -8 -13 -11 -12 -24 5 -13
18 -13 21 2 27 26 10 32 9 32 -4z m494 -14 c9 -23 7 -36 -3 -30 -12 8 -21 46
-11 46 4 0 11 -7 14 -16z m-994 -15 c0 -6 -4 -7 -10 -4 -5 3 -10 11 -10 16 0
6 5 7 10 4 6 -3 10 -11 10 -16z m1290 -14 c0 -24 6 -37 19 -45 32 -16 39 -12
37 23 -1 40 27 46 32 5 2 -19 -3 -30 -18 -38 -11 -6 -18 -16 -14 -22 4 -7 -1
-8 -16 -3 -14 4 -25 3 -30 -5 -12 -19 -33 -1 -27 22 4 14 0 22 -14 25 -20 6
-22 14 -13 51 4 13 14 22 25 22 15 0 19 -7 19 -35z m-350 0 c0 -8 -4 -15 -9
-15 -13 0 -22 16 -14 24 11 11 23 6 23 -9z m-510 -30 c-1 -12 -50 -17 -50 -5
0 9 28 19 43 16 5 -1 8 -6 7 -11z m210 -5 c0 -5 -4 -10 -10 -10 -5 0 -10 5
-10 10 0 6 5 10 10 10 6 0 10 -4 10 -10z m107 -52 c-2 -13 -4 -3 -4 22 0 25 2
35 4 23 2 -13 2 -33 0 -45z m119 -25 c-12 -68 -16 -73 -40 -67 -14 3 -27 -1
-35 -10 -19 -23 -28 -20 -46 14 -17 34 -19 50 -5 50 6 0 10 -6 10 -14 0 -11
10 -14 38 -11 20 1 43 3 50 4 6 1 12 14 12 29 0 26 7 42 18 42 2 0 1 -17 -2
-37z m-416 3 c0 -11 -19 -15 -25 -6 -3 5 1 10 9 10 9 0 16 -2 16 -4z m827 -12
c-3 -3 -12 -4 -19 -1 -8 3 -5 6 6 6 11 1 17 -2 13 -5z m-873 -10 c9 -3 16 -16
16 -29 0 -12 9 -30 19 -39 21 -19 18 -46 -4 -46 -7 0 -15 -7 -19 -15 -8 -22
-26 -18 -26 5 0 11 -9 35 -20 55 -16 28 -18 40 -10 55 11 21 19 24 44 14z
m-84 -14 c0 -5 -5 -10 -11 -10 -5 0 -7 5 -4 10 3 6 8 10 11 10 2 0 4 -4 4 -10z
m185 -80 c0 -22 -29 -18 -33 3 -3 14 1 18 15 15 10 -2 18 -10 18 -18z m165
-10 c0 -5 -4 -10 -10 -10 -5 0 -10 5 -10 10 0 6 5 10 10 10 6 0 10 -4 10 -10z
m-640 -15 c0 -8 -4 -15 -10 -15 -5 0 -10 7 -10 15 0 8 5 15 10 15 6 0 10 -7
10 -15z m211 -33 c-8 -3 -7 -8 6 -18 10 -7 13 -14 6 -14 -6 0 -19 7 -28 16
-13 13 -14 19 -4 25 7 4 18 5 23 2 6 -4 5 -8 -3 -11z m269 -28 c0 -8 -4 -14
-10 -14 -5 0 -10 9 -10 21 0 11 5 17 10 14 6 -3 10 -13 10 -21z m-330 -8 c0
-16 -28 -42 -36 -33 -7 6 18 47 28 47 5 0 8 -6 8 -14z m60 -16 c0 -5 -2 -10
-4 -10 -3 0 -8 5 -11 10 -3 6 -1 10 4 10 6 0 11 -4 11 -10z m680 0 c0 -5 -4
-10 -10 -10 -5 0 -10 5 -10 10 0 6 5 10 10 10 6 0 10 -4 10 -10z m540 -20 c0
-5 -5 -10 -11 -10 -5 0 -7 5 -4 10 3 6 8 10 11 10 2 0 4 -4 4 -10z m-1385
-109 c-3 -6 -11 -8 -17 -5 -6 4 -5 9 3 15 16 10 23 4 14 -10z m-2791 -28 c9
-19 11 -36 5 -51 -5 -13 -5 -52 1 -90 5 -37 9 -183 10 -325 1 -287 3 -299 63
-335 29 -17 36 -27 42 -68 4 -27 9 -458 11 -959 2 -500 7 -1015 10 -1144 6
-209 5 -238 -10 -266 -36 -67 -129 -87 -185 -39 -43 36 -56 89 -42 181 13 87
14 203 3 203 -12 0 -33 50 -27 61 10 16 33 10 40 -11 11 -36 45 -22 83 34 55
81 66 148 32 203 -29 48 -46 53 -116 36 -71 -18 -102 -9 -138 40 -20 27 -21
42 -22 235 -1 114 4 396 11 627 7 231 18 602 25 825 17 621 23 707 48 757 22
42 102 113 128 113 7 0 20 -12 28 -27z m-545 -52 c13 -11 11 -16 -10 -32 -32
-25 -39 -24 -39 6 0 25 -1 25 -25 9 -32 -21 -34 0 -4 32 22 24 40 20 78 -15z
m2961 8 c0 -5 -4 -9 -10 -9 -5 0 -10 7 -10 16 0 8 5 12 10 9 6 -3 10 -10 10
-16z m1070 -14 c-7 -8 -20 -15 -29 -15 -11 1 -8 5 9 15 32 18 35 18 20 0z
m-590 -26 c0 -5 -4 -9 -10 -9 -5 0 -10 7 -10 16 0 8 5 12 10 9 6 -3 10 -10 10
-16z m125 -29 c3 -5 1 -10 -4 -10 -6 0 -11 5 -11 10 0 6 2 10 4 10 3 0 8 -4
11 -10z m-72 -164 c6 -15 -1 -26 -15 -26 -4 0 -8 9 -8 20 0 23 15 27 23 6z
m667 -66 c0 -5 -4 -10 -10 -10 -5 0 -10 5 -10 10 0 6 5 10 10 10 6 0 10 -4 10
-10z m-850 -2468 c0 -13 -3 -12 -14 4 -14 18 -15 18 -22 1 -4 -12 1 -26 15
-41 23 -25 28 -61 9 -68 -20 -8 -38 2 -38 20 1 15 2 15 11 -1 6 -9 14 -15 20
-12 16 10 10 40 -11 53 -22 13 -27 58 -7 65 19 6 37 -4 37 -21z m30 -39 c0
-79 -8 -81 -11 -3 -2 62 -1 70 6 70 3 0 5 -30 5 -67z m63 32 c-4 -27 -2 -35
10 -35 20 0 30 29 16 46 -9 11 -9 14 0 14 18 0 24 -26 12 -49 -7 -13 -8 -22
-1 -26 5 -3 10 -16 10 -27 0 -20 -13 -17 -16 3 -1 5 -2 14 -3 19 -3 22 -30 8
-34 -17 -2 -16 -5 -1 -6 33 -1 52 4 74 15 74 2 0 0 -16 -3 -35z m91 5 c-5 -25
-3 -30 12 -30 17 0 17 -1 -1 -14 -12 -8 -16 -20 -12 -35 3 -11 1 -21 -4 -21
-10 0 -12 113 -2 123 11 12 13 8 7 -23z m120 24 c12 -5 16 -21 16 -65 0 -32
-3 -59 -7 -59 -5 0 -8 25 -8 57 0 36 -4 58 -12 60 -10 3 -14 -13 -15 -59 l-2
-63 -3 54 c-4 50 0 81 11 81 2 0 11 -3 20 -6z m266 -4 c0 -5 -2 -10 -4 -10 -3
0 -8 5 -11 10 -3 6 -1 10 4 10 6 0 11 -4 11 -10z m140 -18 c0 -13 -3 -12 -14
4 -14 18 -15 18 -22 1 -4 -12 1 -26 15 -41 21 -22 29 -66 12 -66 -5 0 -7 8 -4
18 2 10 -5 26 -16 36 -23 21 -28 62 -8 69 19 6 37 -4 37 -21z m134 22 c9 -3
16 -16 15 -28 0 -20 -1 -20 -10 3 -15 38 -31 11 -27 -45 3 -48 23 -63 23 -16
-1 12 3 22 7 22 4 0 8 -13 8 -29 0 -34 -23 -47 -45 -25 -18 18 -20 95 -3 112
14 14 12 14 32 6z m40 -24 c-5 -25 -3 -30 12 -30 16 0 16 -2 4 -9 -8 -6 -18
-7 -22 -5 -10 6 -11 58 -1 67 11 12 13 8 7 -23z m175 9 c4 -12 2 -12 -12 0
-30 25 -32 -15 -3 -50 15 -17 25 -37 23 -43 -5 -15 -50 -14 -53 2 -1 7 0 8 3
2 2 -5 11 -10 18 -10 25 0 25 18 0 46 -27 29 -33 59 -12 67 18 8 30 3 36 -14z
m-902 -81 c-2 -18 -4 -4 -4 32 0 36 2 50 4 33 2 -18 2 -48 0 -65z m211 41 c16
-1 16 -2 0 -6 -10 -2 -18 -17 -21 -36 -2 -18 -4 -3 -4 33 0 36 2 53 4 38 3
-17 11 -28 21 -29z m88 6 c7 -53 20 -51 29 5 10 62 25 47 23 -22 -1 -61 -1
-62 -7 -18 l-7 45 -8 -42 c-4 -24 -12 -43 -17 -43 -5 0 -12 19 -16 43 l-8 42
-6 -45 c-6 -43 -6 -43 -7 18 -2 72 14 83 24 17z m76 20 c-3 -19 0 -25 14 -26
18 -1 18 -1 1 -6 -15 -4 -18 -12 -15 -34 3 -16 1 -29 -4 -29 -4 0 -8 27 -8 60
0 33 4 60 9 60 4 0 6 -11 3 -25z m78 5 c0 -5 5 -21 11 -37 8 -22 12 -25 20
-13 7 11 8 6 3 -15 -9 -42 -10 -41 -27 7 -8 24 -18 52 -23 62 -5 14 -4 17 4
12 7 -4 12 -11 12 -16z m32 -5 c-2 -14 -6 -25 -8 -25 -2 0 -4 11 -4 25 0 14 4
25 9 25 4 0 6 -11 3 -25z m137 -31 c7 -30 10 -58 7 -61 -3 -3 -7 6 -11 21 -3
14 -8 38 -11 54 l-7 27 -8 -35 c-4 -19 -4 -37 1 -40 4 -3 1 -11 -7 -19 -14
-13 -15 -9 -9 34 14 93 27 99 45 19z m190 7 c0 -11 -3 -10 -9 4 -6 15 -9 8
-12 -30 -4 -47 -4 -46 -6 15 -1 59 0 63 13 46 8 -11 15 -27 14 -35z m27 -69
c-8 -7 -12 -1 -20 28 -6 19 -5 21 3 10 8 -11 11 -3 13 35 l2 50 3 -59 c2 -32
2 -61 -1 -64z m-102 6 c7 -5 4 -8 -6 -8 -12 0 -18 7 -17 23 0 15 2 17 6 7 3
-8 11 -18 17 -22z m-220 7 c3 -8 1 -15 -4 -15 -6 0 -10 7 -10 15 0 8 2 15 4
15 2 0 6 -7 10 -15z m-1004 -145 c0 -5 -4 -10 -10 -10 -5 0 -10 5 -10 10 0 6
5 10 10 10 6 0 10 -4 10 -10z m227 -2 c11 -19 12 -37 2 -44 -5 -3 -12 2 -15
10 -13 35 -20 12 -17 -60 2 -42 -1 -73 -6 -70 -5 4 -7 15 -4 26 3 12 0 20 -7
20 -7 0 -10 -7 -6 -15 3 -8 1 -15 -5 -15 -6 0 -7 -4 -4 -10 3 -5 -1 -10 -9
-10 -8 0 -18 5 -21 10 -3 6 0 10 8 10 8 0 18 11 21 25 4 14 11 25 17 25 7 0 6
6 -2 17 -12 14 -12 16 0 9 9 -6 12 -5 9 5 -3 8 -11 13 -17 12 -18 -4 -13 38 7
53 22 17 39 17 49 2z m51 -4 c22 -15 34 -82 12 -69 -6 4 -8 15 -5 25 3 10 1
21 -5 25 -7 4 -10 0 -8 -10 2 -10 -3 -20 -11 -23 -8 -3 -11 0 -7 6 3 6 1 14
-5 18 -8 4 -7 9 2 15 10 6 11 9 2 9 -7 0 -13 5 -13 10 0 14 12 12 38 -6z m151
3 c9 17 25 12 27 -8 3 -22 5 -23 13 -10 8 13 12 13 26 1 13 -11 16 -31 14
-110 -2 -91 -4 -96 -23 -94 -12 1 -25 3 -31 3 -6 1 -10 33 -9 77 0 53 -4 80
-13 90 -9 9 -10 14 -3 14 22 0 38 -25 28 -43 -5 -9 -7 -18 -3 -18 3 -1 11 -2
18 -3 6 -1 11 -8 9 -16 -3 -11 0 -12 7 -4 8 7 7 20 -5 45 -10 19 -18 35 -19
37 -1 1 -17 7 -34 12 -30 8 -32 8 -25 -13 6 -19 5 -20 -9 -8 -9 7 -24 11 -32
7 -18 -6 -30 16 -22 39 5 13 10 13 41 0 32 -14 36 -13 45 2z m224 4 c27 -2 23
-51 -4 -51 -15 0 -19 5 -15 15 3 8 2 15 -3 15 -12 0 -21 -38 -21 -94 0 -45 -1
-47 -17 -35 -17 13 -17 13 0 -7 20 -24 22 -38 4 -31 -15 6 -41 -29 -32 -43 4
-6 12 -10 18 -9 9 0 9 2 0 5 -7 3 -9 12 -6 20 6 16 33 19 33 3 0 -5 -5 -7 -11
-4 -6 4 -9 0 -7 -11 2 -13 -3 -19 -14 -18 -10 1 -18 -3 -18 -10 0 -7 -3 -6 -9
2 -11 19 -13 90 -1 97 6 3 7 -1 4 -9 -6 -16 7 -22 19 -10 9 10 -4 34 -19 34
-8 0 -14 8 -14 18 0 11 3 13 8 5 11 -18 48 -12 48 8 0 9 -6 15 -13 12 -7 -3
-13 -9 -13 -15 0 -5 -7 -2 -17 7 -14 14 -14 18 -2 26 9 6 10 9 2 9 -15 0 -9
60 8 70 6 4 25 6 43 5 17 -2 39 -3 49 -4z m198 -21 c20 -23 27 -166 8 -154 -6
3 -15 1 -19 -6 -11 -18 -40 -5 -40 17 0 15 2 16 10 3 8 -13 10 -12 10 3 0 9
-5 17 -11 17 -8 0 -8 4 0 14 8 10 9 16 1 21 -5 3 -10 15 -10 25 0 21 -17 36
-28 25 -4 -3 -7 -30 -7 -58 0 -46 -2 -52 -25 -57 -14 -3 -25 -11 -25 -17 0 -6
-4 -15 -8 -19 -5 -5 -7 34 -6 86 1 57 6 98 13 102 7 5 6 8 -4 8 -13 0 -13 1 0
10 25 16 123 3 141 -20z m111 -20 c4 0 8 12 8 27 0 21 3 24 12 15 10 -10 10
-17 0 -32 -7 -11 -8 -21 -2 -25 6 -3 6 -15 0 -29 -5 -13 -6 -26 -3 -30 3 -3 2
-22 -2 -42 -5 -28 -9 -34 -16 -23 -7 11 -9 9 -9 -7 0 -12 -7 -24 -15 -28 -9
-3 -15 0 -15 9 0 8 5 15 10 15 6 0 10 10 9 23 0 21 -1 21 -9 2 -7 -15 -8 -10
-8 23 1 23 5 42 9 42 4 0 4 15 0 33 -4 17 -5 43 -2 57 l4 25 11 -27 c5 -16 13
-28 18 -28z m78 3 c0 -27 3 -58 6 -70 5 -18 2 -23 -11 -23 -13 0 -15 3 -7 13
7 8 6 18 -4 31 -7 10 -11 23 -8 27 3 5 -1 6 -9 4 -10 -4 -12 3 -9 30 3 26 9
35 23 35 16 0 19 -8 19 -47z m110 30 c0 -7 -4 -13 -10 -13 -21 0 -9 -20 15
-26 27 -7 34 -24 10 -24 -8 0 -15 -5 -15 -11 0 -5 -6 -7 -12 -3 -7 4 -5 -2 5
-13 9 -11 14 -23 10 -26 -3 -4 -1 -7 5 -7 5 0 13 6 15 13 3 6 6 2 6 -10 1 -12
-7 -27 -16 -32 -15 -7 -18 -5 -19 15 -2 28 -34 66 -34 40 0 -9 5 -16 11 -16 8
0 7 -5 -1 -15 -11 -13 -10 -14 4 -9 9 3 16 1 16 -5 0 -6 -6 -11 -12 -11 -8 -1
-6 -6 5 -14 10 -8 26 -12 36 -9 14 4 19 -2 23 -26 2 -17 1 -36 -4 -43 -6 -10
-8 -10 -8 -1 0 18 -32 53 -47 53 -7 0 -15 -12 -19 -27 -3 -16 -7 -32 -9 -38
-1 -5 -3 36 -4 93 -1 88 1 102 16 102 14 0 14 2 -3 21 -16 17 -16 22 -4 29 10
7 11 10 3 10 -7 0 -13 4 -13 9 0 5 11 8 25 7 14 0 25 -7 25 -13z m120 5 c0 -5
-9 -8 -20 -8 -11 0 -20 -6 -20 -12 0 -9 -3 -8 -9 2 -6 8 -8 17 -5 21 5 9 54 6
54 -3z m137 5 c-12 -3 -15 -11 -11 -27 4 -16 0 -25 -10 -29 -9 -4 -16 -1 -16
5 0 6 -8 4 -18 -5 -17 -16 -42 -23 -42 -13 0 17 21 56 30 56 6 0 8 -4 5 -10
-3 -5 1 -10 10 -10 11 0 15 5 12 14 -8 19 2 26 32 25 17 -1 20 -3 8 -6z m163
-3 c22 12 50 3 50 -16 0 -7 7 -17 16 -22 19 -11 15 -43 -6 -50 -13 -4 -13 -3
-2 10 14 17 7 25 -18 24 -10 -1 -16 -14 -18 -41 -2 -22 -9 -43 -15 -47 -9 -6
-9 -8 1 -8 6 0 12 -11 12 -25 0 -14 -5 -25 -11 -25 -6 0 -9 9 -6 20 3 13 0 20
-9 20 -8 0 -14 -8 -15 -17 0 -13 -3 -12 -10 5 -10 27 -1 108 12 95 4 -4 9 -19
11 -33 l4 -25 8 28 c7 22 4 31 -15 48 -22 18 -22 19 -3 10 17 -8 25 -6 39 9
10 11 15 23 12 26 -10 10 -39 -5 -32 -16 3 -5 2 -10 -4 -10 -11 0 -32 33 -30
47 0 4 3 2 6 -4 3 -9 10 -10 23 -3z m80 -6 c0 -8 -4 -12 -10 -9 -5 3 -10 10
-10 16 0 5 5 9 10 9 6 0 10 -7 10 -16z m-1596 -10 c8 -21 -2 -33 -13 -15 -6 9
-8 5 -8 -13 0 -16 4 -23 11 -19 6 4 5 -1 -3 -10 -21 -26 -28 -20 -27 21 1 48
27 71 40 36z m26 6 c0 -5 5 -10 11 -10 5 0 7 5 4 10 -3 6 -2 10 3 10 5 0 10
-11 10 -25 0 -30 -23 -33 -38 -6 -13 25 -13 31 0 31 6 0 10 -4 10 -10z m1390
-11 c0 -4 -7 -6 -15 -3 -11 5 -13 2 -8 -12 4 -11 3 -15 -5 -10 -7 4 -10 -2 -9
-18 1 -14 -2 -27 -7 -28 -5 -2 -10 16 -12 39 -2 32 1 40 12 36 8 -3 14 0 14 6
0 6 7 8 15 5 8 -4 15 -10 15 -15z m-190 -13 c0 -8 -5 -18 -10 -21 -7 -4 -7
-11 -2 -18 12 -15 11 -47 -1 -47 -5 0 -7 7 -3 15 3 8 0 14 -6 12 -7 -1 -13 4
-14 11 -3 26 -7 26 -14 -3 l-8 -30 -1 33 c0 18 5 39 12 47 16 19 47 19 47 1z
m-4047 -31 c23 -22 27 -33 27 -84 0 -67 -21 -95 -82 -106 -20 -4 -39 -13 -42
-21 -3 -8 -16 -14 -29 -14 -19 0 -26 -7 -30 -29 -5 -25 -14 -32 -49 -42 -24
-7 -53 -21 -64 -31 -21 -19 -22 -19 -53 19 -17 21 -31 45 -31 55 0 9 -4 20
-10 23 -26 16 13 118 51 130 25 8 69 -2 69 -15 0 -6 5 -10 10 -10 6 0 10 6 10
14 0 9 12 16 28 18 23 2 28 8 30 36 2 20 10 35 20 38 9 3 26 10 37 16 17 9 58
24 75 27 3 1 18 -10 33 -24z m2767 5 c9 -16 8 -20 -5 -20 -8 0 -15 9 -15 20 0
11 2 20 5 20 2 0 9 -9 15 -20z m1482 -30 c3 -47 -4 -65 -15 -37 -3 6 -6 2 -6
-11 -1 -13 -6 -32 -11 -43 -13 -23 -7 -25 13 -4 14 13 15 9 15 -33 0 -42 -1
-44 -10 -20 -5 15 -18 30 -29 33 -17 6 -18 9 -7 22 7 8 13 38 14 67 2 64 4 68
15 31 8 -28 8 -27 4 8 -2 20 0 37 5 37 4 0 10 -23 12 -50z m-1097 30 c-3 -5
-10 -10 -16 -10 -5 0 -9 5 -9 10 0 6 7 10 16 10 8 0 12 -4 9 -10z m-230 -10
c3 -5 1 -10 -4 -10 -6 0 -11 5 -11 10 0 6 2 10 4 10 3 0 8 -4 11 -10z m200
-23 c-6 -22 -5 -22 11 1 16 21 42 32 29 12 -3 -5 0 -19 7 -30 11 -17 11 -22
-2 -30 -10 -6 -11 -10 -2 -10 6 0 12 -4 12 -9 0 -11 -19 -9 -39 3 -11 7 -13 5
-8 -7 3 -10 2 -17 -4 -17 -6 0 -8 -3 -6 -7 3 -5 1 -17 -4 -28 -5 -12 -8 13 -8
68 -1 59 2 86 9 82 6 -4 8 -16 5 -28z m-94 14 c4 7 11 11 14 8 9 -9 -5 -37
-21 -43 -10 -4 -14 2 -13 22 0 15 3 21 6 13 4 -11 7 -11 14 0z m744 -1 c-3 -5
-2 -10 4 -10 6 0 8 -16 5 -37 -4 -29 -3 -34 5 -23 9 12 11 11 11 -7 0 -24 -8
-28 -25 -15 -13 9 -15 102 -3 102 5 0 6 -4 3 -10z m375 -6 c0 -14 -3 -14 -15
-4 -13 11 -14 10 -9 -4 3 -9 10 -16 15 -16 5 0 9 -7 9 -16 0 -8 -4 -13 -9 -9
-5 3 -12 1 -16 -5 -3 -5 1 -10 9 -10 9 0 16 -5 16 -11 0 -6 -7 -9 -15 -5 -8 3
-15 1 -15 -3 0 -5 7 -12 16 -15 9 -4 14 -9 11 -12 -10 -10 -67 29 -67 46 0 13
2 13 10 0 5 -8 12 -12 15 -9 8 8 -5 39 -16 39 -5 0 -9 5 -9 12 0 6 3 8 7 5 3
-4 12 2 20 13 17 24 43 26 43 4z m-200 -4 c0 -5 -4 -10 -10 -10 -5 0 -10 5
-10 10 0 6 5 10 10 10 6 0 10 -4 10 -10z m-1175 -10 c3 -5 1 -10 -4 -10 -6 0
-11 5 -11 10 0 6 2 10 4 10 3 0 8 -4 11 -10z m155 0 c0 -4 -7 -13 -15 -20 -12
-10 -15 -9 -15 7 0 11 7 20 15 20 8 0 15 -4 15 -7z m143 -18 c-10 -26 -31 -44
-38 -32 -3 5 -1 10 4 10 6 0 11 8 11 18 0 22 9 34 21 26 4 -2 5 -12 2 -22z
m-254 -101 c-1 -79 -2 -83 -14 -56 -7 17 -14 23 -14 15 -1 -13 -3 -13 -10 -1
-14 21 -2 44 15 30 11 -9 13 -3 12 34 -2 36 -4 42 -14 29 -11 -15 -34 -9 -34
9 0 6 5 7 10 4 6 -4 13 8 17 26 6 30 7 31 20 13 9 -12 13 -46 12 -103z m1210
75 c-5 -6 -9 -20 -9 -33 0 -13 -4 -23 -10 -23 -5 0 -10 -8 -9 -17 0 -11 3 -13
6 -5 7 18 21 15 34 -9 8 -16 8 -20 0 -14 -16 9 -43 -15 -37 -32 3 -7 1 -13 -4
-13 -17 0 -15 122 1 128 6 3 5 10 -1 18 -9 10 -8 17 2 27 11 12 14 12 25 -2 7
-10 8 -20 2 -25z m168 -3 c-3 -10 -5 -4 -5 12 0 17 2 24 5 18 2 -7 2 -21 0
-30z m199 20 c-3 -3 -1 -13 4 -22 10 -19 -4 -50 -17 -38 -4 5 -1 12 6 16 9 6
10 11 2 15 -6 4 -11 16 -11 27 0 12 4 17 11 14 6 -4 8 -9 5 -12z m34 -3 c0 -5
-4 -10 -10 -10 -5 0 -10 5 -10 10 0 6 5 10 10 10 6 0 10 -4 10 -10z m-1653 -6
c-3 -3 -12 -4 -19 -1 -8 3 -5 6 6 6 11 1 17 -2 13 -5z m245 -38 c-2 -4 2 -12
9 -17 11 -7 11 -9 -2 -9 -13 0 -17 9 -17 38 0 27 2 32 8 17 4 -11 5 -24 2 -29z
m1405 -21 c-1 -29 -6 -45 -14 -45 -7 0 -10 7 -7 15 4 8 1 15 -6 15 -9 0 -10
-11 -6 -35 5 -23 3 -35 -4 -35 -7 0 -10 15 -8 38 2 28 7 37 21 36 9 -1 17 3
16 10 -2 19 1 46 5 46 3 0 4 -20 3 -45z m-380 15 c-1 -11 -5 -20 -9 -20 -4 0
-8 9 -8 20 0 11 4 20 9 20 6 0 9 -9 8 -20z m-978 -17 c-6 -17 -7 -29 -1 -31 6
-2 8 -12 5 -22 -3 -11 -9 -17 -14 -14 -5 3 -9 0 -9 -5 0 -6 -9 -11 -20 -11
-28 0 -25 12 8 32 16 11 21 18 12 18 -9 0 -20 -4 -26 -10 -6 -6 -10 -3 -11 11
-1 15 2 19 18 14 24 -8 39 23 18 36 -11 7 -9 9 8 9 20 0 22 -3 12 -27z m109
-36 c2 -26 -1 -47 -7 -47 -5 0 -8 20 -7 45 2 36 0 42 -11 33 -8 -6 -12 -17 -9
-24 3 -7 1 -16 -4 -19 -13 -8 -13 21 1 46 17 32 34 16 37 -34z m357 44 c3 -5
0 -13 -5 -16 -21 -13 -45 -85 -29 -85 6 0 9 6 7 14 -3 14 0 16 20 16 4 0 8
-14 9 -30 2 -29 -10 -40 -22 -21 -3 6 -14 8 -25 6 -27 -5 -27 33 -1 77 11 17
18 35 15 40 -3 4 2 8 10 8 8 0 17 -4 21 -9z m266 -1 c24 13 25 3 2 -19 -20
-17 -29 -51 -15 -51 5 0 8 -10 8 -22 -1 -17 4 -22 18 -20 11 2 15 -1 11 -7
-10 -17 -45 -13 -52 6 -8 20 -8 81 0 89 3 3 4 11 3 17 -2 7 -1 9 1 5 3 -5 13
-3 24 2z m306 -18 c-9 -2 -15 -8 -12 -13 4 -5 1 -9 -4 -9 -6 0 -10 11 -9 24 2
21 5 23 23 13 18 -10 18 -11 2 -15z m-1137 6 c0 -7 -24 -12 -42 -9 -5 0 -8 -4
-8 -11 0 -6 -2 -9 -5 -6 -3 3 -3 12 0 20 6 16 55 20 55 6z m670 2 c0 -5 -7
-10 -16 -10 -12 0 -14 -4 -7 -12 13 -17 14 -58 2 -58 -5 0 -9 9 -9 20 0 11 -9
25 -20 32 -22 14 -27 33 -7 25 8 -3 20 -1 28 4 19 12 29 11 29 -1z m700 -25
c5 3 9 -20 9 -50 0 -31 -5 -55 -11 -55 -5 0 -8 7 -4 15 3 8 1 15 -3 15 -5 0
-7 9 -4 20 4 13 0 20 -10 20 -16 0 -18 28 -2 47 7 8 11 7 13 -3 2 -8 7 -12 12
-9z m-1392 -20 c-29 -27 -38 -31 -38 -15 0 8 46 38 60 40 3 0 -7 -11 -22 -25z
m872 9 c0 -8 -5 -12 -10 -9 -6 4 -8 11 -5 16 9 14 15 11 15 -7z m112 -14 c7
-17 18 -28 25 -25 15 5 18 -60 4 -70 -5 -3 -7 -22 -4 -43 3 -20 3 -34 -1 -30
-13 11 -18 91 -7 83 25 -15 8 17 -25 51 -22 22 -28 32 -15 25 28 -15 27 2 -1
22 -18 13 -20 16 -6 16 9 1 22 -12 30 -29z m218 20 c0 -5 -9 -10 -20 -10 -11
0 -20 5 -20 10 0 6 9 10 20 10 11 0 20 -4 20 -10z m60 -8 c0 -11 12 -24 26
-31 21 -9 24 -14 14 -26 -6 -8 -8 -20 -4 -26 4 -8 3 -9 -4 -5 -7 4 -12 2 -12
-3 0 -6 5 -11 12 -11 6 0 9 -3 5 -6 -8 -8 -56 28 -57 44 0 17 10 15 27 -5 13
-16 13 -16 8 7 -4 14 -12 30 -19 35 -15 13 -20 45 -6 45 5 0 10 -8 10 -18z
m-958 -46 c-3 -6 -7 -5 -9 1 -3 7 -12 9 -20 6 -13 -5 -15 -2 -10 11 4 10 7 22
7 28 0 6 9 0 19 -13 11 -13 16 -28 13 -33z m462 39 c-6 -16 -24 -21 -24 -7 0
11 11 22 21 22 5 0 6 -7 3 -15z m-589 -55 c-2 -3 10 -12 26 -19 28 -12 41 -41
19 -41 -6 0 -10 -6 -8 -12 1 -7 -3 -23 -10 -36 -7 -12 -10 -28 -6 -35 5 -9 4
-9 -6 0 -11 10 -10 17 4 38 17 26 17 27 -1 23 -10 -2 -18 -8 -18 -15 0 -6 -3
-14 -6 -18 -4 -3 -7 16 -7 42 -1 42 1 46 12 31 7 -10 19 -18 25 -18 21 0 7 35
-14 38 -17 2 -21 11 -22 45 -1 39 0 40 8 13 4 -16 6 -32 4 -36z m155 50 c0 -5
-2 -10 -4 -10 -3 0 -8 5 -11 10 -3 6 -1 10 4 10 6 0 11 -4 11 -10z m310 0 c0
-5 -4 -10 -10 -10 -5 0 -10 5 -10 10 0 6 5 10 10 10 6 0 10 -4 10 -10z m520
-12 c0 7 9 12 20 12 11 0 20 -4 20 -10 0 -5 -6 -10 -12 -10 -7 0 -23 -3 -35
-6 -19 -5 -23 -2 -23 17 1 23 1 23 15 5 8 -11 15 -14 15 -8z m-1340 2 c0 -5
-4 -10 -10 -10 -5 0 -10 5 -10 10 0 6 5 10 10 10 6 0 10 -4 10 -10z m200 -10
c0 -13 -6 -20 -17 -19 -11 0 -13 3 -5 6 6 2 12 11 12 19 0 8 2 14 5 14 3 0 5
-9 5 -20z m410 -11 c0 -16 -4 -28 -9 -25 -5 4 -11 1 -13 -6 -3 -9 -10 -8 -23
5 -24 24 -5 47 21 26 12 -9 15 -10 10 -1 -7 11 -1 32 10 32 2 0 4 -14 4 -31z
m1042 9 c-7 -7 -12 -8 -12 -2 0 14 12 26 19 19 2 -3 -1 -11 -7 -17z m-682 -4
c0 -8 -4 -12 -10 -9 -5 3 -10 10 -10 16 0 5 5 9 10 9 6 0 10 -7 10 -16z m-139
-19 c10 7 13 -18 3 -28 -12 -12 -36 23 -28 41 7 16 7 16 11 -1 3 -9 9 -15 14
-12z m438 3 c-1 -13 2 -31 6 -40 5 -12 2 -20 -9 -24 -9 -3 -13 -10 -10 -15 3
-5 11 -6 17 -3 9 5 9 4 1 -5 -9 -10 -16 -10 -33 1 -28 17 -29 64 -2 73 12 4
18 12 14 21 -3 7 0 14 6 14 6 0 10 -10 10 -22z m-1263 -17 c-4 -6 -13 -11 -19
-10 -9 0 -9 2 0 5 7 3 9 13 6 22 -5 13 -3 14 7 5 7 -6 9 -16 6 -22z m1372 4
c-1 -14 -6 -25 -11 -25 -6 0 -5 -5 0 -12 12 -16 15 -65 5 -72 -12 -7 -38 12
-29 21 5 4 12 1 17 -7 7 -11 9 -6 7 17 -3 41 -23 43 -32 3 -8 -38 -25 -49 -25
-16 0 15 13 39 32 58 18 18 26 34 20 36 -13 4 -6 22 8 22 6 0 9 -11 8 -25z
m-512 -7 c0 -13 -5 -26 -10 -30 -21 -15 -24 -8 -10 22 18 36 20 36 20 8z m264
4 c0 -10 -7 -27 -15 -38 -13 -17 -14 -17 -15 -1 0 9 4 17 9 17 5 0 7 9 4 20
-3 11 0 20 6 20 6 0 11 -8 11 -18z m205 8 c3 -5 1 -10 -4 -10 -6 0 -11 5 -11
10 0 6 2 10 4 10 3 0 8 -4 11 -10z m323 -3 c8 -6 11 -29 10 -67 -1 -33 -6 -54
-10 -48 -3 7 -5 15 -2 19 2 4 -6 9 -18 11 -20 3 -23 9 -24 50 -2 49 8 57 44
35z m-1498 -7 c0 -5 -8 -10 -17 -10 -15 0 -16 2 -3 10 19 12 20 12 20 0z m338
-8 c-10 -2 -18 -6 -18 -9 0 -3 8 -12 18 -20 9 -8 11 -12 5 -8 -7 3 -13 2 -13
-4 0 -5 6 -12 13 -14 9 -4 8 -8 -3 -16 -11 -8 -17 -5 -22 10 -5 12 -5 25 -2
30 3 5 -5 13 -18 18 -23 10 -23 10 -1 10 12 1 25 6 28 11 4 6 12 7 18 3 8 -5
7 -9 -5 -11z m469 -19 c-3 -10 -5 -4 -5 12 0 17 2 24 5 18 2 -7 2 -21 0 -30z
m-741 -4 c5 6 17 4 29 -6 18 -14 18 -15 1 -9 -16 5 -17 3 -11 -21 5 -23 4 -25
-9 -14 -9 7 -13 17 -10 22 3 5 -4 9 -15 9 -11 0 -23 -4 -26 -10 -8 -13 -25
-13 -25 0 0 6 10 15 23 21 20 9 20 9 -5 4 -15 -3 -30 -1 -33 5 -3 6 1 7 9 4
11 -4 16 0 16 12 0 16 2 15 23 -4 14 -14 27 -18 33 -13z m1324 27 c0 -14 -14
-36 -22 -36 -6 0 -6 6 1 14 9 11 9 15 -1 19 -8 4 -7 6 5 6 9 1 17 -1 17 -3z
m-1507 -12 c-18 -8 -4 -34 15 -27 14 5 15 3 5 -7 -10 -11 -15 -11 -28 0 -9 8
-15 8 -15 2 0 -6 4 -13 10 -17 5 -3 7 -12 3 -20 -8 -23 5 -18 33 12 20 22 27
24 37 13 10 -10 9 -11 -2 -5 -11 6 -13 4 -8 -8 4 -10 2 -14 -7 -11 -17 7 -50
-32 -40 -48 6 -10 4 -10 -9 1 -9 7 -17 20 -17 27 0 8 -8 15 -17 15 -17 1 -17
2 -1 6 15 4 16 8 7 25 -8 16 -7 22 8 34 10 7 23 13 28 13 6 0 5 -3 -2 -5z
m567 -2 c0 -14 -39 -46 -47 -39 -3 4 2 16 13 26 20 21 34 26 34 13z m110 4 c0
-3 -4 -8 -10 -11 -5 -3 -10 -1 -10 4 0 6 5 11 10 11 6 0 10 -2 10 -4z m-733
-43 c-3 -10 -5 -4 -5 12 0 17 2 24 5 18 2 -7 2 -21 0 -30z m573 27 c0 -5 -4
-10 -10 -10 -5 0 -10 5 -10 10 0 6 5 10 10 10 6 0 10 -4 10 -10z m169 -16
c-13 -14 -25 -20 -27 -14 -2 6 4 18 14 25 31 24 39 17 13 -11z m222 5 c17 -17
18 -23 8 -29 -10 -7 -10 -11 1 -24 7 -9 10 -19 6 -23 -3 -3 -6 -1 -6 5 0 7 -5
12 -10 12 -6 0 -8 -11 -4 -26 6 -21 4 -25 -11 -22 -10 1 -20 9 -23 16 -2 8 2
10 15 6 16 -6 16 -5 -2 9 -18 15 -19 16 -2 17 10 0 15 5 12 10 -4 6 -11 8 -16
5 -5 -4 -9 1 -9 9 0 20 17 30 23 14 3 -8 6 -6 6 5 1 9 -6 17 -15 17 -8 0 -12
5 -9 10 9 14 12 13 36 -11z m101 14 c-10 -4 -10 -8 -1 -19 12 -15 -3 -44 -24
-44 -6 0 -2 6 9 14 10 8 16 18 11 22 -4 4 -7 2 -7 -4 0 -7 -4 -12 -10 -12 -5
0 -10 7 -10 15 0 8 -6 15 -12 16 -7 1 -2 5 12 9 28 9 52 11 32 3z m388 -3 c0
-5 -4 -10 -10 -10 -5 0 -10 5 -10 10 0 6 5 10 10 10 6 0 10 -4 10 -10z m-789
-14 c5 3 9 -5 9 -17 0 -22 0 -22 -15 -3 -8 10 -14 24 -14 29 0 6 3 4 6 -3 2
-6 9 -10 14 -6z m172 0 c4 -10 14 -12 29 -8 20 5 21 4 10 -11 -13 -15 -16 -15
-38 1 -24 17 -31 32 -15 32 5 0 11 -6 14 -14z m757 4 c0 -5 -7 -10 -16 -10 -8
0 -12 5 -9 10 3 6 10 10 16 10 5 0 9 -4 9 -10z m-973 -32 c0 -13 -6 -26 -12
-30 -7 -6 -6 -10 1 -15 8 -6 4 -14 -12 -26 -27 -20 -32 -16 -8 7 13 13 13 16
1 16 -24 0 -43 29 -28 43 10 9 12 9 9 -2 -6 -25 18 -22 30 4 14 31 21 32 19 3z
m538 12 c-3 -5 -10 -10 -16 -10 -5 0 -9 5 -9 10 0 6 7 10 16 10 8 0 12 -4 9
-10z m418 -2 c10 2 17 -3 17 -12 0 -19 -1 -19 -34 -6 -14 5 -26 14 -26 20 0 7
5 8 13 3 6 -4 20 -6 30 -5z m-1093 -18 c0 -11 -4 -20 -10 -20 -5 0 -10 9 -10
20 0 11 5 20 10 20 6 0 10 -9 10 -20z m283 6 c7 2 12 -5 12 -20 0 -18 -3 -22
-12 -14 -9 7 -13 7 -13 0 0 -6 8 -16 18 -21 9 -6 12 -11 6 -11 -6 0 -17 7 -24
15 -7 8 -17 15 -22 15 -6 0 -5 -7 2 -15 9 -11 9 -15 1 -15 -18 0 -26 31 -10
41 8 4 15 13 15 19 3 21 6 25 10 13 3 -7 11 -10 17 -7z m-455 -19 c14 5 15 2
6 -21 -3 -9 -16 -16 -27 -16 -16 0 -18 3 -9 12 8 8 8 17 1 32 -9 18 -8 19 3 5
7 -9 19 -14 26 -12z m339 1 c-3 -8 -6 -5 -6 6 -1 11 2 17 5 13 3 -3 4 -12 1
-19z m515 0 c-7 -7 -12 -8 -12 -2 0 14 12 26 19 19 2 -3 -1 -11 -7 -17z m-296
-28 c-8 -20 -15 -27 -18 -19 -5 14 21 63 29 56 2 -2 -3 -19 -11 -37z m609 19
c0 -8 4 -20 9 -28 6 -10 4 -12 -12 -7 -12 4 -23 2 -28 -5 -4 -7 -3 -9 3 -6 6
4 14 0 17 -9 4 -9 5 -17 4 -18 -2 -1 -11 -8 -20 -15 -16 -12 -18 -11 -18 3 0
10 5 14 10 11 6 -3 10 -1 10 4 0 6 -4 11 -10 11 -16 0 -11 19 10 37 11 10 20
22 20 28 0 5 -4 4 -9 -4 -5 -7 -14 -10 -20 -7 -6 4 -9 11 -6 16 8 13 40 5 40
-11z m-1057 -20 c0 -17 3 -34 6 -37 3 -3 -2 -11 -12 -19 -9 -8 -11 -12 -4 -8
6 3 12 1 12 -5 0 -21 -23 -4 -27 19 -2 15 1 20 8 15 9 -5 10 1 5 20 -6 23 -2
46 8 46 2 0 3 -14 4 -31z m99 9 c-3 -8 -6 -5 -6 6 -1 11 2 17 5 13 3 -3 4 -12
1 -19z m326 11 c-7 -7 -10 -24 -9 -38 2 -14 2 -21 -1 -15 -2 7 -13 10 -24 7
-10 -3 -19 0 -19 6 0 6 7 11 15 11 8 0 15 6 15 14 0 8 6 17 13 19 20 9 22 8
10 -4z m303 -16 c-7 -7 -26 7 -26 19 0 6 6 6 15 -2 9 -7 13 -15 11 -17z m394
-42 c-7 -11 -9 -3 -9 29 1 42 1 43 9 16 6 -17 5 -36 0 -45z m48 20 c-3 -23
-38 -41 -38 -19 0 6 7 8 15 4 19 -7 19 3 0 28 -21 28 -19 38 5 24 14 -9 20
-21 18 -37z m62 40 c0 -5 -7 -11 -14 -14 -10 -4 -13 -1 -9 9 6 15 23 19 23 5z
m-1640 -11 c0 -5 -2 -10 -4 -10 -3 0 -8 5 -11 10 -3 6 -1 10 4 10 6 0 11 -4
11 -10z m1020 -2 c0 6 4 12 9 12 5 0 7 -9 4 -20 -6 -22 12 -28 20 -7 3 6 6 -1
6 -18 0 -19 -2 -25 -8 -17 -6 10 -10 10 -21 -3 -7 -8 -17 -15 -23 -15 -6 0 -2
6 9 14 10 8 15 18 11 22 -4 5 -12 3 -16 -4 -5 -8 -8 -1 -8 18 0 20 3 26 9 18
6 -10 8 -10 8 0z m230 -19 c0 -5 -4 -9 -10 -9 -5 0 -10 7 -10 16 0 8 5 12 10
9 6 -3 10 -10 10 -16z m130 -5 c0 -17 -14 -18 -28 -1 -8 10 -6 13 9 14 10 1
19 -5 19 -13z m-4965 -24 c0 -31 -29 -38 -56 -14 -20 18 -20 19 -2 32 28 20
58 11 58 -18z m3572 8 c-3 -8 -6 -5 -6 6 -1 11 2 17 5 13 3 -3 4 -12 1 -19z
m519 4 c1 -7 0 -8 -2 -3 -3 6 -20 8 -37 5 -26 -3 -28 -3 -12 5 26 13 48 10 51
-7z m697 -5 c7 4 6 -1 -2 -10 -10 -13 -10 -17 -1 -17 8 0 11 -9 7 -26 -4 -20
1 -27 21 -35 18 -7 27 -6 32 1 5 8 9 7 13 -4 3 -8 -1 -22 -9 -31 -20 -19 -25
-19 -17 2 5 13 2 15 -11 10 -11 -5 -15 -3 -10 4 4 7 1 10 -7 7 -8 -3 -13 -11
-11 -17 1 -7 -3 -9 -9 -6 -6 4 -9 24 -7 46 2 22 0 39 -4 39 -5 0 -7 15 -7 33
1 17 3 24 6 14 3 -10 9 -14 16 -10z m462 14 c-9 -9 -55 -9 -50 0 3 5 17 8 30
7 13 -1 22 -4 20 -7z m-1505 -11 c0 -5 -4 -10 -10 -10 -5 0 -10 5 -10 10 0 6
5 10 10 10 6 0 10 -4 10 -10z m120 -1 c0 -5 5 -7 11 -3 7 4 10 1 7 -6 -6 -20
-28 -24 -28 -7 0 9 -6 18 -12 20 -8 3 -6 6 5 6 9 1 17 -4 17 -10z m476 -36
c-3 -7 -2 -13 3 -13 4 0 8 -7 8 -15 0 -8 -6 -15 -13 -15 -8 0 -11 6 -8 13 2 7
-7 19 -21 27 -29 16 -31 25 -7 39 13 8 20 6 30 -7 7 -9 10 -22 8 -29z m-726
33 c0 -3 -4 -8 -10 -11 -5 -3 -10 -1 -10 4 0 6 5 11 10 11 6 0 10 -2 10 -4z
m340 0 c0 -2 -7 -7 -16 -10 -8 -3 -12 -2 -9 4 6 10 25 14 25 6z m880 0 c0 -2
-7 -9 -15 -16 -13 -11 -14 -10 -9 4 5 14 24 23 24 12z m-794 -30 c0 -14 -6
-22 -13 -19 -16 6 -16 16 -1 31 16 16 16 16 14 -12z m154 9 c0 -8 -6 -15 -13
-15 -8 0 -14 7 -14 15 0 8 6 15 14 15 7 0 13 -7 13 -15z m352 -7 c-6 -6 -16
-7 -22 -3 -9 6 -9 9 1 16 17 10 34 0 21 -13z m415 0 c-3 -8 -6 -5 -6 6 -1 11
2 17 5 13 3 -3 4 -12 1 -19z m263 18 c0 -3 -4 -8 -10 -11 -5 -3 -10 -1 -10 4
0 6 5 11 10 11 6 0 10 -2 10 -4z m-480 -21 c0 -8 -2 -15 -4 -15 -2 0 -6 7 -10
15 -3 8 -1 15 4 15 6 0 10 -7 10 -15z m-1113 -14 c-1 -12 -6 -17 -16 -13 -10
4 -11 7 -3 10 7 2 10 8 6 13 -3 5 -1 9 5 9 5 0 9 -9 8 -19z m127 1 c11 -2 15
1 11 7 -3 6 -1 11 4 11 6 0 11 -9 11 -20 0 -14 -5 -18 -17 -13 -16 6 -16 4 1
-15 11 -12 16 -25 13 -29 -4 -3 -7 -1 -7 5 0 7 -8 12 -18 12 -20 0 -46 36 -36
51 4 6 9 7 13 3 3 -5 14 -10 25 -12z m190 2 c5 -14 4 -15 -9 -4 -17 14 -19 20
-6 20 5 0 12 -7 15 -16z m681 -6 c-12 -7 -21 -6 -28 2 -9 10 -8 12 6 7 9 -4
17 -2 17 4 0 6 5 7 11 3 8 -5 6 -10 -6 -16z m79 7 c-4 -8 -11 -12 -16 -9 -6 4
-5 10 3 15 19 12 19 11 13 -6z m144 -14 c-7 -2 -18 -8 -24 -12 -7 -6 -10 -1
-8 14 1 12 3 23 3 25 1 1 10 -3 21 -10 13 -9 16 -14 8 -17z m49 -3 c-3 -7 -5
-2 -5 12 0 14 2 19 5 13 2 -7 2 -19 0 -25z m273 -20 c0 -5 -9 -8 -21 -8 -22 0
-52 24 -42 33 3 3 12 0 20 -8 19 -19 34 -19 27 0 -4 8 -10 15 -16 15 -5 0 -6
5 -2 11 6 11 33 -23 34 -43z m-1603 5 c-3 -10 -5 -4 -5 12 0 17 2 24 5 18 2
-7 2 -21 0 -30z m575 23 c7 4 8 2 4 -4 -11 -18 -26 -14 -25 6 0 10 3 12 6 4 2
-6 10 -9 15 -6z m151 1 c3 -8 2 -20 -3 -26 -5 -9 -7 -4 -7 13 0 29 2 32 10 13z
m257 -3 c0 -2 -9 -4 -20 -4 -11 0 -20 4 -20 9 0 5 9 7 20 4 11 -3 20 -7 20 -9z
m670 1 c0 -8 -4 -15 -9 -15 -13 0 -22 16 -14 24 11 11 23 6 23 -9z m-263 -30
c2 -31 -11 -23 -22 14 -5 17 -4 22 6 19 8 -3 15 -17 16 -33z m93 13 c0 -6 -7
-7 -16 -4 -9 3 -18 6 -20 6 -3 0 -3 4 1 10 7 11 35 2 35 -12z m-5172 -4 c35
-24 22 -37 -49 -50 -89 -16 -108 -5 -73 44 19 27 87 31 122 6z m1299 -6 c-3
-8 -6 -5 -6 6 -1 11 2 17 5 13 3 -3 4 -12 1 -19z m2688 12 c-3 -5 -14 -10 -23
-10 -15 0 -15 2 -2 10 20 13 33 13 25 0z m120 0 c-3 -5 -10 -10 -16 -10 -5 0
-9 5 -9 10 0 6 7 10 16 10 8 0 12 -4 9 -10z m755 -2 c0 -7 -13 -13 -30 -14
-38 -1 -40 13 -2 19 15 2 28 5 30 6 1 0 2 -5 2 -11z m-170 -8 c0 -5 -4 -10
-10 -10 -5 0 -7 -7 -4 -15 4 -8 2 -15 -4 -15 -16 0 -24 33 -10 42 18 11 28 10
28 -2z m679 -3 c-12 -9 -14 -18 -8 -34 6 -18 5 -21 -8 -16 -10 4 -14 2 -10 -4
4 -6 0 -13 -8 -17 -20 -7 -19 13 2 37 17 18 17 19 -1 16 -11 -2 -21 3 -23 11
-3 11 -2 12 4 3 7 -10 13 -10 29 2 10 8 24 14 29 14 6 0 3 -5 -6 -12z m-1625
-5 c3 -5 -1 -9 -9 -9 -8 0 -12 4 -9 9 3 4 7 8 9 8 2 0 6 -4 9 -8z m556 -7 c-7
-9 -15 -13 -19 -10 -3 3 1 10 9 15 21 14 24 12 10 -5z m221 -20 c14 9 11 -5
-4 -20 -12 -11 -14 -7 -14 23 0 21 2 27 4 14 3 -12 9 -20 14 -17z m221 21 c7
4 8 2 4 -5 -9 -13 -26 -5 -25 12 0 9 2 8 6 -1 2 -6 10 -9 15 -6z m-272 -17 c0
-5 -4 -9 -10 -9 -5 0 -10 7 -10 16 0 8 5 12 10 9 6 -3 10 -10 10 -16z m240 11
c0 -5 -4 -10 -10 -10 -5 0 -10 5 -10 10 0 6 5 10 10 10 6 0 10 -4 10 -10z
m425 0 c3 -5 1 -10 -4 -10 -6 0 -11 5 -11 10 0 6 2 10 4 10 3 0 8 -4 11 -10z
m45 -12 c0 -6 -6 -5 -15 2 -8 7 -15 14 -15 16 0 2 7 1 15 -2 8 -4 15 -11 15
-16z m-1210 -3 c9 -10 9 -15 1 -15 -6 0 -11 5 -11 11 0 5 -4 7 -10 4 -5 -3
-10 -1 -10 4 0 16 16 13 30 -4z m127 0 c0 -8 -4 -15 -9 -15 -10 0 -11 14 -1
23 9 10 10 9 10 -8z m310 -7 c-3 -8 -6 -5 -6 6 -1 11 2 17 5 13 3 -3 4 -12 1
-19z m416 16 c7 -8 -3 -34 -13 -34 -5 0 -8 9 -7 20 1 20 8 25 20 14z m431 -6
c-5 -7 -7 -26 -7 -43 l2 -30 -9 29 c-6 20 -6 34 2 43 13 16 22 17 12 1z
m-5084 -2 c0 -3 -4 -8 -10 -11 -5 -3 -10 -1 -10 4 0 6 5 11 10 11 6 0 10 -2
10 -4z m4129 -3 c14 10 14 10 4 -4 -10 -12 -10 -18 -1 -27 19 -19 3 -14 -20 7
-12 10 -22 22 -22 27 0 4 5 3 12 -4 9 -9 15 -9 27 1z m345 -9 c9 -8 16 -20 16
-25 0 -5 -9 0 -20 11 -19 19 -25 30 -16 30 3 0 12 -7 20 -16z m106 1 c-11 -13
-10 -14 4 -9 9 3 16 3 16 -1 0 -12 -43 -46 -49 -39 -3 4 0 9 7 11 18 7 15 23
-5 23 -14 1 -12 4 7 15 32 18 35 18 20 0z m107 -7 c-3 -8 -6 -5 -6 6 -1 11 2
17 5 13 3 -3 4 -12 1 -19z m183 -3 c7 -8 8 -15 2 -15 -5 0 -15 7 -22 15 -7 8
-8 15 -2 15 5 0 15 -7 22 -15z m-1330 -15 c0 -5 -8 -10 -17 -10 -15 0 -16 2
-3 10 19 12 20 12 20 0z m746 -25 c7 -13 9 -24 5 -23 -18 2 -22 -3 -12 -16 9
-11 8 -15 -5 -20 -9 -4 -19 -4 -22 -1 -3 3 0 5 7 5 7 0 9 5 4 13 -4 6 -8 19
-8 27 0 8 -6 14 -12 13 -16 -4 -17 9 -2 24 15 15 32 8 45 -22z m168 27 c-6 -4
-14 -14 -17 -22 -4 -10 -6 -8 -6 8 -1 15 5 22 17 22 10 0 13 -3 6 -8z m351
-13 c-10 -15 -25 -10 -19 6 4 8 10 12 15 9 5 -3 7 -10 4 -15z m191 -15 c8 3
12 1 9 -4 -3 -5 -16 -8 -28 -6 -12 3 -24 5 -27 5 -3 1 2 6 10 11 13 9 13 10 0
10 -13 0 -13 1 0 10 11 7 16 5 18 -11 2 -13 9 -19 18 -15z m14 26 c0 -5 -2
-10 -4 -10 -3 0 -8 5 -11 10 -3 6 -1 10 4 10 6 0 11 -4 11 -10z m92 -42 c-9
-35 -17 -26 -13 15 3 31 6 37 11 22 4 -11 5 -28 2 -37z m-5285 26 c9 -24 -46
-73 -89 -80 -30 -5 -38 -3 -47 15 -16 29 -1 52 41 67 48 18 88 17 95 -2z
m4118 -4 c-3 -5 -12 -10 -18 -10 -7 0 -6 4 3 10 19 12 23 12 15 0z m185 0 c0
-5 -4 -10 -10 -10 -5 0 -10 5 -10 10 0 6 5 10 10 10 6 0 10 -4 10 -10z m270 0
c0 -5 -2 -10 -4 -10 -3 0 -8 5 -11 10 -3 6 -1 10 4 10 6 0 11 -4 11 -10z m472
-15 c-2 -10 2 -22 10 -26 9 -6 7 -8 -8 -7 -15 2 -21 10 -22 31 -2 20 2 27 10
24 7 -2 12 -12 10 -22z m325 -9 c-9 -23 -37 -20 -37 3 0 21 20 33 34 20 5 -4
6 -15 3 -23z m-5253 -1 c28 -43 16 -88 -16 -62 -22 17 -34 87 -15 87 8 0 22
-11 31 -25z m3892 11 c20 -21 17 -28 -6 -14 -11 7 -20 16 -20 20 0 12 10 9 26
-6z m60 -21 c1 -8 -2 -13 -7 -9 -5 3 -9 12 -9 21 0 19 13 9 16 -12z m209 16
c3 -5 2 -12 -3 -15 -5 -3 -9 1 -9 9 0 17 3 19 12 6z m45 -6 c0 -8 -7 -15 -15
-15 -16 0 -20 12 -8 23 11 12 23 8 23 -8z m610 -5 c0 -11 -4 -20 -8 -20 -4 0
-8 9 -8 20 0 11 4 20 8 20 4 0 8 -9 8 -20z m52 -7 c-3 -16 -7 -22 -10 -15 -4
13 4 42 11 42 2 0 2 -12 -1 -27z m88 17 c0 -5 -4 -10 -10 -10 -5 0 -10 5 -10
10 0 6 5 10 10 10 6 0 10 -4 10 -10z m-4792 -33 c15 -24 15 -29 2 -37 -8 -5
-32 -10 -52 -10 -35 0 -38 2 -38 28 0 57 58 70 88 19z m3842 23 c0 -5 -5 -10
-11 -10 -5 0 -7 5 -4 10 3 6 8 10 11 10 2 0 4 -4 4 -10z m460 0 c0 -5 -4 -10
-10 -10 -5 0 -10 5 -10 10 0 6 5 10 10 10 6 0 10 -4 10 -10z m38 -39 c-15 -5
-19 4 -11 24 6 18 7 18 13 -1 4 -10 3 -21 -2 -23z m204 7 c-8 -8 -9 -4 -5 13
4 13 8 18 11 10 2 -7 -1 -18 -6 -23z m561 17 c-3 -9 -8 -14 -10 -11 -3 3 -2 9
2 15 9 16 15 13 8 -4z m-1476 -22 c0 -16 -1 -20 -4 -10 -2 9 -9 17 -14 17 -5
0 -9 5 -9 10 0 24 26 7 27 -17z m860 12 c8 -9 13 -18 11 -21 -3 -2 -13 5 -23
16 -21 23 -11 27 12 5z m423 -17 c-1 -31 -1 -32 -15 -14 -11 14 -12 23 -4 33
17 19 19 17 19 -19z m-1455 5 c-3 -8 -5 -22 -5 -30 0 -22 -6 -14 -13 18 -5 19
-3 26 9 26 9 0 13 -6 9 -14z m125 13 c0 -3 -4 -8 -10 -11 -5 -3 -10 -1 -10 4
0 6 5 11 10 11 6 0 10 -2 10 -4z m454 -12 c9 -22 8 -26 -6 -22 -13 5 -20 38
-8 38 4 0 11 -7 14 -16z m266 12 c0 -3 -4 -8 -10 -11 -5 -3 -10 -1 -10 4 0 6
5 11 10 11 6 0 10 -2 10 -4z m90 -11 c0 -8 -5 -15 -12 -15 -6 0 -23 -10 -37
-22 -14 -13 -20 -16 -13 -6 7 9 9 18 5 20 -4 3 -3 4 3 2 7 -1 20 6 30 16 23
23 24 23 24 5z m420 0 c0 -8 -2 -15 -4 -15 -2 0 -6 7 -10 15 -3 8 -1 15 4 15
6 0 10 -7 10 -15z m-975 -5 c3 -5 1 -10 -4 -10 -6 0 -11 5 -11 10 0 6 2 10 4
10 3 0 8 -4 11 -10z m755 0 c0 -5 -2 -10 -4 -10 -3 0 -8 5 -11 10 -3 6 -1 10
4 10 6 0 11 -4 11 -10z m69 -9 c0 -3 -4 -15 -8 -26 -7 -17 -9 -16 -13 11 -3
24 -1 31 9 27 7 -3 13 -8 12 -12z m398 -3 c-3 -8 -6 -5 -6 6 -1 11 2 17 5 13
3 -3 4 -12 1 -19z m56 -9 c4 -16 3 -18 -9 -8 -7 6 -11 15 -8 20 8 13 11 11 17
-12z m-1323 1 c0 -5 -4 -10 -10 -10 -5 0 -10 5 -10 10 0 6 5 10 10 10 6 0 10
-4 10 -10z m510 0 c0 -5 -5 -10 -11 -10 -5 0 -7 5 -4 10 3 6 8 10 11 10 2 0 4
-4 4 -10z m189 -26 c-6 -8 -17 -14 -24 -14 -8 0 -16 -6 -18 -12 -3 -8 -6 -6
-6 5 -1 9 3 17 8 17 5 0 13 9 16 21 5 16 9 18 21 8 11 -9 12 -15 3 -25z m485
19 c4 -8 -2 -12 -16 -9 -12 1 -23 7 -25 12 -5 15 36 11 41 -3z m-792 -15 c-9
-9 -15 -9 -24 1 -9 10 -9 12 -1 7 6 -3 15 -1 18 5 4 5 10 8 13 4 3 -3 0 -11
-6 -17z m203 12 c-3 -5 -11 -10 -16 -10 -6 0 -7 5 -4 10 3 6 11 10 16 10 6 0
7 -4 4 -10z m195 -5 c-7 -8 -20 -15 -29 -15 -11 1 -8 5 9 15 32 18 35 18 20 0z
m-1064 -4 c-3 -5 -15 -7 -26 -4 -28 7 -25 13 6 13 14 0 23 -4 20 -9z m144 -6
c-7 -9 -15 -13 -19 -10 -3 3 1 10 9 15 21 14 24 12 10 -5z m61 -2 c13 -16 12
-17 -3 -4 -17 13 -22 21 -14 21 2 0 10 -8 17 -17z m109 1 c0 -8 -4 -12 -10 -9
-5 3 -10 10 -10 16 0 5 5 9 10 9 6 0 10 -7 10 -16z m205 6 c3 -5 1 -10 -4 -10
-6 0 -11 5 -11 10 0 6 2 10 4 10 3 0 8 -4 11 -10z m45 -4 c0 -17 -28 -41 -37
-32 -3 3 -1 6 6 6 7 0 9 5 5 12 -4 7 -3 8 4 4 7 -4 12 -3 12 3 0 5 -6 12 -12
14 -8 3 -6 6 5 6 9 1 17 -5 17 -13z m760 3 c0 -4 -11 -6 -24 -5 -13 0 -22 4
-20 8 6 9 44 6 44 -3z m-840 -9 c0 -5 -5 -10 -11 -10 -5 0 -7 5 -4 10 3 6 8
10 11 10 2 0 4 -4 4 -10z m-315 -10 c3 -5 -1 -10 -10 -10 -9 0 -13 5 -10 10 3
6 8 10 10 10 2 0 7 -4 10 -10z m92 -12 c-3 -8 -6 -5 -6 6 -1 11 2 17 5 13 3
-3 4 -12 1 -19z m997 6 c5 -14 4 -15 -9 -4 -17 14 -19 20 -6 20 5 0 12 -7 15
-16z m211 6 c3 -5 1 -10 -4 -10 -6 0 -11 5 -11 10 0 6 2 10 4 10 3 0 8 -4 11
-10z m-1448 -6 c-3 -3 -12 -4 -19 -1 -8 3 -5 6 6 6 11 1 17 -2 13 -5z m63 -4
c0 -5 -2 -10 -4 -10 -3 0 -8 5 -11 10 -3 6 -1 10 4 10 6 0 11 -4 11 -10z m210
6 c0 -3 -4 -8 -10 -11 -5 -3 -10 -1 -10 4 0 6 5 11 10 11 6 0 10 -2 10 -4z
m885 -6 c-3 -5 -12 -10 -18 -10 -7 0 -6 4 3 10 19 12 23 12 15 0z m256 -13
c-10 -9 -11 -8 -5 6 3 10 9 15 12 12 3 -3 0 -11 -7 -18z m-1526 3 c3 -5 1 -10
-4 -10 -6 0 -11 5 -11 10 0 6 2 10 4 10 3 0 8 -4 11 -10z m915 6 c0 -3 -4 -8
-10 -11 -5 -3 -10 -1 -10 4 0 6 5 11 10 11 6 0 10 -2 10 -4z m320 -6 c0 -5 -2
-10 -4 -10 -3 0 -8 5 -11 10 -3 6 -1 10 4 10 6 0 11 -4 11 -10z m185 -59 c0
-16 -3 -27 -7 -24 -5 2 -8 15 -8 29 0 13 3 24 8 24 4 0 7 -13 7 -29z m-1025
-140 c0 -5 -8 -8 -17 -7 -14 1 -18 -7 -18 -39 0 -32 4 -40 17 -39 10 1 15 -2
12 -7 -9 -14 -31 -10 -38 7 -16 42 -3 94 25 94 10 0 19 -4 19 -9z m50 -56 l-7
-50 -2 60 c0 34 3 55 8 50 4 -6 5 -32 1 -60z m40 8 c-1 -55 -1 -57 -15 -33 -8
14 -14 32 -14 40 0 10 3 8 9 -5 7 -16 9 -13 9 18 1 20 3 37 6 37 3 0 5 -26 5
-57z m55 2 c0 -43 -3 -50 -20 -50 -16 0 -21 8 -23 39 -4 49 3 68 25 64 14 -3
18 -14 18 -53z m40 8 c6 -32 9 -35 15 -18 5 12 9 14 9 5 0 -8 -4 -24 -9 -35
-7 -18 -9 -16 -15 13 -4 18 -12 35 -16 38 -5 3 -9 14 -9 25 0 32 17 13 25 -28z
m44 -10 l-2 -58 -7 50 c-7 47 -5 65 6 65 2 0 3 -26 3 -57z m39 50 c-14 -3 -18
-15 -18 -48 0 -33 4 -45 18 -48 13 -4 11 -5 -5 -6 -21 -1 -23 3 -23 54 0 51 2
55 23 54 16 -1 18 -2 5 -6z m97 -48 c0 -44 -3 -50 -22 -53 -22 -3 -23 0 -23
53 0 53 1 56 23 53 19 -3 22 -9 22 -53z m43 48 c-20 -5 -25 -43 -5 -44 10 0
10 -2 0 -6 -19 -7 -16 -41 5 -46 13 -4 11 -5 -5 -6 -21 -1 -23 3 -23 54 0 51
2 55 23 54 16 -1 18 -2 5 -6z m29 -30 c-3 -10 -5 -4 -5 12 0 17 2 24 5 18 2
-7 2 -21 0 -30z m81 30 c-14 -3 -18 -15 -18 -48 0 -33 4 -45 18 -48 13 -4 11
-5 -5 -6 -21 -1 -23 3 -23 54 0 51 2 55 23 54 16 -1 18 -2 5 -6z m92 -3 c0 -5
-7 -7 -15 -4 -9 4 -15 0 -15 -9 0 -8 7 -20 15 -27 8 -7 15 -17 15 -23 0 -5
-11 2 -25 17 -13 14 -22 33 -19 41 7 16 44 21 44 5z m53 3 c-7 -2 -21 -2 -30
0 -10 3 -4 5 12 5 17 0 24 -2 18 -5z m63 -53 c1 -33 -1 -45 -5 -31 -9 35 -29
37 -34 4 -2 -15 -5 -2 -6 30 -1 55 0 58 22 55 20 -3 22 -9 23 -58z m54 44 c0
-8 -4 -12 -10 -9 -5 3 -10 10 -10 16 0 5 5 9 10 9 6 0 10 -7 10 -16z m78 9
c-10 -2 -18 -13 -18 -24 0 -11 7 -19 18 -20 16 -1 16 -2 0 -6 -10 -2 -18 -13
-18 -23 0 -10 8 -20 18 -23 13 -3 12 -4 -3 -3 -17 1 -20 9 -23 54 -3 49 -2 52
20 51 17 -1 18 -3 6 -6z m52 -25 c0 -5 -4 -8 -10 -8 -5 0 -10 10 -10 23 0 18
2 19 10 7 5 -8 10 -18 10 -22z m50 -20 c0 -62 -5 -60 -14 5 -5 31 -4 47 3 47
7 0 11 -22 11 -52z m54 -3 l6 -40 -15 45 c-17 53 -18 57 -6 45 5 -6 12 -28 15
-50z m46 22 c0 -5 -4 -5 -10 -2 -5 3 -10 14 -10 23 0 15 2 15 10 2 5 -8 10
-19 10 -23z m29 -23 c-2 -55 -11 -61 -24 -14 -5 19 -4 21 4 10 8 -12 11 -7 11
23 0 20 2 37 5 37 3 0 4 -25 4 -56z m34 -41 c7 2 15 26 18 53 l6 49 1 -45 c2
-52 -9 -75 -32 -67 -12 5 -16 19 -14 59 l2 53 3 -53 c3 -36 8 -52 16 -49z m60
90 c-7 -2 -13 -13 -13 -24 0 -10 6 -19 13 -20 10 0 10 -2 0 -6 -19 -7 -16 -41
5 -46 13 -4 11 -5 -5 -6 -21 -1 -23 3 -23 54 0 46 3 55 18 54 10 0 12 -3 5 -6z
m55 -96 c12 -3 11 -5 -5 -6 -22 -1 -23 3 -21 57 l2 57 3 -52 c3 -38 8 -53 21
-56z m-605 42 c-9 -9 -12 -7 -10 9 1 14 5 18 11 12 7 -7 6 -14 -1 -21z m354 9
c-3 -8 -6 -5 -6 6 -1 11 2 17 5 13 3 -3 4 -12 1 -19z m-237 -45 c-11 -17 -11
-17 -6 0 3 10 7 28 7 40 2 22 2 22 6 0 2 -12 -1 -30 -7 -40z m44 17 c4 -25 3
-31 -4 -20 -5 8 -10 26 -10 39 0 32 6 24 14 -19z m253 -7 c-3 -10 -5 -4 -5 12
0 17 2 24 5 18 2 -7 2 -21 0 -30z m-880 -10 c-3 -10 -5 -4 -5 12 0 17 2 24 5
18 2 -7 2 -21 0 -30z m270 15 c-3 -8 -6 -5 -6 6 -1 11 2 17 5 13 3 -3 4 -12 1
-19z m460 -15 c-3 -10 -5 -4 -5 12 0 17 2 24 5 18 2 -7 2 -21 0 -30z m33 -1
c0 -15 -2 -15 -10 -2 -13 20 -13 33 0 25 6 -3 10 -14 10 -23z m60 19 c0 -6 -4
-13 -10 -16 -5 -3 -10 1 -10 9 0 9 5 16 10 16 6 0 10 -4 10 -9z m-410 -12 c0
-6 7 -9 15 -5 8 3 15 1 15 -4 0 -16 -37 -11 -44 5 -3 8 -1 15 4 15 6 0 10 -5
10 -11z m90 -15 c0 -2 -9 -4 -20 -4 -11 0 -20 4 -20 9 0 5 9 7 20 4 11 -3 20
-7 20 -9z m-203 0 c-3 -3 -12 -4 -19 -1 -8 3 -5 6 6 6 11 1 17 -2 13 -5z m158
-89 c0 -44 -3 -50 -22 -53 -22 -3 -23 0 -23 53 0 53 1 56 23 53 19 -3 22 -9
22 -53z m43 48 c-10 -2 -18 -13 -18 -24 0 -11 7 -19 18 -20 16 -1 16 -2 0 -6
-10 -2 -18 -13 -18 -23 0 -10 8 -21 18 -23 13 -4 11 -5 -5 -6 -21 -1 -23 3
-23 54 0 51 2 55 23 54 16 -1 18 -2 5 -6z m132 -10 c0 -14 -2 -15 -9 -4 -5 7
-14 10 -20 7 -6 -4 -11 -2 -11 3 0 6 9 11 20 11 12 0 20 -7 20 -17z m68 10
c-14 -3 -18 -15 -18 -48 0 -33 4 -45 18 -48 13 -4 11 -5 -5 -6 -21 -1 -23 4
-23 47 0 53 5 63 29 61 13 -1 13 -2 -1 -6z m72 -3 c0 -5 -6 -7 -14 -4 -8 3
-16 -2 -19 -13 -4 -14 -5 -14 -6 5 -1 16 5 22 19 22 11 0 20 -4 20 -10z m33
-10 c3 -11 1 -20 -4 -20 -5 0 -9 9 -9 20 0 11 2 20 4 20 2 0 6 -9 9 -20z m34
-17 c-3 -10 -5 -4 -5 12 0 17 2 24 5 18 2 -7 2 -21 0 -30z m53 27 c0 -5 -7 -7
-15 -4 -12 5 -15 -3 -15 -40 0 -55 26 -66 33 -13 4 32 4 32 3 -3 -1 -28 -5
-36 -23 -38 -21 -3 -23 1 -23 46 0 27 3 52 7 55 10 10 33 8 33 -3z m60 0 c0
-5 -7 -7 -15 -4 -9 4 -15 0 -15 -9 0 -8 7 -20 15 -27 8 -7 15 -16 15 -21 0 -5
-9 -1 -20 8 -20 17 -26 44 -13 56 10 10 33 8 33 -3z m60 2 c0 -4 -9 -8 -20 -8
-11 0 -20 4 -20 8 0 4 9 8 20 8 11 0 20 -4 20 -8z m60 0 c0 -4 -9 -8 -20 -8
-11 0 -20 4 -20 8 0 4 9 8 20 8 11 0 20 -4 20 -8z m-4030 -37 c0 -33 -15 -33
-16 0 -1 14 2 25 7 25 5 0 9 -11 9 -25z m3590 -29 c0 -5 -9 -1 -20 9 -11 10
-20 22 -20 26 0 5 9 1 20 -8 11 -10 20 -22 20 -27z m-4063 19 c14 -10 20 -22
16 -31 -7 -19 16 -94 29 -94 5 0 6 9 3 20 -9 27 23 40 41 16 13 -19 8 -86 -8
-97 -17 -11 -57 16 -63 42 -3 14 -24 43 -45 64 -65 64 -43 129 27 80z m388 -5
c3 -5 2 -10 -3 -10 -19 0 -36 -106 -36 -217 1 -109 0 -113 -20 -113 -20 1 -66
31 -66 44 0 3 8 7 18 7 16 1 16 2 0 6 -21 5 -24 19 -5 26 12 4 -36 57 -53 57
-16 0 -50 52 -50 76 0 48 105 133 145 118 7 -3 22 -1 32 5 23 13 30 13 38 1z
m3885 -44 c0 -18 -17 8 -24 34 l-7 25 15 -25 c9 -14 15 -29 16 -34z m-43 12
c-3 -7 -5 -2 -5 12 0 14 2 19 5 13 2 -7 2 -19 0 -25z m-241 -4 c8 3 14 1 14
-4 0 -6 -9 -10 -20 -10 -14 0 -20 6 -19 23 1 18 2 18 6 4 3 -11 11 -16 19 -13z
m64 1 c5 3 10 1 10 -4 0 -17 -37 -13 -44 5 -5 14 -4 15 8 5 8 -7 20 -10 26 -6z
m139 -1 c6 4 11 2 11 -3 0 -6 -9 -11 -20 -11 -12 0 -20 7 -20 18 0 13 2 14 9
3 5 -7 14 -10 20 -7z m180 0 c6 4 11 2 11 -3 0 -6 -9 -11 -20 -11 -12 0 -20 7
-20 18 0 13 2 14 9 3 5 -7 14 -10 20 -7z m71 -6 c0 -4 -9 -8 -20 -8 -11 0 -20
4 -20 8 0 4 9 8 20 8 11 0 20 -4 20 -8z m60 0 c0 -4 -9 -8 -20 -8 -11 0 -20 4
-20 8 0 4 9 8 20 8 11 0 20 -4 20 -8z m-183 -70 c-3 -7 -5 -2 -5 12 0 14 2 19
5 13 2 -7 2 -19 0 -25z m39 6 c-4 -9 -9 -15 -11 -12 -3 3 -3 13 1 22 4 9 9 15
11 12 3 -3 3 -13 -1 -22z m152 9 c-6 -7 -12 -13 -13 -13 -2 0 -5 6 -8 13 -3 7
3 13 14 13 13 0 15 -3 7 -13z m-5109 -32 c31 -43 82 -192 71 -206 -6 -8 -31
-9 -77 -4 -37 4 -87 5 -109 3 -54 -5 -74 17 -76 78 -1 64 19 98 77 129 67 36
89 36 114 0z m2411 -322 c0 -10 -9 -23 -20 -29 -17 -9 -20 -7 -26 16 -4 17 -2
29 6 34 19 12 40 1 40 -21z"/>
<path d="M4510 1829 c0 -5 5 -7 10 -4 6 3 10 8 10 11 0 2 -4 4 -10 4 -5 0 -10
-5 -10 -11z"/>
<path d="M4646 1785 c4 -8 8 -15 10 -15 2 0 4 7 4 15 0 8 -4 15 -10 15 -5 0
-7 -7 -4 -15z"/>
<path d="M4649 1703 c-1 -5 -1 -11 0 -15 0 -5 -7 -8 -16 -9 -14 0 -15 -2 -3
-6 8 -3 18 -10 21 -15 3 -5 6 5 7 21 1 27 -6 44 -9 24z"/>
<path d="M4720 1819 c0 -5 5 -7 10 -4 6 3 10 2 10 -4 0 -5 -4 -11 -9 -13 -5
-1 -2 -10 7 -18 14 -13 15 -12 9 3 -4 10 0 20 11 26 9 6 15 11 12 11 -38 8
-50 8 -50 -1z"/>
<path d="M4944 1831 c4 -6 -5 -9 -26 -6 -30 4 -31 3 -14 -10 13 -10 24 -11 36
-5 11 6 21 5 28 -2 7 -7 12 -8 12 -2 0 5 -9 15 -21 22 -12 8 -18 9 -15 3z"/>
<path d="M4980 1825 c7 -8 16 -15 21 -15 5 0 6 7 3 15 -4 8 -13 15 -21 15 -13
0 -13 -3 -3 -15z"/>
<path d="M4870 1804 c1 -12 36 -54 46 -54 4 0 3 5 -3 11 -6 6 -9 19 -6 28 4 9
3 13 -2 9 -4 -4 -14 -3 -22 3 -7 6 -13 8 -13 3z"/>
<path d="M4980 1759 c0 -5 5 -7 10 -4 6 3 10 8 10 11 0 2 -4 4 -10 4 -5 0 -10
-5 -10 -11z"/>
<path d="M4873 1727 c1 -24 6 -33 19 -34 10 -1 18 2 18 8 0 5 -5 9 -11 9 -6 0
-9 6 -6 14 3 8 0 20 -8 26 -10 9 -13 4 -12 -23z"/>
<path d="M5110 1793 c0 -4 5 -15 10 -23 8 -13 10 -13 10 2 0 9 -4 20 -10 23
-5 3 -10 3 -10 -2z"/>
<path d="M5331 1644 c0 -11 3 -14 6 -6 3 7 2 16 -1 19 -3 4 -6 -2 -5 -13z"/>
<path d="M5715 1600 c3 -5 8 -10 11 -10 2 0 4 5 4 10 0 6 -5 10 -11 10 -5 0
-7 -4 -4 -10z"/>
<path d="M5405 1530 c3 -5 1 -10 -6 -10 -10 0 -10 -3 -2 -11 6 -6 16 -8 22 -5
12 8 4 36 -11 36 -5 0 -6 -4 -3 -10z"/>
<path d="M5792 1538 c-7 -7 -12 -25 -12 -41 0 -42 34 -33 37 10 3 36 -8 48
-25 31z"/>
<path d="M4882 1368 c2 -6 10 -14 16 -16 7 -2 10 2 6 12 -7 18 -28 22 -22 4z"/>
<path d="M4880 1231 c0 -5 7 -15 17 -22 15 -13 15 -12 4 9 -12 23 -21 28 -21
13z"/>
<path d="M5790 1199 c0 -5 5 -7 10 -4 6 3 10 8 10 11 0 2 -4 4 -10 4 -5 0 -10
-5 -10 -11z"/>
<path d="M4660 825 c0 -33 4 -45 15 -45 11 0 15 12 15 45 0 33 -4 45 -15 45
-11 0 -15 -12 -15 -45z"/>
<path d="M4880 825 c0 -33 4 -45 15 -45 11 0 15 12 15 45 0 33 -4 45 -15 45
-11 0 -15 -12 -15 -45z"/>
<path d="M5240 850 c0 -11 7 -20 15 -20 8 0 15 9 15 20 0 11 -7 20 -15 20 -8
0 -15 -9 -15 -20z"/>
<path d="M5140 685 c0 -33 4 -45 15 -45 11 0 15 12 15 45 0 33 -4 45 -15 45
-11 0 -15 -12 -15 -45z"/>
</g>
</svg>
