<?xml version="1.0" standalone="no"?>
<!DOCTYPE svg PUBLIC "-//W3C//DTD SVG 20010904//EN"
 "http://www.w3.org/TR/2001/REC-SVG-20010904/DTD/svg10.dtd">
<svg version="1.0" xmlns="http://www.w3.org/2000/svg"
 width="640.000000pt" height="640.000000pt" viewBox="0 0 640.000000 640.000000"
 preserveAspectRatio="xMidYMid meet">

<g transform="translate(0.000000,640.000000) scale(0.100000,-0.100000)"
fill="#000000" stroke="none">
<path d="M0 3200 l0 -3200 418 0 c261 0 412 4 402 10 -20 13 -10 19 22 13 15
-3 25 -9 22 -14 -9 -14 390 -11 404 3 9 9 12 9 12 0 0 -7 14 -12 35 -12 32 0
35 3 35 28 0 15 -5 45 -10 67 -6 26 -4 119 5 275 8 129 15 238 15 243 0 12
-28 8 -33 -5 -3 -7 -5 3 -5 22 0 19 2 29 5 23 11 -29 31 -11 38 35 3 26 30
135 58 242 36 137 50 211 49 248 -2 47 10 70 21 40 6 -17 2 -22 71 112 33 63
76 140 97 171 21 31 61 99 89 152 28 53 55 99 60 102 4 2 6 26 4 52 -2 27 -1
40 2 30 6 -18 34 -24 34 -7 0 21 20 9 21 -12 0 -15 2 -18 6 -8 8 21 34 40 56
40 10 0 25 6 33 13 7 6 42 32 76 57 34 25 80 63 104 85 23 22 47 39 52 37 5
-1 22 22 37 53 15 31 38 68 51 82 13 14 24 31 24 37 0 6 7 2 15 -8 14 -18 16
-18 33 -3 10 9 30 17 43 17 15 0 42 17 74 47 27 26 55 48 62 48 6 0 18 7 25
16 15 20 58 35 58 21 0 -6 -6 -13 -12 -15 -7 -3 -4 -6 7 -6 17 -1 17 -3 5 -11
-34 -22 18 -10 61 15 43 23 45 27 68 112 12 48 39 147 59 218 35 124 37 136
35 268 -2 113 0 138 11 134 7 -3 19 0 26 6 10 9 12 8 7 -5 -7 -19 14 -66 35
-80 11 -6 10 -10 -2 -18 -13 -8 -11 -12 8 -30 12 -12 26 -18 31 -15 5 3 12 1
16 -5 4 -6 -7 -10 -25 -10 -25 0 -31 -3 -26 -16 3 -9 6 -25 6 -35 0 -15 5 -19
18 -15 9 3 31 -1 47 -9 l30 -13 -37 5 c-31 5 -38 3 -38 -11 0 -13 5 -16 20
-11 20 6 28 -9 10 -20 -15 -9 -12 -51 5 -65 24 -20 65 -97 65 -124 0 -14 6
-29 13 -33 7 -4 23 -24 34 -43 20 -32 57 -70 68 -70 3 0 5 16 5 36 0 20 4 33
9 29 6 -3 13 10 17 30 3 19 12 35 19 35 14 0 9 -36 -8 -58 -16 -21 17 -14 55
12 53 35 121 15 103 -31 -3 -10 -6 -20 -5 -22 1 -2 -4 -8 -12 -12 -15 -10 -5
-12 82 -14 47 -1 64 -7 114 -42 55 -38 61 -40 94 -29 27 8 36 8 40 -2 4 -14
32 -17 32 -3 0 5 -6 12 -12 14 -8 3 -6 6 5 6 12 1 17 -7 17 -26 0 -21 3 -24 9
-14 8 12 11 12 23 0 26 -26 28 -47 7 -52 -15 -4 -19 -2 -15 9 7 19 -8 18 -24
-1 -7 -8 -23 -15 -36 -15 -13 0 -24 -4 -24 -10 0 -5 -8 -10 -19 -10 -10 0 -25
-8 -32 -17 -12 -15 -12 -16 3 -10 18 6 40 -41 93 -198 14 -44 34 -88 43 -99 9
-10 16 -21 16 -25 -2 -12 19 -51 28 -51 5 0 2 13 -7 30 -8 16 -15 39 -15 52 0
18 4 15 19 -17 11 -22 20 -37 20 -34 1 8 -34 111 -47 135 -5 10 -21 44 -36 74
-14 30 -38 72 -52 94 l-26 39 27 -7 c17 -4 24 -3 20 4 -3 5 -3 15 1 21 4 7 16
-11 29 -41 12 -29 30 -57 39 -62 9 -5 16 -14 16 -19 0 -13 28 -50 93 -125 26
-30 47 -61 47 -68 0 -8 5 -16 12 -18 6 -2 14 -24 18 -49 4 -28 10 -43 19 -41
7 1 10 -2 6 -7 -3 -6 3 -29 14 -52 11 -23 18 -45 16 -50 -3 -4 -1 -10 4 -14
13 -8 31 -68 38 -130 3 -27 9 -58 14 -67 5 -9 9 -29 9 -45 1 -26 72 -248 84
-261 3 -3 6 -13 6 -23 0 -10 6 -33 14 -51 8 -18 22 -60 32 -93 33 -117 78
-240 97 -268 15 -22 17 -31 7 -43 -13 -14 -8 -28 11 -30 22 -3 23 -5 9 -14
-12 -8 -10 -10 10 -11 23 0 23 -1 5 -9 -17 -7 -17 -9 -2 -9 9 -1 17 -8 17 -16
0 -20 10 -19 26 3 12 15 13 13 14 -20 0 -37 -14 -52 -23 -25 -2 6 -7 9 -11 6
-4 -4 0 -14 9 -23 9 -9 13 -21 9 -27 -4 -8 -3 -9 4 -5 8 5 12 0 12 -13 0 -11
9 -35 20 -53 11 -18 20 -43 20 -55 0 -13 4 -23 10 -23 5 0 12 -15 15 -34 4
-19 23 -52 45 -74 40 -43 66 -99 31 -68 -23 21 -29 20 -27 -3 1 -23 56 -77 56
-56 0 8 5 15 10 15 6 0 10 -5 10 -10 0 -6 9 -20 20 -32 11 -12 32 -52 47 -90
l28 -68 118 0 c65 0 117 3 115 8 -26 54 -33 62 -49 57 -9 -3 -20 -1 -24 5 -3
6 -11 8 -16 5 -5 -3 -6 1 -3 9 4 10 1 16 -10 16 -9 0 -13 6 -10 14 3 7 -2 16
-10 19 -9 4 -16 13 -16 22 0 12 -4 14 -17 7 -12 -7 -22 -3 -41 19 -13 16 -22
35 -19 42 2 6 -11 39 -29 72 -37 66 -39 70 -97 200 -23 50 -47 95 -54 101 -7
6 -13 30 -13 52 0 22 -4 44 -10 47 -5 3 -10 17 -10 30 0 13 -4 26 -9 29 -5 3
-15 30 -21 58 -7 29 -18 69 -25 88 -7 19 -20 60 -30 90 -10 30 -22 59 -26 65
-5 5 -9 19 -9 32 0 23 -30 84 -59 117 -10 13 -11 17 -2 11 11 -6 10 -1 -2 21
-9 16 -26 61 -38 99 -12 39 -26 74 -31 80 -4 5 -8 17 -8 27 0 9 -11 42 -25 72
-14 30 -25 61 -25 68 0 7 -22 58 -49 113 -27 55 -51 107 -54 115 -3 8 -6 3 -6
-12 -1 -28 -21 -40 -21 -13 0 8 -7 15 -15 15 -8 0 -15 -7 -15 -15 0 -8 -5 -15
-11 -15 -15 0 -6 73 10 78 10 3 12 0 8 -12 -4 -10 -1 -16 8 -16 21 0 18 33 -7
77 -12 21 -28 52 -36 68 -9 17 -24 37 -34 46 -10 9 -18 24 -18 34 0 10 -3 16
-6 12 -9 -9 -61 20 -67 38 -4 8 -1 15 6 16 7 0 1 5 -13 11 -24 10 -24 10 -5
18 21 9 21 9 -27 14 -7 0 -13 8 -13 16 0 8 -7 20 -15 27 -8 7 -12 13 -8 13 4
0 0 9 -9 20 -29 34 -25 49 13 48 19 -1 40 4 46 10 19 19 56 14 63 -8 3 -11 13
-20 20 -20 8 0 22 -13 32 -30 9 -16 21 -30 25 -30 4 0 8 -5 8 -11 0 -5 13 -24
30 -42 16 -18 30 -35 30 -39 0 -5 7 -8 15 -8 9 0 20 -11 25 -24 5 -14 21 -33
35 -42 23 -15 63 -74 50 -74 -6 0 33 -47 57 -69 13 -11 15 -17 5 -23 -8 -5 -6
-8 6 -8 10 0 16 -4 12 -9 -3 -5 -1 -12 4 -15 5 -4 12 -2 16 4 3 5 11 10 17 10
7 0 7 -4 1 -12 -14 -19 -24 -50 -14 -44 13 8 82 -131 75 -151 -5 -15 -4 -15 4
-4 8 12 13 8 25 -20 9 -19 27 -60 41 -92 14 -32 26 -70 26 -85 0 -16 6 -34 13
-41 10 -10 9 -11 -4 -6 -14 5 -15 0 -10 -31 6 -39 31 -60 31 -27 1 22 38 -44
44 -79 3 -13 5 -25 6 -28 1 -3 2 -12 1 -21 -1 -9 8 -19 20 -22 24 -6 17 -27
-9 -27 -16 -1 -16 -2 1 -14 9 -7 24 -40 33 -72 8 -32 20 -61 25 -65 6 -3 10
-12 9 -20 -4 -26 0 -40 9 -35 10 6 21 -26 21 -61 0 -13 4 -23 9 -23 4 0 6 -11
3 -25 -2 -14 0 -31 6 -38 5 -6 19 -45 30 -86 22 -75 32 -97 32 -67 0 10 5 14
11 10 7 -4 9 -22 6 -45 -3 -26 3 -61 19 -109 31 -88 74 -236 74 -254 0 -7 9
-25 20 -38 10 -14 16 -28 13 -32 -3 -3 -1 -6 5 -6 7 0 12 -11 12 -25 0 -13 6
-39 14 -57 8 -18 21 -48 28 -66 l13 -32 397 0 c347 0 398 2 398 15 0 8 5 15
11 15 6 0 9 -7 5 -15 -5 -13 35 -15 324 -15 l330 0 0 1160 c0 1022 -2 1161
-15 1166 -8 4 -15 10 -15 15 0 4 7 6 15 3 13 -5 15 16 15 161 0 108 -3 164
-10 160 -6 -3 -10 -1 -10 4 0 6 5 11 10 11 7 0 10 627 10 1860 l0 1860 -69 0
c-58 0 -70 -3 -74 -17 -4 -17 -5 -17 -6 0 -1 16 -157 17 -3126 17 l-3125 0 0
-3200z m5545 3078 c-4 -31 -12 -48 -25 -48 -8 0 -3 70 7 100 7 22 22 -18 18
-52z m-4685 -358 l0 -410 -372 2 -373 3 -3 408 -2 407 375 0 375 0 0 -410z
m465 260 c7 -11 -9 -11 -45 0 -24 8 -24 8 7 9 17 1 35 -3 38 -9z m4784 -42
c-9 -16 -14 -19 -17 -9 -2 7 2 17 9 22 20 13 21 11 8 -13z m-2396 -53 c177
-23 482 -91 712 -159 44 -13 112 -27 150 -31 102 -9 289 -40 550 -90 127 -24
259 -45 293 -47 66 -3 99 -18 40 -18 -51 1 -155 17 -378 60 -199 39 -449 80
-480 80 -8 -1 44 -22 115 -49 72 -26 156 -60 189 -75 32 -14 67 -26 78 -26 26
0 60 -19 76 -42 16 -21 32 -24 32 -4 0 53 159 63 192 12 15 -22 7 -24 -45 -12
-33 8 -63 9 -77 4 -34 -13 -17 -21 58 -27 63 -6 67 -8 70 -32 2 -15 -5 -32
-17 -43 -21 -19 -20 -19 41 -84 78 -84 110 -153 114 -246 l3 -71 -8 72 c-11
91 -53 170 -129 246 -53 52 -62 57 -111 61 -70 6 -122 50 -68 58 20 3 20 5
-10 21 -42 22 -41 22 -45 -15 -2 -27 -10 -37 -41 -52 -46 -22 -118 -15 -148
15 -40 40 -14 129 39 129 16 0 22 4 17 9 -13 13 -204 89 -330 132 l-100 34
-350 0 c-298 0 -363 -3 -435 -18 -113 -24 -200 -52 -285 -94 -104 -51 -108
-59 -26 -55 55 3 69 0 74 -12 5 -14 -4 -16 -58 -16 -58 0 -65 -2 -65 -20 0
-18 7 -20 55 -20 44 0 55 -3 55 -16 0 -13 -10 -15 -55 -12 -47 3 -55 0 -55
-14 0 -15 10 -18 65 -18 51 0 65 -3 65 -15 0 -12 -17 -15 -96 -15 l-96 0 4 65
c1 36 0 65 -4 65 -16 0 -78 -63 -78 -79 0 -44 -77 -71 -148 -51 -47 12 -62 33
-62 83 0 48 28 70 98 75 47 3 62 0 85 -18 15 -12 27 -28 27 -36 0 -21 11 -17
50 19 37 33 43 37 144 92 72 40 215 89 306 106 36 6 211 14 390 18 l325 6
-230 57 c-350 87 -578 124 -632 104 -16 -7 -16 -9 7 -26 14 -11 20 -20 13 -20
-17 0 -44 30 -37 42 5 7 28 20 51 27 1 1 53 -6 116 -14z m1837 1 c0 -8 -4 -17
-9 -21 -12 -7 -24 12 -16 25 9 15 25 12 25 -4z m5 -168 c-9 -41 -14 -50 -25
-43 -7 4 -5 26 6 63 2 6 8 12 14 12 8 0 9 -11 5 -32z m-4358 -54 c-3 -3 -12
-4 -19 -1 -8 3 -5 6 6 6 11 1 17 -2 13 -5z m4353 -104 c0 -11 -4 -20 -10 -20
-5 0 -10 9 -10 20 0 11 5 20 10 20 6 0 10 -9 10 -20z m-3950 -45 c0 -12 -13
-15 -60 -15 -53 0 -60 -2 -60 -20 0 -18 7 -20 55 -20 42 0 55 -3 55 -15 0 -12
-13 -15 -55 -15 -42 0 -55 -3 -55 -15 0 -12 13 -15 60 -15 47 0 60 -3 60 -15
0 -12 -17 -15 -90 -15 l-90 0 0 80 0 80 90 0 c73 0 90 -3 90 -15z m146 -40
c20 -30 40 -55 43 -55 4 0 5 25 3 55 l-3 55 30 0 31 0 0 -80 0 -80 -44 0 c-41
0 -45 3 -77 50 -19 27 -37 50 -41 50 -5 0 -8 -22 -8 -50 0 -47 -2 -50 -25 -50
-25 0 -25 1 -25 80 l0 80 40 0 c37 0 42 -4 76 -55z m304 40 c36 -18 47 -54 32
-103 -6 -19 -9 -39 -6 -43 7 -13 -158 0 -174 13 -40 33 -36 110 7 133 34 19
105 19 141 0z m113 -34 c-3 -62 11 -83 50 -79 32 3 32 3 35 66 3 62 3 62 33
62 l30 0 -3 -67 c-3 -68 -3 -68 -41 -87 -28 -13 -49 -16 -82 -11 -64 9 -75 24
-75 101 l0 65 28 -3 c25 -3 27 -6 25 -47z m335 -30 c23 -44 42 -81 42 -83 0
-8 -60 4 -66 13 -7 12 -91 11 -99 -1 -3 -5 -19 -10 -35 -10 l-28 0 30 58 c51
96 56 102 86 102 23 0 32 -10 70 -79z m182 22 c19 -29 38 -52 43 -53 4 0 7 25
7 55 0 52 1 55 25 55 25 0 25 -1 25 -80 l0 -80 -42 0 c-40 0 -45 3 -77 50 -19
28 -38 50 -42 50 -4 0 -6 -22 -3 -50 4 -50 4 -50 -26 -50 l-30 0 0 81 0 80 42
-3 c39 -3 46 -8 78 -55z m300 37 c0 -16 -7 -20 -30 -20 l-30 0 0 -60 c0 -59
-1 -60 -28 -60 -27 0 -27 1 -27 58 l0 57 -32 3 c-25 2 -33 8 -33 23 0 17 8 19
90 19 83 0 90 -1 90 -20z m697 -6 l28 -25 -40 4 c-22 3 -44 6 -50 7 -28 6 -66
-1 -63 -12 3 -7 30 -14 64 -16 66 -4 86 -16 82 -46 -8 -56 -151 -73 -192 -24
-18 23 -18 23 9 26 15 2 32 -1 38 -7 19 -19 97 -11 97 10 0 5 -24 9 -52 9 -92
0 -120 18 -97 61 14 26 43 38 101 38 37 1 53 -4 75 -25z m217 10 c19 -18 21
-55 4 -72 -7 -7 -36 -12 -65 -12 -52 0 -53 0 -53 -30 0 -27 -3 -30 -30 -30
l-31 0 2 80 2 80 78 0 c57 0 82 -4 93 -16z m216 1 c0 -12 -13 -15 -60 -15 -53
0 -60 -2 -60 -20 0 -18 7 -20 55 -20 42 0 55 -3 55 -15 0 -12 -13 -15 -55 -15
-42 0 -55 -3 -55 -15 0 -12 13 -15 60 -15 47 0 60 -3 60 -15 0 -12 -17 -15
-90 -15 l-90 0 0 80 0 80 90 0 c73 0 90 -3 90 -15z m191 5 c20 -11 27 -64 9
-75 -7 -4 -7 -12 0 -25 17 -32 12 -50 -14 -50 -19 0 -25 6 -28 28 -3 24 -7 27
-38 27 -30 0 -35 -3 -38 -26 -2 -19 -10 -28 -28 -32 -24 -4 -24 -4 -24 79 l0
84 71 0 c39 0 79 -5 90 -10z m218 -64 c23 -40 41 -76 41 -80 0 -10 -48 -7 -55
4 -9 14 -88 13 -103 -2 -11 -11 -62 -19 -62 -10 0 3 19 40 42 83 37 69 45 79
69 79 24 0 33 -10 68 -74z m167 18 c18 -62 25 -61 44 9 13 47 13 47 56 47 l44
0 0 -80 0 -80 -29 0 c-29 0 -30 2 -33 53 l-3 52 -19 -52 c-16 -42 -25 -53 -42
-53 -17 0 -24 9 -34 45 -18 63 -30 65 -30 6 0 -50 -1 -51 -30 -51 l-30 0 0 80
0 80 45 0 44 0 17 -56z m1344 32 c0 -2 -7 -7 -16 -10 -8 -3 -12 -2 -9 4 6 10
25 14 25 6z m90 0 c0 -3 -4 -8 -10 -11 -5 -3 -10 -1 -10 4 0 6 5 11 10 11 6 0
10 -2 10 -4z m-34 -25 c-7 -11 -56 -21 -56 -10 0 4 8 10 18 12 30 8 43 7 38
-2z m-4906 -116 c0 -8 -7 -15 -15 -15 -16 0 -20 12 -8 23 11 12 23 8 23 -8z
m4381 -38 c-14 -14 -26 17 -16 41 6 15 8 14 16 -7 6 -16 6 -28 0 -34z m-1146
27 c-26 -20 -55 -36 -55 -30 0 5 63 46 70 46 3 -1 -4 -8 -15 -16z m-3419 -32
c-9 -9 -37 8 -31 18 5 8 11 7 21 -1 8 -6 12 -14 10 -17z m2185 -58 c10 -20 15
-22 28 -11 14 10 14 10 3 -5 -18 -22 -7 -41 60 -104 221 -208 608 -341 1163
-399 172 -18 495 -21 605 -5 107 15 193 38 206 55 6 8 14 12 17 9 9 -9 80 45
107 82 14 18 27 30 29 28 10 -9 -56 -79 -103 -108 -109 -70 -230 -91 -521 -90
-487 0 -974 98 -1278 256 -204 106 -348 254 -346 353 l1 30 8 -34 c4 -18 14
-44 21 -57z m-2121 61 c-12 -15 -30 -12 -30 6 0 5 10 9 21 9 18 0 19 -2 9 -15z
m387 -67 c-2 -13 -4 -5 -4 17 -1 22 1 32 4 23 2 -10 2 -28 0 -40z m103 32 c6
-11 9 -20 8 -20 -2 0 -11 9 -21 20 -9 11 -13 20 -7 20 5 0 14 -9 20 -20z m90
-10 c-6 -12 -14 -20 -17 -17 -2 3 1 14 8 26 17 26 24 19 9 -9z m902 18 c-5 -7
-12 -22 -15 -33 -4 -16 -5 -14 -6 7 -1 22 7 33 28 37 2 1 -1 -5 -7 -11z m588
-9 c-7 -11 -14 -18 -17 -15 -3 3 0 12 7 21 18 21 23 19 10 -6z m2436 -14 c-3
-8 -10 -15 -16 -15 -7 0 -8 5 -3 13 4 6 8 15 9 20 4 19 6 21 11 9 3 -7 2 -19
-1 -27z m-3531 16 c3 -5 1 -12 -5 -16 -5 -3 -10 1 -10 9 0 18 6 21 15 7z
m-208 -7 c-3 -3 -12 -4 -19 -1 -8 3 -5 6 6 6 11 1 17 -2 13 -5z m778 -3 c3 -5
2 -12 -3 -15 -5 -3 -9 1 -9 9 0 17 3 19 12 6z m-248 -23 c-3 -8 -6 -5 -6 6 -1
11 2 17 5 13 3 -3 4 -12 1 -19z m546 7 c-3 -9 -8 -14 -10 -11 -3 3 -2 9 2 15
9 16 15 13 8 -4z m2663 -62 c-11 -11 -17 4 -9 23 7 18 8 18 11 1 2 -10 1 -21
-2 -24z m9 -145 c-6 -17 -4 -20 10 -14 9 3 29 9 43 13 23 5 25 4 15 -9 -7 -8
-10 -18 -6 -22 4 -4 -9 -5 -28 -4 -33 3 -64 32 -53 50 11 17 25 7 19 -14z m5
-52 c0 -11 -19 -15 -25 -6 -3 5 1 10 9 10 9 0 16 -2 16 -4z m30 -10 c0 -3 -4
-8 -10 -11 -5 -3 -10 -1 -10 4 0 6 5 11 10 11 6 0 10 -2 10 -4z m-23 -31 c8
-9 13 -19 10 -22 -6 -5 -37 21 -37 31 0 10 11 6 27 -9z m53 -5 c0 -5 -4 -10
-10 -10 -5 0 -10 5 -10 10 0 6 5 10 10 10 6 0 10 -4 10 -10z m-1720 -5 c0 -5
-55 -35 -65 -35 -4 0 0 6 7 13 19 19 58 34 58 22z m1674 -76 c-3 -5 2 -9 10
-9 20 0 20 -10 1 -24 -9 -6 -17 -21 -18 -34 0 -12 -4 -22 -8 -22 -4 0 -9 -10
-12 -22 -3 -19 -1 101 2 124 1 4 8 5 16 2 8 -4 12 -10 9 -15z m-139 -49 c3 -5
1 -10 -4 -10 -6 0 -11 5 -11 10 0 6 2 10 4 10 3 0 8 -4 11 -10z m39 -56 c3 -8
2 -12 -4 -9 -6 3 -10 10 -10 16 0 14 7 11 14 -7z m36 -24 c0 -5 -4 -10 -10
-10 -5 0 -10 5 -10 10 0 6 5 10 10 10 6 0 10 -4 10 -10z m-4376 -8 c3 -5 2
-19 -1 -31 -4 -17 -8 -19 -14 -9 -12 18 -11 48 0 48 6 0 12 -4 15 -8z m2126
-2 c10 -6 2 -7 -25 -3 -49 7 -58 13 -19 13 16 0 36 -5 44 -10z m315 -10 c-3
-5 -12 -10 -18 -10 -7 0 -6 4 3 10 19 12 23 12 15 0z m-365 -12 c0 -3 -3 -8
-7 -11 -5 -2 -2 -2 5 0 8 2 19 0 25 -4 28 -18 76 -30 89 -22 11 7 10 11 -2 19
-13 9 -13 11 0 19 20 13 47 -8 28 -21 -8 -5 3 -6 27 -2 22 3 44 10 50 15 5 5
25 9 45 8 30 0 33 -2 18 -12 -15 -10 -10 -15 40 -39 33 -16 45 -26 30 -23 -40
8 -34 -10 10 -31 33 -17 35 -19 14 -22 -13 -2 -29 2 -37 8 -14 12 -35 6 -35
-10 0 -5 7 -7 15 -4 8 4 15 1 15 -5 0 -6 -11 -11 -25 -11 -14 0 -25 5 -25 10
0 6 -8 10 -17 10 -14 0 -15 -2 -5 -9 11 -7 11 -9 -1 -14 -9 -3 -18 0 -21 8 -6
17 -46 15 -46 -2 0 -7 7 -10 15 -7 8 4 17 -1 21 -9 3 -9 12 -13 20 -10 8 3 14
0 14 -6 0 -6 8 -11 18 -12 10 0 12 -3 4 -6 -6 -2 -10 -9 -6 -14 8 -14 -3 -11
-47 12 -22 11 -46 18 -52 15 -7 -2 -4 -5 7 -5 14 -1 16 -4 7 -15 -9 -10 -8
-16 4 -26 20 -17 32 -5 15 15 -8 10 -9 15 -1 15 6 0 17 -13 25 -28 8 -16 33
-41 55 -57 23 -15 41 -31 41 -36 0 -18 -18 -17 -38 2 -12 11 -22 15 -22 8 0
-7 -9 -6 -25 5 -32 21 -48 20 -69 -2 -15 -18 -15 -20 4 -37 11 -10 20 -30 20
-45 0 -34 -18 -40 -97 -34 -65 5 -97 -12 -108 -59 -6 -21 -2 -26 22 -35 21 -8
-18 -11 -159 -11 l-187 -1 15 35 c21 50 19 50 -36 4 -28 -23 -52 -40 -55 -38
-6 6 153 148 180 161 11 5 33 27 49 49 17 21 35 39 40 38 6 0 5 -3 -1 -6 -7
-2 -13 -8 -13 -13 0 -10 44 -6 123 11 44 9 67 9 95 1 20 -6 38 -9 41 -6 8 8
-23 24 -36 19 -7 -2 -13 0 -13 6 0 5 7 12 15 15 17 7 20 31 5 36 -17 5 0 68
19 68 14 0 14 2 1 9 -8 6 -18 7 -22 5 -4 -3 -8 0 -8 5 0 6 8 11 18 11 15 1 15
2 -3 16 -20 15 -20 15 0 13 36 -4 110 2 97 8 -6 2 -10 9 -6 14 3 5 -7 9 -23 8
-25 0 -26 -1 -8 -9 19 -8 19 -9 -2 -9 -14 -1 -23 5 -23 14 0 9 -6 12 -15 9 -8
-4 -12 -10 -9 -15 7 -12 -17 -11 -36 1 -13 8 -12 10 3 10 10 0 16 4 13 8 -3 5
-19 7 -35 4 -26 -4 -28 -6 -16 -18 7 -8 18 -14 24 -14 6 0 11 -4 11 -10 0 -5
-7 -10 -16 -10 -14 0 -14 -3 -4 -15 7 -8 9 -15 4 -15 -5 0 -3 -4 3 -8 10 -6 9
-13 -3 -30 -15 -22 -52 -29 -69 -13 -6 6 -15 4 -23 -5 -11 -12 -9 -14 13 -14
15 0 24 -4 20 -10 -4 -6 -10 -8 -15 -5 -5 3 -18 1 -29 -4 -15 -9 -20 -7 -24
10 -5 19 -7 20 -36 5 -16 -9 -36 -14 -43 -13 -7 2 -10 2 -6 0 4 -3 -22 -20
-58 -38 -91 -47 -294 -228 -294 -262 0 -9 -16 -13 -55 -13 -50 0 -54 2 -46 18
19 34 69 147 76 172 27 94 274 297 414 341 30 9 131 7 131 -3z m195 2 c18 -8
17 -9 -7 -9 -15 -1 -30 4 -33 9 -7 12 12 12 40 0z m1575 -150 c0 -5 -5 -10
-11 -10 -5 0 -7 5 -4 10 3 6 8 10 11 10 2 0 4 -4 4 -10z m-1860 -134 c0 -3 -4
-8 -10 -11 -5 -3 -10 -1 -10 4 0 6 5 11 10 11 6 0 10 -2 10 -4z m2445 -36 c-3
-5 -10 -10 -16 -10 -5 0 -9 5 -9 10 0 6 7 10 16 10 8 0 12 -4 9 -10z m-4498
-116 c-3 -3 -12 -4 -19 -1 -8 3 -5 6 6 6 11 1 17 -2 13 -5z m123 -15 c16 -5 4
-6 -35 -2 -33 3 -62 7 -64 9 -8 8 74 2 99 -7z m-227 -6 c-7 -2 -19 -2 -25 0
-7 3 -2 5 12 5 14 0 19 -2 13 -5z m107 -3 c-8 -5 -24 -9 -35 -9 -16 1 -16 2 5
9 35 11 48 11 30 0z m4236 -15 c4 -14 4 -29 0 -32 -3 -4 -6 3 -6 15 0 11 -8
26 -17 31 -17 10 -17 10 -1 11 11 0 20 -10 24 -25z m-4386 11 c0 -2 -9 -6 -20
-9 -11 -3 -18 -1 -14 4 5 9 34 13 34 5z m399 -42 c8 -2 12 -7 9 -9 -5 -6 -78
22 -78 30 0 2 12 0 28 -6 15 -5 33 -12 41 -15z m3971 16 c0 -5 -2 -10 -4 -10
-3 0 -8 5 -11 10 -3 6 -1 10 4 10 6 0 11 -4 11 -10z m-4448 -26 c-22 -18 -31
-32 -27 -42 3 -9 3 -13 -1 -9 -4 4 -14 1 -23 -6 -9 -6 -3 6 13 28 32 43 45 55
61 55 6 0 -5 -12 -23 -26z m162 18 c2 -4 -4 -8 -14 -8 -10 0 -16 4 -14 8 3 4
9 8 14 8 5 0 11 -4 14 -8z m221 -12 c3 -5 -4 -6 -15 -3 -11 3 -22 9 -25 13 -3
5 4 6 15 3 11 -3 22 -9 25 -13z m4370 10 c3 -5 1 -19 -5 -31 -15 -27 -35 -10
-25 20 7 22 20 27 30 11z m-4143 -67 c6 -8 -16 2 -50 23 -34 20 -62 38 -62 41
0 7 100 -50 112 -64z m3927 42 c6 3 11 2 11 -4 0 -27 -24 -21 -50 14 -14 20
-14 20 7 2 12 -11 27 -16 32 -12z m-4610 2 c-2 -1 -19 -13 -37 -25 -19 -13
-36 -22 -39 -19 -2 3 12 17 33 31 21 14 40 23 43 21 2 -3 2 -6 0 -8z m4374 -1
c9 -7 17 -18 17 -25 0 -8 5 -8 20 1 15 10 22 10 32 0 9 -9 9 -12 -4 -12 -8 0
-21 -6 -27 -14 -7 -8 -25 -19 -42 -25 -23 -8 -29 -7 -29 5 0 7 9 14 19 14 32
0 33 17 4 44 -29 27 -21 36 10 12z m-3867 -12 c18 -14 18 -14 -6 -3 -31 14
-36 19 -24 19 6 0 19 -7 30 -16z m-328 -20 c-7 -15 -14 -21 -16 -15 -2 7 2 18
8 26 18 22 21 18 8 -11z m202 22 c0 -2 -7 -9 -15 -16 -13 -11 -14 -10 -9 4 5
14 24 23 24 12z m2276 -8 c4 -7 4 -10 -1 -6 -4 4 -14 3 -22 -3 -13 -11 -19 2
-6 14 10 11 21 8 29 -5z m74 3 c0 -6 -4 -13 -10 -16 -5 -3 -10 -13 -10 -22 0
-8 -17 -37 -37 -64 -39 -49 -58 -63 -46 -32 14 37 -15 1 -38 -47 -13 -27 -27
-50 -31 -50 -11 0 -10 2 7 43 8 20 19 38 25 42 6 3 20 25 31 47 16 31 23 38
30 27 7 -11 9 -9 9 8 0 40 22 73 47 73 12 0 23 -4 23 -9z m580 -1 c31 -4 42
-8 26 -9 -34 -1 -25 -17 14 -24 16 -3 9 -5 -18 -6 -28 -1 -45 -6 -48 -16 -4
-8 -14 -15 -23 -15 -9 0 -21 -4 -26 -8 -14 -11 -102 -39 -150 -47 -43 -7 -175
-80 -175 -96 0 -6 4 -8 9 -5 5 4 12 0 14 -6 4 -10 8 -10 15 1 8 12 99 14 534
17 548 3 728 -2 728 -18 0 -7 -37 -9 -99 -6 -67 2 -97 0 -93 -7 3 -5 -1 -5 -9
1 -19 16 -63 29 -56 17 6 -10 -100 -8 -140 2 -13 3 -23 1 -23 -5 0 -5 -5 -10
-11 -10 -5 0 -7 4 -4 10 3 5 -12 3 -35 -5 -22 -8 -40 -12 -40 -9 0 3 -6 2 -12
-3 -18 -11 96 -20 151 -12 49 7 84 1 75 -12 -3 -5 -9 -7 -14 -4 -4 3 -19 1
-32 -4 -21 -9 -21 -10 -3 -11 11 -1 30 -1 43 0 12 1 22 -3 22 -9 0 -13 -130
-13 -180 -1 -30 8 -25 9 28 7 37 -2 61 1 59 7 -3 9 -141 12 -302 7 -44 -2 -55
-5 -40 -11 15 -7 16 -9 4 -9 -9 -1 -32 -4 -50 -7 l-34 -5 25 15 c25 15 25 15
-18 16 -24 0 -41 -4 -37 -9 3 -5 1 -12 -5 -16 -5 -3 -10 -35 -10 -70 l0 -64
-86 -3 c-47 -2 -87 -1 -89 1 -2 2 18 30 46 63 50 60 54 78 18 78 -11 0 -30 5
-41 11 -15 8 -19 8 -14 0 4 -6 2 -11 -3 -11 -6 0 -11 5 -11 10 0 6 -8 10 -17
10 -15 0 -16 -2 -3 -10 8 -5 11 -10 5 -10 -5 0 -16 4 -23 9 -22 14 15 24 90
26 62 0 89 8 76 20 -9 9 -132 9 -152 0 -11 -5 -17 -5 -14 1 4 5 -4 9 -17 9
-13 0 -21 -3 -18 -7 2 -5 -7 -8 -21 -8 -18 0 -24 -4 -20 -15 7 -18 35 -20 54
-2 12 10 12 9 1 -5 -7 -10 -25 -18 -40 -18 -20 0 -23 -2 -11 -10 11 -7 5 -9
-23 -8 -37 1 -137 -38 -137 -54 0 -5 21 -8 48 -9 53 -1 108 -17 61 -18 -28 -1
-47 -36 -25 -45 6 -2 -37 -5 -96 -5 l-108 -1 0 58 c0 41 6 66 22 92 12 19 23
37 23 40 1 3 4 12 8 20 3 8 11 40 18 70 6 30 25 81 41 113 l28 57 158 -1 c86
-1 182 -4 212 -9z m668 -10 c-7 -10 -14 -17 -17 -15 -4 4 18 35 25 35 2 0 -1
-9 -8 -20z m-505 -7 c-2 -7 6 -15 17 -18 11 -3 18 -14 17 -25 -1 -17 -9 -20
-45 -20 -24 0 -41 4 -38 9 3 5 -5 12 -19 15 -21 5 -24 10 -15 26 8 15 6 20 -8
24 -9 2 8 4 38 2 35 -1 54 -6 53 -13z m-3330 0 c-7 -2 -19 -2 -25 0 -7 3 -2 5
12 5 14 0 19 -2 13 -5z m4652 -3 c3 -5 1 -10 -4 -10 -6 0 -11 5 -11 10 0 6 2
10 4 10 3 0 8 -4 11 -10z m-4199 -31 c11 -13 17 -32 16 -52 -3 -26 5 -40 41
-75 51 -50 58 -46 58 33 0 40 4 53 12 48 7 -4 6 1 -2 10 -12 15 -10 17 23 17
l37 0 -1 -47 c0 -27 0 -63 0 -81 -1 -17 4 -41 10 -51 7 -14 7 -22 -2 -27 -6
-4 -8 -3 -5 2 3 6 2 16 -3 23 -6 11 -11 11 -29 -1 -11 -8 -19 -17 -17 -19 3
-2 -13 -3 -35 -1 -26 3 -39 0 -39 -8 0 -7 -17 0 -37 16 -21 15 -32 20 -24 11
23 -29 7 -28 -26 2 -30 27 -31 31 -27 89 4 40 1 63 -6 67 -16 10 7 25 40 25
24 1 24 1 6 15 -26 19 -32 19 -56 -5 -11 -11 -20 -16 -20 -11 0 12 40 41 56
41 6 0 19 -9 30 -21z m1992 -14 c-11 -20 -23 -34 -25 -31 -5 5 35 66 42 66 3
0 -5 -16 -17 -35z m1890 18 c-10 -2 -28 -2 -40 0 -13 2 -5 4 17 4 22 1 32 -1
23 -4z m-3792 -25 l19 -21 -27 18 c-29 18 -34 25 -20 25 5 0 17 -10 28 -22z
m-798 1 c21 13 60 1 65 -21 4 -13 -1 -22 -16 -27 -12 -5 -24 -5 -27 -1 -9 14
-100 -1 -100 -17 0 -10 9 -14 28 -13 77 5 102 0 102 -20 0 -22 -3 -23 -77 -22
-44 1 -53 -2 -53 -16 0 -15 10 -18 67 -19 62 -2 90 -14 77 -35 -3 -4 -52 -8
-110 -8 l-104 0 0 100 0 99 63 3 c34 2 64 0 67 -4 3 -4 11 -3 18 1z m601 -20
c34 -22 46 -77 27 -124 -13 -31 -14 -40 -4 -46 7 -5 -11 -8 -42 -8 -30 1 -59
-1 -65 -2 -5 -2 -29 0 -52 4 -83 14 -114 110 -52 167 16 16 36 27 45 23 7 -3
14 -1 14 4 0 13 101 -1 129 -18z m-406 15 c9 -3 15 -9 13 -13 -3 -4 8 -22 24
-39 16 -17 31 -41 35 -52 12 -39 23 -19 22 43 l-1 62 37 3 38 3 -3 -98 -3 -98
-35 -5 c-54 -9 -62 -4 -110 65 -25 36 -47 65 -50 65 -3 0 -3 -29 -2 -65 l4
-65 -30 0 c-17 0 -33 -6 -35 -12 -4 -9 -6 -8 -7 2 -1 15 -2 161 -1 191 1 13
11 17 44 17 23 1 50 -1 60 -4z m5124 -16 c-3 -8 -6 -5 -6 6 -1 11 2 17 5 13 3
-3 4 -12 1 -19z m-5060 -40 c-3 -7 -5 -2 -5 12 0 14 2 19 5 13 2 -7 2 -19 0
-25z m533 7 c13 -14 21 -25 18 -25 -2 0 -15 11 -28 25 -13 14 -21 25 -18 25 2
0 15 -11 28 -25z m4135 5 c3 -5 -1 -10 -9 -10 -9 0 -16 5 -16 10 0 6 4 10 9
10 6 0 13 -4 16 -10z m198 -60 c-3 -11 -8 -20 -12 -21 -3 0 -17 -3 -31 -5 -28
-5 -18 9 22 31 12 7 24 13 25 14 0 1 -1 -8 -4 -19z m-5708 -18 c-3 -3 -11 0
-18 7 -9 10 -8 11 6 5 10 -3 15 -9 12 -12z m5048 -30 c3 -23 1 -42 -4 -42 -5
0 -9 7 -9 15 0 10 -12 16 -37 17 l-38 1 38 4 c32 4 37 8 37 30 0 39 8 24 13
-25z m576 19 c-15 -5 -22 6 -14 19 6 9 10 9 16 -1 5 -8 4 -15 -2 -18z m-99
-15 c0 -8 -4 -17 -9 -21 -6 -3 -9 4 -8 15 1 23 17 28 17 6z m-2254 -69 c-27
-52 -69 -89 -116 -101 -24 -7 -24 -6 -6 8 11 9 26 16 33 16 7 0 13 5 13 10 0
19 -25 10 -74 -28 -73 -55 -71 -62 17 -62 l75 0 22 56 c13 31 38 74 57 96 18
22 33 45 33 51 0 8 4 7 9 -2 6 -9 11 -10 15 -2 4 6 11 11 17 11 13 0 11 -34
-3 -48 -9 -9 -9 -12 0 -12 6 0 19 11 28 25 9 14 23 25 30 25 23 0 -24 -57 -58
-71 -16 -6 -42 -12 -59 -13 -16 -1 -29 -6 -29 -12 0 -7 -7 -25 -15 -40 -8 -16
-15 -36 -15 -45 0 -9 -8 -20 -17 -23 -11 -5 -13 -10 -7 -14 6 -4 9 -23 6 -44
-6 -50 -59 -108 -100 -108 -17 0 -37 -3 -46 -6 -12 -5 -16 0 -16 20 0 14 -4
26 -10 26 -5 0 -10 -7 -10 -16 0 -9 -6 -22 -13 -28 -8 -6 -24 -28 -36 -48
l-22 -37 29 10 c16 5 35 21 42 34 17 32 25 31 39 -3 7 -16 25 -33 42 -39 26
-10 30 -16 24 -35 -4 -13 -16 -31 -27 -40 -19 -17 -7 -18 286 -18 l306 0 0
-80 0 -80 -30 0 c-30 0 -30 1 -30 55 0 30 -4 55 -9 55 -5 0 -8 -28 -7 -62 l2
-63 37 -3 c32 -3 37 -7 37 -28 l0 -24 -387 0 c-341 -1 -390 -3 -408 -17 -16
-13 -17 -15 -2 -10 11 4 17 1 17 -8 0 -8 7 -15 15 -15 8 0 15 -9 15 -20 0 -11
6 -20 13 -21 6 0 2 -5 -10 -11 -13 -6 -23 -15 -23 -20 0 -10 56 17 64 31 3 4
27 9 52 9 26 1 52 6 58 12 12 12 66 14 66 2 0 -5 -7 -23 -16 -41 -18 -36 -13
-61 13 -62 16 0 16 -1 -2 -9 -37 -16 -58 -12 -52 10 3 10 -1 24 -7 30 -16 12
-27 3 -19 -16 7 -20 -17 -74 -33 -74 -8 0 -14 -6 -14 -14 0 -8 8 -12 23 -9 22
4 23 2 21 -33 -3 -37 -14 -61 -14 -31 0 18 -16 23 -22 7 -1 -5 -27 -11 -55
-13 -29 -3 -60 -10 -68 -17 -9 -7 -17 -11 -18 -9 -1 2 -9 18 -17 34 -8 17 -23
38 -32 49 -9 10 -14 24 -11 31 8 21 -45 49 -86 46 -27 -2 -42 3 -56 19 -11 13
-25 18 -37 14 -17 -5 -18 2 -15 107 l3 112 -29 9 c-23 8 -28 15 -25 37 3 26 5
26 49 14 13 -4 17 1 15 20 0 14 -3 25 -6 25 -3 0 -7 0 -10 2 -3 1 -16 4 -30 6
-39 7 -45 21 -11 29 43 9 39 25 -5 18 -31 -5 -36 -3 -33 12 2 10 12 19 23 21
25 4 50 42 53 84 5 61 2 223 -4 233 -4 6 48 7 143 2 244 -12 232 -13 251 15 9
14 30 36 45 50 16 14 56 52 90 85 33 33 66 59 73 57 7 -1 16 6 20 15 5 13 9
14 12 5 3 -7 -7 -36 -21 -65z m1674 57 c0 -2 -7 -4 -15 -4 -8 0 -15 4 -15 10
0 5 7 7 15 4 8 -4 15 -8 15 -10z m-3690 -39 c19 -19 32 -35 29 -35 -3 0 -20
16 -39 35 -19 19 -32 35 -29 35 3 0 20 -16 39 -35z m3487 9 c-10 -10 -90 -13
-105 -4 -13 7 -9 8 16 4 18 -4 32 -2 32 3 0 5 14 8 30 5 17 -2 29 -6 27 -8z
m-3747 -4 c8 -5 11 -10 5 -10 -5 0 -17 5 -25 10 -8 5 -10 10 -5 10 6 0 17 -5
25 -10z m574 -50 c5 -17 4 -20 -2 -10 -5 8 -13 26 -16 40 -5 17 -4 20 2 10 5
-8 13 -26 16 -40z m-514 14 c0 -2 -9 0 -20 6 -11 6 -20 13 -20 16 0 2 9 0 20
-6 11 -6 20 -13 20 -16z m145 -24 c27 -27 47 -50 44 -50 -3 0 -27 23 -54 50
-27 28 -47 50 -44 50 3 0 27 -22 54 -50z m3680 28 c3 -3 -20 -5 -52 -3 -31 1
-58 6 -60 11 -4 11 101 3 112 -8z m169 7 c3 -9 0 -15 -9 -15 -9 0 -12 6 -9 15
4 8 7 15 9 15 2 0 5 -7 9 -15z m449 0 c4 -8 2 -17 -3 -20 -6 -4 -10 3 -10 14
0 25 6 27 13 6z m-4597 -32 c-1 -1 -12 0 -23 3 -17 5 -19 9 -10 19 9 10 14 9
24 -4 6 -9 10 -17 9 -18z m552 12 c-3 -3 -9 2 -12 12 -6 14 -5 15 5 6 7 -7 10
-15 7 -18z m2825 18 c-13 -2 -33 -2 -45 0 -13 2 -3 4 22 4 25 0 35 -2 23 -4z
m70 0 c-7 -2 -21 -2 -30 0 -10 3 -4 5 12 5 17 0 24 -2 18 -5z m54 1 c-3 -3
-12 -4 -19 -1 -8 3 -5 6 6 6 11 1 17 -2 13 -5z m293 -4 c-19 -13 -30 -13 -30
0 0 6 10 10 23 10 18 0 19 -2 7 -10z m47 4 c-3 -3 -12 -4 -19 -1 -8 3 -5 6 6
6 11 1 17 -2 13 -5z m-4177 -7 c0 -2 -10 -12 -22 -23 l-23 -19 19 23 c18 21
26 27 26 19z m820 -17 c6 -11 9 -20 7 -20 -2 0 -12 9 -22 20 -10 11 -13 20 -7
20 6 0 16 -9 22 -20z m3727 14 c-3 -3 -12 -4 -19 -1 -8 3 -5 6 6 6 11 1 17 -2
13 -5z m-4026 -21 c13 -16 12 -17 -3 -4 -10 7 -18 15 -18 17 0 8 8 3 21 -13z
m107 -43 c17 0 22 -6 22 -25 0 -25 -3 -27 -50 -29 -27 -1 -31 -14 -19 -58 4
-16 4 -28 -2 -28 -5 0 -7 -13 -4 -30 5 -26 2 -30 -17 -30 -22 -1 -22 -2 5 -16
15 -8 27 -17 27 -20 0 -3 -18 5 -40 17 -37 21 -42 27 -39 45 1 3 -18 27 -42
52 -31 33 -33 37 -9 14 20 -17 39 -32 43 -32 4 0 7 20 7 45 l0 45 -41 0 c-36
0 -40 2 -38 23 2 12 -1 29 -6 37 -7 13 -6 13 7 2 15 -12 158 -24 158 -13 0 2
-10 16 -22 30 -21 24 -21 24 8 -1 16 -16 40 -28 52 -28z m117 30 c10 -11 16
-20 13 -20 -3 0 -13 9 -23 20 -10 11 -16 20 -13 20 3 0 13 -9 23 -20z m-345 0
c8 -5 11 -10 5 -10 -5 0 -17 5 -25 10 -8 5 -10 10 -5 10 6 0 17 -5 25 -10z
m4550 1 c3 -1 -3 -6 -14 -12 -14 -9 -22 -7 -35 5 -15 16 -14 17 14 12 17 -2
32 -5 35 -5z m-343 -23 c-3 -8 -6 -5 -6 6 -1 11 2 17 5 13 3 -3 4 -12 1 -19z
m223 13 c0 -4 -11 -6 -25 -3 -14 2 -25 6 -25 8 0 2 11 4 25 4 14 0 25 -4 25
-9z m-4783 -15 c-17 -13 -17 -15 1 -45 10 -17 22 -28 27 -23 5 4 5 2 1 -5 -4
-7 0 -26 9 -43 14 -27 18 -30 32 -18 15 12 15 11 2 -9 -11 -18 -11 -25 -1 -35
20 -20 14 -28 -22 -28 -20 0 -36 6 -39 15 -8 20 -116 19 -124 -1 -5 -13 -73
-21 -73 -8 0 3 23 48 51 101 45 82 55 94 74 90 13 -2 34 2 46 9 31 17 39 17
16 0z m843 -36 c14 0 31 -55 28 -90 -2 -25 -12 -42 -33 -58 -27 -21 -38 -23
-108 -19 -86 4 -101 14 -113 76 -11 53 16 98 67 111 24 7 58 10 76 8 26 -3 32
-1 28 11 -3 8 6 2 21 -12 15 -15 30 -27 34 -27z m34 34 c3 -8 2 -12 -4 -9 -6
3 -10 10 -10 16 0 14 7 11 14 -7z m1887 -31 c-11 -21 -20 -34 -21 -30 0 14 32
78 37 73 2 -2 -5 -21 -16 -43z m2246 15 c-3 -7 -5 -2 -5 12 0 14 2 19 5 13 2
-7 2 -19 0 -25z m-4811 4 c6 -4 24 -28 41 -53 17 -25 39 -51 48 -59 16 -13 17
-9 13 51 l-4 66 33 1 c30 1 33 -1 35 -31 0 -18 2 -37 2 -44 1 -7 19 -32 41
-55 l40 -43 -42 40 -43 39 0 -34 c0 -21 9 -44 23 -59 l22 -26 -22 19 c-14 12
-23 14 -23 7 0 -7 -15 -11 -42 -10 -62 2 -75 7 -82 32 -3 12 -17 34 -31 49
-14 15 -25 32 -25 38 0 5 -4 10 -8 10 -5 0 -8 -22 -8 -49 1 -27 3 -49 6 -49 3
0 12 0 20 -1 19 -1 -36 -31 -58 -31 -9 0 -30 -12 -46 -27 -28 -25 -29 -25 -9
-3 19 22 22 37 22 108 0 70 -3 82 -17 83 -11 0 -12 3 -4 6 6 2 12 11 12 19 0
10 13 14 48 14 26 0 52 -4 58 -8z m754 -12 c0 -11 -2 -20 -4 -20 -2 0 -6 9 -9
20 -3 11 -1 20 4 20 5 0 9 -9 9 -20z m3610 -2 c0 -13 -23 -5 -28 10 -2 7 2 10
12 6 9 -3 16 -11 16 -16z m-66 -23 c-4 -8 -11 -15 -16 -15 -6 0 -5 6 2 15 7 8
14 15 16 15 2 0 1 -7 -2 -15z m-3564 -19 c0 -2 -8 -10 -17 -17 -16 -13 -17
-12 -4 4 13 16 21 21 21 13z m-1097 -26 c3 -11 1 -18 -4 -14 -5 3 -9 12 -9 20
0 20 7 17 13 -6z m1770 -14 c-10 -13 -19 -23 -21 -21 -7 6 19 45 29 45 5 0 2
-11 -8 -24z m187 8 c0 -9 -14 -45 -31 -80 -17 -34 -34 -89 -38 -121 -4 -32
-15 -73 -25 -91 -9 -18 -14 -37 -10 -43 10 -16 -18 -30 -33 -17 -10 8 -20 4
-40 -16 -36 -37 -40 -25 -9 30 14 25 23 50 21 55 -3 4 -1 16 4 26 6 10 24 48
40 86 16 37 37 70 45 73 9 3 21 25 27 48 11 43 25 66 40 66 5 0 9 -7 9 -16z
m3752 -6 c-7 -7 -12 -8 -12 -2 0 14 12 26 19 19 2 -3 -1 -11 -7 -17z m-642
-19 c0 -6 -9 -8 -20 -4 -12 4 -20 2 -20 -5 0 -6 -4 -8 -10 -5 -20 12 -9 25 20
25 17 0 30 -5 30 -11z m-3016 -14 c-4 -8 -8 -15 -10 -15 -2 0 -4 7 -4 15 0 8
4 15 10 15 5 0 7 -7 4 -15z m-897 -47 c-3 -7 -5 -2 -5 12 0 14 2 19 5 13 2 -7
2 -19 0 -25z m3913 23 c0 -6 -4 -13 -10 -16 -5 -3 -10 1 -10 9 0 9 5 16 10 16
6 0 10 -4 10 -9z m-3063 -48 c1 -22 -1 -24 -8 -10 -6 9 -7 22 -4 27 9 14 10
13 12 -17z m-1617 -8 c13 -14 21 -25 18 -25 -2 0 -15 11 -28 25 -13 14 -21 25
-18 25 2 0 15 -11 28 -25z m-192 -35 c27 -43 36 -50 62 -50 18 0 39 8 48 18
10 9 14 13 10 8 -15 -19 -8 -32 21 -43 16 -6 34 -20 40 -32 11 -20 9 -21 -26
-21 l-38 -1 35 -17 c29 -14 35 -23 35 -49 1 -17 -3 -29 -7 -27 -4 3 -8 1 -8
-5 0 -5 6 -11 13 -14 6 -2 1 -5 -13 -5 -14 0 -45 -4 -70 -9 l-45 -9 30 -17
c17 -9 25 -16 19 -17 -6 0 -23 9 -37 21 -15 11 -32 19 -39 18 -18 -3 -62 16
-74 32 -6 8 -14 24 -16 36 -6 21 -5 21 16 8 13 -9 25 -13 28 -10 3 3 18 -1 34
-10 33 -17 64 -20 64 -5 0 5 6 7 14 4 8 -3 17 -1 21 5 3 6 3 11 -2 12 -4 0
-35 2 -68 5 -33 2 -70 10 -82 16 -43 21 -23 77 34 99 l24 9 -22 33 c-13 17
-27 34 -31 35 -8 4 -12 32 -4 32 1 0 17 -22 34 -50z m292 15 c13 -14 21 -25
18 -25 -2 0 -15 11 -28 25 -13 14 -21 25 -18 25 2 0 15 -11 28 -25z m637 0
c-7 -13 -14 -20 -15 -14 -2 5 2 16 8 24 18 21 20 18 7 -10z m3635 0 c3 -15 1
-25 -6 -25 -6 0 -13 11 -14 25 -1 14 2 25 7 25 5 0 11 -11 13 -25z m-4174 -10
c-3 -3 -9 2 -12 12 -6 14 -5 15 5 6 7 -7 10 -15 7 -18z m4022 15 c0 -5 -5 -10
-11 -10 -5 0 -7 5 -4 10 3 6 8 10 11 10 2 0 4 -4 4 -10z m730 -4 c0 -3 -4 -8
-10 -11 -5 -3 -10 -1 -10 4 0 6 5 11 10 11 6 0 10 -2 10 -4z m-4574 -27 c8
-14 -10 -11 -32 6 -18 13 -18 14 4 8 12 -3 25 -9 28 -14z m-330 -10 c19 -22
19 -22 -3 -8 -13 8 -23 17 -23 21 0 12 6 9 26 -13z m4201 -1 c-3 -8 -6 -5 -6
6 -1 11 2 17 5 13 3 -3 4 -12 1 -19z m-3720 -10 c-3 -8 -6 -5 -6 6 -1 11 2 17
5 13 3 -3 4 -12 1 -19z m4153 6 c0 -8 -4 -12 -10 -9 -5 3 -10 10 -10 16 0 5 5
9 10 9 6 0 10 -7 10 -16z m-3995 -4 c-3 -5 -12 -10 -18 -10 -7 0 -6 4 3 10 19
12 23 12 15 0z m-317 -25 c37 0 70 4 73 8 10 13 39 -4 39 -23 0 -22 -27 -32
-78 -30 -61 3 -72 1 -72 -15 0 -16 9 -18 83 -15 45 1 48 0 45 -21 -3 -21 -7
-23 -65 -20 -52 2 -63 0 -63 -13 0 -17 3 -18 70 -22 25 -1 53 -2 63 -3 10 -1
17 -9 17 -21 0 -18 -7 -20 -67 -21 -38 -1 -85 0 -106 1 -21 1 -46 -4 -55 -11
-14 -11 -15 -11 -4 1 8 9 12 48 12 113 0 84 2 98 15 93 10 -3 15 1 16 12 1 13
2 14 5 2 4 -12 20 -15 72 -15z m-638 -19 c0 -22 -4 -23 -67 -22 -61 1 -68 -1
-71 -19 -3 -19 2 -20 68 -18 41 1 72 -3 76 -9 5 -7 2 -8 -6 -3 -10 6 -12 1 -8
-19 4 -19 2 -24 -6 -16 -19 15 -126 11 -126 -5 0 -18 24 -24 90 -22 l56 2 37
-50 38 -50 -40 45 c-27 30 -41 39 -41 28 0 -9 -8 -18 -17 -20 -14 -3 -8 -14
30 -54 l47 -52 65 3 c36 2 63 -1 60 -5 -3 -5 4 -31 14 -58 11 -27 17 -53 14
-56 -4 -3 -2 -6 4 -6 17 0 25 32 11 42 -11 6 -11 8 0 8 7 0 16 10 21 22 6 17
3 27 -13 41 l-21 18 22 -10 c12 -6 24 -7 27 -3 6 10 63 14 89 6 12 -4 17 -16
17 -40 0 -40 12 -44 28 -8 12 25 75 59 92 49 4 -3 10 -1 12 4 2 6 26 4 59 -4
54 -12 58 -12 80 9 20 19 21 19 8 1 -8 -11 -17 -23 -22 -26 -4 -3 0 -20 9 -37
40 -81 -11 -142 -118 -142 -89 0 -128 26 -128 86 0 13 -4 24 -10 24 -5 0 -10
-25 -10 -55 l0 -55 -35 0 c-19 0 -36 5 -36 10 -1 6 -2 16 -3 23 -1 6 -5 15
-11 19 -6 5 -5 8 3 8 6 0 12 9 12 20 0 35 -17 22 -38 -30 -24 -57 -57 -69 -68
-25 -5 22 -30 45 -48 45 -2 0 -2 -16 1 -35 6 -35 5 -35 -31 -35 l-36 0 0 52
c0 49 -3 54 -47 96 -40 37 -42 39 -8 13 45 -36 55 -38 55 -13 0 9 -30 47 -66
85 l-66 67 -79 0 -79 0 0 99 0 98 105 1 c103 0 105 0 105 -22z m497 -1 c17
-29 16 -60 -4 -84 -14 -16 -31 -21 -75 -22 l-58 -2 0 -35 c0 -27 -3 -33 -16
-28 -11 4 -15 2 -11 -8 5 -12 1 -12 -22 0 -24 12 -27 18 -24 61 1 26 2 69 2
96 l1 47 98 -2 c85 -3 99 -6 109 -23z m475 7 c21 -12 26 -22 24 -44 -2 -15 -8
-33 -13 -40 -6 -8 -7 -22 -2 -33 14 -35 10 -65 -7 -65 -9 0 -23 -8 -31 -17
-10 -13 -13 -13 -10 -4 2 8 -2 31 -9 50 -11 32 -16 36 -49 38 -36 1 -37 0 -33
-32 4 -32 2 -33 -34 -37 l-38 -4 0 104 0 103 88 -2 c58 -1 96 -7 114 -17z m49
-25 c-10 -9 -11 -8 -5 6 3 10 9 15 12 12 3 -3 0 -11 -7 -18z m3945 -75 c-9
-20 -11 -21 -25 -7 -14 13 -13 16 4 30 18 13 18 14 3 15 -19 0 -22 8 -11 36 5
13 9 10 23 -17 12 -25 14 -40 6 -57z m559 58 c8 -13 -5 -13 -25 0 -13 8 -13
10 2 10 9 0 20 -4 23 -10z m-981 -125 c58 -57 73 -75 63 -75 -1 0 -34 32 -72
70 -38 39 -67 70 -63 70 4 0 36 -29 72 -65z m-3674 25 c0 -5 -5 -10 -11 -10
-5 0 -7 5 -4 10 3 6 8 10 11 10 2 0 4 -4 4 -10z m-410 -4 c0 -2 -8 -10 -17
-17 -16 -13 -17 -12 -4 4 13 16 21 21 21 13z m-56 -58 c-9 -13 -29 -24 -43
-24 -14 -1 -20 1 -13 3 6 3 10 8 7 13 -3 4 3 6 13 3 10 -2 24 3 31 11 20 24
24 19 5 -6z m-483 -5 c13 -16 12 -17 -3 -4 -10 7 -18 15 -18 17 0 8 8 3 21
-13z m224 -13 c10 -11 16 -20 13 -20 -3 0 -13 9 -23 20 -10 11 -16 20 -13 20
3 0 13 -9 23 -20z m455 1 c-5 -11 -15 -23 -21 -27 -6 -3 -3 5 6 20 20 30 30
35 15 7z m-90 5 c0 -2 -8 -10 -17 -17 -16 -13 -17 -12 -4 4 13 16 21 21 21 13z
m1088 -8 c-2 -6 -10 -14 -16 -16 -7 -2 -10 2 -6 12 7 18 28 22 22 4z m3357 1
c-4 -6 -10 -8 -13 -5 -3 3 -11 1 -19 -6 -11 -8 -12 -7 -7 6 3 9 15 16 26 16
11 0 16 -5 13 -11z m-4055 -3 c0 -2 -8 -10 -17 -17 -16 -13 -17 -12 -4 4 13
16 21 21 21 13z m-940 -31 c13 -14 21 -25 18 -25 -2 0 -15 11 -28 25 -13 14
-21 25 -18 25 2 0 15 -11 28 -25z m180 -12 c0 -7 -39 17 -46 28 -3 6 5 3 20
-6 14 -10 26 -19 26 -22z m301 22 c19 -8 27 -14 19 -14 -14 0 -72 28 -59 29 4
0 22 -7 40 -15z m4202 -15 c7 0 17 -11 24 -25 6 -14 9 -25 7 -25 -9 0 -53 55
-53 65 0 6 3 4 6 -2 2 -7 10 -13 16 -13z m-3805 -25 c23 2 72 -35 72 -55 0
-15 -43 -12 -75 4 -19 10 -36 12 -58 5 -18 -5 -33 -9 -34 -9 -2 0 -3 -5 -3
-11 0 -6 6 -9 14 -6 25 10 140 -11 152 -28 17 -24 5 -54 -30 -77 -25 -15 -45
-18 -99 -16 -57 3 -71 8 -94 31 -34 34 -24 44 30 28 70 -21 101 -23 121 -8 18
13 14 15 -55 23 -40 5 -78 8 -84 9 -5 0 -16 10 -23 23 -11 20 -10 27 8 52 12
17 22 30 23 31 1 0 22 3 47 6 25 3 47 7 49 9 3 2 7 0 10 -4 3 -5 16 -8 29 -7z
m-886 -14 c-1 -7 2 -10 7 -6 8 4 64 -90 99 -167 2 -5 -12 -8 -31 -8 -22 0 -37
6 -41 15 -4 11 -21 15 -61 15 -40 0 -57 -4 -61 -15 -4 -9 -19 -15 -40 -15 -19
0 -34 2 -34 4 0 2 23 47 51 100 50 94 52 97 83 93 18 -2 30 -9 28 -16z m5013
-1 c10 -11 13 -20 7 -20 -6 0 -16 9 -22 20 -6 11 -9 20 -7 20 2 0 12 -9 22
-20z m-244 -43 c36 -34 73 -77 68 -77 -3 0 -27 23 -54 50 -49 49 -60 71 -14
27z m269 -61 c0 -3 -4 -8 -10 -11 -5 -3 -10 -1 -10 4 0 6 5 11 10 11 6 0 10
-2 10 -4z m87 -28 c-3 -8 -6 -5 -6 6 -1 11 2 17 5 13 3 -3 4 -12 1 -19z
m-3468 -63 c-1 -30 -6 -52 -11 -49 -14 9 -7 104 8 104 3 0 4 -25 3 -55z m3216
45 c3 -5 1 -10 -4 -10 -6 0 -11 5 -11 10 0 6 2 10 4 10 3 0 8 -4 11 -10z m170
-52 c-2 -7 -9 -32 -15 -55 -6 -24 -16 -43 -22 -43 -6 0 -8 9 -3 23 4 12 8 31
9 43 1 11 6 25 10 32 10 16 27 15 21 0z m512 -30 c-3 -8 -6 -5 -6 6 -1 11 2
17 5 13 3 -3 4 -12 1 -19z m-2804 -5 c4 -2 7 -10 7 -17 0 -8 7 -19 15 -26 13
-11 15 -8 15 14 0 14 5 26 10 26 6 0 10 -4 10 -10 0 -5 12 -10 27 -10 35 0
103 -31 103 -47 0 -14 -33 -16 -65 -4 -11 5 -30 3 -43 -2 -18 -8 -22 -16 -17
-34 5 -21 3 -22 -17 -12 -19 8 -32 5 -70 -15 -25 -13 -54 -23 -65 -22 -10 2
-24 -1 -30 -7 -26 -20 -12 5 20 37 17 18 41 44 52 58 12 14 27 28 35 31 11 4
11 6 -3 6 -10 1 -15 6 -12 12 4 6 -2 13 -14 16 -32 8 -25 24 7 17 15 -4 30 -9
35 -11z m2237 -29 c0 -8 -5 -12 -10 -9 -6 4 -8 11 -5 16 9 14 15 11 15 -7z
m-3280 -56 c0 -17 -22 -7 -27 12 -3 11 -9 20 -14 20 -5 0 -9 8 -9 18 0 13 6
11 25 -12 14 -16 25 -33 25 -38z m604 43 c3 -5 -3 -11 -14 -14 -20 -5 -35 5
-23 17 9 9 31 7 37 -3z m-634 -69 c0 -7 -4 -10 -10 -7 -5 3 -10 16 -10 28 0
18 2 19 10 7 5 -8 10 -21 10 -28z m3375 18 c10 -11 16 -20 13 -20 -3 0 -13 9
-23 20 -10 11 -16 20 -13 20 3 0 13 -9 23 -20z m-4645 -14 c0 -7 -8 -20 -17
-27 -15 -12 -16 -12 -10 4 4 10 7 23 7 28 0 5 5 9 10 9 6 0 10 -6 10 -14z
m4329 -33 c2 -2 2 -5 -1 -8 -7 -7 -58 34 -58 47 0 7 12 1 28 -13 15 -13 29
-25 31 -26z m-1964 -5 c-1 -13 -9 -24 -18 -26 -13 -3 -14 0 -4 22 15 32 24 33
22 4z m2330 11 c11 -17 -1 -21 -15 -4 -8 9 -8 15 -2 15 6 0 14 -5 17 -11z
m-3355 -20 c0 -18 -2 -20 -15 -9 -13 11 -13 15 -3 21 18 12 18 12 18 -12z m50
2 c0 -16 -28 -20 -34 -5 -4 9 1 14 14 14 11 0 20 -4 20 -9z m1024 -7 c5 -14
-33 -79 -41 -70 -3 3 1 14 10 24 22 24 24 50 2 32 -8 -7 -15 -18 -15 -25 0
-20 -27 -38 -35 -25 -4 7 5 24 19 39 14 15 24 29 22 32 -3 3 4 5 14 5 11 0 21
-5 24 -12z m2199 -14 c-3 -11 2 -35 11 -54 20 -42 20 -46 1 -46 -9 0 -16 14
-20 38 -3 20 -8 46 -10 58 -5 22 3 37 15 29 5 -3 6 -14 3 -25z m141 -15 c3 3
4 2 2 -1 -6 -8 40 -54 54 -54 7 0 10 -3 7 -7 -4 -3 -2 -12 4 -20 13 -15 -2
-18 -17 -3 -8 8 -19 7 -39 0 -36 -14 -46 -4 -11 11 14 7 26 15 26 19 0 3 -16
21 -35 40 -19 19 -35 39 -35 44 1 6 9 1 19 -11 10 -12 21 -20 25 -18z m-2681
8 c-7 -2 -21 -2 -30 0 -10 3 -4 5 12 5 17 0 24 -2 18 -5z m-743 -44 c0 -5 -4
-9 -10 -9 -5 0 -10 7 -10 16 0 8 5 12 10 9 6 -3 10 -10 10 -16z m2980 -17 c0
-5 -6 -9 -12 -9 -7 0 -21 -4 -30 -8 -11 -4 -18 -3 -18 3 0 9 9 13 53 21 4 0 7
-3 7 -7z m-2972 -69 c-5 -7 -7 -26 -3 -43 4 -20 3 -30 -5 -30 -7 0 -9 -7 -6
-17 4 -9 1 -20 -6 -25 -9 -5 -4 -8 15 -8 21 0 27 -5 27 -21 0 -17 -5 -20 -24
-17 -19 4 -26 0 -29 -16 -2 -12 -5 6 -6 40 0 33 2 64 6 68 8 7 8 10 12 91 l3
50 13 -30 c9 -20 10 -34 3 -42z m3869 1 c-3 -3 -12 -4 -19 -1 -8 3 -5 6 6 6
11 1 17 -2 13 -5z m-5280 -10 c-3 -3 -12 -4 -19 -1 -8 3 -5 6 6 6 11 1 17 -2
13 -5z m2118 -14 c-3 -5 -13 -10 -21 -10 -8 0 -12 5 -9 10 3 6 13 10 21 10 8
0 12 -4 9 -10z m2772 -12 c-3 -8 -6 -5 -6 6 -1 11 2 17 5 13 3 -3 4 -12 1 -19z
m-152 2 c-3 -5 -10 -10 -16 -10 -5 0 -9 5 -9 10 0 6 7 10 16 10 8 0 12 -4 9
-10z m-4955 -10 c0 -5 -4 -10 -10 -10 -5 0 -10 5 -10 10 0 6 5 10 10 10 6 0
10 -4 10 -10z m77 -6 c-3 -3 -12 -4 -19 -1 -8 3 -5 6 6 6 11 1 17 -2 13 -5z
m503 -4 c0 -5 -6 -10 -14 -10 -8 0 -18 5 -21 10 -3 6 3 10 14 10 12 0 21 -4
21 -10z m1393 -35 c-1 -15 -6 -31 -11 -34 -6 -3 -10 -24 -11 -46 -1 -63 -3
-74 -18 -79 -7 -3 -13 -12 -13 -20 0 -8 -14 -41 -31 -74 -22 -44 -40 -65 -65
-77 -19 -9 -32 -20 -29 -25 3 -5 -4 -12 -16 -15 -11 -4 -18 -12 -16 -18 3 -7
-5 -12 -19 -12 -13 0 -24 6 -24 13 0 6 -13 13 -30 14 -16 0 -36 1 -42 2 -7 1
-11 -6 -10 -14 2 -8 0 -12 -3 -8 -8 8 -45 -34 -45 -51 0 -6 5 -11 11 -11 6 0
8 -9 3 -22 l-7 -23 23 20 c15 13 21 15 18 6 -8 -26 -38 -38 -51 -20 -7 9 -18
14 -24 12 -7 -3 -13 0 -13 5 0 6 6 12 13 15 6 2 8 8 4 13 -5 5 -17 -3 -29 -19
-19 -26 -38 -28 -38 -5 0 6 3 9 6 6 3 -3 24 14 46 38 23 25 38 47 35 51 -4 3
-13 0 -21 -6 -9 -8 -16 -8 -20 -2 -4 5 2 12 12 16 14 4 18 12 14 30 -2 14 0
25 7 25 6 0 8 -7 4 -17 -4 -11 -3 -14 5 -9 11 6 17 -5 13 -26 -2 -15 16 -8 41
16 34 31 58 39 74 25 11 -9 14 -8 14 5 0 9 -5 16 -11 16 -8 0 -8 5 1 15 7 8
18 15 26 15 7 0 16 5 20 12 5 8 2 9 -9 5 -25 -9 -21 6 8 31 l25 22 0 -28 c0
-15 -5 -33 -11 -39 -7 -7 -2 -14 20 -21 32 -11 45 -4 36 20 -3 7 13 35 35 62
45 54 55 83 46 122 -5 20 -2 30 12 40 19 13 37 55 22 51 -4 -1 -8 1 -9 6 -3
22 1 28 17 25 12 -3 16 -12 15 -33z m2953 -50 c0 -41 -3 -75 -7 -75 -11 0 -22
104 -14 129 12 40 20 21 21 -54z m355 36 c-7 -5 -11 -14 -7 -20 5 -7 1 -9 -8
-5 -19 7 -21 20 -3 27 20 9 33 7 18 -2z m-4961 -27 c0 -8 -9 -14 -20 -14 -22
0 -28 26 -7 33 16 6 27 -1 27 -19z m4680 16 c0 -5 -4 -10 -10 -10 -5 0 -10 5
-10 10 0 6 5 10 10 10 6 0 10 -4 10 -10z m-4730 -15 c0 -6 -9 -11 -20 -11 -11
0 -20 6 -20 13 0 6 9 11 20 10 11 -1 20 -6 20 -12z m197 -7 c-3 -8 -6 -5 -6 6
-1 11 2 17 5 13 3 -3 4 -12 1 -19z m4759 -3 c-11 -8 -25 -15 -30 -15 -6 0 -2
7 8 15 11 8 25 15 30 15 6 0 2 -7 -8 -15z m-3598 -101 c0 -19 -5 -24 -16 -19
-8 3 -20 0 -25 -7 -6 -9 -7 -8 -3 5 3 10 6 24 6 31 0 6 8 12 19 13 13 1 19 -5
19 -23z m3322 -4 c8 -14 7 -29 -5 -56 -13 -32 -16 -34 -30 -21 -21 21 -21 44
0 27 13 -11 15 -7 14 26 -1 25 -3 30 -6 16 -3 -13 -10 -21 -16 -19 -12 4 -17
25 -10 40 8 15 43 6 53 -13z m-3236 -22 c8 -33 8 -33 -19 -36 -28 -2 -34 15
-9 25 8 3 13 12 10 19 -3 8 -2 14 3 14 5 0 11 -10 15 -22z m106 -2 c0 -3 -4
-8 -10 -11 -5 -3 -10 -1 -10 4 0 6 5 11 10 11 6 0 10 -2 10 -4z m180 -41 c-14
-16 -40 -20 -40 -6 0 13 44 40 48 30 2 -6 -2 -16 -8 -24z m2500 -15 c0 -5 -5
-10 -11 -10 -5 0 -7 5 -4 10 3 6 8 10 11 10 2 0 4 -4 4 -10z m-2540 -17 c0
-13 -89 -107 -95 -101 -12 11 18 57 41 62 13 4 28 15 34 26 11 20 20 26 20 13z
m2587 -85 c-2 -13 -4 -3 -4 22 0 25 2 35 4 23 2 -13 2 -33 0 -45z m-127 42 c0
-5 11 -12 25 -16 14 -3 25 -10 25 -15 0 -5 -11 -9 -25 -9 -15 0 -25 -6 -25
-14 0 -8 -4 -17 -8 -20 -5 -3 -8 15 -8 39 1 25 4 45 9 45 4 0 7 -4 7 -10z
m500 -10 c0 -11 -4 -20 -10 -20 -5 0 -10 9 -10 20 0 11 5 20 10 20 6 0 10 -9
10 -20z m400 -10 c0 -5 -4 -10 -10 -10 -5 0 -10 5 -10 10 0 6 5 10 10 10 6 0
10 -4 10 -10z m257 -5 c23 -24 10 -39 -15 -17 -12 11 -22 22 -22 26 0 11 21 6
37 -9z m-62 -14 c-3 -6 -11 -11 -17 -11 -6 0 -6 6 2 15 14 17 26 13 15 -4z
m-155 -23 c0 -6 -7 -5 -15 2 -8 7 -15 17 -15 22 0 6 7 5 15 -2 8 -7 15 -17 15
-22z m-397 -40 c15 -23 1 -48 -27 -48 -31 0 -41 27 -19 52 18 21 32 20 46 -4z
m431 0 c16 26 24 10 9 -17 l-17 -29 -13 25 c-7 14 -10 30 -6 36 4 6 9 3 13 -8
5 -13 9 -15 14 -7z m-5859 -8 c7 0 16 6 18 13 3 6 5 -4 5 -23 0 -19 -2 -29 -5
-22 -2 6 -11 12 -18 12 -7 0 -16 -6 -18 -12 -3 -7 -5 3 -5 22 0 19 2 29 5 23
2 -7 11 -13 18 -13z m110 -10 c0 -20 -6 -26 -28 -28 -29 -4 -44 16 -33 44 4
10 15 14 33 12 22 -2 28 -8 28 -28z m58 -23 c18 -4 17 -5 -5 -6 -25 -1 -28 2
-27 32 2 29 2 29 6 5 3 -18 12 -28 26 -31z m37 41 c0 -9 3 -9 12 0 19 19 33
14 15 -6 -10 -10 -17 -25 -17 -33 0 -8 -7 -1 -15 15 -18 34 -18 36 -5 36 6 0
10 -5 10 -12z m100 2 c0 -14 27 -12 33 3 3 6 5 -4 5 -23 0 -19 -2 -29 -5 -22
-6 14 -33 16 -33 2 0 -5 -3 -10 -7 -10 -5 0 -8 14 -8 30 0 17 3 30 8 30 4 0 7
-4 7 -10z m125 -20 c0 -20 -6 -26 -28 -28 -29 -4 -44 16 -33 44 4 10 15 14 33
12 22 -2 28 -8 28 -28z m53 -23 c12 -3 10 -5 -5 -6 -20 -1 -23 4 -22 32 2 29
2 29 6 5 2 -15 12 -29 21 -31z m42 42 c0 -8 5 -8 15 1 19 15 19 10 1 -24 -12
-23 -14 -24 -20 -9 -3 10 -9 24 -12 31 -3 6 -1 12 5 12 6 0 11 -5 11 -11z
m100 1 c0 -14 27 -12 33 3 3 6 5 -4 5 -23 0 -19 -2 -29 -5 -22 -6 14 -33 16
-33 2 0 -5 -4 -10 -10 -10 -5 0 -10 14 -10 30 0 17 5 30 10 30 6 0 10 -4 10
-10z m125 -20 c0 -20 -6 -26 -28 -28 -29 -4 -44 16 -33 44 4 10 15 14 33 12
22 -2 28 -8 28 -28z m53 -23 c12 -3 10 -5 -5 -6 -20 -1 -23 4 -22 32 2 29 2
29 6 5 2 -15 12 -29 21 -31z m59 44 c17 14 16 8 -1 -25 -12 -23 -14 -24 -20
-9 -3 10 -9 25 -12 33 -5 12 -4 13 7 3 9 -9 16 -10 26 -2z m233 -1 c0 -5 7
-10 16 -10 8 0 12 5 9 10 -3 6 -1 10 4 10 6 0 11 -13 11 -30 0 -30 -14 -40
-24 -17 -5 10 -7 10 -12 0 -10 -23 -24 -13 -24 17 0 17 5 30 10 30 6 0 10 -4
10 -10z m124 -6 c8 -21 -11 -44 -36 -44 -21 0 -33 22 -24 45 7 20 52 19 60 -1z
m36 -8 c0 -15 7 -26 18 -29 10 -3 6 -5 -10 -6 -25 -1 -28 3 -28 29 0 17 5 30
10 30 6 0 10 -11 10 -24z m58 12 c9 -9 12 -9 12 0 0 7 4 12 9 12 5 0 4 -13 -2
-30 -13 -33 -27 -40 -27 -12 0 10 -5 23 -12 30 -7 7 -8 12 -2 12 6 0 15 -5 22
-12z m106 0 c5 -10 7 -10 12 0 10 22 24 12 24 -18 0 -30 -14 -40 -24 -17 -5
10 -7 10 -12 0 -10 -23 -24 -13 -24 17 0 30 14 40 24 18z m116 -3 c10 -12 10
-18 0 -30 -27 -32 -71 -8 -56 30 3 8 14 15 24 15 11 0 25 -7 32 -15z m40 -9
c0 -15 7 -26 18 -29 10 -3 6 -5 -10 -6 -25 -1 -28 3 -28 29 0 17 5 30 10 30 6
0 10 -11 10 -24z m58 12 c9 -9 12 -9 12 0 0 7 4 12 9 12 5 0 4 -13 -2 -30 -13
-33 -27 -40 -27 -12 0 10 -5 23 -12 30 -7 7 -8 12 -2 12 6 0 15 -5 22 -12z
m97 2 c-3 -5 1 -10 9 -10 9 0 16 5 16 10 0 6 5 10 10 10 6 0 10 -13 10 -30 0
-30 -14 -40 -24 -17 -5 10 -7 10 -12 0 -10 -23 -24 -13 -24 17 0 17 5 30 11
30 5 0 7 -4 4 -10z m124 -8 c11 -22 -3 -42 -29 -42 -9 0 -21 5 -28 12 -15 15
3 48 28 48 11 0 24 -8 29 -18z m41 -6 c0 -15 7 -26 18 -29 10 -3 6 -5 -10 -6
-25 -1 -28 3 -28 29 0 17 5 30 10 30 6 0 10 -11 10 -24z m54 12 c5 -10 7 -10
12 0 12 26 22 11 11 -18 -13 -33 -27 -40 -27 -12 0 10 -5 23 -12 30 -8 8 -9
12 -1 12 6 0 14 -6 17 -12z m1840 0 c5 -10 7 -10 12 0 10 22 24 12 24 -18 0
-30 -14 -40 -24 -17 -5 10 -7 10 -12 0 -10 -23 -24 -13 -24 17 0 30 14 40 24
18z m116 -3 c10 -12 10 -18 0 -30 -27 -32 -71 -8 -56 30 3 8 14 15 24 15 11 0
25 -7 32 -15z m40 -9 c0 -15 7 -26 18 -29 10 -3 6 -5 -10 -6 -25 -1 -28 3 -28
29 0 17 5 30 10 30 6 0 10 -11 10 -24z m58 12 c9 -9 12 -9 12 0 0 7 4 12 9 12
5 0 4 -13 -2 -30 -13 -33 -27 -40 -27 -12 0 10 -5 23 -12 30 -7 7 -8 12 -2 12
6 0 15 -5 22 -12z m106 0 c5 -10 7 -10 12 0 10 22 24 12 24 -18 0 -30 -14 -40
-24 -17 -5 10 -7 10 -12 0 -10 -23 -24 -13 -24 17 0 30 14 40 24 18z m116 -3
c15 -18 -2 -45 -30 -45 -10 0 -23 7 -30 15 -15 18 2 45 30 45 10 0 23 -7 30
-15z m40 -9 c0 -15 7 -26 18 -29 10 -3 6 -5 -10 -6 -25 -1 -28 3 -28 29 0 17
5 30 10 30 6 0 10 -11 10 -24z m58 12 c9 -9 12 -9 12 0 0 7 4 12 9 12 5 0 4
-13 -2 -30 -6 -16 -14 -30 -17 -30 -3 0 -11 14 -17 30 -12 31 -6 39 15 18z
m97 2 c-3 -5 1 -10 9 -10 9 0 16 5 16 10 0 6 5 10 10 10 6 0 10 -13 10 -30 0
-16 -4 -30 -10 -30 -5 0 -10 5 -10 10 0 6 -7 10 -16 10 -8 0 -12 -4 -9 -10 3
-5 1 -10 -4 -10 -6 0 -11 14 -11 30 0 17 5 30 11 30 5 0 7 -4 4 -10z m120 -20
c0 -28 -27 -39 -50 -20 -21 18 -1 52 28 48 16 -2 22 -10 22 -28z m45 6 c0 -15
7 -26 18 -29 10 -3 6 -5 -10 -6 -25 -1 -28 3 -28 29 0 17 5 30 10 30 6 0 10
-11 10 -24z m54 12 c5 -10 7 -10 12 0 12 26 22 11 11 -18 -6 -16 -14 -30 -17
-30 -3 0 -11 14 -17 30 -11 29 -1 44 11 18z m362 -8 c8 0 14 5 14 10 0 6 5 10
10 10 6 0 10 -13 10 -30 0 -16 -4 -30 -10 -30 -5 0 -10 5 -10 10 0 6 -7 10
-16 10 -8 0 -12 -4 -9 -10 3 -5 1 -10 -4 -10 -6 0 -11 15 -10 33 0 17 3 26 6
20 2 -7 11 -13 19 -13z m109 -10 c0 -29 -34 -40 -54 -17 -18 23 -2 49 28 45
20 -2 26 -8 26 -28z m45 6 c0 -15 7 -26 18 -29 10 -3 6 -5 -10 -6 -25 -1 -28
3 -28 29 0 17 5 30 10 30 6 0 10 -11 10 -24z m50 12 c0 -9 3 -9 12 0 7 7 17
12 22 12 6 0 5 -5 -2 -12 -7 -7 -12 -20 -12 -30 0 -28 -14 -21 -27 12 -6 17
-7 30 -2 30 5 0 9 -5 9 -12z m116 -8 c8 0 14 5 14 11 0 5 4 8 9 5 5 -3 9 -17
9 -31 0 -14 -4 -25 -9 -25 -5 0 -9 5 -9 10 0 14 -27 12 -33 -2 -3 -7 -5 3 -5
22 0 19 2 29 5 23 2 -7 11 -13 19 -13z m169 -31 c17 -6 16 -8 -7 -8 -25 -1
-28 2 -27 32 1 28 2 29 8 8 3 -13 15 -28 26 -32z m35 39 c0 -9 3 -9 12 0 7 7
17 12 22 12 6 0 5 -5 -2 -12 -7 -7 -12 -20 -12 -30 0 -28 -14 -21 -27 12 -6
17 -7 30 -2 30 5 0 9 -5 9 -12z m115 -8 c7 0 16 6 18 13 3 6 5 -4 5 -23 0 -19
-2 -29 -5 -22 -2 6 -11 12 -18 12 -7 0 -16 -6 -18 -12 -3 -7 -5 3 -5 22 0 19
2 29 5 23 2 -7 11 -13 18 -13z m110 -10 c0 -34 -50 -42 -60 -11 -9 29 3 43 33
39 21 -2 27 -8 27 -28z m58 -23 c18 -4 17 -5 -5 -6 -25 -1 -28 2 -27 32 2 29
2 29 6 5 3 -18 12 -28 26 -31z m-3707 -3 c-3 -8 -10 -13 -16 -9 -6 4 -5 13 3
26 13 21 23 8 13 -17z m-2279 -60 c-3 -3 -12 -4 -19 -1 -8 3 -5 6 6 6 11 1 17
-2 13 -5z m2207 -28 c3 -27 -9 -36 -17 -13 -4 14 3 50 10 43 3 -2 6 -16 7 -30z
m-54 -3 c-1 -24 -2 -26 -11 -10 -5 9 -7 22 -4 27 10 17 15 11 15 -17z m2360
22 c0 -7 -30 -13 -34 -7 -3 4 4 9 15 9 10 1 19 0 19 -2z m1085 -54 c-4 -25
-14 -45 -26 -51 -24 -13 -27 11 -4 30 8 7 15 18 15 24 0 6 -5 4 -10 -4 -5 -8
-10 -11 -10 -7 0 12 32 58 37 53 3 -3 2 -23 -2 -45z m-1185 24 c14 -17 50 -20
50 -4 0 7 10 9 25 7 13 -3 26 0 28 6 4 12 14 3 60 -52 l27 -34 0 26 c0 14 5
26 10 26 6 0 10 -4 10 -9 0 -5 8 -7 19 -4 15 4 67 -18 131 -56 8 -5 34 -15 58
-22 43 -12 110 -70 130 -112 18 -38 42 -125 42 -152 0 -14 5 -35 10 -46 12
-21 25 -120 22 -159 -1 -14 -6 -155 -10 -315 -5 -159 -13 -304 -19 -321 -8
-24 -8 -35 0 -43 8 -8 12 -64 13 -164 1 -158 13 -254 45 -372 19 -72 25 -245
7 -227 -16 16 -137 323 -158 401 -11 42 -36 108 -54 146 -42 86 -69 148 -87
198 -14 39 -39 70 -39 48 0 -6 -4 -11 -9 -11 -6 0 -8 20 -6 45 3 27 1 45 -6
45 -5 0 -7 -4 -4 -10 3 -5 2 -10 -4 -10 -5 0 -13 10 -16 23 -13 42 -39 92 -52
100 -7 5 -11 12 -8 18 4 5 -1 9 -9 9 -9 0 -15 -4 -13 -9 1 -5 -2 -10 -8 -10
-14 -2 -19 49 -6 62 8 8 11 6 11 -6 0 -9 6 -17 14 -17 16 0 15 28 0 38 -6 4
-21 30 -34 57 -13 28 -34 64 -47 81 -12 17 -28 45 -34 63 -6 17 -20 36 -30 42
-10 5 -19 14 -19 20 0 6 5 7 11 3 7 -4 9 0 5 14 -4 13 -1 22 9 26 21 8 19 36
-2 34 -66 -5 -69 -2 -117 114 -9 20 -20 39 -26 43 -14 9 -13 -1 6 -36 8 -17
13 -33 11 -35 -7 -7 -57 82 -57 100 0 8 -4 18 -10 21 -5 3 -10 1 -10 -4 0 -6
-4 -11 -10 -11 -5 0 -10 9 -10 19 0 10 -7 22 -15 25 -13 4 -14 10 -5 26 6 11
15 18 21 15 20 -13 8 5 -23 34 -18 17 -39 31 -46 31 -14 0 -42 24 -42 35 0 3
9 1 19 -5 11 -5 22 -10 24 -10 6 0 -19 79 -32 100 -5 9 -12 40 -16 69 -7 52
-7 53 16 46 22 -7 54 -33 54 -44 0 -3 5 -15 11 -25 12 -21 39 -13 30 9 -3 8 0
16 7 19 9 3 8 7 -2 14 -22 16 4 42 41 42 16 0 27 4 24 9 -3 5 10 12 29 15 20
4 33 11 30 17 -10 15 22 10 35 -6z m-301 -70 c8 -16 14 -47 14 -70 0 -22 3
-45 8 -50 4 -6 4 -17 0 -24 -6 -9 -17 2 -36 36 -16 26 -33 51 -39 55 -11 7
-12 12 -15 48 0 12 -8 20 -18 20 -15 0 -16 2 -3 10 29 20 74 7 89 -25z m1246
-13 c2 -13 0 -20 -6 -17 -5 4 -9 14 -9 24 0 9 -4 22 -10 29 -5 7 -3 6 5 -1 9
-7 17 -23 20 -35z m-215 -34 c29 -32 14 -37 -18 -5 -14 15 -21 27 -15 27 7 0
21 -10 33 -22z m450 -46 c0 -11 -8 -18 -20 -19 -25 -2 -27 24 -2 30 9 3 18 5
20 6 1 0 2 -7 2 -17z m-531 -52 c0 -23 -1 -23 -9 -5 -5 11 -9 29 -9 40 -1 17
1 17 9 5 5 -8 9 -26 9 -40z m175 -110 c-6 -5 -80 77 -95 105 -6 11 14 -7 44
-40 30 -33 53 -62 51 -65z m836 100 c0 -5 -5 -10 -11 -10 -5 0 -7 5 -4 10 3 6
8 10 11 10 2 0 4 -4 4 -10z m52 -32 c-6 -6 -15 -8 -19 -4 -4 4 -1 11 7 16 19
12 27 3 12 -12z m-1039 -92 c4 4 7 2 7 -4 0 -19 -24 -14 -38 9 -8 12 -9 18 -3
14 8 -4 10 7 7 37 -5 38 -4 37 7 -10 7 -30 15 -50 20 -46z m503 79 c-3 -8 -1
-15 5 -15 14 0 7 -42 -8 -47 -14 -5 -28 40 -19 62 3 8 10 15 17 15 6 0 9 -7 5
-15z m-1432 -21 c9 -24 2 -26 -12 -4 -7 11 -8 20 -3 20 5 0 12 -7 15 -16z
m1374 -29 c-3 -3 -9 2 -12 12 -6 14 -5 15 5 6 7 -7 10 -15 7 -18z m-348 -75
c-4 -25 -8 -39 -9 -32 -1 14 -31 17 -31 2 0 -5 -4 -10 -10 -10 -5 0 -10 13
-10 29 0 17 5 33 10 36 6 3 10 -1 10 -9 0 -26 27 -18 34 10 11 41 14 24 6 -26z
m194 18 c-7 -23 -6 -23 15 -4 11 11 21 14 21 8 0 -6 -4 -14 -10 -17 -5 -3 -10
-15 -10 -26 0 -29 -14 -23 -27 12 -13 33 -10 49 8 49 6 0 7 -9 3 -22z m236
-38 c0 -36 -4 -60 -11 -60 -6 0 -8 8 -4 19 5 16 0 20 -22 23 -22 2 -28 8 -28
28 0 22 32 49 58 50 4 0 7 -27 7 -60z m-5452 20 c6 0 13 8 15 18 3 9 5 0 6
-20 0 -20 -3 -40 -9 -43 -5 -3 -10 1 -10 9 0 9 -4 16 -10 16 -5 0 -10 -4 -10
-10 0 -5 -4 -10 -10 -10 -5 0 -10 17 -10 38 1 33 2 35 14 20 7 -10 18 -18 24
-18z m110 -13 c-2 -17 -10 -22 -33 -22 -35 0 -47 31 -20 51 25 18 57 0 53 -29z
m99 27 c6 -15 7 -15 19 0 6 10 15 13 18 8 3 -5 -1 -15 -9 -22 -8 -7 -15 -19
-15 -26 0 -8 -5 -14 -11 -14 -5 0 -7 4 -4 10 3 5 -2 21 -11 35 -10 16 -12 25
-5 25 6 0 14 -7 18 -16z m119 -14 c8 0 14 5 14 10 0 6 5 10 10 10 6 0 10 -13
10 -30 0 -16 -4 -30 -10 -30 -5 0 -10 5 -10 10 0 15 -30 12 -31 -2 -1 -7 -5 1
-8 17 -4 17 -5 35 -2 40 3 6 7 2 9 -7 2 -10 10 -18 18 -18z m118 3 c14 -36
-39 -58 -65 -27 -11 14 -10 19 9 35 25 20 47 17 56 -8z m59 -36 c18 -4 17 -5
-5 -6 -26 -1 -28 2 -26 37 1 36 1 36 5 5 3 -23 10 -33 26 -36z m61 49 c4 9 9
15 11 12 7 -6 -18 -68 -27 -68 -4 0 -8 9 -8 19 0 11 -4 23 -10 26 -5 3 -10 11
-10 17 0 6 8 3 19 -6 17 -16 19 -16 25 0z m104 -16 c6 0 13 8 15 18 3 9 5 -1
5 -23 0 -22 -2 -34 -5 -27 -6 14 -33 16 -33 2 0 -5 -4 -10 -10 -10 -5 0 -10
17 -10 38 1 33 2 35 14 20 7 -10 18 -18 24 -18z m110 -13 c-2 -17 -10 -22 -33
-22 -35 0 -47 31 -20 51 25 18 57 0 53 -29z m123 29 c10 9 19 12 19 7 0 -6 -7
-16 -15 -23 -8 -7 -15 -20 -15 -29 0 -9 -6 -4 -15 13 -17 32 -20 61 -4 33 10
-18 12 -18 30 -1z m378 -23 c0 -21 -3 -32 -6 -25 -6 14 -33 16 -33 2 0 -5 -4
-10 -10 -10 -5 0 -10 14 -10 30 0 17 5 30 10 30 6 0 10 -4 10 -10 0 -5 7 -10
15 -10 8 0 15 7 15 15 0 8 2 15 5 15 3 0 5 -17 4 -37z m89 -6 c-2 -17 -10 -22
-33 -22 -35 0 -47 31 -20 51 25 18 57 0 53 -29z m122 28 c20 24 22 11 3 -23
l-17 -30 -13 25 c-17 33 -16 53 1 30 12 -15 15 -16 26 -2z m3613 -7 c17 -26 1
-50 -30 -46 -34 4 -43 36 -17 55 21 15 34 13 47 -9z m65 -41 c10 -3 5 -5 -10
-6 -24 -1 -28 3 -28 27 0 40 14 50 18 14 2 -19 10 -33 20 -35z m147 42 c-4 -5
1 -9 9 -9 9 0 16 5 16 10 0 6 5 10 10 10 6 0 10 -13 10 -30 0 -16 -4 -30 -10
-30 -5 0 -10 5 -10 10 0 14 -27 12 -33 -2 -3 -7 -6 4 -6 25 -1 24 3 36 9 32 6
-4 8 -11 5 -16z m171 -14 c-3 -18 1 -25 17 -28 18 -3 17 -5 -5 -6 -26 -1 -28
2 -28 35 0 21 4 33 10 29 6 -3 8 -17 6 -30z m78 21 c4 9 9 15 11 12 7 -7 -18
-68 -28 -68 -4 0 -6 4 -3 9 3 4 -1 17 -9 27 -21 27 -18 40 4 20 17 -16 19 -16
25 0z m125 -23 c0 -21 -3 -32 -6 -25 -6 14 -33 16 -33 2 0 -5 -4 -10 -10 -10
-5 0 -10 14 -10 30 0 17 5 30 10 30 6 0 10 -4 10 -10 0 -5 7 -10 15 -10 8 0
15 7 15 15 0 8 2 15 5 15 3 0 5 -17 4 -37z m88 14 c22 -16 -4 -49 -35 -45 -32
4 -42 36 -17 55 17 12 26 10 52 -10z m61 -40 c10 -3 5 -5 -10 -6 -24 -1 -28 3
-28 27 0 40 14 50 18 14 2 -19 10 -33 20 -35z m65 51 c10 9 17 11 17 5 0 -7
-4 -15 -10 -18 -5 -3 -10 -15 -10 -26 0 -24 -16 -25 -23 -1 -2 9 -8 26 -12 37
-6 18 -6 19 7 3 14 -16 16 -16 31 0z m-5753 -22 c0 -15 7 -26 18 -29 10 -3 6
-5 -10 -6 -25 -1 -28 3 -28 29 0 17 5 30 10 30 6 0 10 -11 10 -24z m670 0 c0
-15 7 -26 18 -29 10 -3 6 -5 -10 -6 -25 -1 -28 3 -28 29 0 17 5 30 10 30 6 0
10 -11 10 -24z m590 0 c0 -15 7 -26 18 -29 10 -3 6 -5 -10 -6 -25 -1 -28 3
-28 29 0 17 5 30 10 30 6 0 10 -11 10 -24z m-362 -232 c1 -65 -2 -146 -7 -179
-7 -50 -9 -32 -10 108 l-1 167 -27 -6 c-16 -4 -47 -20 -70 -36 -23 -15 -46
-28 -52 -28 -6 0 -15 -9 -21 -20 -6 -11 -14 -19 -18 -19 -22 4 -23 -3 -3 -20
13 -11 19 -25 15 -35 -3 -9 3 -32 15 -51 22 -39 21 -41 -12 -22 -29 16 -37 27
-37 55 0 12 -3 22 -8 22 -4 0 -16 16 -27 36 -15 28 -24 35 -42 31 -33 -6 -28
9 9 27 38 20 38 20 38 0 0 -9 5 -14 11 -12 6 2 10 7 9 12 -2 9 19 26 34 26 5
0 3 -7 -4 -15 -17 -21 -6 -30 13 -10 9 8 20 15 26 15 5 0 31 18 56 40 38 33
53 40 79 37 l31 -3 3 -120z m4412 112 c0 -3 -4 -8 -10 -11 -5 -3 -10 -1 -10 4
0 6 5 11 10 11 6 0 10 -2 10 -4z m-4990 -16 c0 -5 -4 -10 -10 -10 -5 0 -10 5
-10 10 0 6 5 10 10 10 6 0 10 -4 10 -10z m4987 -130 c-4 -16 0 -20 17 -20 12
0 27 5 34 12 18 18 25 3 12 -22 -9 -16 -14 -19 -20 -10 -4 7 -16 9 -28 6 -15
-5 -22 -2 -27 13 -3 12 -3 25 0 31 10 17 18 11 12 -10z m3 -60 c0 -5 -5 -10
-11 -10 -5 0 -7 5 -4 10 3 6 8 10 11 10 2 0 4 -4 4 -10z m64 -51 c-3 -5 -10
-7 -15 -3 -5 3 -7 10 -3 15 3 5 10 7 15 3 5 -3 7 -10 3 -15z m-44 -9 c0 -5 -2
-10 -4 -10 -3 0 -8 5 -11 10 -3 6 -1 10 4 10 6 0 11 -4 11 -10z m-4556 -34 c8
-14 25 -27 36 -31 11 -3 20 -13 20 -21 0 -8 5 -23 12 -34 11 -18 14 -18 31 -3
17 16 18 14 16 -44 -2 -58 -3 -61 -23 -54 -14 6 -24 22 -30 50 -7 31 -13 40
-24 36 -11 -4 -12 -2 -4 8 9 10 3 22 -28 52 -38 37 -51 65 -31 65 5 0 16 -11
25 -24z m4556 -32 c0 -8 4 -14 9 -14 5 0 3 -13 -5 -30 -9 -16 -12 -35 -8 -41
4 -8 1 -8 -12 -1 -16 8 -18 19 -16 60 3 39 7 49 18 45 8 -3 14 -11 14 -19z
m-140 -54 c0 -5 -5 -10 -11 -10 -5 0 -7 5 -4 10 3 6 8 10 11 10 2 0 4 -4 4
-10z m117 -55 c0 -8 -4 -15 -9 -15 -4 0 -8 7 -8 15 0 8 4 15 8 15 5 0 9 -7 9
-15z m-5097 -56 c0 -16 -4 -29 -10 -29 -5 0 -10 5 -10 10 0 14 -27 12 -33 -2
-3 -7 -6 -3 -6 9 -1 12 -4 28 -7 37 -3 9 -1 16 5 16 6 0 11 -7 11 -15 0 -8 7
-15 16 -15 12 0 15 6 11 21 -4 16 -3 18 9 8 8 -6 14 -24 14 -40z m5047 31 c-3
-11 -1 -20 4 -20 5 0 9 5 9 10 0 6 5 10 10 10 6 0 10 -13 10 -30 0 -16 -5 -30
-11 -30 -5 0 -7 5 -4 10 3 6 -1 10 -9 10 -9 0 -16 -4 -16 -10 0 -5 -4 -10 -10
-10 -11 0 -13 39 -4 64 9 23 27 20 21 -4z m-5179 -4 c5 10 12 12 16 6 3 -5 -1
-15 -9 -22 -8 -7 -15 -20 -15 -29 0 -9 -6 -4 -15 13 -19 35 -19 57 -1 33 13
-17 15 -17 24 -1z m216 -12 c14 -36 -33 -61 -62 -32 -16 16 -15 23 3 41 17 17
51 12 59 -9z m59 -37 c19 -4 18 -4 -4 -6 -22 -1 -27 4 -31 29 -3 17 -2 33 1
36 3 3 7 -8 9 -24 2 -22 9 -32 25 -35z m64 54 c15 12 16 12 9 -6 -5 -11 -11
-28 -13 -37 -3 -10 -9 -18 -13 -18 -4 0 -10 8 -13 18 -2 9 -8 26 -13 37 -7 18
-6 18 9 6 14 -11 20 -11 34 0z m211 -34 c-2 -17 -10 -22 -33 -22 -35 0 -47 31
-20 51 25 18 57 0 53 -29z m3187 -18 c16 -6 14 -8 -12 -8 -30 -1 -33 2 -33 27
0 39 14 50 20 16 3 -15 14 -31 25 -35z m57 49 c22 22 26 12 9 -23 -18 -39 -26
-43 -34 -17 -2 9 -8 26 -13 37 -7 18 -6 19 10 6 13 -11 20 -11 28 -3z m314 -3
c6 -14 8 -13 19 2 20 27 29 9 11 -19 -9 -14 -13 -28 -9 -31 3 -4 1 -7 -5 -7
-7 0 -12 6 -12 14 0 7 -7 19 -15 26 -8 7 -15 16 -15 21 0 15 20 10 26 -6z
m740 -15 c8 0 14 5 14 10 0 6 4 10 8 10 5 0 9 -13 10 -30 0 -16 -4 -30 -9 -30
-5 0 -9 5 -9 10 0 6 -7 10 -15 10 -8 0 -15 -5 -15 -12 0 -18 -10 -3 -15 22 -2
13 -1 28 3 34 4 7 8 5 10 -6 2 -10 10 -18 18 -18z m177 -33 c19 -4 18 -4 -4
-6 -22 -1 -27 4 -31 29 -3 17 -2 33 1 36 3 3 7 -8 9 -24 2 -22 9 -32 25 -35z
m62 51 c17 16 17 16 10 -3 -4 -11 -10 -28 -12 -37 -3 -10 -9 -18 -13 -18 -4 0
-10 8 -13 18 -2 9 -8 26 -12 37 -6 18 -6 19 7 3 14 -16 16 -16 33 0z m431 -18
c8 0 14 5 14 10 0 6 5 10 10 10 6 0 10 -13 10 -30 0 -16 -4 -30 -10 -30 -5 0
-10 5 -10 10 0 6 -7 10 -15 10 -8 0 -15 -4 -15 -10 0 -5 -4 -10 -10 -10 -12 0
-14 53 -2 64 4 4 8 1 10 -8 2 -9 10 -16 18 -16z m177 -33 c18 -4 17 -5 -5 -6
-26 -1 -28 2 -26 37 1 36 1 36 5 5 3 -23 10 -33 26 -36z m62 53 c9 8 15 9 15
2 0 -6 -4 -14 -10 -17 -5 -3 -10 -15 -10 -26 0 -24 -16 -25 -23 -1 -2 9 -8 26
-13 37 -7 18 -6 18 9 6 14 -11 20 -11 32 -1z m-6005 -10 c0 -5 7 -10 16 -10 8
0 12 5 9 10 -3 6 -1 10 4 10 6 0 11 -13 11 -30 0 -16 -5 -30 -11 -30 -5 0 -7
5 -4 10 3 6 -1 10 -9 10 -9 0 -16 -4 -16 -10 0 -5 -4 -10 -10 -10 -5 0 -10 14
-10 30 0 17 5 30 10 30 6 0 10 -4 10 -10z m125 -20 c0 -20 -6 -26 -28 -28 -29
-4 -44 16 -33 44 4 10 15 14 33 12 22 -2 28 -8 28 -28z m45 6 c0 -15 7 -26 18
-29 10 -3 6 -5 -10 -6 -25 -1 -28 3 -28 29 0 17 5 30 10 30 6 0 10 -11 10 -24z
m500 14 c0 -5 7 -10 16 -10 8 0 12 5 9 10 -3 6 -1 10 4 10 6 0 11 -13 11 -30
0 -16 -5 -30 -11 -30 -5 0 -7 5 -4 10 3 6 -1 10 -9 10 -9 0 -16 -4 -16 -10 0
-5 -4 -10 -10 -10 -5 0 -10 14 -10 30 0 17 5 30 10 30 6 0 10 -4 10 -10z m170
-14 c0 -15 7 -26 18 -29 10 -3 6 -5 -10 -6 -25 -1 -28 3 -28 29 0 17 5 30 10
30 6 0 10 -11 10 -24z m60 12 c0 -9 3 -9 12 0 19 19 33 14 15 -6 -10 -10 -17
-25 -17 -33 0 -8 -7 -1 -15 15 -18 34 -18 36 -5 36 6 0 10 -5 10 -12z m4314
-4 c8 -20 -11 -44 -34 -44 -10 0 -23 6 -29 14 -18 21 -2 46 29 46 17 0 30 -7
34 -16z m331 -14 c0 -20 -6 -26 -28 -28 -18 -2 -29 2 -33 12 -11 28 4 48 33
44 22 -2 28 -8 28 -28z m45 6 c0 -15 7 -26 18 -29 10 -3 6 -5 -10 -6 -25 -1
-28 3 -28 29 0 17 5 30 10 30 6 0 10 -11 10 -24z m56 13 c4 -8 9 -8 17 0 19
19 31 12 14 -7 -10 -10 -17 -25 -18 -33 0 -11 -2 -11 -6 1 -3 8 -12 23 -21 33
-9 10 -10 17 -4 17 6 0 14 -5 18 -11z m238 -5 c8 -21 -11 -44 -35 -44 -20 0
-39 28 -32 48 7 18 60 15 67 -4z m-4858 -74 c1 -31 -13 -41 -22 -15 -7 17 1
45 13 45 4 0 8 -14 9 -30z m-946 -71 c0 -14 -41 -17 -47 -3 -3 8 -11 14 -19
14 -8 0 -14 4 -14 9 0 4 18 3 40 -2 22 -6 40 -14 40 -18z m954 6 c3 -8 1 -15
-4 -15 -6 0 -10 7 -10 15 0 8 2 15 4 15 2 0 6 -7 10 -15z m-1029 -35 c-3 -5
-10 -10 -16 -10 -5 0 -9 5 -9 10 0 6 7 10 16 10 8 0 12 -4 9 -10z m1050 -84
c8 -81 -9 -85 -19 -4 -3 29 -9 64 -12 78 -6 22 -5 23 9 10 9 -9 18 -44 22 -84z
m4012 22 c-3 -8 -6 -5 -6 6 -1 11 2 17 5 13 3 -3 4 -12 1 -19z m436 7 c-3 -9
-8 -14 -10 -11 -3 3 -2 9 2 15 9 16 15 13 8 -4z m-23 -25 c0 -5 -5 -10 -11
-10 -5 0 -7 5 -4 10 3 6 8 10 11 10 2 0 4 -4 4 -10z m8 -72 c-6 -16 -21 -14
-24 4 -1 11 3 15 12 11 8 -3 13 -10 12 -15z m-248 -180 c0 -10 -3 -10 -24 -2
-9 3 -16 10 -16 16 0 5 5 6 12 2 8 -5 9 -1 5 12 -7 18 -7 18 8 0 8 -11 15 -23
15 -28z m68 -31 c8 3 10 -1 5 -12 -5 -14 -2 -16 18 -10 20 6 22 5 12 -6 -7 -7
-13 -21 -13 -31 0 -10 -4 -18 -10 -18 -5 0 -10 6 -10 13 0 7 -14 33 -32 58
-26 36 -28 40 -7 23 13 -12 30 -19 37 -17z m209 13 c-3 -14 1 -24 15 -31 12
-6 18 -18 16 -32 -2 -17 -10 -22 -33 -22 -28 0 -30 2 -30 40 -1 41 10 65 27
65 6 0 8 -9 5 -20z m-410 -31 c9 12 14 13 23 4 9 -8 20 -9 38 -2 21 8 29 7 39
-7 18 -24 16 -30 -8 -48 -24 -16 -55 -5 -63 24 -2 9 -4 6 -5 -7 -1 -25 -17
-31 -24 -10 -3 9 -7 9 -18 1 -30 -23 -49 -24 -49 -3 0 11 4 18 9 15 16 -11 22
27 6 44 -8 9 -15 21 -15 26 0 5 13 -5 29 -22 24 -27 29 -29 38 -15z m687 -58
c-4 -3 -9 0 -11 7 -5 14 -33 16 -33 2 0 -5 -4 -10 -9 -10 -5 0 -8 13 -7 30 2
32 16 54 16 27 0 -27 27 -19 36 11 8 25 9 24 12 -17 2 -23 0 -46 -4 -50z
m-5754 34 c0 -19 -5 -35 -11 -35 -5 0 -7 5 -4 10 3 6 -1 10 -9 10 -9 0 -16 -4
-16 -10 0 -5 -4 -10 -10 -10 -5 0 -10 14 -10 30 0 17 5 30 10 30 6 0 10 -4 10
-10 0 -5 7 -10 15 -10 8 0 14 3 14 8 -2 12 1 22 6 22 3 0 5 -16 5 -35z m203
17 c2 7 7 10 11 7 3 -3 0 -17 -7 -31 l-13 -25 -12 25 c-16 35 -15 51 2 29 10
-13 15 -15 19 -5z m103 -12 c8 0 14 7 14 16 0 8 5 12 10 9 6 -3 10 -19 10 -36
0 -16 -4 -29 -10 -29 -5 0 -10 5 -10 10 0 14 -27 12 -33 -2 -3 -7 -5 5 -5 27
0 22 2 32 5 23 2 -10 11 -18 19 -18z m109 14 c18 -19 16 -33 -8 -48 -18 -11
-47 0 -54 21 -4 12 23 43 37 43 5 0 16 -7 25 -16z m130 6 c9 8 15 9 15 2 0 -6
-4 -14 -10 -17 -5 -3 -10 -15 -10 -26 0 -10 -4 -19 -10 -19 -5 0 -10 9 -10 19
0 11 -4 23 -10 26 -5 3 -10 11 -10 17 0 7 6 6 15 -2 12 -10 18 -10 30 0z m213
-33 c-2 -17 -10 -22 -33 -22 -35 0 -47 31 -20 51 25 18 57 0 53 -29z m142 34
c0 -5 -7 -14 -15 -21 -9 -7 -14 -19 -11 -27 10 -25 -9 -13 -21 14 -13 28 -8
47 6 24 7 -10 10 -9 14 3 7 17 27 22 27 7z m3314 -7 c24 -23 3 -56 -32 -52
-30 3 -41 30 -22 53 16 19 35 19 54 -1z m330 3 c27 -20 17 -51 -18 -55 -42 -5
-59 24 -30 52 19 19 25 20 48 3z m71 -48 c16 -6 14 -8 -12 -8 -31 -1 -33 1
-29 32 6 45 8 46 15 13 3 -16 15 -33 26 -37z m62 52 c15 12 16 12 9 -6 -5 -11
-11 -28 -13 -37 -3 -10 -9 -18 -13 -18 -4 0 -10 8 -13 18 -2 9 -8 26 -13 37
-7 18 -6 18 9 6 14 -11 20 -11 34 0z m556 -54 c14 -3 11 -5 -8 -4 -25 2 -30 6
-31 27 -1 38 11 49 14 13 2 -23 9 -33 25 -36z m172 49 c13 18 14 17 15 -18 0
-21 -5 -38 -11 -38 -5 0 -7 5 -4 10 3 6 -1 10 -9 10 -9 0 -16 -4 -16 -10 0 -5
-4 -10 -10 -10 -5 0 -10 17 -10 38 1 35 2 36 15 18 15 -20 15 -20 30 0z m145
-15 c0 -20 6 -31 18 -34 10 -3 6 -5 -10 -6 -25 -1 -28 2 -28 34 0 19 5 35 10
35 6 0 10 -13 10 -29z m75 16 c7 10 17 15 21 11 4 -5 0 -16 -8 -25 -9 -10 -18
-25 -21 -33 -5 -13 -6 -12 -6 1 -1 9 -8 22 -16 29 -8 7 -12 17 -9 22 4 6 11 4
16 -6 9 -16 11 -16 23 1z m207 1 c8 -7 18 -22 20 -33 4 -16 -1 -20 -25 -22
-30 -2 -57 11 -57 28 0 10 29 39 39 39 4 0 14 -6 23 -12z m71 -51 c18 -4 17
-5 -5 -6 -28 -1 -30 2 -30 39 0 35 5 36 9 3 3 -23 10 -33 26 -36z m62 53 c9 8
15 9 15 2 0 -6 -4 -14 -10 -17 -5 -3 -10 -15 -10 -26 0 -24 -16 -25 -23 -1 -2
9 -8 26 -13 37 -7 18 -6 18 9 6 14 -11 20 -11 32 -1z m-5880 -30 c0 -20 -6
-26 -28 -28 -18 -2 -29 2 -33 12 -11 28 4 48 33 44 22 -2 28 -8 28 -28z m45 6
c0 -15 7 -26 18 -29 10 -3 6 -5 -10 -6 -25 -1 -28 3 -28 29 0 17 5 30 10 30 6
0 10 -11 10 -24z m353 -29 c18 -4 17 -5 -5 -6 -25 -1 -28 2 -27 32 2 29 2 29
6 5 3 -18 12 -28 26 -31z m147 43 c0 -5 7 -10 16 -10 8 0 12 5 9 10 -3 6 -1
10 4 10 6 0 11 -13 11 -30 0 -16 -5 -30 -11 -30 -5 0 -7 5 -4 10 3 6 -1 10 -9
10 -9 0 -16 -4 -16 -10 0 -5 -4 -10 -10 -10 -5 0 -10 14 -10 30 0 17 5 30 10
30 6 0 10 -4 10 -10z m170 -14 c0 -15 7 -26 18 -29 10 -3 6 -5 -10 -6 -25 -1
-28 3 -28 29 0 17 5 30 10 30 6 0 10 -11 10 -24z m5062 -68 c-7 -7 -12 -8 -12
-2 0 14 12 26 19 19 2 -3 -1 -11 -7 -17z m-392 -28 c0 -5 -4 -10 -10 -10 -5 0
-10 5 -10 10 0 6 5 10 10 10 6 0 10 -4 10 -10z m114 -62 c5 -20 3 -28 -7 -28
-9 0 -13 12 -13 34 1 39 10 36 20 -6z m73 -9 c-14 -22 -27 -25 -27 -6 0 8 -4
7 -10 -3 -5 -8 -10 -12 -10 -7 0 19 25 44 41 40 15 -4 16 -8 6 -24z m-650 -81
c-2 -18 -4 -4 -4 32 0 36 2 50 4 33 2 -18 2 -48 0 -65z m468 32 c-10 -11 -23
-20 -29 -20 -6 0 -3 5 7 11 9 5 17 20 17 31 0 17 3 19 12 10 9 -9 7 -16 -7
-32z m-15 20 c0 -5 -4 -10 -10 -10 -5 0 -10 5 -10 10 0 6 5 10 10 10 6 0 10
-4 10 -10z m-3 -82 c-3 -7 -5 -2 -5 12 0 14 2 19 5 13 2 -7 2 -19 0 -25z m13
-38 c0 -14 -33 -21 -41 -8 -5 8 -2 15 9 19 19 7 32 3 32 -11z m-115 0 c3 -5
-1 -10 -10 -10 -9 0 -13 5 -10 10 3 6 8 10 10 10 2 0 7 -4 10 -10z m235 -30
c0 -11 -2 -20 -4 -20 -2 0 -6 9 -9 20 -3 11 -1 20 4 20 5 0 9 -9 9 -20z m-450
-20 c0 -5 -4 -10 -9 -10 -6 0 -13 5 -16 10 -3 6 1 10 9 10 9 0 16 -4 16 -10z
m-75 -29 c-3 -6 -11 -11 -17 -11 -6 0 -6 6 2 15 14 17 26 13 15 -4z m82 -13
c-3 -8 -6 -5 -6 6 -1 11 2 17 5 13 3 -3 4 -12 1 -19z m-847 -18 c0 -5 -4 -10
-10 -10 -5 0 -10 5 -10 10 0 6 5 10 10 10 6 0 10 -4 10 -10z m164 -83 c31 -48
27 -57 -11 -27 -22 17 -53 67 -53 86 0 13 42 -26 64 -59z m1006 47 c0 -10 -6
-14 -15 -10 -8 3 -15 0 -15 -6 0 -9 -3 -9 -11 -1 -15 15 -3 33 22 33 11 0 19
-7 19 -16z m0 -40 c0 -8 -5 -12 -10 -9 -6 4 -8 11 -5 16 9 14 15 11 15 -7z
m-306 -76 c4 -17 2 -28 -4 -28 -5 0 -10 14 -10 32 0 36 4 35 14 -4z m-4541 15
c-7 -2 -19 -2 -25 0 -7 3 -2 5 12 5 14 0 19 -2 13 -5z m4397 -7 c0 -3 -4 -8
-10 -11 -5 -3 -10 -1 -10 4 0 6 5 11 10 11 6 0 10 -2 10 -4z"/>
<path d="M164 6281 c-11 -12 1 -16 51 -18 31 -1 55 2 55 7 0 6 -6 10 -12 11
-63 3 -90 3 -94 0z"/>
<path d="M281 6274 c0 -11 3 -14 6 -6 3 7 2 16 -1 19 -3 4 -6 -2 -5 -13z"/>
<path d="M164 6238 c-3 -4 11 -8 30 -8 20 0 36 2 36 4 0 8 -61 12 -66 4z"/>
<path d="M278 6242 c-10 -2 -18 -8 -18 -13 0 -11 11 -11 30 1 18 11 11 18 -12
12z"/>
<path d="M318 6233 c7 -3 16 -2 19 1 4 3 -2 6 -13 5 -11 0 -14 -3 -6 -6z"/>
<path d="M318 6193 l162 -3 0 -45 0 -45 -162 -3 c-90 -1 -14 -3 167 -3 182 0
257 2 168 3 l-163 3 0 45 0 44 158 4 c86 1 11 3 -168 3 -179 0 -252 -2 -162
-3z"/>
<path d="M160 6151 c0 -6 6 -11 14 -11 8 0 23 -3 33 -6 12 -5 15 -4 8 3 -15
16 -55 26 -55 14z"/>
<path d="M517 6153 c-4 -3 -7 -11 -7 -17 0 -6 5 -5 12 2 6 6 9 14 7 17 -3 3
-9 2 -12 -2z"/>
<path d="M540 6140 c0 -5 11 -10 25 -10 14 0 25 5 25 10 0 6 -11 10 -25 10
-14 0 -25 -4 -25 -10z"/>
<path d="M610 6140 c0 -5 7 -10 15 -10 8 0 15 5 15 10 0 6 -7 10 -15 10 -8 0
-15 -4 -15 -10z"/>
<path d="M165 6050 c3 -5 11 -10 16 -10 6 0 7 5 4 10 -3 6 -11 10 -16 10 -6 0
-7 -4 -4 -10z"/>
<path d="M250 6050 c0 -5 5 -10 11 -10 5 0 7 5 4 10 -3 6 -8 10 -11 10 -2 0
-4 -4 -4 -10z"/>
<path d="M324 6048 c-6 -9 -4 -10 26 -11 11 -1 19 3 18 8 -4 12 -37 14 -44 3z"/>
<path d="M208 6043 c7 -3 16 -2 19 1 4 3 -2 6 -13 5 -11 0 -14 -3 -6 -6z"/>
<path d="M280 6040 c0 -5 7 -7 15 -4 8 4 15 8 15 10 0 2 -7 4 -15 4 -8 0 -15
-4 -15 -10z"/>
<path d="M317 5993 c90 -2 236 -2 326 0 89 1 16 3 -163 3 -179 0 -252 -2 -163
-3z"/>
<path d="M274 5790 c0 -102 2 -143 3 -92 2 50 2 134 0 185 -1 50 -3 9 -3 -93z"/>
<path d="M314 5790 c0 -102 2 -143 3 -92 2 50 2 134 0 185 -1 50 -3 9 -3 -93z"/>
<path d="M440 5785 c0 -155 2 -182 15 -182 13 0 15 27 15 182 0 155 -2 182
-15 182 -13 0 -15 -27 -15 -182z m17 -88 c-1 -45 -3 -5 -3 88 0 94 2 130 3 82
2 -48 2 -125 0 -170z"/>
<path d="M630 5784 c0 -121 3 -183 10 -179 6 4 10 77 10 186 0 113 -4 179 -10
179 -6 0 -10 -69 -10 -186z"/>
<path d="M674 5785 c0 -104 2 -146 3 -92 2 54 2 139 0 190 -1 51 -3 7 -3 -98z"/>
<path d="M710 5960 c-3 -104 0 -354 4 -358 4 -3 6 79 6 181 0 103 -2 187 -5
187 -3 0 -5 -4 -5 -10z"/>
<path d="M350 5785 c0 -149 2 -175 15 -175 13 0 15 26 15 175 0 149 -2 175
-15 175 -13 0 -15 -26 -15 -175z"/>
<path d="M742 5783 c2 -179 6 -158 10 60 2 64 0 117 -4 117 -5 0 -7 -80 -6
-177z"/>
<path d="M356 5575 c-9 -26 -7 -32 5 -12 6 10 9 21 6 23 -2 3 -7 -2 -11 -11z"/>
<path d="M395 5581 c-3 -5 -2 -12 3 -15 5 -3 9 1 9 9 0 17 -3 19 -12 6z"/>
<path d="M425 5581 c-6 -11 13 -26 22 -17 4 3 1 6 -6 6 -7 0 -9 5 -6 10 3 6 4
10 1 10 -3 0 -7 -4 -11 -9z"/>
<path d="M651 5574 c0 -11 3 -14 6 -6 3 7 2 16 -1 19 -3 4 -6 -2 -5 -13z"/>
<path d="M595 5570 c-3 -6 1 -7 9 -4 18 7 21 14 7 14 -6 0 -13 -4 -16 -10z"/>
<path d="M195 5560 c-3 -5 -1 -10 4 -10 6 0 11 5 11 10 0 6 -2 10 -4 10 -3 0
-8 -4 -11 -10z"/>
<path d="M676 5558 c3 -5 10 -6 15 -3 13 9 11 12 -6 12 -8 0 -12 -4 -9 -9z"/>
<path d="M3078 5686 c-26 -13 -35 -50 -18 -72 19 -22 76 -18 94 7 31 45 -23
91 -76 65z"/>
<path d="M4928 5686 c-26 -13 -35 -50 -18 -72 26 -31 110 -8 110 30 0 37 -53
61 -92 42z"/>
<path d="M5150 5637 c20 -26 48 -39 71 -32 28 9 13 25 -25 25 -17 0 -38 6 -46
13 -12 10 -12 9 0 -6z"/>
<path d="M1929 5669 c-16 -32 3 -69 36 -69 15 0 24 4 20 10 -4 6 7 10 24 10
26 0 31 4 31 23 0 33 -18 47 -62 47 -28 0 -40 -5 -49 -21z"/>
<path d="M2413 5651 c-13 -21 -8 -31 19 -31 21 0 23 10 6 33 -12 16 -14 16
-25 -2z"/>
<path d="M3780 5674 c0 -23 3 -25 33 -22 24 2 33 8 35 26 3 19 -1 22 -32 22
-32 0 -36 -3 -36 -26z"/>
<path d="M4192 5678 c2 -19 9 -23 38 -23 28 0 35 4 35 20 0 16 -8 21 -38 23
-35 3 -38 1 -35 -20z"/>
<path d="M4441 5651 c-15 -27 -14 -31 8 -31 27 0 32 12 16 33 -13 18 -14 18
-24 -2z"/>
<path d="M3166 4905 c-3 -8 -16 -16 -28 -16 -17 -1 -18 -3 -6 -6 20 -5 64 22
50 31 -6 3 -12 -1 -16 -9z"/>
<path d="M3190 4880 c0 -5 9 -10 21 -10 11 0 17 5 14 10 -3 6 -13 10 -21 10
-8 0 -14 -4 -14 -10z"/>
<path d="M3045 4860 c3 -5 13 -10 21 -10 8 0 12 5 9 10 -3 6 -13 10 -21 10 -8
0 -12 -4 -9 -10z"/>
<path d="M3480 4840 c27 -21 40 -25 40 -12 0 9 -44 32 -58 32 -4 0 4 -9 18
-20z"/>
<path d="M3322 4738 c-7 -7 -12 -15 -12 -20 0 -12 28 2 34 18 7 17 -6 18 -22
2z"/>
<path d="M3230 4490 c0 -5 5 -10 10 -10 6 0 10 5 10 10 0 6 -4 10 -10 10 -5 0
-10 -4 -10 -10z"/>
<path d="M4194 4136 c-9 -23 3 -33 24 -20 9 6 36 9 60 7 23 -1 42 2 42 7 0 6
-10 10 -22 10 -13 0 -40 3 -60 6 -30 5 -39 3 -44 -10z"/>
<path d="M3713 4133 c-27 -3 -43 -9 -43 -17 0 -19 41 -25 81 -12 36 12 52 37
22 34 -10 -1 -37 -3 -60 -5z"/>
<path d="M4340 4130 c0 -12 47 -14 54 -2 2 4 -9 9 -25 10 -16 1 -29 -2 -29 -8z"/>
<path d="M4416 4131 c-3 -5 6 -8 19 -8 14 0 25 3 25 8 0 5 -9 9 -19 9 -11 0
-22 -4 -25 -9z"/>
<path d="M4038 4093 c12 -2 30 -2 40 0 9 3 -1 5 -23 4 -22 0 -30 -2 -17 -4z"/>
<path d="M3666 4082 c-3 -5 0 -16 7 -25 11 -14 15 -14 40 8 15 14 24 25 20 25
-5 0 -14 -5 -21 -12 -8 -8 -15 -8 -26 1 -8 7 -17 8 -20 3z"/>
<path d="M1400 4208 c0 -31 24 -58 51 -58 27 0 24 11 -16 50 l-35 34 0 -26z"/>
<path d="M1164 4262 c-21 -3 -44 -39 -44 -67 0 -14 48 -45 71 -45 6 0 8 7 5
16 -5 13 -1 15 24 12 24 -4 27 -2 18 9 -8 10 -7 12 4 8 12 -5 14 0 11 19 -8
38 -40 56 -89 48z"/>
<path d="M3301 4051 c-8 -6 -9 -11 -3 -15 6 -3 14 -1 17 5 9 14 2 20 -14 10z"/>
<path d="M2888 3790 c-67 -70 -68 -71 -52 -95 18 -28 29 -31 37 -11 3 8 16 16
29 18 17 2 22 9 20 26 -1 13 7 35 18 49 11 14 20 22 20 17 0 -5 4 -3 9 5 7 10
13 11 29 2 19 -10 23 -7 38 21 10 21 11 28 3 21 -15 -15 -59 -17 -59 -4 0 5 6
12 13 14 6 3 1 6 -12 6 -17 1 -44 -19 -93 -69z"/>
<path d="M2950 3749 c0 -5 5 -7 10 -4 6 3 10 8 10 11 0 2 -4 4 -10 4 -5 0 -10
-5 -10 -11z"/>
<path d="M3045 3640 c-3 -5 -2 -10 4 -10 5 0 13 5 16 10 3 6 2 10 -4 10 -5 0
-13 -4 -16 -10z"/>
<path d="M3092 3510 c-45 -42 -17 -110 45 -110 57 0 84 69 43 110 -26 26 -60
25 -88 0z m76 -12 c21 -21 15 -67 -12 -79 -34 -16 -66 3 -66 39 0 33 16 52 45
52 12 0 26 -5 33 -12z"/>
<path d="M3230 3465 c0 -37 4 -65 10 -65 6 0 10 11 10 25 0 20 5 25 25 25 14
0 25 5 25 10 0 6 -11 10 -25 10 -18 0 -25 5 -25 20 0 16 7 20 30 20 17 0 30 5
30 10 0 6 -18 10 -40 10 l-40 0 0 -65z"/>
<path d="M3347 3470 c-31 -69 -31 -70 -17 -70 6 0 10 7 10 15 0 10 10 15 34
15 21 0 36 -6 40 -15 3 -8 10 -15 15 -15 10 0 -32 107 -48 123 -5 4 -20 -20
-34 -53z m53 -22 c0 -4 -9 -8 -20 -8 -21 0 -24 8 -13 36 6 16 7 16 20 -2 7
-10 13 -21 13 -26z"/>
<path d="M3460 3466 c0 -37 4 -66 10 -66 6 0 10 11 10 25 0 14 6 25 13 25 8 0
19 -11 25 -25 6 -14 16 -25 22 -25 7 0 7 7 -1 21 -8 17 -8 27 2 46 18 34 1 57
-45 61 l-36 3 0 -65z m70 24 c0 -15 -7 -20 -25 -20 -18 0 -25 5 -25 20 0 15 7
20 25 20 18 0 25 -5 25 -20z"/>
<path d="M3597 3518 c-46 -36 -16 -118 43 -118 31 0 70 39 70 71 0 46 -74 76
-113 47z m81 -20 c16 -16 15 -53 -2 -67 -8 -7 -27 -11 -43 -9 -34 4 -54 47
-33 72 15 19 61 21 78 4z"/>
<path d="M3020 3400 c0 -5 5 -10 10 -10 6 0 10 5 10 10 0 6 -4 10 -10 10 -5 0
-10 -4 -10 -10z"/>
<path d="M2844 3309 c-11 -18 13 -34 30 -20 12 10 17 9 25 -8 6 -11 12 -30 12
-43 1 -20 2 -21 6 -3 7 27 23 46 34 39 5 -3 9 0 9 5 0 6 -8 11 -19 11 -10 0
-24 7 -31 15 -14 17 -56 20 -66 4z"/>
<path d="M2787 3278 c-2 -18 0 -39 5 -45 6 -7 7 -13 2 -13 -5 0 -1 -5 9 -11
10 -6 22 -8 25 -4 4 4 1 10 -5 12 -21 8 -15 22 7 16 17 -5 18 -2 10 26 -17 61
-45 71 -53 19z"/>
<path d="M2850 3260 c0 -5 5 -10 11 -10 5 0 7 5 4 10 -3 6 -8 10 -11 10 -2 0
-4 -4 -4 -10z"/>
<path d="M3080 3208 c-36 -40 -45 -62 -31 -85 6 -10 11 -12 11 -5 0 6 8 12 18
12 26 1 47 20 71 68 l21 42 -29 0 c-21 0 -39 -10 -61 -32z"/>
<path d="M2866 3197 c3 -10 9 -15 12 -12 3 3 0 11 -7 18 -10 9 -11 8 -5 -6z"/>
<path d="M2964 3169 c-3 -5 2 -9 11 -9 11 0 15 -5 11 -15 -3 -10 1 -15 14 -15
32 0 32 18 0 33 -17 9 -32 11 -36 6z"/>
<path d="M3000 3110 c0 -5 5 -10 10 -10 6 0 10 5 10 10 0 6 -4 10 -10 10 -5 0
-10 -4 -10 -10z"/>
<path d="M636 3904 c-8 -21 -1 -28 19 -20 9 3 15 11 13 18 -7 19 -25 20 -32 2z"/>
<path d="M1412 3959 c-25 -9 -28 -28 -9 -49 10 -12 9 -12 -5 -1 -15 11 -18 11
-18 -1 0 -20 29 -58 30 -39 0 11 3 10 13 -4 10 -13 21 -16 40 -11 47 12 70 50
48 84 -11 18 -72 31 -99 21z m83 -69 c3 -5 1 -10 -4 -10 -6 0 -11 5 -11 10 0
6 2 10 4 10 3 0 8 -4 11 -10z"/>
<path d="M2365 3673 c-14 -15 -25 -32 -25 -37 0 -6 3 -6 8 0 4 5 18 21 31 37
32 35 20 35 -14 0z"/>
<path d="M770 3657 c0 -4 -4 -5 -10 -2 -5 3 -10 -1 -10 -10 0 -12 10 -15 50
-14 48 2 62 10 39 24 -16 11 -69 12 -69 2z"/>
<path d="M1126 3344 c-35 -35 -9 -85 44 -86 54 0 56 0 69 28 18 41 -8 74 -59
74 -22 0 -45 -7 -54 -16z m94 -8 c0 -2 -8 -10 -17 -17 -16 -13 -17 -12 -4 4
13 16 21 21 21 13z m-50 -36 c-8 -5 -19 -10 -25 -10 -5 0 -3 5 5 10 8 5 20 10
25 10 6 0 3 -5 -5 -10z"/>
<path d="M802 3313 c2 -9 8 -18 15 -20 7 -3 9 3 6 16 -6 25 -26 28 -21 4z"/>
<path d="M1020 3641 c0 -28 2 -30 38 -28 32 3 37 6 40 30 2 20 -1 27 -13 27
-10 0 -14 -5 -9 -12 6 -10 4 -10 -7 0 -25 23 -49 15 -49 -17z"/>
<path d="M1500 3641 c0 -26 3 -28 38 -27 33 1 37 4 40 29 3 26 1 27 -37 27
-38 0 -41 -2 -41 -29z"/>
<path d="M571 3312 c-16 -29 -14 -32 14 -32 28 0 31 8 11 35 -13 18 -14 18
-25 -3z"/>
<path d="M2456 2395 c4 -8 10 -12 15 -9 14 8 10 24 -6 24 -9 0 -12 -6 -9 -15z"/>
<path d="M2305 2340 c-3 -5 -1 -10 4 -10 6 0 11 5 11 10 0 6 -2 10 -4 10 -3 0
-8 -4 -11 -10z"/>
<path d="M5653 2338 c2 -7 10 -13 17 -13 7 0 15 6 18 13 2 7 -5 12 -18 12 -13
0 -20 -5 -17 -12z"/>
<path d="M335 2350 c-7 -12 2 -30 16 -30 5 0 9 9 9 20 0 21 -15 27 -25 10z"/>
<path d="M650 2346 c0 -18 16 -29 30 -21 13 8 1 35 -16 35 -8 0 -14 -6 -14
-14z"/>
<path d="M967 2346 c-7 -16 1 -26 20 -26 7 0 13 9 13 20 0 23 -25 27 -33 6z"/>
<path d="M1434 2349 c-10 -17 13 -36 27 -22 12 12 4 33 -11 33 -5 0 -12 -5
-16 -11z"/>
<path d="M1754 2349 c-10 -17 13 -36 27 -22 12 12 4 33 -11 33 -5 0 -12 -5
-16 -11z"/>
<path d="M2074 2349 c-10 -17 13 -36 27 -22 12 12 4 33 -11 33 -5 0 -12 -5
-16 -11z"/>
<path d="M4124 2349 c-10 -17 13 -36 27 -22 12 12 4 33 -11 33 -5 0 -12 -5
-16 -11z"/>
<path d="M4444 2349 c-10 -17 13 -36 27 -22 12 12 4 33 -11 33 -5 0 -12 -5
-16 -11z"/>
<path d="M4764 2349 c-10 -17 13 -36 27 -22 12 12 4 33 -11 33 -5 0 -12 -5
-16 -11z"/>
<path d="M5334 2349 c-3 -6 -2 -15 2 -19 12 -12 38 5 30 19 -9 14 -23 14 -32
0z"/>
<path d="M5974 2349 c-10 -17 13 -36 27 -22 12 12 4 33 -11 33 -5 0 -12 -5
-16 -11z"/>
<path d="M4755 1904 c4 -16 8 -35 8 -41 0 -7 9 -13 19 -13 18 0 18 1 4 16 -9
8 -16 24 -16 34 0 10 -5 22 -11 26 -9 5 -10 -1 -4 -22z"/>
<path d="M4411 1824 c0 -11 3 -14 6 -6 3 7 2 16 -1 19 -3 4 -6 -2 -5 -13z"/>
<path d="M4786 1823 c-11 -11 -6 -23 9 -23 8 0 15 4 15 9 0 13 -16 22 -24 14z"/>
<path d="M4390 1770 c0 -5 5 -10 10 -10 6 0 10 5 10 10 0 6 -4 10 -10 10 -5 0
-10 -4 -10 -10z"/>
<path d="M4804 1769 c-3 -6 -2 -21 4 -32 23 -52 36 -83 39 -101 2 -11 7 -24
12 -30 4 -6 11 -31 15 -56 11 -74 67 -252 87 -276 5 -6 7 -13 5 -15 -7 -8 21
-124 30 -124 5 0 14 -4 21 -8 20 -13 23 7 7 54 -9 24 -18 59 -20 79 -2 19 -9
39 -14 44 -6 6 -10 26 -11 45 0 20 -3 30 -6 24 -9 -23 -21 -14 -28 20 -4 17
-13 35 -19 39 -7 5 -5 8 6 8 15 0 15 5 3 58 -8 31 -28 83 -45 115 -16 32 -30
65 -30 73 0 8 -4 14 -9 14 -9 0 -37 60 -33 73 3 11 -6 8 -14 -4z"/>
<path d="M4500 1641 c0 -5 5 -13 10 -16 6 -3 10 -2 10 4 0 5 -4 13 -10 16 -5
3 -10 2 -10 -4z"/>
<path d="M5070 1130 c0 -5 5 -10 10 -10 6 0 10 5 10 10 0 6 -4 10 -10 10 -5 0
-10 -4 -10 -10z"/>
<path d="M5056 1092 c-3 -6 -1 -14 5 -17 15 -10 25 3 12 16 -7 7 -13 7 -17 1z"/>
<path d="M5645 1821 c-8 -15 3 -31 21 -31 9 0 14 7 12 17 -4 20 -24 28 -33 14z"/>
<path d="M310 1810 c0 -15 5 -20 18 -18 9 2 17 10 17 18 0 8 -8 16 -17 18 -13
2 -18 -3 -18 -18z"/>
<path d="M644 1819 c-10 -17 13 -36 27 -22 12 12 4 33 -11 33 -5 0 -12 -5 -16
-11z"/>
<path d="M980 1810 c0 -15 5 -20 18 -18 9 2 17 10 17 18 0 8 -8 16 -17 18 -13
2 -18 -3 -18 -18z"/>
<path d="M1572 1813 c4 -21 33 -25 33 -3 0 8 -8 16 -18 18 -14 3 -18 -1 -15
-15z"/>
<path d="M5314 1819 c-10 -17 13 -36 27 -22 12 12 4 33 -11 33 -5 0 -12 -5
-16 -11z"/>
<path d="M5982 1813 c2 -10 10 -18 18 -18 22 0 18 29 -3 33 -14 3 -18 -1 -15
-15z"/>
<path d="M644 1209 c-10 -17 13 -36 27 -22 12 12 4 33 -11 33 -5 0 -12 -5 -16
-11z"/>
<path d="M982 1203 c4 -21 33 -25 33 -3 0 8 -8 16 -18 18 -14 3 -18 -1 -15
-15z"/>
<path d="M307 1213 c-8 -7 11 -33 24 -33 5 0 9 9 9 20 0 19 -20 27 -33 13z"/>
<path d="M5394 1209 c-8 -14 11 -33 25 -25 16 10 13 36 -3 36 -8 0 -18 -5 -22
-11z"/>
<path d="M5727 1214 c-9 -9 4 -34 18 -34 14 0 27 25 18 34 -4 3 -12 6 -18 6
-6 0 -14 -3 -18 -6z"/>
<path d="M6064 1209 c-10 -17 13 -36 27 -22 12 12 4 33 -11 33 -5 0 -12 -5
-16 -11z"/>
<path d="M5735 640 c-11 -17 5 -32 21 -19 7 6 11 15 8 20 -7 12 -21 11 -29 -1z"/>
<path d="M5394 639 c-7 -12 15 -31 28 -23 4 3 8 12 8 20 0 17 -26 19 -36 3z"/>
<path d="M644 639 c-8 -14 11 -33 25 -25 6 4 11 14 11 22 0 16 -26 19 -36 3z"/>
<path d="M982 633 c4 -21 33 -25 33 -3 0 8 -8 16 -18 18 -14 3 -18 -1 -15 -15z"/>
<path d="M4440 636 c0 -8 4 -17 9 -20 11 -7 33 18 24 27 -12 12 -33 7 -33 -7z"/>
<path d="M4774 639 c-10 -17 13 -36 27 -22 12 12 4 33 -11 33 -5 0 -12 -5 -16
-11z"/>
<path d="M6064 639 c-10 -17 13 -36 27 -22 12 12 4 33 -11 33 -5 0 -12 -5 -16
-11z"/>
<path d="M310 636 c0 -8 4 -17 8 -20 13 -8 35 11 28 23 -10 16 -36 14 -36 -3z"/>
<path d="M2985 2270 c-3 -5 -1 -10 4 -10 6 0 11 5 11 10 0 6 -2 10 -4 10 -3 0
-8 -4 -11 -10z"/>
<path d="M3509 2266 c-2 -2 -28 -7 -58 -10 -78 -9 -75 -16 7 -16 73 0 102 6
102 21 0 9 -43 13 -51 5z"/>
<path d="M3870 2262 c1 -12 30 -46 35 -40 9 8 -5 36 -21 42 -8 3 -14 2 -14 -2z"/>
<path d="M3856 2227 c3 -10 9 -15 12 -12 3 3 0 11 -7 18 -10 9 -11 8 -5 -6z"/>
<path d="M3695 2210 c3 -5 11 -10 16 -10 6 0 7 5 4 10 -3 6 -11 10 -16 10 -6
0 -7 -4 -4 -10z"/>
<path d="M3117 2204 c-4 -4 -7 -14 -7 -23 0 -11 3 -12 11 -4 6 6 10 16 7 23
-2 6 -7 8 -11 4z"/>
<path d="M3565 2199 c-11 -16 -16 -174 -6 -163 8 7 21 174 14 174 -1 0 -5 -5
-8 -11z"/>
<path d="M3734 2154 c3 -8 6 -18 6 -20 0 -3 5 -2 10 1 15 9 12 22 -6 29 -12 5
-15 2 -10 -10z"/>
<path d="M3257 2153 c-2 -5 -3 -50 -1 -102 1 -60 -1 -89 -7 -80 -11 17 -11 17
-13 -58 -2 -46 1 -63 11 -63 8 0 13 -12 13 -30 0 -24 4 -30 23 -31 17 -1 15
-3 -10 -10 l-31 -9 3 -98 c9 -223 14 -319 20 -349 3 -18 2 -33 -3 -33 -5 0 -9
-6 -9 -14 0 -8 6 -12 15 -8 10 4 13 1 8 -7 -5 -8 0 -18 13 -27 28 -20 27 -46
-4 -72 -26 -23 -34 -67 -13 -74 8 -3 5 -9 -8 -16 -19 -10 -20 -17 -14 -59 4
-26 9 -97 10 -158 2 -60 3 -126 4 -145 1 -24 7 -38 21 -45 26 -14 32 -46 10
-61 -13 -10 -17 -31 -18 -114 -1 -68 2 -103 10 -108 12 -8 17 -83 14 -254 -1
-82 -4 -98 -17 -98 -9 0 -14 -6 -12 -12 3 -9 38 -14 116 -16 l112 -3 -5 28
c-16 93 -29 250 -31 397 -2 93 -5 175 -8 182 -3 8 1 14 8 14 9 0 12 -7 9 -19
-2 -10 2 -25 10 -33 15 -14 18 -25 56 -193 12 -49 30 -118 42 -152 11 -34 22
-95 23 -135 2 -40 4 -76 5 -80 0 -3 66 -7 145 -7 139 -2 143 -1 142 19 0 11
-8 25 -16 30 -11 7 -12 10 -2 10 10 0 10 4 -2 16 -20 20 -21 38 -1 30 12 -4
15 2 14 27 -1 18 -3 24 -6 15 -8 -33 -33 -17 -39 26 -2 12 -6 38 -10 58 -4 26
-3 38 5 38 14 0 15 46 1 55 -5 3 -10 1 -10 -4 0 -6 -7 -11 -15 -11 -9 0 -12 6
-9 15 4 8 1 15 -5 15 -6 0 -11 -7 -11 -15 0 -27 -19 -16 -22 13 -2 16 -9 27
-18 27 -8 0 -16 9 -18 20 -2 11 -10 35 -18 53 -28 61 -54 147 -54 181 0 19 -7
43 -17 53 -13 14 -13 18 -2 18 9 0 10 3 4 8 -13 8 -32 71 -39 125 -3 20 -12
44 -20 53 -19 18 -31 59 -22 73 4 5 0 13 -8 18 -17 10 -49 116 -47 160 0 18
-4 35 -9 38 -6 3 -10 17 -10 30 0 13 -4 26 -10 30 -5 3 -7 12 -3 20 3 8 0 15
-7 15 -6 0 -9 4 -6 8 3 5 -1 20 -8 34 -10 19 -11 29 -3 37 8 8 8 11 0 11 -28
0 -73 247 -77 423 -1 17 -6 25 -13 23 -7 -3 -10 1 -6 10 3 7 13 14 22 15 9 0
11 3 4 6 -7 2 -15 20 -19 39 -3 19 -10 34 -14 34 -5 0 -7 8 -6 17 2 9 -4 30
-12 47 -9 16 -16 46 -18 66 -1 19 -10 56 -19 83 -16 44 -28 57 -38 40z m83
-313 c15 25 20 5 8 -28 -14 -36 -23 -40 -31 -14 -2 9 -8 26 -13 37 -7 18 -6
19 10 6 15 -13 19 -13 26 -1z m10 -635 c0 -14 7 -25 18 -28 10 -3 6 -5 -10 -6
-26 -1 -28 2 -28 35 0 21 4 33 10 29 6 -3 10 -17 10 -30z m56 20 c6 -14 8 -13
19 2 8 10 17 15 21 11 4 -5 0 -16 -8 -25 -9 -10 -18 -27 -20 -38 l-5 -20 -7
20 c-4 11 -12 28 -17 37 -12 23 -11 28 1 28 6 0 13 -7 16 -15z m-124 -97 c-7
-7 -12 -8 -12 -2 0 14 12 26 19 19 2 -3 -1 -11 -7 -17z m68 -493 c0 -14 7 -25
18 -28 10 -3 6 -5 -10 -6 -26 -1 -28 2 -28 35 0 21 4 33 10 29 6 -3 10 -17 10
-30z m56 20 c6 -14 8 -13 19 2 8 10 17 15 21 11 4 -5 0 -16 -9 -26 -10 -10
-17 -24 -17 -30 0 -7 -4 -12 -10 -12 -5 0 -10 9 -10 19 0 11 -4 23 -10 26 -5
3 -10 10 -10 16 0 15 20 10 26 -6z m104 0 c0 -8 7 -15 15 -15 8 0 15 7 15 16
0 8 4 13 8 10 12 -7 13 -66 1 -66 -5 0 -9 5 -9 10 0 6 -7 10 -15 10 -8 0 -15
-4 -15 -10 0 -5 -4 -10 -10 -10 -5 0 -10 16 -10 35 0 19 5 35 10 35 6 0 10 -7
10 -15z m133 -6 c23 -37 -29 -69 -61 -37 -16 16 -15 23 4 43 19 19 43 16 57
-6z m124 -401 c-3 -8 -6 -5 -6 6 -1 11 2 17 5 13 3 -3 4 -12 1 -19z m96 -225
c-7 -2 -19 -2 -25 0 -7 3 -2 5 12 5 14 0 19 -2 13 -5z"/>
<path d="M3594 639 c-3 -6 -2 -15 2 -19 12 -12 38 5 30 19 -9 14 -23 14 -32 0z"/>
<path d="M3062 2090 c0 -14 2 -19 5 -12 2 6 2 18 0 25 -3 6 -5 1 -5 -13z"/>
<path d="M3790 1860 c0 -5 5 -10 10 -10 6 0 10 5 10 10 0 6 -4 10 -10 10 -5 0
-10 -4 -10 -10z"/>
<path d="M3232 1820 c0 -14 2 -19 5 -12 2 6 2 18 0 25 -3 6 -5 1 -5 -13z"/>
<path d="M1820 1790 c0 -5 4 -10 9 -10 6 0 13 5 16 10 3 6 -1 10 -9 10 -9 0
-16 -4 -16 -10z"/>
<path d="M4410 1435 c0 -8 4 -15 10 -15 5 0 7 7 4 15 -4 8 -8 15 -10 15 -2 0
-4 -7 -4 -15z"/>
<path d="M3245 1240 c-3 -5 -1 -10 4 -10 6 0 11 5 11 10 0 6 -2 10 -4 10 -3 0
-8 -4 -11 -10z"/>
<path d="M3265 1210 c-4 -6 -3 -16 3 -22 6 -6 12 -6 17 2 4 6 3 16 -3 22 -6 6
-12 6 -17 -2z"/>
<path d="M3803 710 c0 -16 4 -30 9 -30 10 0 10 31 0 48 -6 8 -9 2 -9 -18z"/>
<path d="M3267 644 c-8 -8 1 -24 14 -24 5 0 9 7 9 15 0 15 -12 20 -23 9z"/>
<path d="M3960 622 c0 -25 30 -123 43 -140 8 -10 12 -10 18 0 4 7 3 19 -4 27
-6 7 -10 24 -9 37 2 13 -1 24 -6 24 -6 0 -13 13 -17 30 -8 35 -25 50 -25 22z"/>
<path d="M4021 424 c0 -11 3 -14 6 -6 3 7 2 16 -1 19 -3 4 -6 -2 -5 -13z"/>
<path d="M4050 406 c0 -17 16 -30 23 -19 3 5 -1 14 -9 21 -12 10 -14 10 -14
-2z"/>
<path d="M1786 343 c-10 -3 -37 -19 -60 -35 -23 -17 -36 -29 -31 -27 25 10
115 60 115 64 0 3 -1 4 -2 4 -2 -1 -12 -4 -22 -6z"/>
<path d="M3867 326 c-7 -18 1 -26 25 -26 13 0 18 6 16 17 -4 22 -34 29 -41 9z"/>
<path d="M4090 301 c0 -12 5 -21 10 -21 6 0 10 6 10 14 0 8 -4 18 -10 21 -5 3
-10 -3 -10 -14z"/>
<path d="M1630 240 c-9 -6 -10 -10 -3 -10 6 0 15 5 18 10 8 12 4 12 -15 0z"/>
<path d="M3952 225 c0 -16 2 -22 5 -12 2 9 2 23 0 30 -3 6 -5 -1 -5 -18z"/>
<path d="M1584 214 c-18 -14 -18 -15 4 -4 12 6 22 13 22 15 0 8 -5 6 -26 -11z"/>
<path d="M4065 200 c4 -6 11 -8 16 -5 14 9 11 15 -7 15 -8 0 -12 -5 -9 -10z"/>
<path d="M4580 146 c0 -17 50 -79 58 -72 5 6 -44 86 -53 86 -3 0 -5 -6 -5 -14z"/>
<path d="M1626 88 c3 -4 -3 -8 -13 -8 -10 0 -28 -17 -41 -38 -17 -27 -21 -31
-16 -12 l6 25 -26 -24 c-14 -14 -26 -25 -26 -26 0 -1 36 -3 80 -4 77 -2 80 -1
81 21 5 69 4 71 -23 72 -15 1 -24 -2 -22 -6z m34 -44 c0 -13 -4 -24 -10 -24
-5 0 -10 5 -10 11 0 5 -4 8 -9 4 -11 -6 -24 11 -17 23 2 4 14 8 25 9 16 1 21
-4 21 -23z"/>
<path d="M4640 33 c0 -4 5 -15 10 -23 8 -13 10 -13 10 2 0 9 -4 20 -10 23 -5
3 -10 3 -10 -2z"/>
</g>
</svg>
