<?xml version="1.0" standalone="no"?>
<!DOCTYPE svg PUBLIC "-//W3C//DTD SVG 20010904//EN"
 "http://www.w3.org/TR/2001/REC-SVG-20010904/DTD/svg10.dtd">
<svg version="1.0" xmlns="http://www.w3.org/2000/svg"
 width="640.000000pt" height="640.000000pt" viewBox="0 0 640.000000 640.000000"
 preserveAspectRatio="xMidYMid meet">

<g transform="translate(0.000000,640.000000) scale(0.100000,-0.100000)"
fill="#000000" stroke="none">
<path d="M4500 5075 c0 -8 7 -15 15 -15 8 0 15 7 15 15 0 8 -7 15 -15 15 -8 0
-15 -7 -15 -15z"/>
<path d="M5030 4846 c0 -9 5 -16 10 -16 6 0 10 4 10 9 0 6 -4 13 -10 16 -5 3
-10 -1 -10 -9z"/>
<path d="M2700 4760 c0 -13 5 -20 13 -17 6 2 12 10 12 17 0 7 -6 15 -12 18 -8
2 -13 -5 -13 -18z"/>
<path d="M3306 4733 c-11 -11 -6 -23 9 -23 8 0 15 4 15 9 0 13 -16 22 -24 14z"/>
<path d="M3220 4531 c0 -6 5 -13 10 -16 6 -3 10 1 10 9 0 9 -4 16 -10 16 -5 0
-10 -4 -10 -9z"/>
<path d="M1500 4404 c0 -8 5 -12 10 -9 6 3 10 10 10 16 0 5 -4 9 -10 9 -5 0
-10 -7 -10 -16z"/>
<path d="M2462 4299 c2 -6 8 -10 13 -10 5 0 11 4 13 10 2 6 -4 11 -13 11 -9 0
-15 -5 -13 -11z"/>
<path d="M5545 4260 c-3 -5 -1 -10 4 -10 6 0 11 5 11 10 0 6 -2 10 -4 10 -3 0
-8 -4 -11 -10z"/>
<path d="M5196 4163 c-11 -11 -6 -23 9 -23 8 0 15 4 15 9 0 13 -16 22 -24 14z"/>
<path d="M657 3994 c-8 -8 1 -24 14 -24 5 0 9 7 9 15 0 15 -12 20 -23 9z"/>
<path d="M1469 3991 c-116 -16 -221 -104 -255 -214 -23 -75 -29 -205 -14 -279
25 -123 68 -188 240 -358 180 -179 217 -234 227 -333 11 -122 -28 -177 -126
-177 -51 0 -61 3 -87 31 -27 28 -29 37 -34 127 l-5 97 -115 0 -115 0 0 -90 c0
-182 55 -292 179 -355 68 -34 71 -35 190 -34 112 0 125 2 178 28 68 33 111 79
147 156 23 48 26 70 29 185 3 113 1 137 -17 186 -38 99 -98 179 -251 329 -162
160 -197 213 -204 309 -8 115 32 171 120 171 45 0 59 -5 86 -29 31 -28 33 -33
36 -110 l4 -81 114 0 114 0 0 85 c0 166 -78 293 -208 339 -50 18 -164 26 -233
17z"/>
<path d="M3096 3981 c-3 -3 -11 -40 -20 -81 -9 -41 -22 -104 -30 -140 -8 -36
-19 -90 -26 -120 -6 -30 -25 -116 -41 -190 -17 -74 -37 -164 -44 -200 -8 -36
-30 -138 -50 -227 -20 -90 -34 -167 -31 -172 7 -11 -18 -33 -27 -24 -4 3 -7 1
-7 -5 0 -5 4 -12 9 -14 5 -1 0 -41 -10 -88 -11 -47 -24 -107 -29 -135 -5 -27
-14 -66 -20 -85 -5 -19 -10 -48 -10 -63 0 -27 2 -28 42 -25 l43 3 40 172 c39
168 41 173 66 173 28 0 149 -38 164 -52 5 -4 9 -25 8 -46 -3 -39 1 -36 12 12
4 21 9 26 14 17 6 -10 10 -10 16 -1 4 7 -1 13 -14 17 -17 4 -20 10 -15 27 6
19 5 19 -10 7 -13 -11 -22 -11 -39 -3 -32 15 -63 22 -150 31 -43 5 -81 11 -84
15 -4 4 1 14 10 24 16 15 19 15 27 2 5 -8 10 -11 10 -6 0 5 8 2 18 -6 9 -8 25
-15 35 -15 16 0 16 2 1 18 -9 10 -19 18 -23 17 -19 -2 -31 3 -27 11 4 5 -3 7
-14 4 -11 -3 -23 -9 -26 -14 -3 -5 -10 -9 -16 -9 -6 0 -3 9 7 20 10 11 24 20
31 20 8 0 11 7 8 18 -4 10 -2 13 3 7 34 -40 122 -85 169 -85 12 0 25 -6 27
-12 4 -10 8 -9 17 2 8 12 9 8 4 -15 -9 -41 10 -21 25 27 7 20 18 39 26 42 8 3
15 12 15 20 0 17 37 28 44 12 3 -8 5 -8 5 1 1 15 -6 19 -45 27 -25 6 -32 3
-42 -16 -6 -13 -11 -17 -11 -10 -1 7 -6 10 -13 6 -7 -4 -8 -3 -4 5 4 6 12 9
17 6 5 -4 9 1 9 9 0 19 -6 22 -54 30 -35 7 -38 6 -27 -7 10 -13 9 -17 -6 -26
-17 -9 -17 -10 0 -17 15 -5 16 -9 5 -15 -16 -11 -105 -12 -111 -1 -4 7 8 65
49 240 14 59 15 75 5 81 -26 16 -28 168 -4 215 19 38 31 46 63 45 23 -1 23 -2
-4 -8 -20 -4 -30 -13 -33 -29 -2 -16 1 -21 9 -16 7 4 8 3 4 -5 -4 -6 -11 -9
-16 -6 -15 9 -17 -20 -4 -50 7 -16 14 -23 14 -15 1 9 5 5 11 -8 5 -14 13 -20
20 -16 8 4 9 3 5 -5 -4 -6 -17 -9 -29 -6 -21 5 -21 5 1 -6 12 -7 22 -19 23
-28 0 -10 4 -8 10 7 11 28 29 20 29 -14 0 -14 6 -24 14 -24 8 0 16 -7 20 -15
3 -8 12 -15 19 -15 8 0 22 -9 31 -19 18 -20 56 -34 56 -21 0 4 -6 13 -14 19
-12 10 -12 20 2 69 20 76 17 99 -15 131 -16 16 -36 40 -46 54 -12 18 -30 29
-56 33 l-39 6 14 52 c8 28 16 67 19 86 3 19 18 87 34 150 l27 115 37 -160 c21
-88 42 -176 47 -195 5 -19 12 -51 15 -70 3 -19 10 -49 15 -65 6 -17 11 -50 13
-73 1 -23 5 -42 8 -42 5 0 21 -60 34 -125 8 -44 12 -61 35 -153 28 -116 27
-122 -15 -122 -37 0 -40 -5 -29 -59 6 -29 10 -31 48 -31 l41 0 14 -62 c19 -94
24 -136 13 -119 -8 11 -16 11 -45 2 -20 -7 -83 -11 -146 -10 l-110 2 -41 -43
c-40 -42 -50 -73 -29 -86 6 -3 -6 -14 -28 -25 -41 -19 -123 -91 -123 -107 0
-6 -6 -12 -12 -15 -25 -8 42 -112 126 -198 45 -46 89 -93 97 -105 8 -12 25
-24 39 -28 l25 -7 -25 20 c-14 11 -21 21 -16 21 4 0 -4 16 -18 35 -15 19 -24
35 -20 35 3 0 1 6 -5 14 -9 11 -9 15 1 19 8 3 6 6 -5 6 -16 1 -58 31 -43 31 3
0 -9 14 -26 31 -19 17 -39 28 -49 26 -12 -3 -16 0 -12 9 4 10 0 12 -13 7 -13
-5 -15 -3 -9 7 5 8 4 11 -2 7 -6 -4 -14 0 -17 9 -8 21 -7 21 29 25 39 3 77 -9
69 -23 -4 -6 -2 -8 3 -5 6 4 18 -2 28 -13 10 -11 24 -20 32 -20 7 0 13 -5 13
-12 0 -6 2 -9 5 -6 10 9 -7 39 -19 35 -8 -3 -11 5 -10 24 1 16 -1 27 -6 24
-11 -7 -43 32 -36 43 3 6 30 13 59 17 28 3 80 13 115 21 34 8 70 12 80 9 15
-5 41 -43 168 -241 14 -22 39 -49 56 -60 51 -33 215 -260 236 -327 l20 -59
-32 -20 c-17 -11 -24 -18 -15 -15 10 3 22 -6 34 -29 10 -19 22 -34 27 -34 4 0
8 -5 8 -11 0 -5 -5 -7 -12 -3 -8 5 -9 2 -5 -10 4 -9 1 -26 -5 -36 -9 -14 -10
-22 -1 -31 12 -12 52 8 90 47 32 32 94 164 88 185 -9 27 -23 23 -43 -9 -9 -16
-22 -27 -28 -25 -16 5 -35 -42 -22 -55 12 -12 -19 -69 -60 -112 -21 -22 -20
-17 9 39 18 34 34 70 35 80 1 9 5 32 9 51 5 26 4 31 -4 20 -8 -12 -11 -7 -11
21 0 30 -4 38 -23 43 -25 6 -75 66 -56 66 7 0 -7 18 -29 41 -41 39 -46 49 -43
77 1 7 -5 15 -14 18 -8 3 -15 10 -15 15 0 11 -24 41 -65 83 -16 16 -37 46 -46
66 -9 19 -30 51 -47 70 -71 80 -87 103 -74 108 6 2 12 16 12 32 0 23 5 30 29
35 16 3 35 13 42 21 6 8 27 14 46 14 l35 0 -7 43 c-4 23 -14 68 -22 100 -8 31
-15 67 -17 80 -1 12 -8 42 -15 67 -7 25 -14 59 -15 76 -2 16 -5 34 -8 40 -3 5
-17 63 -32 129 -15 66 -40 179 -56 250 -16 72 -41 184 -55 250 -15 66 -28 122
-30 125 -2 3 -6 23 -9 45 -4 22 -11 56 -16 75 -5 19 -12 51 -15 70 -3 19 -10
49 -15 65 -5 17 -14 57 -21 90 -6 33 -16 63 -23 68 -13 8 -135 7 -140 -2z
m-31 -661 c3 -5 1 -10 -4 -10 -6 0 -11 5 -11 10 0 6 2 10 4 10 3 0 8 -4 11
-10z m20 -470 c-3 -5 -12 -10 -18 -10 -7 0 -6 4 3 10 19 12 23 12 15 0z m8
-31 c-4 -15 -8 -17 -14 -8 -6 11 4 28 18 29 0 0 -1 -9 -4 -21z m34 -11 c-3 -8
-6 -5 -6 6 -1 11 2 17 5 13 3 -3 4 -12 1 -19z m-177 -527 c0 -5 -7 -11 -15
-15 -15 -5 -20 5 -8 17 9 10 23 9 23 -2z m848 -549 c2 -7 -2 -10 -12 -6 -9 3
-16 11 -16 16 0 13 23 5 28 -10z m9 -39 c-9 -9 -20 -14 -24 -10 -3 4 2 14 13
21 25 19 33 10 11 -11z"/>
<path d="M2000 3935 l0 -45 160 0 160 0 0 -740 0 -740 50 0 50 0 0 740 0 740
160 0 160 0 0 45 0 45 -370 0 -370 0 0 -45z"/>
<path d="M3740 3195 l0 -785 50 0 50 0 0 350 0 350 133 0 c157 0 207 -13 259
-68 58 -59 68 -112 68 -349 0 -163 3 -210 16 -243 16 -39 17 -40 65 -40 27 0
49 3 49 8 0 4 -7 29 -15 56 -11 37 -15 101 -15 252 0 223 -7 262 -61 341 -21
29 -47 51 -89 71 l-60 29 49 23 c62 29 103 71 133 135 21 47 23 63 23 240 l0
190 -33 68 c-27 54 -43 75 -79 98 -81 50 -131 59 -347 59 l-196 0 0 -785z
m441 668 c95 -47 123 -131 117 -347 -3 -115 -8 -149 -25 -187 -40 -89 -118
-119 -310 -119 l-123 0 0 341 0 341 148 -4 c128 -3 153 -6 193 -25z"/>
<path d="M3867 3514 c-8 -8 1 -24 14 -24 5 0 9 7 9 15 0 15 -12 20 -23 9z"/>
<path d="M3951 3436 c-12 -14 -5 -26 16 -26 15 0 18 26 4 34 -5 3 -14 0 -20
-8z"/>
<path d="M4540 3935 l0 -45 139 0 c102 0 141 -3 145 -12 5 -10 7 -10 12 0 21
44 24 -23 24 -425 0 -241 0 -574 0 -741 l0 -303 53 3 52 3 2 725 c2 399 3 731
3 738 0 9 38 12 155 12 l155 0 0 45 0 45 -370 0 -370 0 0 -45z"/>
<path d="M3390 3834 c0 -8 5 -12 10 -9 6 3 10 10 10 16 0 5 -4 9 -10 9 -5 0
-10 -7 -10 -16z"/>
<path d="M6380 3511 c0 -6 5 -13 10 -16 6 -3 10 1 10 9 0 9 -4 16 -10 16 -5 0
-10 -4 -10 -9z"/>
<path d="M3237 3404 c-8 -8 1 -24 14 -24 5 0 9 7 9 15 0 15 -12 20 -23 9z"/>
<path d="M5752 3399 c2 -6 8 -10 13 -10 5 0 11 4 13 10 2 6 -4 11 -13 11 -9 0
-15 -5 -13 -11z"/>
<path d="M530 3375 c0 -8 5 -15 10 -15 6 0 10 7 10 15 0 8 -4 15 -10 15 -5 0
-10 -7 -10 -15z"/>
<path d="M3004 3221 c0 -11 4 -17 8 -15 4 3 8 12 8 20 0 8 -4 14 -8 14 -4 0
-8 -9 -8 -19z"/>
<path d="M3026 3202 c-8 -13 27 -42 40 -34 7 4 8 15 3 27 -4 11 -8 14 -8 6 -1
-10 -4 -11 -15 -2 -8 7 -17 8 -20 3z"/>
<path d="M4476 3201 c-4 -7 -5 -15 -2 -18 9 -9 19 4 14 18 -4 11 -6 11 -12 0z"/>
<path d="M3120 3101 c0 -36 20 -57 55 -59 21 -2 42 -4 48 -5 6 -1 12 5 14 14
3 13 -2 15 -21 12 -36 -7 -76 5 -76 22 0 7 -4 17 -10 20 -5 3 -10 2 -10 -4z"/>
<path d="M2750 3080 c0 -5 -6 -7 -14 -4 -18 7 -32 -14 -18 -28 6 -6 17 -5 31
4 22 13 29 38 11 38 -5 0 -10 -4 -10 -10z"/>
<path d="M2210 3040 c0 -5 5 -10 11 -10 5 0 7 5 4 10 -3 6 -8 10 -11 10 -2 0
-4 -4 -4 -10z"/>
<path d="M3117 3024 c6 -16 19 -18 27 -5 3 5 -3 11 -13 14 -14 3 -18 1 -14 -9z"/>
<path d="M5615 2810 c-3 -5 -1 -10 4 -10 6 0 11 5 11 10 0 6 -2 10 -4 10 -3 0
-8 -4 -11 -10z"/>
<path d="M3152 2785 c-17 -37 -14 -45 4 -12 9 16 14 31 11 33 -2 2 -9 -7 -15
-21z"/>
<path d="M3185 2789 c-4 -6 -5 -12 -2 -15 2 -3 7 2 10 11 7 17 1 20 -8 4z"/>
<path d="M907 2753 c-13 -12 -7 -23 13 -23 11 0 20 7 20 15 0 15 -21 21 -33 8z"/>
<path d="M3158 2743 c-6 -7 -8 -17 -4 -20 8 -8 38 8 43 24 5 15 -26 12 -39 -4z"/>
<path d="M3246 2730 c-30 -32 -33 -47 -5 -27 14 11 44 57 37 57 -2 0 -16 -14
-32 -30z"/>
<path d="M3171 2653 c-10 -26 -10 -27 4 -9 8 11 15 23 15 28 0 15 -7 8 -19
-19z"/>
<path d="M1915 2660 c-4 -6 -3 -16 3 -22 13 -13 23 4 13 21 -7 10 -10 10 -16
1z"/>
<path d="M6050 2650 c0 -5 5 -10 10 -10 6 0 10 5 10 10 0 6 -4 10 -10 10 -5 0
-10 -4 -10 -10z"/>
<path d="M3236 2635 c4 -8 11 -15 16 -15 6 0 5 6 -2 15 -7 8 -14 15 -16 15 -2
0 -1 -7 2 -15z"/>
<path d="M3140 2605 c-16 -19 19 -29 39 -12 9 8 22 12 30 9 8 -3 11 0 7 6 -9
14 -64 12 -76 -3z m30 -5 c0 -5 -5 -10 -11 -10 -5 0 -7 5 -4 10 3 6 8 10 11
10 2 0 4 -4 4 -10z"/>
<path d="M4990 2610 c0 -5 5 -10 11 -10 5 0 7 5 4 10 -3 6 -8 10 -11 10 -2 0
-4 -4 -4 -10z"/>
<path d="M3199 2587 c5 -5 24 -7 42 -5 33 3 33 4 -8 8 -23 3 -39 2 -34 -3z"/>
<path d="M535 2510 c-3 -5 -1 -10 4 -10 6 0 11 5 11 10 0 6 -2 10 -4 10 -3 0
-8 -4 -11 -10z"/>
<path d="M4640 2505 c0 -8 5 -15 10 -15 6 0 10 7 10 15 0 8 -4 15 -10 15 -5 0
-10 -7 -10 -15z"/>
<path d="M894 2369 c-10 -17 13 -36 27 -22 12 12 4 33 -11 33 -5 0 -12 -5 -16
-11z"/>
<path d="M3110 2300 c0 -5 5 -10 10 -10 6 0 10 5 10 10 0 6 -4 10 -10 10 -5 0
-10 -4 -10 -10z"/>
<path d="M4260 2230 c0 -5 5 -10 10 -10 6 0 10 5 10 10 0 6 -4 10 -10 10 -5 0
-10 -4 -10 -10z"/>
<path d="M3570 2100 c0 -5 5 -10 10 -10 6 0 10 5 10 10 0 6 -4 10 -10 10 -5 0
-10 -4 -10 -10z"/>
<path d="M1780 2040 c0 -5 7 -10 15 -10 8 0 15 5 15 10 0 6 -7 10 -15 10 -8 0
-15 -4 -15 -10z"/>
<path d="M5060 2026 c0 -9 5 -16 10 -16 6 0 10 4 10 9 0 6 -4 13 -10 16 -5 3
-10 -1 -10 -9z"/>
<path d="M3211 1968 c-9 -15 -20 -19 -41 -16 -16 2 -27 1 -24 -3 2 -4 -2 -10
-8 -12 -9 -4 -10 -8 -2 -14 6 -4 13 -13 15 -19 3 -8 11 -9 29 -1 23 9 23 10 5
14 -11 3 -24 10 -30 15 -7 7 -2 9 15 5 29 -7 93 36 68 46 -8 3 -20 -4 -27 -15z"/>
<path d="M3093 1945 c-6 -14 -9 -25 -6 -25 7 0 32 33 33 43 0 16 -16 5 -27
-18z"/>
<path d="M5680 1910 c0 -5 7 -10 15 -10 8 0 15 5 15 10 0 6 -7 10 -15 10 -8 0
-15 -4 -15 -10z"/>
<path d="M3105 1900 c-3 -5 -1 -10 4 -10 6 0 11 5 11 10 0 6 -2 10 -4 10 -3 0
-8 -4 -11 -10z"/>
<path d="M3190 1890 c-14 -4 -19 -8 -12 -9 6 -1 12 -5 12 -10 0 -11 -86 -31
-130 -31 -17 0 -30 -4 -30 -10 0 -5 16 -10 35 -10 45 0 206 47 225 65 17 18 3
20 -34 5 -17 -6 -26 -6 -26 0 0 11 -5 11 -40 0z"/>
<path d="M525 1739 c-10 -15 3 -25 16 -12 7 7 7 13 1 17 -6 3 -14 1 -17 -5z"/>
<path d="M3036 1743 c-11 -11 -6 -23 9 -23 8 0 15 4 15 9 0 13 -16 22 -24 14z"/>
<path d="M3250 1705 c0 -8 5 -15 10 -15 6 0 10 7 10 15 0 8 -4 15 -10 15 -5 0
-10 -7 -10 -15z"/>
<path d="M5510 1540 c0 -5 5 -10 10 -10 6 0 10 5 10 10 0 6 -4 10 -10 10 -5 0
-10 -4 -10 -10z"/>
<path d="M2160 1410 c0 -13 5 -20 13 -17 6 2 12 10 12 17 0 7 -6 15 -12 18 -8
2 -13 -5 -13 -18z"/>
<path d="M3372 1269 c2 -6 8 -10 13 -10 5 0 11 4 13 10 2 6 -4 11 -13 11 -9 0
-15 -5 -13 -11z"/>
<path d="M5890 1265 c0 -8 5 -15 10 -15 6 0 10 7 10 15 0 8 -4 15 -10 15 -5 0
-10 -7 -10 -15z"/>
<path d="M1785 1170 c3 -5 8 -10 11 -10 2 0 4 5 4 10 0 6 -5 10 -11 10 -5 0
-7 -4 -4 -10z"/>
<path d="M6240 1159 c0 -5 5 -7 10 -4 6 3 10 8 10 11 0 2 -4 4 -10 4 -5 0 -10
-5 -10 -11z"/>
<path d="M650 1120 c0 -5 5 -10 10 -10 6 0 10 5 10 10 0 6 -4 10 -10 10 -5 0
-10 -4 -10 -10z"/>
<path d="M3162 1119 c2 -6 8 -10 13 -10 5 0 11 4 13 10 2 6 -4 11 -13 11 -9 0
-15 -5 -13 -11z"/>
<path d="M3465 730 c3 -5 8 -10 11 -10 2 0 4 5 4 10 0 6 -5 10 -11 10 -5 0 -7
-4 -4 -10z"/>
<path d="M1482 699 c2 -6 8 -10 13 -10 5 0 11 4 13 10 2 6 -4 11 -13 11 -9 0
-15 -5 -13 -11z"/>
<path d="M4000 695 c0 -8 5 -15 10 -15 6 0 10 7 10 15 0 8 -4 15 -10 15 -5 0
-10 -7 -10 -15z"/>
<path d="M3207 584 c-8 -8 1 -24 14 -24 5 0 9 7 9 15 0 15 -12 20 -23 9z"/>
<path d="M5720 576 c0 -9 7 -16 16 -16 9 0 14 5 12 12 -6 18 -28 21 -28 4z"/>
<path d="M4500 375 c0 -9 5 -15 11 -13 6 2 11 8 11 13 0 5 -5 11 -11 13 -6 2
-11 -4 -11 -13z"/>
<path d="M5201 356 c-12 -14 -5 -26 16 -26 15 0 18 26 4 34 -5 3 -14 0 -20 -8z"/>
<path d="M2680 345 c0 -8 9 -15 20 -15 11 0 20 7 20 15 0 8 -9 15 -20 15 -11
0 -20 -7 -20 -15z"/>
<path d="M5126 272 c-3 -6 -1 -14 5 -17 15 -10 25 3 12 16 -7 7 -13 7 -17 1z"/>
</g>
</svg>
