<?xml version="1.0" standalone="no"?>
<!DOCTYPE svg PUBLIC "-//W3C//DTD SVG 20010904//EN"
 "http://www.w3.org/TR/2001/REC-SVG-20010904/DTD/svg10.dtd">
<svg version="1.0" xmlns="http://www.w3.org/2000/svg"
 width="640.000000pt" height="640.000000pt" viewBox="0 0 640.000000 640.000000"
 preserveAspectRatio="xMidYMid meet">

<g transform="translate(0.000000,640.000000) scale(0.100000,-0.100000)"
fill="#000000" stroke="none">
<path d="M4166 5322 c-8 -13 11 -35 23 -28 16 10 14 36 -3 36 -8 0 -17 -4 -20
-8z"/>
<path d="M4715 5090 c-4 -6 -3 -16 3 -22 6 -6 12 -6 17 2 4 6 3 16 -3 22 -6 6
-12 6 -17 -2z"/>
<path d="M2287 5014 c-14 -14 -7 -35 11 -32 9 2 17 10 17 17 0 16 -18 25 -28
15z"/>
<path d="M2916 4955 c4 -8 10 -12 15 -9 14 8 10 24 -6 24 -9 0 -12 -6 -9 -15z"/>
<path d="M2350 4920 c0 -5 5 -10 10 -10 6 0 10 5 10 10 0 6 -4 10 -10 10 -5 0
-10 -4 -10 -10z"/>
<path d="M2825 4771 c-7 -12 12 -24 25 -16 11 7 4 25 -10 25 -5 0 -11 -4 -15
-9z"/>
<path d="M1025 4651 c-7 -12 12 -24 25 -16 11 7 4 25 -10 25 -5 0 -11 -4 -15
-9z"/>
<path d="M470 4610 c0 -5 5 -10 11 -10 5 0 7 5 4 10 -3 6 -8 10 -11 10 -2 0
-4 -4 -4 -10z"/>
<path d="M2042 4541 c4 -13 18 -16 19 -4 0 4 -5 9 -11 12 -7 2 -11 -2 -8 -8z"/>
<path d="M2298 4429 c-55 -16 -123 -80 -144 -137 -16 -41 -19 -89 -22 -367 -4
-346 2 -410 44 -482 31 -54 68 -79 144 -99 130 -33 245 13 303 121 21 38 22
54 25 390 2 235 0 367 -8 402 -14 66 -58 127 -112 154 -48 25 -172 34 -230 18z
m130 -150 c18 -6 35 -22 41 -38 8 -19 11 -131 9 -370 l-3 -343 -24 -19 c-36
-29 -94 -25 -120 7 -20 26 -21 38 -21 363 0 185 3 347 7 360 3 13 19 29 37 37
38 16 36 16 74 3z"/>
<path d="M1500 4393 c0 -21 6 -74 14 -118 8 -44 22 -126 30 -182 37 -241 48
-313 62 -398 8 -49 16 -108 19 -131 3 -22 11 -74 19 -115 7 -40 12 -79 9 -86
-4 -10 23 -13 125 -13 98 0 131 3 135 13 3 7 10 49 17 93 6 43 18 120 25 169
8 50 21 137 30 195 9 58 23 145 31 193 9 49 17 107 20 130 2 23 9 65 14 92 5
28 12 75 15 105 3 30 8 63 11 73 5 15 -3 17 -75 17 l-80 0 -6 -57 c-4 -32 -13
-96 -20 -143 -8 -47 -17 -110 -20 -140 -4 -30 -10 -73 -15 -95 -5 -22 -11 -65
-14 -95 -4 -30 -13 -98 -21 -150 -8 -52 -19 -120 -23 -150 -10 -64 -8 -70 -37
130 -37 256 -44 310 -60 415 -8 61 -21 148 -28 195 l-12 85 -83 3 -82 3 0 -38z"/>
<path d="M2758 3953 c-2 -263 -1 -506 0 -540 l4 -63 219 0 219 0 0 75 0 75
-140 0 -140 0 0 465 0 465 -80 0 -79 0 -3 -477z"/>
<path d="M3266 4423 c-3 -4 -6 -202 -6 -440 1 -489 3 -504 70 -577 27 -30 55
-47 93 -59 137 -43 258 1 320 117 22 40 22 51 25 504 l3 462 -81 0 -80 0 0
-375 c0 -327 -2 -375 -15 -375 -20 0 -19 -26 1 -34 26 -10 14 -113 -16 -138
-26 -21 -87 -23 -112 -4 -35 26 -38 61 -38 497 l0 429 -78 0 c-43 0 -82 -3
-86 -7z"/>
<path d="M3880 3890 l0 -540 75 0 75 0 2 388 c3 313 5 378 14 342 7 -25 24
-89 39 -143 14 -54 28 -106 30 -115 2 -9 17 -69 34 -132 17 -63 38 -140 46
-170 8 -30 22 -81 31 -112 l15 -58 90 0 89 0 0 540 0 540 -75 0 -75 0 0 -327
c0 -179 -2 -324 -5 -321 -6 5 -30 92 -86 308 -16 63 -44 166 -61 228 l-30 112
-104 0 -104 0 0 -540z"/>
<path d="M4880 4390 c0 -5 7 -10 15 -10 8 0 15 5 15 10 0 6 -7 10 -15 10 -8 0
-15 -4 -15 -10z"/>
<path d="M150 4224 c0 -17 22 -14 28 4 2 7 -3 12 -12 12 -9 0 -16 -7 -16 -16z"/>
<path d="M3002 4081 c2 -7 7 -12 11 -12 12 1 9 15 -3 20 -7 2 -11 -2 -8 -8z"/>
<path d="M3502 3751 c2 -7 7 -12 11 -12 12 1 9 15 -3 20 -7 2 -11 -2 -8 -8z"/>
<path d="M6125 3750 c-3 -5 1 -10 9 -10 9 0 16 5 16 10 0 6 -4 10 -9 10 -6 0
-13 -4 -16 -10z"/>
<path d="M5470 3635 c0 -9 5 -15 11 -13 6 2 11 8 11 13 0 5 -5 11 -11 13 -6 2
-11 -4 -11 -13z"/>
<path d="M20 3615 c0 -8 7 -15 15 -15 8 0 15 7 15 15 0 8 -7 15 -15 15 -8 0
-15 -7 -15 -15z"/>
<path d="M4130 3436 c0 -9 7 -16 16 -16 9 0 14 5 12 12 -6 18 -28 21 -28 4z"/>
<path d="M6262 3369 c2 -6 8 -10 13 -10 5 0 11 4 13 10 2 6 -4 11 -13 11 -9 0
-15 -5 -13 -11z"/>
<path d="M2328 3322 c-31 -4 -45 -30 -21 -39 9 -4 19 -1 21 5 2 7 8 10 13 6 5
-3 12 2 15 11 8 20 6 21 -28 17z"/>
<path d="M2400 3238 l-61 -83 28 -3 c21 -3 34 4 57 30 16 18 49 55 72 81 24
26 44 50 44 52 0 3 -18 5 -39 5 -37 0 -42 -4 -101 -82z"/>
<path d="M1781 3274 c0 -11 3 -14 6 -6 3 7 2 16 -1 19 -3 4 -6 -2 -5 -13z"/>
<path d="M3903 3066 c-56 -26 -102 -80 -125 -144 -19 -53 -19 -851 0 -904 36
-102 113 -158 230 -166 84 -5 144 13 199 61 83 73 93 125 93 509 0 290 1 317
16 311 12 -4 15 -2 12 8 -3 8 -10 13 -15 12 -6 -1 -13 26 -15 60 -9 100 -27
147 -83 204 -57 58 -96 73 -195 73 -48 0 -79 -7 -117 -24z m230 -75 c18 -11
44 -41 58 -68 l24 -48 0 -405 0 -405 -29 -52 c-36 -65 -77 -87 -161 -88 -78 0
-125 28 -157 93 -23 46 -23 52 -26 436 -3 340 -1 396 14 442 18 57 55 100 100
114 45 15 139 5 177 -19z"/>
<path d="M4576 3075 c-59 -21 -88 -46 -121 -106 -28 -51 -30 -60 -30 -164 0
-95 3 -117 23 -157 29 -58 114 -143 212 -212 175 -124 229 -235 185 -382 -28
-95 -111 -143 -214 -124 -90 16 -133 79 -141 205 l-5 80 -37 3 -38 3 0 -58 c2
-199 97 -313 264 -313 79 0 153 28 193 71 84 92 93 289 19 409 -26 42 -64 78
-164 155 -71 55 -141 114 -156 132 -93 111 -92 279 3 368 30 28 38 30 106 30
67 0 76 -3 112 -31 44 -35 72 -103 73 -176 l0 -48 35 0 35 0 0 70 c0 122 -62
220 -159 249 -52 15 -147 13 -195 -4z"/>
<path d="M1500 3045 l0 -35 125 0 125 0 0 -575 0 -575 40 0 40 0 0 575 0 575
125 0 125 0 0 35 0 35 -290 0 -290 0 0 -35z"/>
<path d="M2336 2993 c-10 -49 -24 -115 -32 -148 -7 -33 -20 -94 -29 -135 -26
-121 -87 -398 -129 -590 -17 -76 -45 -205 -52 -237 -4 -20 0 -23 30 -23 40 0
36 -9 77 173 l22 97 64 0 c57 0 64 -2 59 -17 -22 -74 -28 -125 -24 -208 l4
-94 39 -34 c44 -38 42 -21 31 -282 -6 -145 -13 -202 -25 -210 -4 -2 -37 16
-73 40 -102 68 -318 189 -420 236 -155 70 -421 165 -518 185 -13 3 -62 14
-109 25 -211 49 -475 79 -701 79 -229 0 -538 -32 -547 -57 -8 -22 0 -24 58
-13 457 83 1032 32 1517 -135 234 -80 402 -161 650 -315 l137 -85 10 -98 c6
-55 14 -95 18 -91 4 5 12 2 17 -6 7 -10 10 -11 10 -2 0 6 7 12 14 12 11 0 16
14 18 47 2 25 8 48 14 50 7 2 39 -19 73 -47 67 -56 70 -64 52 -186 -6 -44 -4
-56 16 -84 15 -23 19 -37 13 -46 -12 -14 -3 -43 14 -45 55 -6 56 -6 63 19 4
16 2 27 -5 30 -7 2 -12 12 -12 22 0 10 -4 21 -9 25 -6 3 -8 -4 -6 -15 2 -13
-1 -20 -11 -20 -8 0 -12 4 -9 10 3 5 0 10 -7 10 -12 0 -38 43 -38 63 0 5 16 7
35 5 33 -4 35 -2 36 27 1 77 7 74 144 -67 221 -227 396 -465 539 -730 37 -71
74 -128 82 -128 8 0 14 3 14 7 0 3 -25 54 -56 112 -168 314 -352 560 -601 806
l-101 101 17 89 c10 50 17 126 17 170 -1 44 5 100 12 125 8 25 18 97 22 160 9
129 14 147 40 155 16 5 17 10 8 36 -19 54 -1 41 26 -20 26 -58 46 -85 46 -61
0 8 6 8 21 0 25 -14 25 -14 34 36 4 26 2 44 -4 49 -6 3 -11 26 -11 51 l0 44
65 0 65 0 0 250 0 250 33 0 c53 -1 109 -17 131 -39 19 -20 21 -37 27 -219 4
-108 10 -207 14 -219 7 -22 13 -23 99 -23 l91 0 -3 182 c-5 265 -32 366 -108
400 -23 11 -23 11 21 50 60 53 75 105 75 263 0 145 -15 207 -63 256 -56 57
-98 66 -315 68 l-192 2 -1 -468 c0 -257 -3 -461 -6 -453 -3 8 -24 34 -46 57
-33 34 -38 45 -28 56 9 12 8 18 -3 28 -33 30 -46 39 -54 39 -6 0 -12 9 -15 21
-3 12 -10 19 -15 16 -12 -8 -44 31 -36 44 3 6 12 8 20 5 16 -6 19 10 4 19 -5
3 -10 13 -10 21 0 13 5 12 30 -3 17 -9 30 -21 30 -25 0 -4 9 -8 20 -8 11 0 20
4 20 9 0 5 12 11 28 13 21 2 27 8 27 28 0 20 -5 25 -23 25 -13 0 -30 9 -38 19
-7 11 -17 17 -20 13 -4 -4 -13 1 -20 11 -9 13 -9 19 -1 25 7 5 -8 6 -33 2 -25
-3 -54 -15 -66 -26 -25 -24 -28 -21 -42 46 -25 114 -74 335 -90 400 -9 39 -15
73 -14 78 1 4 -26 7 -61 7 l-62 0 -19 -87z m188 -493 c28 -124 29 -136 10
-164 -9 -15 -32 -33 -50 -41 -43 -18 -104 -66 -104 -82 0 -9 -21 -13 -70 -13
-38 0 -70 4 -70 8 0 10 28 143 60 282 29 130 80 359 86 390 3 14 10 43 16 65
11 42 10 45 122 -445z m671 398 c36 -16 47 -66 43 -196 -3 -104 -5 -113 -28
-137 -21 -20 -39 -27 -92 -32 l-65 -6 -2 192 -2 191 60 0 c33 0 72 -5 86 -12z
m-542 -459 c-13 -13 -33 -4 -32 14 0 9 2 8 6 -1 2 -6 9 -9 14 -6 6 3 5 12 -2
22 -11 14 -10 14 6 0 14 -13 16 -21 8 -29z m1 -95 c9 -3 16 -11 16 -16 0 -6
-7 -8 -15 -4 -8 3 -14 2 -14 -2 3 -19 -2 -26 -10 -13 -5 8 -7 20 -4 28 6 15 6
15 27 7z m-40 -43 c-2 -3 -12 3 -22 13 -16 17 -16 18 5 5 12 -7 20 -15 17 -18z
m36 -91 c0 -5 -4 -10 -10 -10 -5 0 -10 5 -10 10 0 6 5 10 10 10 6 0 10 -4 10
-10z m-86 -62 c-3 -4 -9 -8 -15 -8 -5 0 -9 4 -9 8 0 5 7 9 15 9 8 0 12 -4 9
-9z m-54 -2 c0 -3 -4 -8 -10 -11 -5 -3 -10 -1 -10 4 0 6 5 11 10 11 6 0 10 -2
10 -4z m150 -6 c0 -5 -7 -10 -16 -10 -8 0 -12 5 -9 10 3 6 10 10 16 10 5 0 9
-4 9 -10z m45 -10 c-3 -5 -12 -10 -18 -10 -7 0 -6 4 3 10 19 12 23 12 15 0z
m85 -30 c0 -5 -4 -10 -10 -10 -5 0 -10 5 -10 10 0 6 5 10 10 10 6 0 10 -4 10
-10z m-337 -337 c-7 -2 -13 -9 -13 -14 0 -4 6 -6 14 -3 9 3 19 -4 26 -17 11
-19 10 -25 -6 -36 -24 -17 -58 -17 -51 1 3 7 0 19 -6 26 -9 10 -9 11 1 6 8 -5
12 0 12 12 0 21 8 32 24 31 6 0 5 -3 -1 -6z m147 -373 c14 -173 13 -156 5
-227 l-8 -61 -21 20 c-11 11 -40 34 -63 50 -46 34 -49 54 -15 108 20 30 18 26
36 125 8 44 19 93 25 108 6 16 12 43 12 60 1 31 2 31 10 -8 5 -22 14 -101 19
-175z m100 -64 c0 -2 -9 -6 -20 -9 -11 -3 -18 -1 -14 4 5 9 34 13 34 5z"/>
<path d="M2433 1705 c0 -7 6 -11 14 -8 7 3 13 6 13 8 0 2 -6 5 -13 8 -8 3 -14
-1 -14 -8z"/>
<path d="M3550 2470 l0 -610 45 0 45 0 0 610 0 610 -45 0 -45 0 0 -610z"/>
<path d="M5328 3043 c7 -3 16 -2 19 1 4 3 -2 6 -13 5 -11 0 -14 -3 -6 -6z"/>
<path d="M417 3004 c-14 -15 -6 -34 14 -34 14 0 19 5 17 17 -3 18 -20 27 -31
17z"/>
<path d="M1465 2899 c-10 -15 3 -25 16 -12 7 7 7 13 1 17 -6 3 -14 1 -17 -5z"/>
<path d="M5780 2889 c0 -5 5 -7 10 -4 6 3 10 8 10 11 0 2 -4 4 -10 4 -5 0 -10
-5 -10 -11z"/>
<path d="M4600 2850 c0 -5 5 -10 10 -10 6 0 10 5 10 10 0 6 -4 10 -10 10 -5 0
-10 -4 -10 -10z"/>
<path d="M15 2841 c-3 -5 -1 -12 5 -16 5 -3 10 1 10 9 0 18 -6 21 -15 7z"/>
<path d="M25 2750 c-3 -5 1 -10 10 -10 9 0 13 5 10 10 -3 6 -8 10 -10 10 -2 0
-7 -4 -10 -10z"/>
<path d="M407 2614 c-14 -14 -7 -35 11 -32 9 2 17 10 17 17 0 16 -18 25 -28
15z"/>
<path d="M2748 2408 c9 -9 15 -9 24 0 9 9 7 12 -12 12 -19 0 -21 -3 -12 -12z"/>
<path d="M2727 2375 c-8 -19 13 -31 24 -14 13 20 11 29 -5 29 -8 0 -16 -7 -19
-15z"/>
<path d="M1330 2275 c0 -8 5 -15 10 -15 6 0 10 7 10 15 0 8 -4 15 -10 15 -5 0
-10 -7 -10 -15z"/>
<path d="M4746 2273 c-11 -11 -6 -23 9 -23 8 0 15 4 15 9 0 13 -16 22 -24 14z"/>
<path d="M5400 2145 c0 -8 5 -15 10 -15 6 0 10 7 10 15 0 8 -4 15 -10 15 -5 0
-10 -7 -10 -15z"/>
<path d="M10 1970 c0 -5 7 -10 15 -10 8 0 15 5 15 10 0 6 -7 10 -15 10 -8 0
-15 -4 -15 -10z"/>
<path d="M3512 1841 c2 -7 7 -12 11 -12 12 1 9 15 -3 20 -7 2 -11 -2 -8 -8z"/>
<path d="M5220 1780 c0 -5 5 -10 10 -10 6 0 10 5 10 10 0 6 -4 10 -10 10 -5 0
-10 -4 -10 -10z"/>
<path d="M6256 1733 c-11 -11 -6 -23 9 -23 8 0 15 4 15 9 0 13 -16 22 -24 14z"/>
<path d="M1717 1663 c-8 -7 11 -33 24 -33 5 0 9 9 9 20 0 19 -20 27 -33 13z"/>
<path d="M2871 1616 c-1 -30 3 -46 8 -40 5 5 6 27 1 49 l-8 40 -1 -49z"/>
<path d="M2890 1620 c0 -5 5 -10 10 -10 15 0 12 -28 -6 -56 -21 -32 -13 -40
15 -15 21 18 22 23 11 55 -11 33 -30 50 -30 26z"/>
<path d="M2990 1511 c0 -6 5 -13 10 -16 6 -3 10 1 10 9 0 9 -4 16 -10 16 -5 0
-10 -4 -10 -9z"/>
<path d="M5612 1509 c2 -6 8 -10 13 -10 5 0 11 4 13 10 2 6 -4 11 -13 11 -9 0
-15 -5 -13 -11z"/>
<path d="M5980 1400 c0 -5 5 -10 10 -10 6 0 10 5 10 10 0 6 -4 10 -10 10 -5 0
-10 -4 -10 -10z"/>
<path d="M142 1359 c2 -6 8 -10 13 -10 5 0 11 4 13 10 2 6 -4 11 -13 11 -9 0
-15 -5 -13 -11z"/>
<path d="M2762 1359 c2 -6 8 -10 13 -10 5 0 11 4 13 10 2 6 -4 11 -13 11 -9 0
-15 -5 -13 -11z"/>
<path d="M4470 1360 c0 -5 5 -10 10 -10 6 0 10 5 10 10 0 6 -4 10 -10 10 -5 0
-10 -4 -10 -10z"/>
<path d="M4020 1199 c0 -5 5 -7 10 -4 6 3 10 8 10 11 0 2 -4 4 -10 4 -5 0 -10
-5 -10 -11z"/>
<path d="M6380 1110 c0 -5 5 -10 10 -10 6 0 10 5 10 10 0 6 -4 10 -10 10 -5 0
-10 -4 -10 -10z"/>
<path d="M2430 1039 c0 -7 -10 -9 -25 -5 -21 5 -25 3 -26 -16 0 -13 -2 -37 -4
-54 -3 -22 2 -38 16 -53 20 -21 23 -21 37 -7 18 18 26 80 9 69 -7 -4 -8 0 -3
13 14 34 17 64 6 64 -5 0 -10 -5 -10 -11z m-8 -27 c-7 -2 -10 -7 -7 -12 3 -4
-3 -10 -13 -12 -15 -4 -18 -1 -14 17 3 17 9 21 25 17 12 -3 16 -7 9 -10z"/>
<path d="M3080 976 c0 -9 5 -16 10 -16 6 0 10 4 10 9 0 6 -4 13 -10 16 -5 3
-10 -1 -10 -9z"/>
<path d="M1020 935 c0 -8 5 -15 10 -15 6 0 10 7 10 15 0 8 -4 15 -10 15 -5 0
-10 -7 -10 -15z"/>
<path d="M3640 934 c0 -9 5 -14 12 -12 18 6 21 28 4 28 -9 0 -16 -7 -16 -16z"/>
<path d="M2660 870 c0 -5 5 -10 11 -10 5 0 7 5 4 10 -3 6 -8 10 -11 10 -2 0
-4 -4 -4 -10z"/>
<path d="M2817 824 c-8 -8 1 -24 14 -24 5 0 9 7 9 15 0 15 -12 20 -23 9z"/>
<path d="M5440 815 c0 -9 5 -15 11 -13 6 2 11 8 11 13 0 5 -5 11 -11 13 -6 2
-11 -4 -11 -13z"/>
<path d="M4166 622 c-3 -6 -1 -14 5 -17 15 -10 25 3 12 16 -7 7 -13 7 -17 1z"/>
<path d="M2266 591 c-7 -11 18 -33 27 -24 4 3 7 12 7 20 0 15 -26 18 -34 4z"/>
<path d="M4890 586 c0 -8 4 -17 8 -20 13 -8 35 11 28 23 -10 16 -36 14 -36 -3z"/>
<path d="M4817 514 c-8 -8 1 -24 14 -24 5 0 9 7 9 15 0 15 -12 20 -23 9z"/>
</g>
</svg>
